<?xml version="1.0" encoding="UTF-8"?>
<svg width="16px" height="14px" viewBox="0 0 16 14" version="1.1" xmlns="http://www.w3.org/2000/svg" xmlns:xlink="http://www.w3.org/1999/xlink">
    <!-- Generator: Sketch 49.3 (51167) - http://www.bohemiancoding.com/sketch -->
    <title>点赞</title>
    <desc>Created with Sketch.</desc>
    <defs></defs>
    <g id="Page-1" stroke="none" stroke-width="1" fill="none" fill-rule="evenodd">
        <g id="个人中心_系统设置-copy" transform="translate(-18.000000, -103.000000)">
            <g id="item_01" transform="translate(18.000000, 74.000000)">
                <g id="点赞" transform="translate(0.000000, 29.000000)">
                    <path d="M10.1213923,8.29066319 C9.62576177,7.94129676 9.08655926,7.66433788 8.51649332,7.4670273 C9.72016759,6.73752122 10.4608902,5.43961587 10.4608902,4.02766863 C10.4608902,1.80837718 8.65084007,0.00180878553 6.42322569,0.00180878553 C4.19561131,0.00180878553 2.38556115,1.806567 2.38556115,4.02766863 C2.38556115,4.78251735 2.59797426,5.52107437 2.99919902,6.15826082 C3.33688139,6.69769707 3.80164853,7.15024427 4.34629753,7.47788843 C3.7653386,7.67519901 3.21524312,7.95577827 2.71416604,8.31057527 C2.16588606,8.69795567 1.68477945,9.16679456 1.2799237,9.70080025 C0.442979743,10.8122562 0.00181405896,12.1391245 0.00181405896,13.5311597 C0.00181405896,13.7918269 0.214227166,14.0018088 0.473843186,14.0018088 C0.735274703,14.0018088 0.945872314,13.7900167 0.945872314,13.5311597 C0.945872314,12.0775781 1.51412276,10.7108856 2.54532486,9.6772678 C3.57471145,8.64727038 4.93633394,8.07887111 6.37965377,8.07887111 C6.42685668,8.08430167 6.47587509,8.07887111 6.523078,8.06982016 L6.56120343,8.06076922 C7.96639783,8.08973224 9.28807939,8.65451114 10.292049,9.65916591 C11.3250666,10.6909735 11.8915016,12.0594762 11.8915016,13.5130578 C11.8915016,13.773725 12.1039147,13.9837069 12.3635307,13.9837069 C12.6249622,13.9837069 12.8355598,13.7719148 12.8355598,13.5130578 C12.8355598,12.1210226 12.3943941,10.7959645 11.5538192,9.68269836 C11.1525944,9.14688249 10.6678568,8.67804359 10.1213923,8.29066319 Z M6.42504118,0.946727327 C8.12979253,0.946727327 9.51683197,2.32971155 9.51683197,4.02947881 C9.51683197,5.72924608 8.12979253,7.1122303 6.42504118,7.1122303 C4.72028984,7.1122303 3.3332504,5.72924608 3.3332504,4.02947881 C3.3332504,2.32971155 4.72028984,0.946727327 6.42504118,0.946727327 Z" id="Shape" fill="#FF8200" fill-rule="nonzero"></path>
                    <path d="M15.0014473,9.09076663 C14.3950714,8.21825564 13.5762825,7.56296731 12.6249622,7.18463785 C13.0461574,6.88957708 13.3983638,6.49857631 13.6525333,6.03878836 C13.9484593,5.50840304 14.104592,4.9019898 14.104592,4.28833581 C14.104592,2.36772552 12.6140692,0.805532602 10.7804176,0.805532602 C10.5189861,0.805532602 10.3083885,1.01732469 10.3083885,1.27618168 C10.3083885,1.53684887 10.5208016,1.74683077 10.7804176,1.74683077 C12.0930217,1.74683077 13.1605337,2.88543951 13.1605337,4.28833581 C13.1605337,5.69123211 12.0912062,6.82803066 10.7786021,6.82803066 C10.5171706,6.82803066 10.306573,7.03982275 10.306573,7.29867974 L10.306573,7.30048993 C10.306573,7.56115712 10.5189861,7.77113902 10.7786021,7.77113902 C13.1387478,7.77113902 15.0577277,9.81303196 15.0577277,12.3219536 C15.0577277,12.5826208 15.2701408,12.7926027 15.5297569,12.7926027 C15.7911884,12.7926027 16.001786,12.5808106 16.001786,12.3219536 C16.005417,11.1525717 15.6568416,10.0356852 15.0014473,9.09076663 Z" id="Path" fill="#FFCC01"></path>
                    <path d="M3.50000001,14 C3.22000001,14 3,13.896875 3,13.765625 L3,11.234375 C3,11.103125 3.22000001,11 3.50000001,11 C3.78000001,11 4,11.103125 4,11.234375 L4,13.765625 C4,13.896875 3.78000001,14 3.50000001,14 Z" id="Shape" fill="#FFCC01" fill-rule="nonzero"></path>
                    <path d="M9.50000001,14 C9.22000001,14 9,13.896875 9,13.765625 L9,11.234375 C9,11.103125 9.22000001,11 9.50000001,11 C9.78000001,11 10,11.103125 10,11.234375 L10,13.765625 C10,13.896875 9.78000001,14 9.50000001,14 Z" id="Shape" fill="#FFCC01" fill-rule="nonzero"></path>
                </g>
            </g>
        </g>
    </g>
</svg>