<?xml version="1.0" encoding="UTF-8"?>
<svg width="16px" height="16px" viewBox="0 0 16 16" version="1.1" xmlns="http://www.w3.org/2000/svg" xmlns:xlink="http://www.w3.org/1999/xlink">
    <!-- Generator: Sketch 49.3 (51167) - http://www.bohemiancoding.com/sketch -->
    <title>Group</title>
    <desc>Created with Sketch.</desc>
    <defs></defs>
    <g id="Page-1" stroke="none" stroke-width="1" fill="none" fill-rule="evenodd">
        <g id="个人中心_系统设置-copy" transform="translate(-18.000000, -252.000000)" fill-rule="nonzero">
            <g id="item_04" transform="translate(18.000000, 224.000000)">
                <g id="Group" transform="translate(0.000000, 28.000000)">
                    <path d="M7.75,16 C3.47860125,16 0,12.6335441 0,8.49984944 C0,6.51912075 0.784707724,4.65582656 2.21659708,3.24661247 C2.49164927,2.97259861 2.94467641,2.97259861 3.2197286,3.2387835 C3.50287056,3.50496838 3.50287056,3.94339055 3.22781837,4.20957543 C2.06289144,5.3604336 1.42379958,6.8870822 1.42379958,8.49984944 C1.42379958,11.8741343 4.26330898,14.6221018 7.75,14.6221018 C11.236691,14.6221018 14.0762004,11.8741343 14.0762004,8.49984944 C14.0762004,6.8635953 13.420929,5.32911774 12.223643,4.17043059 C11.9485908,3.90424571 11.9485908,3.46582355 12.223643,3.19963866 C12.4986952,2.93345378 12.9517223,2.93345378 13.2267745,3.19963866 C14.691023,4.61668172 15.5,6.50346281 15.5,8.50767841 C15.5,12.6335441 12.0294885,16 7.75,16 Z" id="Shape" fill="#FF8200"></path>
                    <path d="M7.75,7 C7.33238636,7 7,6.68764302 7,6.29519451 L7,0.704805492 C7,0.312356979 7.33238636,0 7.75,0 C8.16761364,0 8.5,0.312356979 8.5,0.704805492 L8.5,6.29519451 C8.5,6.68764302 8.16761364,7 7.75,7 Z" id="Shape" fill="#FFCC01"></path>
                </g>
            </g>
        </g>
    </g>
</svg>