<?xml version="1.0" encoding="UTF-8"?>
<svg width="14px" height="16px" viewBox="0 0 14 16" version="1.1" xmlns="http://www.w3.org/2000/svg" xmlns:xlink="http://www.w3.org/1999/xlink">
    <!-- Generator: Sketch 49.3 (51167) - http://www.bohemiancoding.com/sketch -->
    <title>消息-3</title>
    <desc>Created with Sketch.</desc>
    <defs></defs>
    <g id="Page-1" stroke="none" stroke-width="1" fill="none" fill-rule="evenodd">
        <g id="个人中心_系统设置-copy" transform="translate(-19.000000, -174.000000)">
            <g id="item_02" transform="translate(18.000000, 146.000000)">
                <g id="消息-3" transform="translate(1.000000, 28.000000)">
                    <path d="M7.00032147,15.9989739 C6.9334558,15.9989739 6.86659013,15.9846092 6.80385534,15.9558798 L3.57184845,14.4866693 C1.36849598,13.4853066 0.000417910448,11.5831182 0.000417910448,9.52395992 L0.000417910448,2.55546293 C0.000417910448,2.41386774 0.0641974742,2.28048096 0.173223881,2.19020441 C0.282266361,2.09991182 0.426268657,2.064 0.565143513,2.09067735 C0.984822044,2.17276152 1.4158163,2.21380361 1.84682664,2.21380361 C3.27148335,2.21380361 4.66118025,1.75416433 5.66101493,0.953891784 L6.7019977,0.119743487 C6.87583238,-0.0197835671 7.12270494,-0.0197835671 7.29552698,0.119743487 L8.33650976,0.953907816 C9.33634443,1.75519038 10.7260253,2.21381964 12.150698,2.21381964 C12.5816923,2.21381964 13.0126866,2.17277756 13.4323812,2.09069339 C13.571256,2.06298998 13.7152583,2.09992786 13.8242847,2.19022044 C13.9333272,2.28049699 13.9971068,2.41388377 13.9971068,2.55546293 L13.9971068,9.52397595 C13.9971068,11.5831343 12.6290126,13.4853226 10.4256602,14.4866854 L7.19368542,15.9558958 C7.13402067,15.9846253 7.06717107,15.99899 7.0003054,15.99899 L7.00032147,15.9989739 Z M0.948817451,3.10845691 L0.948817451,9.52395992 C0.948817451,11.2086413 2.10501493,12.7804569 3.96479679,13.6258597 L6.99927669,15.0058196 L10.0337566,13.6258597 C11.8945832,12.7794309 13.0497359,11.2076152 13.0497359,9.52395992 L13.0497359,3.10845691 C12.7516846,3.14335664 12.451841,3.16082939 12.1517428,3.16078557 C10.4915132,3.16078557 8.92592423,2.63958317 7.74299656,1.69157515 L7.00032147,1.09547094 L6.25558898,1.69157515 C5.07367394,2.63855711 3.50808496,3.16078557 1.84787141,3.16078557 C1.54647761,3.16078557 1.24611251,3.14334269 0.948833525,3.10845691 L0.948817451,3.10845691 Z" id="Shape" fill="#FF8200" fill-rule="nonzero"></path>
                    <path d="M7,5 C5.34548847,5 4,6.3451771 4,8.00067289 C4,9.65480153 5.34548847,11 7,11 C8.65451153,11 10,9.65480153 10,8.00067289 C10,6.3451771 8.65451153,5.00002136 7,5.00002136 L7,5 Z M7.00001003,11.9999799 C4.79532825,11.9999799 3,10.2059396 3,7.99997995 C3,5.79402033 4.79404488,4 7.00001003,4 C9.20597517,4 11,5.79402033 11,7.99997995 C11,10.2059396 9.2046918,12 7.00001003,12 L7.00001003,11.9999799 Z M7.58261792,9.79402033 C7.9098561,9.79402033 8.17549273,9.52966773 8.17549273,9.20243037 C8.17549273,8.87519301 7.91113946,8.61082035 7.58390128,8.61082035 L7.20789521,8.61082035 C6.87167346,8.61082035 6.59833664,8.33748421 6.59833664,8.00126331 C6.59833664,7.66375905 6.87167346,7.39042291 7.20791526,7.39042291 L7.58390128,7.39042291 C7.91113946,7.39042291 8.17549273,7.1260703 8.17549273,6.79883294 C8.17549273,6.47159558 7.91113946,6.20724298 7.58390128,6.20724298 L7.20789521,6.20724298 C6.21848047,6.20724298 5.41387038,7.0118711 5.41387038,8.00126331 C5.41387038,8.98939221 6.21850052,9.79402033 7.20789521,9.79402033 L7.58261792,9.79402033 Z" id="Path" fill="#FFCC01"></path>
                </g>
            </g>
        </g>
    </g>
</svg>