<?xml version="1.0" encoding="UTF-8"?>
<svg width="72px" height="72px" viewBox="0 0 72 72" version="1.1" xmlns="http://www.w3.org/2000/svg" xmlns:xlink="http://www.w3.org/1999/xlink">
    <!-- Generator: Sketch 54.1 (76490) - https://sketchapp.com -->
    <title>Fill 1</title>
    <desc>Created with Sketch.</desc>
    <g id="页面1" stroke="none" stroke-width="1" fill="none" fill-rule="evenodd">
        <g id="主要切图和标注" transform="translate(-182.000000, -252.000000)" fill="#F55664">
            <path d="M218.00022,252 C198.115557,252 182,268.115557 182,288.00022 C182,307.884443 198.115557,324 218.00022,324 C237.884443,324 254,307.884443 254,288.00022 C254,268.115557 237.884443,252 218.00022,252 Z M232.435218,298.891463 C233.419506,299.882959 233.419506,301.48591 232.428362,302.470198 C231.935998,302.962562 231.289211,303.208744 230.642335,303.208744 C229.995195,303.208744 229.341552,302.962562 228.849188,302.463343 L218.00022,291.58581 L207.150812,302.463343 C206.658536,302.962562 206.004805,303.208744 205.358017,303.208744 C204.710789,303.208744 204.064002,302.962562 203.571989,302.470198 C202.580494,301.48591 202.580494,299.882959 203.564782,298.891463 L214.428252,288.00022 L203.564782,277.108624 C202.580494,276.117041 202.580494,274.51409 203.571989,273.529802 C204.563221,272.545513 206.166524,272.545513 207.150812,273.536657 L218.00022,284.41419 L228.849188,273.529802 C229.833476,272.538306 231.436779,272.538306 232.428362,273.522595 C233.419506,274.506883 233.419506,276.110186 232.435218,277.101769 L221.571748,288.00022 L232.435218,298.891463 Z" id="Fill-1"></path>
        </g>
    </g>
</svg>