<?xml version="1.0" encoding="UTF-8"?>
<svg width="121px" height="166px" viewBox="0 0 121 166" version="1.1" xmlns="http://www.w3.org/2000/svg" xmlns:xlink="http://www.w3.org/1999/xlink">
    <!-- Generator: Sketch 55 (78076) - https://sketchapp.com -->
    <title>蒙版复制 3</title>
    <desc>Created with Sketch.</desc>
    <defs>
        <linearGradient x1="23.4340978%" y1="50%" x2="76.5659022%" y2="100%" id="linearGradient-1">
            <stop stop-color="#48C6EF" offset="0%"></stop>
            <stop stop-color="#4190EA" offset="100%"></stop>
        </linearGradient>
        <rect id="path-2" x="0" y="0" width="121" height="166" rx="2"></rect>
        <text id="text-4" font-family="FontName" font-size="14" font-weight="normal" fill="#FFFFFF">
            <tspan x="17" y="114">住房租赁资讯</tspan>
        </text>
        <filter x="-0.6%" y="-10.7%" width="102.4%" height="121.4%" filterUnits="objectBoundingBox" id="filter-5">
            <feOffset dx="1" dy="1" in="SourceAlpha" result="shadowOffsetOuter1"></feOffset>
            <feColorMatrix values="0 0 0 0 0.062745098   0 0 0 0 0.454901961   0 0 0 0 0.788235294  0 0 0 1 0" type="matrix" in="shadowOffsetOuter1"></feColorMatrix>
        </filter>
        <text id="text-6" font-family="FontName" font-size="18" font-weight="normal" fill="#FFFFFF">
            <tspan x="17" y="141">热门及时</tspan>
        </text>
        <filter x="-0.7%" y="-8.3%" width="102.8%" height="116.7%" filterUnits="objectBoundingBox" id="filter-7">
            <feOffset dx="1" dy="1" in="SourceAlpha" result="shadowOffsetOuter1"></feOffset>
            <feColorMatrix values="0 0 0 0 0.062745098   0 0 0 0 0.454901961   0 0 0 0 0.788235294  0 0 0 1 0" type="matrix" in="shadowOffsetOuter1"></feColorMatrix>
        </filter>
        <linearGradient x1="100%" y1="35.7777778%" x2="0%" y2="65.4608122%" id="linearGradient-8">
            <stop stop-color="#FFFFFF" offset="0%"></stop>
            <stop stop-color="#FFFFFF" stop-opacity="0" offset="100%"></stop>
        </linearGradient>
        <linearGradient x1="100%" y1="35.9486137%" x2="0%" y2="65.2750984%" id="linearGradient-9">
            <stop stop-color="#FFFFFF" offset="0%"></stop>
            <stop stop-color="#FFFFFF" stop-opacity="0" offset="100%"></stop>
        </linearGradient>
        <linearGradient x1="9.3782717%" y1="35.5894947%" x2="111.408385%" y2="84.971007%" id="linearGradient-10">
            <stop stop-color="#FFFFFF" offset="0%"></stop>
            <stop stop-color="#FFFFFF" stop-opacity="0" offset="100%"></stop>
        </linearGradient>
        <linearGradient x1="9.3782717%" y1="36.0863711%" x2="111.408385%" y2="83.7652014%" id="linearGradient-11">
            <stop stop-color="#FFFFFF" offset="0%"></stop>
            <stop stop-color="#FFFFFF" stop-opacity="0" offset="100%"></stop>
        </linearGradient>
        <polygon id="path-12" points="-7.10542736e-15 0.766305419 82.0503622 0.766305419 82.0503622 60.7138623 -7.10542736e-15 60.7138623"></polygon>
        <filter x="-10.4%" y="-10.8%" width="120.7%" height="128.4%" filterUnits="objectBoundingBox" id="filter-14">
            <feOffset dx="0" dy="2" in="SourceAlpha" result="shadowOffsetOuter1"></feOffset>
            <feGaussianBlur stdDeviation="2.5" in="shadowOffsetOuter1" result="shadowBlurOuter1"></feGaussianBlur>
            <feColorMatrix values="0 0 0 0 0.204961591   0 0 0 0 0.621635302   0 0 0 0 0.996173469  0 0 0 1 0" type="matrix" in="shadowBlurOuter1"></feColorMatrix>
        </filter>
        <polygon id="path-15" points="-4.26325641e-14 59.4285714 79.4594595 59.4285714 79.4594595 -4.61852778e-14 -4.26325641e-14 -4.61852778e-14"></polygon>
        <path d="M32.4759971,12.3393504 C32.4759971,12.9123014 32.5657878,14.9279019 34.7400064,14.9279019 L35.7704621,14.9279019 C36.2728626,14.9279019 36.3754806,15.1105157 36.3754806,15.4666128 L36.3754806,15.66064 C36.3754806,16.0281504 36.1916234,16.1605455 35.6999122,16.1605455 C34.6373884,16.1605455 33.1964609,16.0760865 32.7389557,16.0281504 L32.7389557,17.8702677 C33.8827187,18.2857143 34.13285,18.2857143 36.2728626,18.2857143 C37.4059362,18.2857143 38.5945946,17.8223316 38.5945946,15.5510717 L38.5945946,15.1470385 C38.5945946,14.1700543 38.194812,12.558487 36.454582,12.558487 L35.3813689,12.558487 C34.7635231,12.558487 34.6951111,12.3507637 34.6951111,11.97184 L34.6951111,11.8394449 C34.6951111,11.3258434 34.9238637,11.300734 35.5417095,11.300734 C36.2963792,11.300734 37.5534496,11.3395395 38.2867406,11.4239984 L38.2867406,9.57959836 C37.4401422,9.24861073 36.4310654,9.06371419 34.7400064,9.17556518 C33.4594195,9.26230677 32.4759971,9.9950449 32.4759971,11.5951989 L32.4759971,12.3393504 Z M20.8096146,9.24861073 L23.176242,18.176146 L25.8528611,18.176146 L26.5284296,15.2634548 L27.2937887,18.176146 L29.9704079,18.176146 L32.0184919,9.24861073 L29.6860705,9.24861073 L28.6449255,15.2748682 L27.4776459,11.1021414 L27.9009451,9.24861073 L25.5685238,9.24861073 L24.5273788,15.2748682 L23.1441738,9.24861073 L20.8096146,9.24861073 Z M14.4964705,16.2244603 C14.4964705,18.0916871 15.9993965,18.2491915 16.7391011,18.2263648 C16.7391011,18.2263648 19.1869677,18.189842 20.3627988,18.0186415 L20.3627988,16.0395638 L17.4253589,16.0395638 C17.0939883,16.0395638 16.7155845,16.0509771 16.7155845,15.4049806 L16.7155845,14.8685524 L19.7919862,14.7589841 L19.7919862,12.7913197 L16.7155845,12.656642 L16.7155845,12.1202137 C16.7155845,11.7892261 16.7155845,11.4354117 17.3099137,11.4354117 L20.3627988,11.4354117 L20.3627988,9.44492063 C19.0266271,9.24861073 16.6236559,9.24861073 16.6236559,9.24861073 C15.8155392,9.24861073 14.4964705,9.48600875 14.4964705,11.3258434 L14.4964705,16.2244603 Z M6.81081081,18.176146 L9.04275204,18.176146 L9.04275204,13.7386291 L11.4435854,18.176146 L13.6626994,18.176146 L13.6626994,9.24861073 L11.4435854,9.24861073 L11.4435854,13.8116746 L9.05344141,9.24861073 L6.81081081,9.24861073 L6.81081081,18.176146 Z" id="path-17"></path>
        <filter x="-22.0%" y="-54.7%" width="144.0%" height="253.1%" filterUnits="objectBoundingBox" id="filter-18">
            <feOffset dx="0" dy="2" in="SourceAlpha" result="shadowOffsetOuter1"></feOffset>
            <feGaussianBlur stdDeviation="2" in="shadowOffsetOuter1" result="shadowBlurOuter1"></feGaussianBlur>
            <feColorMatrix values="0 0 0 0 0.215686275   0 0 0 0 0.615686275   0 0 0 0 0.941176471  0 0 0 1 0" type="matrix" in="shadowBlurOuter1"></feColorMatrix>
        </filter>
    </defs>
    <g id="61改版" stroke="none" stroke-width="1" fill="none" fill-rule="evenodd">
        <g id="发现-政策资讯" transform="translate(-15.000000, -128.000000)">
            <g id="编组-2" transform="translate(15.000000, 88.000000)">
                <g id="蒙版复制-3" transform="translate(0.000000, 40.000000)">
                    <mask id="mask-3" fill="white">
                        <use xlink:href="#path-2"></use>
                    </mask>
                    <use id="蒙版复制-2" fill="url(#linearGradient-1)" xlink:href="#path-2"></use>
                    <g id="住房租赁资讯" mask="url(#mask-3)" fill="#FFFFFF" fill-opacity="1">
                        <use filter="url(#filter-5)" xlink:href="#text-4"></use>
                        <use xlink:href="#text-4"></use>
                    </g>
                    <g id="热门及时" mask="url(#mask-3)" fill="#FFFFFF" fill-opacity="1">
                        <use filter="url(#filter-7)" xlink:href="#text-6"></use>
                        <use xlink:href="#text-6"></use>
                    </g>
                    <polygon id="矩形" fill="url(#linearGradient-8)" opacity="0.235072545" mask="url(#mask-3)" points="99.4866593 126 46 149.460769 157.513341 214 211 190.539231"></polygon>
                    <polygon id="矩形-copy-3" fill="url(#linearGradient-9)" opacity="0.228073847" mask="url(#mask-3)" points="125.810821 104 72 127.460769 184.189179 192 238 168.539231"></polygon>
                    <polygon id="矩形-copy" fill="url(#linearGradient-10)" opacity="0.375883557" mask="url(#mask-3)" points="-65.7609783 -48 64 36.3410409 1.76097828 67 -128 -17.3410409"></polygon>
                    <polygon id="矩形-copy-4" fill="url(#linearGradient-11)" opacity="0.177362351" mask="url(#mask-3)" points="-48.7609783 -13 81 69.8742402 18.7609783 100 -111 17.1257598"></polygon>
                    <g id="Group-6" mask="url(#mask-3)">
                        <g transform="translate(19.000000, 21.000000)" id="Group">
                            <g>
                                <g id="Group-3">
                                    <mask id="mask-13" fill="white">
                                        <use xlink:href="#path-12"></use>
                                    </mask>
                                    <g id="Clip-2" fill="black" fill-opacity="1">
                                        <use filter="url(#filter-14)" xlink:href="#path-12"></use>
                                    </g>
                                </g>
                                <g id="编组-5" transform="translate(2.270270, 1.285714)">
                                    <mask id="mask-16" fill="white">
                                        <use xlink:href="#path-15"></use>
                                    </mask>
                                    <use id="Clip-17" fill="#1074C9" xlink:href="#path-15"></use>
                                    <polygon id="Fill-4" fill="#A9DFFF" mask="url(#mask-16)" points="2.31788823 57.1428571 77.1891892 57.0741198 77.1415712 2.28571429 2.27027027 2.35682189"></polygon>
                                    <g id="Fill-10" mask="url(#mask-16)">
                                        <use fill="black" fill-opacity="1" filter="url(#filter-18)" xlink:href="#path-17"></use>
                                        <use fill="#FFFFFF" fill-rule="evenodd" xlink:href="#path-17"></use>
                                    </g>
                                    <path d="M70.2411209,9.14285714 C71.5663655,9.14285714 72.6486486,10.0769689 72.6486486,11.2207792 L72.6486486,16.2096986 C72.6486486,17.3516025 71.5663655,18.2857143 70.2411209,18.2857143 L43.2723926,18.2857143 C41.947148,18.2857143 40.8648649,17.3516025 40.8648649,16.2096986 L40.8648649,11.2207792 C40.8648649,10.0769689 41.947148,9.14285714 43.2723926,9.14285714 L70.2411209,9.14285714 Z" id="Fill-12" fill="#1074C9" mask="url(#mask-16)"></path>
                                    <path d="M66.5884873,14.9817025 C66.5884873,15.9254461 67.5593612,16.0054552 68.0360907,15.9945448 C68.0360907,15.9945448 69.6164818,15.9745426 70.3783784,15.8890783 L70.3783784,14.8889647 L68.4801676,14.8889647 C68.2668366,14.8889647 68.0208528,14.8962382 68.0208528,14.5671099 L68.0208528,14.2979884 L70.0083143,14.2416184 L70.0083143,13.2487783 L68.0208528,13.1796795 L68.0208528,12.9087396 C68.0208528,12.7432663 68.0208528,12.5632458 68.4061548,12.5632458 L70.3783784,12.5632458 L70.3783784,11.557677 C69.51417,11.459484 67.9620779,11.459484 67.9620779,11.459484 C67.4418114,11.459484 66.5884873,11.5776793 66.5884873,12.5086942 L66.5884873,14.9817025 Z M61.6274525,15.9690874 L63.0663485,15.9690874 L63.0663485,13.7270144 L64.6184406,15.9690874 L66.0486292,15.9690874 L66.0486292,11.459484 L64.6184406,11.459484 L64.6184406,13.7633822 L63.072879,11.459484 L61.6274525,11.459484 L61.6274525,15.9690874 Z M59.6182225,15.9690874 L61.0505879,15.9690874 L61.0505879,11.459484 L59.6182225,11.459484 L59.6182225,15.9690874 Z M55.7325501,15.0053415 C55.7325501,15.7036027 56.2876462,15.9690874 56.960292,15.9690874 L59.1458466,15.9690874 L59.1458466,14.8962382 L57.6242304,14.8962382 C57.4108994,14.8962382 57.1649156,14.9016934 57.1649156,14.5743835 L57.1649156,11.459484 L55.7325501,11.459484 L55.7325501,15.0053415 Z M52.9353014,14.6598477 L55.2536437,14.6598477 L55.2536437,13.7106489 L52.9353014,13.7106489 L52.9353014,14.6598477 Z M48.1201153,15.9690874 L49.5590113,15.9690874 L49.5590113,13.7270144 L51.1111034,15.9690874 L52.5434689,15.9690874 L52.5434689,11.459484 L51.1111034,11.459484 L51.1111034,13.7633822 L49.5677187,11.459484 L48.1201153,11.459484 L48.1201153,15.9690874 Z M44.5675006,13.7470167 C44.5675006,12.6432549 44.7220568,12.5014206 45.3707573,12.5014206 C46.0434031,12.5014206 46.1783676,12.699625 46.1783676,13.7470167 C46.1783676,14.703489 46.0063966,14.9271508 45.3707573,14.9271508 C44.648044,14.9271508 44.5675006,14.6907603 44.5675006,13.7470167 L44.5675006,13.7470167 Z M43.1351351,13.7470167 C43.1351351,15.8017957 44.0428804,16 45.3707573,16 C46.7008109,16 47.6107331,15.7399705 47.6107331,13.7470167 C47.6107331,11.6322309 46.6485666,11.4285714 45.3707573,11.4285714 C44.1321312,11.4285714 43.1351351,11.6322309 43.1351351,13.7470167 L43.1351351,13.7470167 Z" id="Fill-14" fill="#FFFFFF" mask="url(#mask-16)"></path>
                                    <polygon id="Fill-16" fill="#1074C9" opacity="0.675725446" mask="url(#mask-16)" points="20.4324324 24.6011429 38.5945946 24.6011429 38.5945946 22.8571429 20.4324324 22.8571429"></polygon>
                                    <polygon id="Fill-18" fill="#1074C9" opacity="0.675725446" mask="url(#mask-16)" points="6.81081081 29.1725714 38.5945946 29.1725714 38.5945946 27.4285714 6.81081081 27.4285714"></polygon>
                                    <polygon id="Fill-19" fill="#1074C9" opacity="0.675725446" mask="url(#mask-16)" points="6.81081081 33.744 38.5945946 33.744 38.5945946 32 6.81081081 32"></polygon>
                                    <polygon id="Fill-20" fill="#1074C9" opacity="0.675725446" mask="url(#mask-16)" points="6.81081081 38.3154286 38.5945946 38.3154286 38.5945946 36.5714286 6.81081081 36.5714286"></polygon>
                                    <polygon id="Fill-21" fill="#1074C9" opacity="0.675725446" mask="url(#mask-16)" points="6.81081081 45.1725714 38.5945946 45.1725714 38.5945946 43.4285714 6.81081081 43.4285714"></polygon>
                                    <polygon id="Fill-22" fill="#1074C9" opacity="0.675725446" mask="url(#mask-16)" points="6.81081081 49.744 38.5945946 49.744 38.5945946 48 6.81081081 48"></polygon>
                                    <polygon id="Fill-23" fill="#1074C9" opacity="0.675725446" mask="url(#mask-16)" points="43.1351351 29.1725714 72.6486486 29.1725714 72.6486486 27.4285714 43.1351351 27.4285714"></polygon>
                                    <polygon id="Fill-24" fill="#1074C9" opacity="0.675725446" mask="url(#mask-16)" points="43.1351351 33.744 72.6486486 33.744 72.6486486 32 43.1351351 32"></polygon>
                                    <polygon id="Fill-25" fill="#1074C9" opacity="0.675725446" mask="url(#mask-16)" points="43.1351351 38.3154286 72.6486486 38.3154286 72.6486486 36.5714286 43.1351351 36.5714286"></polygon>
                                    <polygon id="Fill-26" fill="#1074C9" opacity="0.675725446" mask="url(#mask-16)" points="43.1351351 45.1725714 72.6486486 45.1725714 72.6486486 43.4285714 43.1351351 43.4285714"></polygon>
                                    <polygon id="Fill-27" fill="#1074C9" opacity="0.675725446" mask="url(#mask-16)" points="43.1351351 49.744 72.6486486 49.744 72.6486486 48 43.1351351 48"></polygon>
                                </g>
                            </g>
                        </g>
                    </g>
                </g>
            </g>
        </g>
    </g>
</svg>