<?xml version="1.0" encoding="UTF-8"?>
<svg width="121px" height="166px" viewBox="0 0 121 166" version="1.1" xmlns="http://www.w3.org/2000/svg" xmlns:xlink="http://www.w3.org/1999/xlink">
    <!-- Generator: Sketch 55 (78076) - https://sketchapp.com -->
    <title>蒙版复制 3</title>
    <desc>Created with Sketch.</desc>
    <defs>
        <linearGradient x1="37.312205%" y1="123.87985%" x2="62.687795%" y2="23.8798497%" id="linearGradient-1">
            <stop stop-color="#FCB27D" offset="0%"></stop>
            <stop stop-color="#FED557" offset="100%"></stop>
        </linearGradient>
        <rect id="path-2" x="0" y="0" width="121" height="166" rx="2"></rect>
        <path d="M29.5,12.5531915 C20.1550983,12.5531915 12.5531915,20.1557962 12.5531915,29.4991607 C12.5531915,38.8442038 20.1550983,46.4468085 29.5,46.4468085 C38.8440629,46.4468085 46.4468085,38.8442038 46.4468085,29.4991607 C46.4468085,20.1557962 38.8440629,12.5531915 29.5,12.5531915" id="path-4"></path>
        <filter x="-25.1%" y="-19.2%" width="150.2%" height="150.2%" filterUnits="objectBoundingBox" id="filter-5">
            <feOffset dx="0" dy="2" in="SourceAlpha" result="shadowOffsetOuter1"></feOffset>
            <feGaussianBlur stdDeviation="2.5" in="shadowOffsetOuter1" result="shadowBlurOuter1"></feGaussianBlur>
            <feColorMatrix values="0 0 0 0 1   0 0 0 0 0.631372549   0 0 0 0 0.22745098  0 0 0 0.5 0" type="matrix" in="shadowBlurOuter1"></feColorMatrix>
        </filter>
        <polygon id="path-6" points="0.838559724 0.307647179 48.6605986 0.307647179 48.6605986 58.6420634 0.838559724 58.6420634"></polygon>
        <text id="text-8" font-family="FontName" font-size="14" font-weight="normal" fill="#FFFFFF">
            <tspan x="17" y="114">公租配套商铺</tspan>
        </text>
        <filter x="-0.6%" y="-10.7%" width="102.4%" height="121.4%" filterUnits="objectBoundingBox" id="filter-9">
            <feOffset dx="1" dy="1" in="SourceAlpha" result="shadowOffsetOuter1"></feOffset>
            <feColorMatrix values="0 0 0 0 0.788235294   0 0 0 0 0.455494352   0 0 0 0 0.062745098  0 0 0 1 0" type="matrix" in="shadowOffsetOuter1"></feColorMatrix>
        </filter>
        <text id="text-10" font-family="FontName" font-size="18" font-weight="normal" fill="#FFFFFF">
            <tspan x="17" y="141">旺铺出租</tspan>
        </text>
        <filter x="-0.7%" y="-8.3%" width="102.8%" height="116.7%" filterUnits="objectBoundingBox" id="filter-11">
            <feOffset dx="1" dy="1" in="SourceAlpha" result="shadowOffsetOuter1"></feOffset>
            <feColorMatrix values="0 0 0 0 0.851534194   0 0 0 0 0.541734754   0 0 0 0 0.129352717  0 0 0 1 0" type="matrix" in="shadowOffsetOuter1"></feColorMatrix>
        </filter>
        <linearGradient x1="100%" y1="35.7777778%" x2="0%" y2="65.4608122%" id="linearGradient-12">
            <stop stop-color="#FFFFFF" offset="0%"></stop>
            <stop stop-color="#FFFFFF" stop-opacity="0" offset="100%"></stop>
        </linearGradient>
        <linearGradient x1="100%" y1="35.9486137%" x2="0%" y2="65.2750984%" id="linearGradient-13">
            <stop stop-color="#FFFFFF" offset="0%"></stop>
            <stop stop-color="#FFFFFF" stop-opacity="0" offset="100%"></stop>
        </linearGradient>
        <linearGradient x1="9.3782717%" y1="35.5894947%" x2="111.408385%" y2="84.971007%" id="linearGradient-14">
            <stop stop-color="#FFFFFF" offset="0%"></stop>
            <stop stop-color="#FFFFFF" stop-opacity="0" offset="100%"></stop>
        </linearGradient>
        <linearGradient x1="9.3782717%" y1="36.0863711%" x2="111.408385%" y2="83.7652014%" id="linearGradient-15">
            <stop stop-color="#FFFFFF" offset="0%"></stop>
            <stop stop-color="#FFFFFF" stop-opacity="0" offset="100%"></stop>
        </linearGradient>
    </defs>
    <g id="61改版" stroke="none" stroke-width="1" fill="none" fill-rule="evenodd">
        <g id="发现-政策资讯" transform="translate(-15.000000, -868.000000)">
            <g id="编组-2复制-3" transform="translate(15.000000, 828.000000)">
                <g id="蒙版复制-3" transform="translate(0.000000, 40.000000)">
                    <mask id="mask-3" fill="white">
                        <use xlink:href="#path-2"></use>
                    </mask>
                    <use id="蒙版复制-2" fill="url(#linearGradient-1)" xlink:href="#path-2"></use>
                    <g id="编组-6" mask="url(#mask-3)">
                        <g transform="translate(24.020148, 19.695331)">
                            <circle id="椭圆形" stroke-opacity="0.485030594" stroke="#FFA65B" stroke-width="1" fill="#FFFFFF" fill-rule="evenodd" opacity="0.63188244" cx="35.4798517" cy="34.8046694" r="34.5"></circle>
                            <g id="Group" stroke="none" stroke-width="1" fill="none" fill-rule="evenodd" transform="translate(5.979852, 5.304669)">
                                <g id="Fill-1">
                                    <use fill="black" fill-opacity="1" filter="url(#filter-5)" xlink:href="#path-4"></use>
                                    <use fill="#FFFFFF" fill-rule="evenodd" xlink:href="#path-4"></use>
                                </g>
                                <path d="M1.81071987,22.0479946 C1.34057442,21.9009925 1.07694146,21.3860284 1.21754571,20.9002822 C1.75623573,19.049516 2.47243861,17.2507941 3.34945761,15.5515954 C3.58145462,15.1032845 4.11926586,14.9325429 4.55162392,15.1726768 C4.98398198,15.4118977 5.14655564,15.9725146 4.91631619,16.4208255 C4.09466012,18.0131966 3.42151728,19.6996125 2.91709955,21.4325943 C2.77473775,21.9229058 2.27559267,22.1968229 1.81071987,22.0479946 M0.136650553,32.3637105 C-0.0452561923,30.4417259 -0.0452561923,28.4841321 0.134893,26.5758434 C0.182346933,26.0709229 0.613826218,25.7057002 1.10506231,25.7495269 C1.59278329,25.798832 1.94956657,26.2498821 1.90211263,26.7566286 C1.73338754,28.5489591 1.73338754,30.3741597 1.90387019,32.1838383 C1.95132412,32.6896718 1.59454084,33.1398088 1.10681986,33.19094 C0.597129463,33.2375059 0.18322571,32.854022 0.136650553,32.3637105 M3.35824537,43.3888715 C2.48122638,41.6887598 1.76238716,39.8891248 1.22369714,38.0420108 C1.08133534,37.5516993 1.34672586,37.0394745 1.81511376,36.8915592 C2.28701676,36.7445571 2.7800104,37.0193872 2.92325098,37.5069595 C3.42766872,39.2381153 4.10081155,40.9236181 4.9233464,42.5178153 C5.15534341,42.9661262 4.99189097,43.5240039 4.56041169,43.765964 C4.12629607,44.007011 3.58848483,43.8344433 3.35824537,43.3888715 M10.4069121,52.282958 C9.01844511,51.0987233 7.68094721,49.7291381 6.46384169,48.1961157 C6.15099724,47.8035012 6.20460261,47.2227971 6.5833553,46.8986619 C6.96122921,46.5745268 7.52276743,46.6311363 7.83209677,47.0246638 C8.91738581,48.3887707 10.1432791,49.6725285 11.5335036,50.8595024 C11.9131351,51.1827245 11.9676192,51.7625156 11.6556535,52.1560431 C11.347203,52.5486575 10.7830284,52.6061801 10.4069121,52.282958 M20.195604,57.7056024 C18.4108088,57.1477247 16.6769827,56.4054095 15.0424583,55.497831 C14.6092215,55.2576971 14.4457691,54.7007324 14.6777661,54.2515085 C14.9071267,53.8004584 15.4466955,53.6324559 15.8781748,53.8725899 C17.4107611,54.7217327 19.0347402,55.417482 20.707052,55.9397505 C21.1771974,56.0867527 21.4434667,56.6026298 21.3028625,57.088376 C21.1613794,57.571383 20.6710221,57.8526045 20.195604,57.7056024" id="Fill-5" fill="#FFCD45"></path>
                                <g id="Group-9" transform="translate(10.042553, 0.000000)">
                                    <mask id="mask-7" fill="white">
                                        <use xlink:href="#path-6"></use>
                                    </mask>
                                    <g id="Clip-8"></g>
                                    <path d="M40.3760806,8.88802626 C30.1308606,-1.68024078 14.1383861,-2.51837635 2.97171702,6.55044901 L3.31616763,4.32293908 C3.39135228,3.82763614 3.06438647,3.36030113 2.58268017,3.28090831 C2.10272234,3.19880891 1.64724324,3.53983717 1.57118435,4.03604229 L0.849936246,8.70217488 C0.766883435,9.2398808 1.14717789,9.74420565 1.70931429,9.75322756 C1.71368549,9.75322756 1.71805669,9.75593414 1.72242789,9.75593414 L1.73641573,9.75593414 L6.37425957,9.68105227 C6.86208556,9.67293255 7.25199666,9.25882682 7.2441285,8.75630635 C7.23626033,8.25378588 6.79826603,7.86855027 6.34628389,7.85952835 L4.16855175,7.89471381 C14.6314575,-0.514609828 29.5538622,0.301873156 39.1276657,10.1763552 C49.48304,20.8555918 49.4821657,38.1388675 39.1276657,48.8172018 C34.122641,53.9786374 27.4696737,56.8214416 20.3944484,56.8214416 C19.9057482,56.8214416 19.5105916,57.2274277 19.5105916,57.7317525 C19.5105916,58.2351752 19.9057482,58.6420634 20.3944484,58.6420634 C27.9426376,58.6420634 35.0397189,55.6097989 40.3760806,50.1055308 C51.4221046,38.7135632 51.4221046,20.2799938 40.3760806,8.88802626" id="Fill-7" fill="#FF8E13" mask="url(#mask-7)"></path>
                                </g>
                            </g>
                            <path d="M44.2996351,40.8667109 L43.636534,40.8667109 L43.6365341,35.1551294 L42.5478449,35.1551294 L42.5478449,40.8667109 L35.4144115,40.8667109 L35.4144115,34.8716765 L34.714704,34.8716765 L34.714704,40.8667109 L30.6130961,40.8667109 L30.6130961,35.1551294 L29.6608631,35.1551294 L29.6608631,40.8667109 L28.6597567,40.8667109 C28.2839572,40.8667109 27.9798517,41.1942307 27.9798517,41.5856191 C27.9798517,41.9764193 28.2839572,42.3046694 28.6597567,42.3046694 L44.2996351,42.3046694 C44.6754151,42.3046694 44.9798517,41.976399 44.9798517,41.5856191 C44.9798517,41.1942104 44.6754152,40.8667109 44.2996351,40.8667109 L44.2996351,40.8667109 Z M36.1854819,37.7316873 L36.426013,37.9820088 L38.9731546,35.3279481 L38.7020338,35.1093784 L36.1854819,37.7316873 Z M41.6930861,37.0993508 L41.4222768,36.8805985 L38.9057054,39.5031102 L39.1462561,39.753594 L41.6930861,37.0993508 Z M40.8536513,35.49466 L40.6128086,35.2441763 L36.5258822,39.5031102 L36.7661213,39.753594 L40.8536513,35.49466 Z M32.8258541,39.1962443 C32.8258541,39.5475018 33.0975785,39.8312387 33.4340651,39.8312387 C33.7705711,39.8312387 34.0440869,39.5475018 34.0440869,39.1962443 C34.0440869,38.9712431 33.8983429,38.7745243 33.7621789,38.6618614 L33.7621789,36.543117 C33.8983429,36.430454 34.0440869,36.2337352 34.0440869,36.0082674 C34.0440869,35.6574765 33.7705711,35.3734353 33.4340651,35.3734353 C33.0978706,35.3734353 32.8258541,35.6574765 32.8258541,36.0082674 C32.8258541,36.2207708 32.9458178,36.4075076 33.0819819,36.5231123 L33.0819819,38.681866 C32.9458178,38.797349 32.8258541,38.9840453 32.8258541,39.1962443 L32.8258541,39.1962443 Z M29.6359786,34.3863921 C30.3017667,34.3863921 30.8455271,33.879196 30.8914214,33.0287361 L31.1295381,33.0287361 C31.1757244,33.879196 31.7191733,34.3863921 32.3855651,34.3863921 C33.0513727,34.3863921 33.5948216,33.879196 33.6406964,33.0287361 L33.8791441,33.0287361 C33.9250189,33.879196 34.4687598,34.3863921 35.1345675,34.3863921 C35.8003946,34.3863921 36.3441355,33.879196 36.3906334,33.0287361 L36.6284385,33.0287361 C36.6743328,33.879196 37.2183658,34.3863921 37.8841929,34.3863921 C38.5499811,34.3863921 39.0937415,33.879196 39.1396163,33.0287361 L39.3774604,33.0287361 C39.4239388,33.879196 39.9673876,34.3863921 40.6334874,34.3863921 C41.2993144,34.3863921 41.8430359,33.879196 41.8895533,33.0287361 L42.1270469,33.0287361 C42.1729412,33.879196 42.7170131,34.3863921 43.3825092,34.3863921 C44.0486089,34.3863921 44.5926614,33.879196 44.6385362,33.0287361 L44.5890592,33.0287361 L44.5890592,32.724954 L28.2809781,32.724954 L28.2809781,33.0287361 L28.3805552,33.0287361 C28.4261379,33.879196 28.9701709,34.3863921 29.6359786,34.3863921 L29.6359786,34.3863921 Z M29.6608631,26.3046694 L43.228373,26.3046694 L43.228373,27.0134131 L29.6608631,27.0134131 L29.6608631,26.3046694 L29.6608631,26.3046694 Z M43.0670129,27.4387242 L29.8921063,27.4387242 L28.3196484,32.2996632 L44.6397434,32.2996632 L43.0670129,27.4387242 L43.0670129,27.4387242 Z M31.092367,32.0160684 L30.4127541,32.0160684 L31.4327479,27.742628 L32.1126529,27.742628 L31.092367,32.0160684 L31.092367,32.0160684 Z M33.8125711,32.0160684 L33.1326661,32.0160684 L33.7645934,27.742628 L34.4441868,27.742628 L33.8125711,32.0160684 L33.8125711,32.0160684 Z M36.7748251,32.0160684 L36.0946085,32.0160684 L36.0946085,27.7426483 L36.7748251,27.7426483 L36.7748251,32.0160684 L36.7748251,32.0160684 Z M39.1999,32.0160684 L38.5676806,27.7426483 L39.2481892,27.7426483 L39.8795323,32.0160887 L39.1999,32.0160887 L39.1999,32.0160684 Z M41.9195199,32.0160684 L40.8998182,27.742628 L41.5797232,27.742628 L42.5994248,32.0160684 L41.9195199,32.0160684 L41.9195199,32.0160684 Z" id="形状" stroke="none" fill="#F98D15" fill-rule="nonzero"></path>
                        </g>
                    </g>
                    <g id="公租配套商铺" mask="url(#mask-3)" fill="#FFFFFF" fill-opacity="1">
                        <use filter="url(#filter-9)" xlink:href="#text-8"></use>
                        <use xlink:href="#text-8"></use>
                    </g>
                    <g id="旺铺出租" mask="url(#mask-3)" fill="#FFFFFF" fill-opacity="1">
                        <use filter="url(#filter-11)" xlink:href="#text-10"></use>
                        <use xlink:href="#text-10"></use>
                    </g>
                    <polygon id="矩形" fill="url(#linearGradient-12)" opacity="0.235072545" mask="url(#mask-3)" points="99.4866593 126 46 149.460769 157.513341 214 211 190.539231"></polygon>
                    <polygon id="矩形-copy-3" fill="url(#linearGradient-13)" opacity="0.228073847" mask="url(#mask-3)" points="125.810821 104 72 127.460769 184.189179 192 238 168.539231"></polygon>
                    <polygon id="矩形-copy" fill="url(#linearGradient-14)" opacity="0.375883557" mask="url(#mask-3)" points="-65.7609783 -48 64 36.3410409 1.76097828 67 -128 -17.3410409"></polygon>
                    <polygon id="矩形-copy-4" fill="url(#linearGradient-15)" opacity="0.177362351" mask="url(#mask-3)" points="-48.7609783 -13 81 69.8742402 18.7609783 100 -111 17.1257598"></polygon>
                </g>
            </g>
        </g>
    </g>
</svg>