<?xml version="1.0" encoding="UTF-8"?>
<svg width="16px" height="16px" viewBox="0 0 16 16" version="1.1" xmlns="http://www.w3.org/2000/svg" xmlns:xlink="http://www.w3.org/1999/xlink">
    <!-- Generator: Sketch 54.1 (76490) - https://sketchapp.com -->
    <title>btn_search</title>
    <desc>Created with Sketch.</desc>
    <g id="61改版" stroke="none" stroke-width="1" fill="none" fill-rule="evenodd">
        <g id="首页" transform="translate(-327.000000, -252.000000)" fill="#4B7EF4" fill-rule="nonzero">
            <g id="搜索" transform="translate(16.000000, 242.000000)">
                <path d="M326.664754,24.0509335 L323.454069,20.8242089 C323.398439,20.7683202 323.329181,20.740929 323.264479,20.6987168 C325.129817,18.0482183 324.898206,14.3628248 322.536754,11.9895763 C319.898292,9.3368079 315.619288,9.3368079 312.979687,11.9895763 C310.340104,14.6412193 310.340104,18.9404349 312.979687,21.594386 C315.367236,23.9938812 319.084285,24.1992579 321.728403,22.2584507 C321.770406,22.3188983 321.796522,22.3850873 321.848735,22.4387062 L325.059402,25.6654116 C325.504441,26.1115295 326.221974,26.1115295 326.664754,25.6654116 C327.107535,25.2181684 327.107535,24.4959068 326.664754,24.0509335 L326.664754,24.0509335 Z M321.184593,20.2332001 C319.293158,22.134065 316.226681,22.134065 314.334126,20.2332001 C312.44269,18.3323352 312.44269,15.2493953 314.334126,13.3484923 C316.225542,11.4476274 319.292038,11.4476274 321.184593,13.3484923 C323.077148,15.2505208 323.077148,18.3323161 321.184593,20.2332001 L321.184593,20.2332001 Z" id="btn_search"></path>
            </g>
        </g>
    </g>
</svg>