<?xml version="1.0" encoding="UTF-8"?>
<svg width="12px" height="14px" viewBox="0 0 12 14" version="1.1" xmlns="http://www.w3.org/2000/svg" xmlns:xlink="http://www.w3.org/1999/xlink">
    <!-- Generator: Sketch 55 (78076) - https://sketchapp.com -->
    <title>公司</title>
    <desc>Created with Sketch.</desc>
    <g id="61改版" stroke="none" stroke-width="1" fill="none" fill-rule="evenodd">
        <g id="物业通知" transform="translate(-34.000000, -259.000000)" fill-rule="nonzero">
            <g id="编组-3" transform="translate(15.686594, 128.000000)">
                <g id="公司" transform="translate(16.313406, 130.000000)">
                    <rect id="矩形" fill="#000000" opacity="0" x="0" y="0" width="16" height="16"></rect>
                    <path d="M3.1671875,12.9703125 L3.1671875,4.0234375 C3.1671875,3.9265625 3.2296875,3.8390625 3.3234375,3.80625 L8.49375,1.9515625 C8.6515625,1.896875 8.8171875,2.0078125 8.815625,2.16875 L8.81563597,12.9703125 L9.23125,12.9703125 L9.23125,3.5109375 C9.23125,3.3359375 9.425,3.221875 9.584375,3.30625 L12.9734375,5.08125 C13.05,5.121875 13.0984375,5.2 13.096875,5.2859375 L13.0969117,12.9703125 L13.6875,12.9703125 C13.81875,12.9703125 13.925,13.0953125 13.925,13.246875 L13.925,13.7984375 C13.925,13.9515625 13.81875,14.075 13.6875,14.075 L2.3,14.075 C2.16875,14.075 2.0625,13.95 2.0625,13.7984375 L2.0625,13.246875 C2.0625,13.0953125 2.16875,12.9703125 2.3,12.9703125 L3.1671875,12.9703125 Z M5.621875,11.1921875 L5.621875,10.9609375 C5.621875,10.7671875 5.4609375,10.6125 5.2625,10.6125 L4.634375,10.6125 C4.434375,10.6125 4.275,10.76875 4.275,10.9609375 L4.275,11.1921875 C4.275,11.3859375 4.4359375,11.540625 4.634375,11.540625 L5.2625,11.540625 C5.4625,11.540625 5.621875,11.384375 5.621875,11.1921875 Z M5.621875,9.8359375 L5.621875,9.6046875 C5.621875,9.4109375 5.4609375,9.25625 5.2625,9.25625 L4.634375,9.25625 C4.434375,9.25625 4.275,9.4125 4.275,9.6046875 L4.275,9.8359375 C4.275,10.0296875 4.4359375,10.184375 4.634375,10.184375 L5.2625,10.184375 C5.4625,10.184375 5.621875,10.028125 5.621875,9.8359375 Z M5.621875,8.409375 L5.621875,8.178125 C5.621875,7.984375 5.4609375,7.8296875 5.2625,7.8296875 L4.634375,7.8296875 C4.434375,7.8296875 4.275,7.9859375 4.275,8.178125 L4.275,8.409375 C4.275,8.603125 4.4359375,8.7578125 4.634375,8.7578125 L5.2625,8.7578125 C5.4625,8.7578125 5.621875,8.6015625 5.621875,8.409375 Z M5.621875,7.0109375 L5.621875,6.7796875 C5.621875,6.5859375 5.4609375,6.43125 5.2625,6.43125 L4.634375,6.43125 C4.434375,6.43125 4.275,6.5875 4.275,6.7796875 L4.275,7.0109375 C4.275,7.2046875 4.4359375,7.359375 4.634375,7.359375 L5.2625,7.359375 C5.4625,7.359375 5.621875,7.203125 5.621875,7.0109375 Z M5.621875,5.6140625 L5.621875,5.3828125 C5.621875,5.1890625 5.4609375,5.034375 5.2625,5.034375 L4.634375,5.034375 C4.434375,5.034375 4.275,5.190625 4.275,5.3828125 L4.275,5.6140625 C4.275,5.8078125 4.4359375,5.9625 4.634375,5.9625 L5.2625,5.9625 C5.4625,5.9625 5.621875,5.80625 5.621875,5.6140625 Z M7.74375,11.1921875 L7.74375,10.9609375 C7.74375,10.7671875 7.5828125,10.6125 7.384375,10.6125 L6.75625,10.6125 C6.55625,10.6125 6.396875,10.76875 6.396875,10.9609375 L6.396875,11.1921875 C6.396875,11.3859375 6.5578125,11.540625 6.75625,11.540625 L7.384375,11.540625 C7.584375,11.540625 7.74375,11.384375 7.74375,11.1921875 Z M7.74375,9.8359375 L7.74375,9.6046875 C7.74375,9.4109375 7.5828125,9.25625 7.384375,9.25625 L6.75625,9.25625 C6.55625,9.25625 6.396875,9.4125 6.396875,9.6046875 L6.396875,9.8359375 C6.396875,10.0296875 6.5578125,10.184375 6.75625,10.184375 L7.384375,10.184375 C7.584375,10.184375 7.74375,10.028125 7.74375,9.8359375 Z M7.74375,8.409375 L7.74375,8.178125 C7.74375,7.984375 7.5828125,7.8296875 7.384375,7.8296875 L6.75625,7.8296875 C6.55625,7.8296875 6.396875,7.9859375 6.396875,8.178125 L6.396875,8.409375 C6.396875,8.603125 6.5578125,8.7578125 6.75625,8.7578125 L7.384375,8.7578125 C7.584375,8.7578125 7.74375,8.6015625 7.74375,8.409375 Z M7.74375,7.0109375 L7.74375,6.7796875 C7.74375,6.5859375 7.5828125,6.43125 7.384375,6.43125 L6.75625,6.43125 C6.55625,6.43125 6.396875,6.5875 6.396875,6.7796875 L6.396875,7.0109375 C6.396875,7.2046875 6.5578125,7.359375 6.75625,7.359375 L7.384375,7.359375 C7.584375,7.359375 7.74375,7.203125 7.74375,7.0109375 Z M7.74375,5.6140625 L7.74375,5.3828125 C7.74375,5.1890625 7.5828125,5.034375 7.384375,5.034375 L6.75625,5.034375 C6.55625,5.034375 6.396875,5.190625 6.396875,5.3828125 L6.396875,5.6140625 C6.396875,5.8078125 6.5578125,5.9625 6.75625,5.9625 L7.384375,5.9625 C7.584375,5.9625 7.74375,5.80625 7.74375,5.6140625 Z M7.74375,4.25 L7.74375,4.01875 C7.74375,3.825 7.5828125,3.6703125 7.384375,3.6703125 L6.75625,3.6703125 C6.55625,3.6703125 6.396875,3.8265625 6.396875,4.01875 L6.396875,4.25 C6.396875,4.44375 6.5578125,4.5984375 6.75625,4.5984375 L7.384375,4.5984375 C7.584375,4.5984375 7.74375,4.4421875 7.74375,4.25 Z M11.790625,11.1921875 L11.790625,10.9609375 C11.790625,10.7671875 11.6296875,10.6125 11.43125,10.6125 L10.803125,10.6125 C10.603125,10.6125 10.44375,10.76875 10.44375,10.9609375 L10.44375,11.1921875 C10.44375,11.3859375 10.6046875,11.540625 10.803125,11.540625 L11.43125,11.540625 C11.63125,11.540625 11.790625,11.384375 11.790625,11.1921875 Z M11.790625,9.8359375 L11.790625,9.6046875 C11.790625,9.4109375 11.6296875,9.25625 11.43125,9.25625 L10.803125,9.25625 C10.603125,9.25625 10.44375,9.4125 10.44375,9.6046875 L10.44375,9.8359375 C10.44375,10.0296875 10.6046875,10.184375 10.803125,10.184375 L11.43125,10.184375 C11.63125,10.184375 11.790625,10.028125 11.790625,9.8359375 Z M11.790625,8.409375 L11.790625,8.178125 C11.790625,7.984375 11.6296875,7.8296875 11.43125,7.8296875 L10.803125,7.8296875 C10.603125,7.8296875 10.44375,7.9859375 10.44375,8.178125 L10.44375,8.409375 C10.44375,8.603125 10.6046875,8.7578125 10.803125,8.7578125 L11.43125,8.7578125 C11.63125,8.7578125 11.790625,8.6015625 11.790625,8.409375 Z M11.790625,7.0109375 L11.790625,6.7796875 C11.790625,6.5859375 11.6296875,6.43125 11.43125,6.43125 L10.803125,6.43125 C10.603125,6.43125 10.44375,6.5875 10.44375,6.7796875 L10.44375,7.0109375 C10.44375,7.2046875 10.6046875,7.359375 10.803125,7.359375 L11.43125,7.359375 C11.63125,7.359375 11.790625,7.203125 11.790625,7.0109375 Z M11.790625,5.6140625 L11.790625,5.3828125 C11.790625,5.1890625 11.6296875,5.034375 11.43125,5.034375 L10.803125,5.034375 C10.603125,5.034375 10.44375,5.190625 10.44375,5.3828125 L10.44375,5.6140625 C10.44375,5.8078125 10.6046875,5.9625 10.803125,5.9625 L11.43125,5.9625 C11.63125,5.9625 11.790625,5.80625 11.790625,5.6140625 Z" id="形状结合" fill="#D7DDE0"></path>
                </g>
            </g>
        </g>
    </g>
</svg>