<?xml version="1.0" encoding="UTF-8"?>
<svg width="14px" height="15px" viewBox="0 0 14 15" version="1.1" xmlns="http://www.w3.org/2000/svg" xmlns:xlink="http://www.w3.org/1999/xlink">
    <!-- Generator: Sketch 54.1 (76490) - https://sketchapp.com -->
    <title>意见反馈</title>
    <desc>Created with Sketch.</desc>
    <g id="61改版" stroke="none" stroke-width="1" fill="none" fill-rule="evenodd">
        <g id="首页" transform="translate(-60.000000, -1884.000000)" fill-rule="nonzero">
            <g id="编组-11" transform="translate(59.000000, 1880.000000)">
                <g id="意见反馈" transform="translate(0.000000, 4.000000)">
                    <rect id="矩形" fill="#000000" opacity="0" x="0" y="0" width="16" height="16"></rect>
                    <path d="M10.7134882,7.38441736 C10.694605,7.28705938 10.681398,7.18819839 10.6559273,7.09259922 C10.4337099,6.2585567 9.87941375,5.76553097 9.06110458,5.54444886 C8.9626913,5.51785889 8.85882572,5.51867433 8.76279483,5.48170739 C9.39436662,5.48170739 10.0259384,5.48237894 10.6575102,5.4803643 C10.7052219,5.48022039 10.7149752,5.48997378 10.7148154,5.53766944 C10.7128007,6.15325209 10.7134882,6.76883473 10.7134882,7.38441736 Z M1.00216853,13.6947949 C1.00284008,13.585541 1.00210458,13.5467353 1.00216853,13.4742085 C1.00493466,10.2307755 1.00407123,6.98735856 1.0048547,3.74392561 C1.00501459,3.06507388 1.33213681,2.58057036 1.89439559,2.42677064 C2.06357689,2.38049802 2.23763487,2.3631178 2.41433108,2.36322972 C4.74131339,2.36462078 7.06829569,2.36583595 9.395262,2.36110316 C9.59263219,2.36070342 9.65678069,2.38502294 9.54346552,2.58794136 C9.37295712,2.89327034 9.22075631,3.20948795 9.07424764,3.52728848 C9.0113303,3.66375595 8.92860239,3.70184214 8.78158206,3.70147439 C6.71758945,3.69624594 4.65356486,3.70179417 2.58962022,3.69220067 C2.37232755,3.69119336 2.33187497,3.75281558 2.33230667,3.95659741 C2.33895816,7.1043832 2.33942184,10.252201 2.33153919,13.3999708 C2.33099556,13.6159364 2.39076303,13.6598106 2.59651153,13.6593629 C5.74429733,13.6526155 8.89211511,13.6516402 12.0398849,13.660754 C12.2755971,13.6614415 12.3059605,13.5790174 12.305337,13.3767865 C12.2990692,11.3367137 12.3040099,9.29660888 12.2971505,7.25653605 C12.2965589,7.07977589 12.3470367,6.98488023 12.5080955,6.91125016 C12.8754144,6.743348 13.2338434,6.55600302 13.5980445,6.37548541 C13.6579399,6.46021197 13.632693,6.54095722 13.632741,6.6154667 C13.6343879,8.91854522 13.6344518,11.2216077 13.6338922,13.5246863 C13.6336843,14.3678426 13.0193009,14.9853279 12.1717475,14.9860954 C8.84067798,14.9891014 5.50959245,14.9878862 2.17852292,14.9918995 C1.66792511,14.9925231 1.11091077,14.7689147 1.00795656,14.0972261 C1.00287205,14.0639846 1.00205661,13.7114237 1.00216853,13.6947949 Z M14.9679637,3.07609041 C14.6502112,3.30240097 14.4106296,3.61089581 14.1294282,3.87569228 C13.9754047,4.02072995 13.8341245,4.17932642 13.6464117,4.37399444 C13.5437294,3.09860316 12.8326755,2.49318963 11.6499094,2.35587472 C11.8641001,1.92818069 12.069257,1.52613328 12.2662915,1.12013655 C12.319999,1.00947558 12.8058936,0.960772594 12.8340345,0.960772594 C12.8696424,0.960772594 12.9922153,0.963842516 13.0099792,0.965201594 C13.7988684,1.02586447 14.2882805,1.49458667 14.6466296,2.15164519 C14.7827932,2.40131591 14.845151,2.67887173 14.9679637,2.93261969 C14.9679637,2.98044327 14.9679637,3.02826683 14.9679637,3.07609041 Z M11.2894178,3.01513973 C11.8985408,3.01848147 12.3295606,3.27445192 12.6184207,3.76744567 C12.6942733,3.89690989 12.7517383,4.03806219 12.8087237,4.17748766 C13.0138326,4.67929144 12.980767,5.07164942 12.5299687,5.49736078 C11.1469384,6.8033873 9.8205097,8.16946909 8.47903522,9.51913002 C8.35334444,9.64558828 8.24421842,9.67085116 8.08479052,9.61792703 C7.18918973,9.32064059 6.64635777,8.69033194 6.35748162,7.81292683 C6.32515155,7.71470542 6.34875155,7.65333903 6.41895994,7.58338645 C7.91343469,6.09396428 9.40688612,4.6035188 10.8966601,3.10939581 C11.0269877,2.97870044 11.1817308,3.04855708 11.2894178,3.01513973 Z M5.65231173,8.37951869 C6.31635752,9.04872897 6.94668216,9.68396228 7.59899189,10.3413406 C7.36043364,10.3413406 7.1280312,10.3413406 6.89562877,10.3413406 C6.53803122,10.3413406 6.18044966,10.3406371 5.82285211,10.3417883 C5.73105834,10.3420761 5.64981742,10.3469368 5.65066486,10.2126438 C5.6544383,9.61186716 5.65231173,9.01107448 5.65231173,8.37951869 Z" id="形状" fill="#F27F30"></path>
                </g>
            </g>
        </g>
    </g>
</svg>