<?xml version="1.0" encoding="UTF-8"?>
<svg width="16px" height="12px" viewBox="0 0 16 12" version="1.1" xmlns="http://www.w3.org/2000/svg" xmlns:xlink="http://www.w3.org/1999/xlink">
    <!-- Generator: Sketch 54.1 (76490) - https://sketchapp.com -->
    <title>形状</title>
    <desc>Created with Sketch.</desc>
    <g id="61改版" stroke="none" stroke-width="1" fill="none" fill-rule="evenodd">
        <g id="首页" transform="translate(-237.000000, -1886.000000)" fill="#538EFA" fill-rule="nonzero">
            <g id="编组-11" transform="translate(59.000000, 1880.000000)">
                <g id="分享" transform="translate(178.000000, 4.000000)">
                    <path d="M4,10 C4,10 4.9,7 10,7 L10,10 L16,6 L10,2 L10,5 C6,5 4,7.5 4,10 Z M11,12 L2,12 L2,6 L4,6 C4.2,5.8 4.3,5.6 4.5,5.5 C5.2,4.8 6,4.4 6.9,4 L0,4 L0,14 L13,14 L13,9.8 L11,11.1 L11,12 Z" id="形状"></path>
                </g>
            </g>
        </g>
    </g>
</svg>