<?xml version="1.0" encoding="UTF-8"?>
<svg width="37px" height="32px" viewBox="0 0 37 32" version="1.1" xmlns="http://www.w3.org/2000/svg" xmlns:xlink="http://www.w3.org/1999/xlink">
    <!-- Generator: Sketch 54.1 (76490) - https://sketchapp.com -->
    <title>新闻通知</title>
    <desc>Created with Sketch.</desc>
    <g id="61改版" stroke="none" stroke-width="1" fill="none" fill-rule="evenodd">
        <g id="首页" transform="translate(-24.000000, -600.000000)">
            <g id="新闻通知" transform="translate(24.000000, 600.000000)">
                <path d="M3.14968269,0.309562736 L17.6845664,6.85851788 C18.4852027,7.21925907 19,8.01584968 19,8.89400269 L19,32 L0,32 L4.4408921e-16,2.34504754 C2.93089303e-16,1.11203973 0.999550326,0.112489404 2.23255814,0.112489404 C2.54877309,0.112489404 2.8613808,0.179663096 3.14968269,0.309562736 Z M8.94117647,7.71963851 L8.94117647,12.1342497 L13.4117647,12.1342497 L13.4117647,7.71963851 L8.94117647,7.71963851 Z M8.94117647,15.4452081 L8.94117647,19.8598193 L13.4117647,19.8598193 L13.4117647,15.4452081 L8.94117647,15.4452081 Z M8.94117647,23.1707776 L8.94117647,30.8963472 L13.4117647,30.8963472 L13.4117647,23.1707776 L8.94117647,23.1707776 Z" id="Combined-Shape" fill="#01B7AF"></path>
                <path d="M18.1639573,10.3722626 L26.698841,14.2901591 C27.4917624,14.6541458 28,15.446678 28,16.3191518 L28,32 L15,32 L15,12.4012553 C15,11.1682475 15.9995503,10.1686972 17.2325581,10.1686972 C17.5540603,10.1686972 17.8717698,10.2381354 18.1639573,10.3722626 Z M20.6521836,15.1743169 L20.6521836,17.8140024 L23.169685,17.8140024 L23.169685,15.1743169 L20.6521836,15.1743169 Z M20.6521836,20.1237076 L20.6521836,22.7633931 L23.169685,22.7633931 L23.169685,20.1237076 L20.6521836,20.1237076 Z M20.3375072,24.7431181 L20.3375072,30.0224577 L23.4843614,30.0224577 L23.4843614,24.7431181 L20.3375072,24.7431181 Z" id="Combined-Shape复制" fill="#01B7AF" opacity="0.200823103" transform="translate(21.500000, 21.084349) scale(-1, 1) translate(-21.500000, -21.084349) "></path>
                <path d="M30.0334278,5.07082256 L27.0468862,7.84421861 L23.1682607,7.84421861 C22.5237939,7.8460207 22.001797,8.36950679 22,9.01581207 L22,13.9365046 C22.001797,14.5828099 22.5237939,15.106296 23.1682607,15.1080981 L27.0468862,15.1080981 L30.0334278,17.8814942 C31.0320571,18.8089276 32.0937724,19.2672549 32.0937724,18.6228785 L32.0937724,4.3294382 C32.0933051,3.6850618 31.0315898,4.14338915 30.0334278,5.07082256 Z M34.6667498,12.2259782 L36.2523132,12.2259782 C36.6652492,12.2259782 37,11.8902724 37,11.4761584 C37,11.0620443 36.6652492,10.7263385 36.2523132,10.7263385 L34.6667498,10.7263385 C34.2538137,10.7263385 33.9190629,11.0620443 33.9190629,11.4761584 C33.9190629,11.8902724 34.2538137,12.2259782 34.6667498,12.2259782 L34.6667498,12.2259782 Z M35.1092869,16.0669302 C34.8160547,15.78146 34.3485958,15.7849894 34.0596827,16.0748547 C33.7707696,16.3647201 33.767457,16.8335141 34.0522446,17.1274566 L35.7008941,18.7803407 C35.8898,18.9697855 36.1651364,19.0437721 36.4231866,18.9744305 C36.6812369,18.9050889 36.8827971,18.7029537 36.9519414,18.4441673 C37.0210858,18.1853809 36.9473096,17.9092591 36.7584037,17.7198143 L35.1092869,16.0669302 Z M34.6700209,7.05409598 C34.8682175,7.05412811 35.0583179,6.97524149 35.198542,6.83477368 L36.7560672,5.27233663 C37.0408551,4.97839418 37.0375426,4.50959992 36.7486294,4.21973445 C36.4597162,3.92986898 35.992257,3.92633979 35.6990249,4.21181023 L34.1410324,5.77424728 C33.9272816,5.98874847 33.8634101,6.31125013 33.9791975,6.59138924 C34.0949849,6.87152836 34.3676324,7.05414496 34.6700209,7.05409598 L34.6700209,7.05409598 Z" id="形状" fill="#FF8D56" fill-rule="nonzero"></path>
            </g>
        </g>
    </g>
</svg>