<?xml version="1.0" encoding="UTF-8"?>
<svg width="15px" height="16px" viewBox="0 0 15 16" version="1.1" xmlns="http://www.w3.org/2000/svg" xmlns:xlink="http://www.w3.org/1999/xlink">
    <!-- Generator: Sketch 54.1 (76490) - https://sketchapp.com -->
    <title>形状</title>
    <desc>Created with Sketch.</desc>
    <g id="61改版" stroke="none" stroke-width="1" fill="none" fill-rule="evenodd">
        <g id="首页" transform="translate(-28.000000, -254.000000)" fill="#4B7EF4" fill-rule="nonzero">
            <g id="编组-13" transform="translate(28.000000, 251.000000)">
                <g id="定位-fill" transform="translate(0.000000, 3.000000)">
                    <path d="M7.1257732,0 C3.2,0 -7.10542736e-15,3.16701031 -7.10542736e-15,7.1257732 C-7.10542736e-15,10.985567 6.46597937,15.5381443 6.72989692,15.7360825 L7.1257732,16 L7.52164948,15.7360825 C7.78556702,15.5381443 14.2515464,10.985567 14.2515464,7.1257732 C14.2515464,3.16701031 11.0515464,0 7.1257732,0 Z M7.1257732,9.73195877 C5.31134022,9.73195877 3.82680412,8.24742269 3.82680412,6.43298969 C3.82680412,4.61855669 5.3113402,3.13402061 7.1257732,3.13402063 C8.9402062,3.13402064 10.4247423,4.6185567 10.4247423,6.43298969 C10.4247423,8.24742267 8.9402062,9.73195877 7.1257732,9.73195877 Z" id="形状"></path>
                </g>
            </g>
        </g>
    </g>
</svg>