<?xml version="1.0" encoding="UTF-8"?>
<svg width="8px" height="10px" viewBox="0 0 8 10" version="1.1" xmlns="http://www.w3.org/2000/svg" xmlns:xlink="http://www.w3.org/1999/xlink">
    <!-- Generator: Sketch 54.1 (76490) - https://sketchapp.com -->
    <title>形状结合</title>
    <desc>Created with Sketch.</desc>
    <g id="61改版" stroke="none" stroke-width="1" fill="none" fill-rule="evenodd">
        <g id="首页" transform="translate(-299.000000, -590.000000)" fill="#D7DDE0" fill-rule="nonzero">
            <g id="编组-14" transform="translate(16.000000, 568.000000)">
                <g id="编组-2" transform="translate(88.000000, 8.000000)">
                    <path d="M198.999929,14 C199.996092,14 200.99332,14.3828552 201.772371,15.1485657 C203.467765,16.8161625 203.365594,19.689251 201.72235,21.4126577 L201.447767,21.7006362 L199.430961,23.8124791 C199.311762,23.937493 199.155313,24 198.998865,24 C198.842416,24 198.685967,23.937493 198.566768,23.8124791 L197.16405,22.3413327 L196.277507,21.4115415 C194.634263,19.6881348 194.532093,16.8161625 196.228551,15.1485657 C197.006537,14.3828552 198.003765,14 198.999929,14 Z M199,20.25 C199.944898,20.25 200.714286,19.4084821 200.714286,18.375 C200.714286,17.3415179 199.944898,16.5 199,16.5 C198.055102,16.5 197.285714,17.3415179 197.285714,18.375 C197.285714,19.4084821 198.055102,20.25 199,20.25 Z" id="形状结合"></path>
                </g>
            </g>
        </g>
    </g>
</svg>