<?xml version="1.0" encoding="UTF-8"?>
<svg width="34px" height="32px" viewBox="0 0 34 32" version="1.1" xmlns="http://www.w3.org/2000/svg" xmlns:xlink="http://www.w3.org/1999/xlink">
    <!-- Generator: Sketch 49.3 (51167) - http://www.bohemiancoding.com/sketch -->
    <title>收藏</title>
    <desc>Created with Sketch.</desc>
    <defs></defs>
    <g id="Page-1" stroke="none" stroke-width="1" fill="none" fill-rule="evenodd">
        <g id="01_公租PC前端_00首页" transform="translate(-851.000000, -121.000000)" fill="#FC5455" fill-rule="nonzero">
            <path d="M875.453677,121.007051 C872.529753,121.007051 869.81883,122.49829 868.018002,124.950984 C866.236538,122.49829 863.506251,121.007051 860.582327,121.007051 C855.31539,121.007051 851.036004,125.755468 851.036004,131.583071 C851.036004,135.056086 852.56574,137.508781 853.805019,139.470937 C857.38731,145.18081 866.410812,152.264192 866.798087,152.558515 C867.165998,152.852838 867.592,152.990189 868.018002,152.990189 C868.444004,152.990189 868.870007,152.852838 869.237918,152.558515 C869.625192,152.264192 878.62933,145.161188 882.230986,139.470937 C883.470265,137.508781 885,135.056086 885,131.583071 C885,125.755468 880.720614,121.007051 875.453677,121.007051 Z M879.771791,139.412072 C876.460592,144.121246 869.450919,149.497552 869.102372,149.752632 C868.773188,150.007713 868.385913,150.145063 868.018002,150.145063 C867.630727,150.145063 867.262816,150.027334 866.933633,149.752632 C866.585086,149.497552 859.710959,144.062381 856.264214,139.215856 C855.160481,137.449916 853.39838,135.252302 853.39838,132.152096 C853.39838,126.932762 856.264214,123.263531 860.969602,123.263531 C863.583706,123.263531 866.430176,125.794711 868.018002,127.992326 C869.625192,125.794711 872.452298,123.263531 875.066403,123.263531 C879.791155,123.263531 882.850625,126.932762 882.850625,132.152096 C882.850625,135.252302 880.894888,137.665753 879.771791,139.412072 Z" id="收藏"></path>
        </g>
    </g>
</svg>