<?xml version="1.0" encoding="UTF-8"?>
<svg width="34px" height="32px" viewBox="0 0 34 32" version="1.1" xmlns="http://www.w3.org/2000/svg" xmlns:xlink="http://www.w3.org/1999/xlink">
    <!-- Generator: Sketch 49.3 (51167) - http://www.bohemiancoding.com/sketch -->
    <title>收藏-sel</title>
    <desc>Created with Sketch.</desc>
    <defs></defs>
    <g id="Page-1" stroke="none" stroke-width="1" fill="none" fill-rule="evenodd">
        <g id="01_公租PC前端_00首页" transform="translate(-780.000000, -121.000000)" fill="#FC5455" fill-rule="nonzero">
            <path d="M804.453677,121.007051 C801.529753,121.007051 798.81883,122.49829 797.018002,124.950984 C795.236538,122.49829 792.506251,121.007051 789.582327,121.007051 C784.31539,121.007051 780.036004,125.755468 780.036004,131.583071 C780.036004,135.056086 781.56574,137.508781 782.805019,139.470937 C786.38731,145.18081 795.410812,152.264192 795.798087,152.558515 C796.165998,152.852838 796.592,152.990189 797.018002,152.990189 C797.444004,152.990189 797.870007,152.852838 798.237918,152.558515 C798.625192,152.264192 807.62933,145.161188 811.230986,139.470937 C812.470265,137.508781 814,135.056086 814,131.583071 C814,125.755468 809.720614,121.007051 804.453677,121.007051 Z" id="收藏-sel"></path>
        </g>
    </g>
</svg>