<?xml version="1.0" encoding="UTF-8"?>
<svg width="32px" height="40px" viewBox="0 0 32 40" version="1.1" xmlns="http://www.w3.org/2000/svg" xmlns:xlink="http://www.w3.org/1999/xlink">
    <!-- Generator: Sketch 49.3 (51167) - http://www.bohemiancoding.com/sketch -->
    <title>医院</title>
    <desc>Created with Sketch.</desc>
    <defs>
        <linearGradient x1="0%" y1="50%" x2="100%" y2="50%" id="linearGradient-1">
            <stop stop-color="#FFAB42" offset="0%"></stop>
            <stop stop-color="#FF8200" offset="100%"></stop>
        </linearGradient>
    </defs>
    <g id="Page-1" stroke="none" stroke-width="1" fill="none" fill-rule="evenodd">
        <g id="我要租房_07房源详情_00" transform="translate(-237.000000, -2567.000000)">
            <g id="15_地图" transform="translate(0.000000, 2487.000000)">
                <g id="医院" transform="translate(237.000000, 80.000000)">
                    <path d="M16.9020996,31.9749971 L16.5290451,39.5008264 C16.5151856,39.7804222 16.2844537,40 16.0045147,40 C15.7245061,40 15.4936495,39.7805015 15.4795346,39.5008489 L15.0996887,31.9750964 C6.68196421,31.5081899 1.0451654e-15,24.5344231 0,16 C-1.082166e-15,7.163444 7.163444,1.623249e-15 16,0 C24.836556,-1.623249e-15 32,7.163444 32,16 C32,24.5338188 25.3189821,31.5072022 16.9020996,31.9749971 Z" id="Combined-Shape" fill="url(#linearGradient-1)"></path>
                    <path d="M21.7323599,17.0373652 L23.5547963,17.0373652 L23.5547963,15.2653627 L21.7323599,15.2653627 L21.7323599,17.0373652 Z M21.7323599,19.5162271 L23.5547963,19.5162271 L23.5547963,17.7439212 L21.7323599,17.7439212 L21.7323599,19.5162271 Z M21.7323599,23.2392223 L23.5547963,23.2392223 L23.5547963,21.4669164 L21.7323599,21.4669164 L21.7323599,23.2392223 Z M19.074991,17.0373652 L20.8974275,17.0373652 L20.8974275,15.2653627 L19.074991,15.2653627 L19.074991,17.0373652 Z M19.074991,19.5162271 L20.8974275,19.5162271 L20.8974275,17.7439212 L19.074991,17.7439212 L19.074991,19.5162271 Z M19.074991,23.2392223 L20.8974275,23.2392223 L20.8974275,21.4669164 L19.074991,21.4669164 L19.074991,23.2392223 Z M16.4173102,17.0373652 L18.2397466,17.0373652 L18.2397466,15.2653627 L16.4173102,15.2653627 L16.4173102,17.0373652 Z M16.4173102,19.5162271 L18.2397466,19.5162271 L18.2397466,17.7439212 L16.4173102,17.7439212 L16.4173102,19.5162271 Z M14.0653968,24.5962104 L17.9342912,24.5962104 L17.9342912,20.8346868 L14.0653968,20.8346868 L14.0653968,24.5962104 Z M13.7599413,19.5162271 L15.5823778,19.5162271 L15.5823778,17.7439212 L13.7599413,17.7439212 L13.7599413,19.5162271 Z M11.1025725,17.0373652 L12.925009,17.0373652 L12.925009,15.2653627 L11.1025725,15.2653627 L11.1025725,17.0373652 Z M11.1025725,19.5162271 L12.925009,19.5162271 L12.925009,17.7439212 L11.1025725,17.7439212 L11.1025725,19.5162271 Z M11.1025725,23.2392223 L12.925009,23.2392223 L12.925009,21.4669164 L11.1025725,21.4669164 L11.1025725,23.2392223 Z M8.44520366,17.0373652 L10.2676401,17.0373652 L10.2676401,15.2653627 L8.44520366,15.2653627 L8.44520366,17.0373652 Z M8.44520366,19.5162271 L10.2676401,19.5162271 L10.2676401,17.7439212 L8.44520366,17.7439212 L8.44520366,19.5162271 Z M8.44520366,23.2392223 L10.2676401,23.2392223 L10.2676401,21.4669164 L8.44520366,21.4669164 L8.44520366,23.2392223 Z M13.7599413,17.0373652 L15.5823778,17.0373652 L15.5823778,15.2653627 L13.7599413,15.2653627 L13.7599413,17.0373652 Z M13.8847444,10.761485 C13.8847444,10.558225 14.0538525,10.3934934 14.2635216,10.3934934 L15.1162384,10.3934934 L15.1162384,9.56376789 C15.1162384,9.36081126 15.2859706,9.19547289 15.4953277,9.19547289 L16.5049843,9.19547289 C16.7137174,9.19547289 16.8837616,9.36081126 16.8837616,9.56376789 L16.8837616,10.3934934 L17.7364784,10.3934934 C17.9461475,10.3934934 18.1152556,10.558225 18.1152556,10.761485 L18.1152556,11.7435039 C18.1152556,11.9464605 17.9461475,12.1117989 17.7364784,12.1117989 L16.8837616,12.1117989 L16.8837616,12.9406143 C16.8837616,13.1444811 16.7137174,13.3089093 16.5049843,13.3089093 L15.4953277,13.3089093 C15.2859706,13.3089093 15.1162384,13.1444811 15.1162384,12.9406143 L15.1162384,12.1117989 L14.2635216,12.1117989 C14.0538525,12.1117989 13.8847444,11.9464605 13.8847444,11.7435039 L13.8847444,10.761485 Z M24.9965835,23.968228 L24.9965835,13.7852051 L22.6434221,13.7852051 L22.6434221,9.49880242 L16.0463331,6 L9.35626589,9.49880242 L9.35626589,13.7852051 L7.00341648,13.7852051 L7.00341648,23.968228 L6,23.968228 L6,25 L7.00341648,25 L24.9965835,25 L26,25 L26,23.968228 L24.9965835,23.968228 Z" fill="#FFFFFF"></path>
                </g>
            </g>
        </g>
    </g>
</svg>