<?xml version="1.0" encoding="UTF-8"?>
<svg width="32px" height="40px" viewBox="0 0 32 40" version="1.1" xmlns="http://www.w3.org/2000/svg" xmlns:xlink="http://www.w3.org/1999/xlink">
    <!-- Generator: Sketch 49.3 (51167) - http://www.bohemiancoding.com/sketch -->
    <title>学校</title>
    <desc>Created with Sketch.</desc>
    <defs>
        <linearGradient x1="0%" y1="50%" x2="100%" y2="50%" id="linearGradient-1">
            <stop stop-color="#FFAB42" offset="0%"></stop>
            <stop stop-color="#FF8200" offset="100%"></stop>
        </linearGradient>
    </defs>
    <g id="Page-1" stroke="none" stroke-width="1" fill="none" fill-rule="evenodd">
        <g id="我要租房_07房源详情_00" transform="translate(-200.000000, -2625.000000)">
            <g id="15_地图" transform="translate(0.000000, 2487.000000)">
                <g id="学校" transform="translate(200.000000, 138.000000)">
                    <path d="M16.9020996,31.9749971 L16.5290451,39.5008264 C16.5151856,39.7804222 16.2844537,40 16.0045147,40 C15.7245061,40 15.4936495,39.7805015 15.4795346,39.5008489 L15.0996887,31.9750964 C6.68196421,31.5081899 1.0451654e-15,24.5344231 0,16 C-1.082166e-15,7.163444 7.163444,1.623249e-15 16,0 C24.836556,-1.623249e-15 32,7.163444 32,16 C32,24.5338188 25.3189821,31.5072022 16.9020996,31.9749971 Z" id="Combined-Shape" fill="url(#linearGradient-1)"></path>
                    <path d="M25.4736105,15.5504463 C25.7610822,15.5489601 25.9960512,15.7679467 26,16.0410312 L26,18.0178108 C26.000005,18.1495565 25.9446169,18.2758462 25.8461463,18.3686112 C25.7476756,18.4613762 25.6142811,18.5129305 25.4756105,18.5118157 L24.8768225,18.5118157 L24.8768225,24.4805349 C24.8768225,24.6864969 24.7456251,24.8620587 24.5556289,24.9361594 C24.49883,24.9760598 24.4296314,25 24.3536329,25 L7.67436651,25 C7.61390289,24.9999025 7.55454991,24.98456 7.50236996,24.9555396 C7.28157436,24.898159 7.1199776,24.7085371 7.1199776,24.4805349 L7.1199776,18.5137157 L6.52318954,18.5137157 C6.23319534,18.5137157 6,18.2944535 6,18.0219908 L6,16.0444512 C5.99999738,15.9129046 6.05522089,15.7867896 6.15343104,15.6940578 C6.25164119,15.601326 6.38472613,15.5496368 6.52318954,15.5504463 L11.5642887,15.5504463 L11.5642887,13.2776438 L10.6303074,13.7321283 C10.5539089,13.7689887 10.4715106,13.7876089 10.3907122,13.7876089 C10.1964083,13.7872267 10.0180268,13.6854878 9.92632147,13.5227462 C9.86319886,13.4062357 9.85151212,13.2706408 9.89384396,13.145927 C9.9361758,13.0212133 10.029041,12.9176484 10.151917,12.8581196 L15.4462111,10.2828341 C15.4574108,10.2615539 15.4702106,10.2429337 15.4854103,10.2231735 C15.4766105,10.1893532 15.4702106,10.1532528 15.4702106,10.1160125 L15.4702106,6.52003682 C15.4702106,6.37487536 15.5386092,6.24795411 15.6430071,6.15827323 C15.7908154,6.00782908 16.0207823,5.95921194 16.2217956,6.03591202 L19.4961301,7.29448449 C19.4961301,7.2963845 19.4961301,7.2963845 19.49933,7.2963845 C19.5221296,7.30702462 19.5417292,7.31728472 19.5613288,7.32754481 C19.5729286,7.33362489 19.5837283,7.33856493 19.5913282,7.34388499 C19.5974526,7.34998501 19.6044553,7.35523046 19.6121278,7.35946514 C19.6592211,7.39320979 19.7006286,7.4335732 19.7349253,7.47916632 C19.7413252,7.48410636 19.7445251,7.49246645 19.7469251,7.4977865 C19.7609255,7.51899559 19.7728422,7.54138351 19.7825244,7.56466717 C19.7861243,7.56466718 19.7861243,7.5665672 19.7861243,7.5665672 C19.7921242,7.57682729 19.7945241,7.58708739 19.7977241,7.5984875 C19.8033239,7.61710769 19.8117238,7.6376279 19.8141237,7.65624808 C19.8173236,7.67182824 19.8173236,7.68816839 19.8197236,7.70450856 C19.8272342,7.73744016 19.8272342,7.77151795 19.8197236,7.80444955 C19.8173237,7.81774969 19.8173237,7.83104981 19.8141237,7.84662997 C19.8085238,7.86867018 19.801324,7.88691036 19.7945241,7.90857057 C19.7925241,7.91883069 19.7881242,7.92605076 19.7861243,7.93631086 L19.7861243,7.93935088 C19.7665247,7.98153131 19.7413252,8.01877167 19.7133257,8.05259201 C19.7077258,8.0609521 19.7021259,8.06931218 19.6925261,8.07653225 C19.6653267,8.10845256 19.6317274,8.13809286 19.5913282,8.1620331 L19.5893282,8.1620331 C19.5609288,8.18065328 19.5325293,8.1939534 19.49893,8.20649353 L16.5149897,9.3423248 L16.5149897,10.1133524 C16.5149897,10.1483128 16.5089898,10.1790931 16.5045899,10.2110134 C16.5214796,10.2331767 16.5369731,10.2562707 16.550989,10.2801741 L21.8448831,12.8581196 C21.9679318,12.9174764 22.0609074,13.0210908 22.1031252,13.1459112 C22.1453429,13.2707315 22.1333011,13.4064045 22.0696786,13.5227462 C21.9776805,13.6895679 21.7940841,13.7876089 21.6064879,13.7876089 C21.5240895,13.7876089 21.4424912,13.7693687 21.3676927,13.7321283 L20.4345113,13.2787838 L20.4345113,15.5504463 L25.4736105,15.5504463 Z M16.5173897,7.21202367 L16.5173897,8.27869425 L17.9149617,7.74706898 L16.5173897,7.21202367 Z M16.8969821,24.3319534 L16.8969821,21.7334876 L15.1030179,21.7334876 L15.1030179,24.3319534 L16.8969821,24.3319534 Z M7.04597909,16.5361761 L7.04597909,17.5283659 L11.5470891,17.5283659 L11.5470891,16.5361761 L7.04597909,16.5361761 Z M24.950421,17.5283659 L24.950421,16.5361761 L20.449711,16.5361761 L20.449711,17.5283659 L24.950421,17.5283659 Z M15.9998,17.7620683 C17.2793744,17.7620683 18.3229535,16.7824185 18.3229535,15.5751466 C18.3229535,14.3682546 17.2797744,13.3878449 15.9998,13.3878449 C14.7194256,13.3878449 13.6758465,14.3682546 13.6758465,15.5751466 C13.6758465,16.7824185 14.7174257,17.7620683 15.9998,17.7620683 Z M9.35833283,19.9649501 L9.35833283,21.4180845 L10.4055119,21.4180845 L10.4055119,19.9649501 L9.35833283,19.9649501 Z M9.35833283,22.2172324 L9.35833283,23.6703668 L10.4055119,23.6703668 L10.4055119,22.2172324 L9.35833283,22.2172324 Z M21.5912882,19.9649501 L21.5912882,21.4180845 L22.6380673,21.4180845 L22.6380673,19.9649501 L21.5912882,19.9649501 Z M21.5912882,22.2172324 L21.5912882,23.6703668 L22.6380673,23.6703668 L22.6380673,22.2172324 L21.5912882,22.2172324 Z" fill="#FFFFFF" fill-rule="nonzero"></path>
                </g>
            </g>
        </g>
    </g>
</svg>