<?xml version="1.0" encoding="UTF-8"?>
<svg width="32px" height="40px" viewBox="0 0 32 40" version="1.1" xmlns="http://www.w3.org/2000/svg" xmlns:xlink="http://www.w3.org/1999/xlink">
    <!-- Generator: Sketch 49.3 (51167) - http://www.bohemiancoding.com/sketch -->
    <title>电影院</title>
    <desc>Created with Sketch.</desc>
    <defs>
        <linearGradient x1="0%" y1="50%" x2="100%" y2="50%" id="linearGradient-1">
            <stop stop-color="#FFAB42" offset="0%"></stop>
            <stop stop-color="#FF8200" offset="100%"></stop>
        </linearGradient>
    </defs>
    <g id="Page-1" stroke="none" stroke-width="1" fill="none" fill-rule="evenodd">
        <g id="我要租房_07房源详情_00" transform="translate(-136.000000, -2552.000000)">
            <g id="15_地图" transform="translate(0.000000, 2487.000000)">
                <g id="电影院" transform="translate(136.000000, 65.000000)">
                    <path d="M16.9020996,31.9749971 L16.5290451,39.5008264 C16.5151856,39.7804222 16.2844537,40 16.0045147,40 C15.7245061,40 15.4936495,39.7805015 15.4795346,39.5008489 L15.0996887,31.9750964 C6.68196421,31.5081899 1.0451654e-15,24.5344231 0,16 C-1.082166e-15,7.163444 7.163444,1.623249e-15 16,0 C24.836556,-1.623249e-15 32,7.163444 32,16 C32,24.5338188 25.3189821,31.5072022 16.9020996,31.9749971 Z" id="Combined-Shape" fill="url(#linearGradient-1)"></path>
                    <path d="M23.0616834,23.0953905 L25.2693268,23.0953905 C25.6279853,23.0953905 25.9910992,23.142052 25.9866438,23.5997787 C25.9821884,24.0286198 25.6346684,24.0619494 25.2960591,24.0597274 C24.5854251,24.0552835 23.8747912,24.0575054 23.1619295,24.0575054 C21.7651662,24.0575054 21.7651662,24.0575054 20.4753322,24.9818468 C20.7270615,24.9996226 20.8985938,25.0196204 21.0678984,25.0196204 C22.4713448,25.0218424 23.8747912,25.0218424 25.2782375,25.0218424 C25.6391238,25.0218424 26.0044653,25.0596159 25.9866438,25.5240086 C25.97105,25.9439618 25.6190745,25.9839573 25.2826929,25.9839573 C22.063677,25.9772914 18.8424335,26.0439506 15.627873,25.9461838 C10.6378414,25.7928675 6.48765003,21.8733045 6.04433919,17.0249562 C5.57652373,11.905527 8.85345962,7.37492102 13.8457189,6.24171403 C19.4884643,4.96185673 25.1846745,8.91252736 25.9064469,14.5941161 C26.3029762,17.7071024 25.4364037,20.4179112 23.3557388,22.7554284 C23.2844526,22.8354195 23.2176218,22.9154106 23.0616834,23.0953905 Z M12.5068756,22.526565 C13.9771527,22.531009 15.1199591,21.4111338 15.1221867,19.9646284 C15.1266421,18.5181231 13.974925,17.3693622 12.5269248,17.3693622 C11.0967461,17.3693622 9.96062287,18.4936813 9.9517121,19.915745 C9.94280133,21.39558 11.0432815,22.5198991 12.5068756,22.526565 Z M12.5291525,15.1384999 C13.9882912,15.1407218 15.1288698,14.0008489 15.1221867,12.5498996 C15.1177314,11.1367238 13.974925,9.99018498 12.5603402,9.97685314 C11.1056569,9.96352129 9.95393979,11.0989503 9.9517121,12.5498996 C9.94725672,14.0208467 11.061103,15.1362779 12.5291525,15.1384999 Z M19.9273198,15.1384999 C21.3886862,15.1429438 22.5337202,14.0119588 22.5337202,12.5632314 C22.5359479,11.1478337 21.3931416,9.99240696 19.9807844,9.97685314 C18.5238734,9.96129932 17.3654732,11.0900624 17.3587902,12.5387897 C17.3521071,14.0097368 18.4637257,15.1340559 19.9273198,15.1384999 Z M17.3587902,19.920189 C17.3476517,21.393358 18.4570426,22.5221211 19.918409,22.5243431 C21.3842308,22.531009 22.5314925,21.4044679 22.5337202,19.9579625 C22.5359479,18.5425648 21.3975969,17.3849161 19.9874675,17.3671403 C18.5238734,17.3493645 17.3699286,18.4714616 17.3587902,19.920189 Z M15.9909869,17.1182791 C16.6236516,17.1205011 17.1204271,16.6294447 17.1204271,16.0028479 C17.1204271,15.389583 16.6258793,14.8896387 16.0154915,14.8829728 C15.3828268,14.8763069 14.8815959,15.3651413 14.8793682,15.9917381 C14.8749129,16.6294447 15.3583222,17.1160572 15.9909869,17.1182791 Z M12.5781617,18.3092575 C11.6915401,18.2759278 10.916303,19.0069574 10.887343,19.9046351 C10.858383,20.8000909 11.5823831,21.566672 12.482371,21.5911138 C13.3845865,21.6155555 14.1397743,20.9067456 14.1776451,19.9979581 C14.2132881,19.1158342 13.482605,18.344809 12.5781617,18.3092575 Z M12.546974,10.9189703 C11.6514416,10.9100824 10.8940261,11.6522219 10.887343,12.5476776 C10.8806599,13.4453553 11.6224816,14.2030486 12.5157863,14.2074926 C13.4135465,14.2141585 14.1642789,13.4809069 14.1798728,12.5787853 C14.1932389,11.6966614 13.4402788,10.9278582 12.546974,10.9189703 Z M21.5891785,12.5587875 C21.5824954,11.6655537 20.8273076,10.9167483 19.9340029,10.9189703 C19.0384704,10.9211923 18.2966488,11.6655537 18.2921934,12.5698974 C18.287738,13.4586872 19.0540643,14.2163805 19.9429136,14.2074926 C20.8495846,14.1941607 21.5958616,13.4475773 21.5891785,12.5587875 Z M21.5891785,19.9335208 C21.571357,19.0358431 20.8094861,18.2959256 19.9206367,18.3092575 C19.0228766,18.3225893 18.2788272,19.0825046 18.2921934,19.9735163 C18.3055595,20.871194 19.0652027,21.6088896 19.9607352,21.5955577 C20.8629507,21.5777819 21.6070001,20.8200886 21.5891785,19.9335208 Z M16.7105316,16.000626 C16.7083039,15.6140024 16.3808331,15.2895941 15.9932146,15.2918161 C15.6055961,15.2918161 15.2848083,15.6162244 15.2825806,16.0072919 C15.2803529,16.3916935 15.6122791,16.7205457 15.99767,16.7161017 C16.3919716,16.7094358 16.7127593,16.3850276 16.7105316,16.000626 Z" id="Shape" fill="#FFFFFF" fill-rule="nonzero"></path>
                </g>
            </g>
        </g>
    </g>
</svg>