<?xml version="1.0" encoding="UTF-8"?>
<svg width="42px" height="42px" viewBox="0 0 42 42" version="1.1" xmlns="http://www.w3.org/2000/svg" xmlns:xlink="http://www.w3.org/1999/xlink">
    <!-- Generator: Sketch 55 (78076) - https://sketchapp.com -->
    <title>形状</title>
    <desc>Created with Sketch.</desc>
    <g id="61改版" stroke="none" stroke-width="1" fill="none" fill-rule="evenodd">
        <g id="航拍社区" transform="translate(-166.000000, -142.000000)" fill="#FFFFFF" fill-rule="nonzero">
            <g id="编组-2" transform="translate(-1.000000, 72.000000)">
                <g id="编组">
                    <g id="编组-9">
                        <g id="编组-10">
                            <g id="播放" transform="translate(161.000000, 70.000000)">
                                <path d="M27,0 C15.45,0 6,9.45 6,21 C6,32.55 15.45,42 27,42 C38.55,42 48,32.55 48,21 C48,9.45 38.55,0 27,0 Z M27,40 C16.55,40 8,31.45 8,21 C8,10.55 16.55,2 27,2 C37.45,2 46,10.55 46,21 C46,31.45 37.45,40 27,40 Z M33.2479201,18.4694127 L26.3261231,13.7452619 C23.9900166,12.1408333 22,13.2104524 22,16.1519048 L22,26.8480952 C22,29.7895476 23.9034942,30.8591667 26.3261231,29.2547381 L33.2479201,24.5305873 C35.5840266,22.7478889 35.5840266,20.0738413 33.2479201,18.4694127 Z" id="形状"></path>
                            </g>
                        </g>
                    </g>
                </g>
            </g>
        </g>
    </g>
</svg>