<?xml version="1.0" encoding="UTF-8"?>
<svg width="16px" height="16px" viewBox="0 0 16 16" version="1.1" xmlns="http://www.w3.org/2000/svg" xmlns:xlink="http://www.w3.org/1999/xlink">
    <!-- Generator: Sketch 49.3 (51167) - http://www.bohemiancoding.com/sketch -->
    <title>Shape</title>
    <desc>Created with Sketch.</desc>
    <defs></defs>
    <g id="Page-1" stroke="none" stroke-width="1" fill="none" fill-rule="evenodd">
        <g id="租户_求租发布_01发布" transform="translate(-172.000000, -415.000000)" fill="#CCCCCC" fill-rule="nonzero">
            <g id="item" transform="translate(0.000000, 123.000000)">
                <g id="Group" transform="translate(36.000000, 280.000000)">
                    <path d="M138.655795,13.6689851 C138.655795,13.9735024 138.654951,14.2664622 138.656006,14.5594765 C138.658627,15.2925676 139.175447,15.9015839 139.847106,15.9642128 C140.578368,16.0324293 141.1992,15.5471601 141.322364,14.7992354 C141.348235,14.6423083 141.335308,14.4782282 141.336803,14.3174425 C141.338773,14.1050758 141.337243,13.8926727 141.337243,13.6666008 C143.11064,13.6666008 144.874576,13.6666008 146.661322,13.6666008 C146.661322,13.9673141 146.660144,14.2698293 146.661569,14.5723627 C146.664312,15.1618496 146.98674,15.6566742 147.50998,15.877213 C148.357529,16.2344762 149.325904,15.5782106 149.342436,14.6325709 C149.347976,14.3121825 149.343315,13.9916304 149.343315,13.6354775 C149.825928,13.6557532 150.298728,13.6238472 150.752023,13.7063695 C151.499624,13.842475 151.993827,14.5290266 151.997203,15.339289 C152.00153,16.3746222 151.99956,17.4100646 151.999507,18.4454888 C151.999384,21.0512217 151.999806,23.6569729 151.997696,26.2626876 C151.996852,27.2895392 151.312037,27.9988419 150.321486,27.9991331 C146.091564,28.0003161 141.861678,28.0002615 137.631845,27.9991331 C136.708828,27.9988419 136.004861,27.2777451 136.003208,26.3188734 C135.998741,23.684365 136.001027,21.0498385 136.000904,18.4153119 C136.000852,17.3856937 135.997897,16.3559846 136.002962,15.3263846 C136.006814,14.5439877 136.470767,13.9211206 137.194607,13.7115204 C137.263725,13.6914995 137.335798,13.6716789 137.406657,13.6710418 C137.816459,13.6671469 138.226331,13.6691125 138.655813,13.6691125 L138.655795,13.6689851 Z M137.054639,18.0676588 C137.054647,18.1659612 137.05463,18.2457898 137.054647,18.325582 C137.054981,20.7874196 137.055826,23.2492208 137.055386,25.7110401 C137.055351,26.1406696 137.263444,26.356822 137.67729,26.3566946 C140.384064,26.3558392 143.09089,26.3561668 145.797663,26.3561122 C147.320582,26.3560758 148.843484,26.3546379 150.366403,26.3578595 C150.566248,26.3582599 150.743159,26.2971053 150.835439,26.1205941 C150.905138,25.987328 150.940172,25.8183155 150.940629,25.6650104 C150.947066,23.4620425 150.945078,21.25902 150.945078,19.0560522 C150.945078,18.7298032 150.945078,18.4035542 150.945078,18.067677 C146.311089,18.067677 141.695338,18.067677 137.054639,18.0676588 Z M140.790453,13.6571364 C140.790453,13.9213572 140.793373,14.1856143 140.789803,14.4497986 C140.783366,14.9296622 140.440624,15.2942602 139.998972,15.2958437 C139.556106,15.2974818 139.203903,14.9187599 139.203006,14.4367487 C139.202056,13.8968225 139.199665,13.3568236 139.205504,12.8169702 C139.209355,12.4626738 139.40533,12.1789054 139.711666,12.0582343 C140.025529,11.9346328 140.34597,12.0096564 140.579335,12.2655048 C140.727561,12.4280377 140.788941,12.6276639 140.791157,12.8472199 C140.793901,13.1171921 140.791808,13.3871643 140.791808,13.6571182 C140.791403,13.6571182 140.790893,13.6571182 140.790471,13.6571182 L140.790453,13.6571364 Z M148.795963,13.6574458 C148.79591,13.9216666 148.79883,14.1859237 148.795277,14.450108 C148.78877,14.9298442 148.445783,15.2944422 148.004183,15.2958619 C147.561247,15.2972816 147.20929,14.9186325 147.208481,14.4364575 C147.207531,13.8965313 147.205139,13.3565323 147.211013,12.816679 C147.214883,12.4625828 147.411122,12.1786688 147.71744,12.0581615 C148.03132,11.9347056 148.351796,12.0098384 148.585021,12.2657778 C148.733159,12.4283289 148.793255,12.6279915 148.796737,12.8475293 C148.798935,12.9853456 148.796227,13.1232529 148.796016,13.2610692 C148.795805,13.3931887 148.795998,13.52529 148.795963,13.6573912 L148.795963,13.6574458 Z M149.855317,23.605228 C149.855317,24.1454454 149.855317,24.6780366 149.855317,25.2250429 C149.158912,25.2250429 148.462561,25.2250429 147.753863,25.2250429 C147.753863,24.6895031 147.753863,24.1527985 147.753863,23.605228 C148.453099,23.605228 149.149503,23.605228 149.855317,23.605228 Z M144.552429,23.6032624 C145.257891,23.6032624 145.950215,23.6032624 146.652511,23.6032624 C146.652511,24.1445172 146.652511,24.676981 146.652511,25.2244423 C145.958059,25.2244423 145.261813,25.2244423 144.552429,25.2244423 C144.552429,24.6913232 144.552429,24.154837 144.552429,23.6032624 Z M143.450269,25.2306487 C142.748729,25.2306487 142.056282,25.2306487 141.350539,25.2306487 C141.350539,24.6922333 141.350539,24.1555286 141.350539,23.6065567 C142.04733,23.6065567 142.743681,23.6065567 143.450269,23.6065567 C143.450269,24.1444444 143.450269,24.6770356 143.450269,25.2306487 Z M138.143512,25.2291199 C138.143512,24.686864 138.143512,24.1542182 138.143512,23.60794 C138.842537,23.60794 139.538976,23.60794 140.246883,23.60794 C140.246883,24.1455728 140.246883,24.68215 140.246883,25.2291199 C139.548896,25.2291199 138.856343,25.2291199 138.143512,25.2291199 Z M147.752913,21.3891738 C148.459166,21.3891738 149.147762,21.3891738 149.850568,21.3891738 C149.850568,21.9295914 149.850568,22.4663324 149.850568,23.016633 C149.157171,23.016633 148.460732,23.016633 147.752913,23.016633 C147.752913,22.4787271 147.752913,21.9421317 147.752913,21.3891738 Z M146.653936,21.3951073 C146.653936,21.9379637 146.653936,22.470555 146.653936,23.0166148 C145.954999,23.0166148 145.258647,23.0166148 144.550811,23.0166148 C144.550811,22.4784723 144.550811,21.9417859 144.550811,21.3951073 C145.248605,21.3951073 145.941087,21.3951073 146.653936,21.3951073 Z M141.345895,23.0196725 C141.345895,22.4769071 141.345895,21.9445342 141.345895,21.398529 C142.044692,21.398529 142.740938,21.398529 143.448826,21.398529 C143.448826,21.9361983 143.448826,22.4727027 143.448826,23.0196725 C142.750962,23.0196725 142.058638,23.0196725 141.345895,23.0196725 Z M140.247991,23.0213106 C139.546592,23.0213106 138.854127,23.0213106 138.148366,23.0213106 C138.148366,22.4830225 138.148366,21.9463361 138.148366,21.3973096 C138.845087,21.3973096 139.541386,21.3973096 140.247991,21.3973096 C140.247991,21.9351426 140.247991,22.4677521 140.247991,23.0213106 Z M147.75177,19.1851139 C148.453539,19.1851139 149.146038,19.1851139 149.851676,19.1851139 C149.851676,19.723402 149.851676,20.2599974 149.851676,20.8087873 C149.154902,20.8087873 148.458428,20.8087873 147.75177,20.8087873 C147.75177,20.2719917 147.75177,19.7393459 147.75177,19.1851139 Z M144.547927,20.8102616 C144.547927,20.2677873 144.547927,19.7351961 144.547927,19.1892819 C145.246706,19.1892819 145.94318,19.1892819 146.651157,19.1892819 C146.651157,19.7261685 146.651157,20.2629095 146.651157,20.8102616 C145.953363,20.8102616 145.260811,20.8102616 144.547927,20.8102616 Z M143.451113,19.188208 C143.451113,19.7363609 143.451113,20.2689522 143.451113,20.8111534 C142.749432,20.8111534 142.057055,20.8111534 141.35089,20.8111534 C141.35089,20.2739756 141.35089,19.7373256 141.35089,19.188208 C142.045782,19.188208 142.742151,19.188208 143.451113,19.188208 Z" id="Shape"></path>
                </g>
            </g>
        </g>
    </g>
</svg>