<?xml version="1.0" encoding="UTF-8"?>
<svg width="16px" height="16px" viewBox="0 0 16 16" version="1.1" xmlns="http://www.w3.org/2000/svg" xmlns:xlink="http://www.w3.org/1999/xlink">
    <!-- Generator: Sketch 49.3 (51167) - http://www.bohemiancoding.com/sketch -->
    <title>Shape Copy</title>
    <desc>Created with Sketch.</desc>
    <defs></defs>
    <g id="Page-1" stroke="none" stroke-width="1" fill="none" fill-rule="evenodd">
        <g id="租户_求租发布_01发布" transform="translate(-146.000000, -415.000000)" fill="#FF8200" fill-rule="nonzero">
            <g id="item" transform="translate(0.000000, 123.000000)">
                <g id="Group" transform="translate(36.000000, 280.000000)">
                    <path d="M112.655795,13.6689851 C112.655795,13.9735024 112.654951,14.2664622 112.656006,14.5594765 C112.658627,15.2925676 113.175447,15.9015839 113.847106,15.9642128 C114.578368,16.0324293 115.1992,15.5471601 115.322364,14.7992354 C115.348235,14.6423083 115.335308,14.4782282 115.336803,14.3174425 C115.338773,14.1050758 115.337243,13.8926727 115.337243,13.6666008 C117.11064,13.6666008 118.874576,13.6666008 120.661322,13.6666008 C120.661322,13.9673141 120.660144,14.2698293 120.661569,14.5723627 C120.664312,15.1618496 120.98674,15.6566742 121.50998,15.877213 C122.357529,16.2344762 123.325904,15.5782106 123.342436,14.6325709 C123.347976,14.3121825 123.343315,13.9916304 123.343315,13.6354775 C123.825928,13.6557532 124.298728,13.6238472 124.752023,13.7063695 C125.499624,13.842475 125.993827,14.5290266 125.997203,15.339289 C126.00153,16.3746222 125.99956,17.4100646 125.999507,18.4454888 C125.999384,21.0512217 125.999806,23.6569729 125.997696,26.2626876 C125.996852,27.2895392 125.312037,27.9988419 124.321486,27.9991331 C120.091564,28.0003161 115.861678,28.0002615 111.631845,27.9991331 C110.708828,27.9988419 110.004861,27.2777451 110.003208,26.3188734 C109.998741,23.684365 110.001027,21.0498385 110.000904,18.4153119 C110.000852,17.3856937 109.997897,16.3559846 110.002962,15.3263846 C110.006814,14.5439877 110.470767,13.9211206 111.194607,13.7115204 C111.263725,13.6914995 111.335798,13.6716789 111.406657,13.6710418 C111.816459,13.6671469 112.226331,13.6691125 112.655813,13.6691125 L112.655795,13.6689851 Z M111.054639,18.0676588 C111.054647,18.1659612 111.05463,18.2457898 111.054647,18.325582 C111.054981,20.7874196 111.055826,23.2492208 111.055386,25.7110401 C111.055351,26.1406696 111.263444,26.356822 111.67729,26.3566946 C114.384064,26.3558392 117.09089,26.3561668 119.797663,26.3561122 C121.320582,26.3560758 122.843484,26.3546379 124.366403,26.3578595 C124.566248,26.3582599 124.743159,26.2971053 124.835439,26.1205941 C124.905138,25.987328 124.940172,25.8183155 124.940629,25.6650104 C124.947066,23.4620425 124.945078,21.25902 124.945078,19.0560522 C124.945078,18.7298032 124.945078,18.4035542 124.945078,18.067677 C120.311089,18.067677 115.695338,18.067677 111.054639,18.0676588 Z M114.790453,13.6571364 C114.790453,13.9213572 114.793373,14.1856143 114.789803,14.4497986 C114.783366,14.9296622 114.440624,15.2942602 113.998972,15.2958437 C113.556106,15.2974818 113.203903,14.9187599 113.203006,14.4367487 C113.202056,13.8968225 113.199665,13.3568236 113.205504,12.8169702 C113.209355,12.4626738 113.40533,12.1789054 113.711666,12.0582343 C114.025529,11.9346328 114.34597,12.0096564 114.579335,12.2655048 C114.727561,12.4280377 114.788941,12.6276639 114.791157,12.8472199 C114.793901,13.1171921 114.791808,13.3871643 114.791808,13.6571182 C114.791403,13.6571182 114.790893,13.6571182 114.790471,13.6571182 L114.790453,13.6571364 Z M122.795963,13.6574458 C122.79591,13.9216666 122.79883,14.1859237 122.795277,14.450108 C122.78877,14.9298442 122.445783,15.2944422 122.004183,15.2958619 C121.561247,15.2972816 121.20929,14.9186325 121.208481,14.4364575 C121.207531,13.8965313 121.205139,13.3565323 121.211013,12.816679 C121.214883,12.4625828 121.411122,12.1786688 121.71744,12.0581615 C122.03132,11.9347056 122.351796,12.0098384 122.585021,12.2657778 C122.733159,12.4283289 122.793255,12.6279915 122.796737,12.8475293 C122.798935,12.9853456 122.796227,13.1232529 122.796016,13.2610692 C122.795805,13.3931887 122.795998,13.52529 122.795963,13.6573912 L122.795963,13.6574458 Z M123.855317,23.605228 C123.855317,24.1454454 123.855317,24.6780366 123.855317,25.2250429 C123.158912,25.2250429 122.462561,25.2250429 121.753863,25.2250429 C121.753863,24.6895031 121.753863,24.1527985 121.753863,23.605228 C122.453099,23.605228 123.149503,23.605228 123.855317,23.605228 Z M118.552429,23.6032624 C119.257891,23.6032624 119.950215,23.6032624 120.652511,23.6032624 C120.652511,24.1445172 120.652511,24.676981 120.652511,25.2244423 C119.958059,25.2244423 119.261813,25.2244423 118.552429,25.2244423 C118.552429,24.6913232 118.552429,24.154837 118.552429,23.6032624 Z M117.450269,25.2306487 C116.748729,25.2306487 116.056282,25.2306487 115.350539,25.2306487 C115.350539,24.6922333 115.350539,24.1555286 115.350539,23.6065567 C116.04733,23.6065567 116.743681,23.6065567 117.450269,23.6065567 C117.450269,24.1444444 117.450269,24.6770356 117.450269,25.2306487 Z M112.143512,25.2291199 C112.143512,24.686864 112.143512,24.1542182 112.143512,23.60794 C112.842537,23.60794 113.538976,23.60794 114.246883,23.60794 C114.246883,24.1455728 114.246883,24.68215 114.246883,25.2291199 C113.548896,25.2291199 112.856343,25.2291199 112.143512,25.2291199 Z M121.752913,21.3891738 C122.459166,21.3891738 123.147762,21.3891738 123.850568,21.3891738 C123.850568,21.9295914 123.850568,22.4663324 123.850568,23.016633 C123.157171,23.016633 122.460732,23.016633 121.752913,23.016633 C121.752913,22.4787271 121.752913,21.9421317 121.752913,21.3891738 Z M120.653936,21.3951073 C120.653936,21.9379637 120.653936,22.470555 120.653936,23.0166148 C119.954999,23.0166148 119.258647,23.0166148 118.550811,23.0166148 C118.550811,22.4784723 118.550811,21.9417859 118.550811,21.3951073 C119.248605,21.3951073 119.941087,21.3951073 120.653936,21.3951073 Z M115.345895,23.0196725 C115.345895,22.4769071 115.345895,21.9445342 115.345895,21.398529 C116.044692,21.398529 116.740938,21.398529 117.448826,21.398529 C117.448826,21.9361983 117.448826,22.4727027 117.448826,23.0196725 C116.750962,23.0196725 116.058638,23.0196725 115.345895,23.0196725 Z M114.247991,23.0213106 C113.546592,23.0213106 112.854127,23.0213106 112.148366,23.0213106 C112.148366,22.4830225 112.148366,21.9463361 112.148366,21.3973096 C112.845087,21.3973096 113.541386,21.3973096 114.247991,21.3973096 C114.247991,21.9351426 114.247991,22.4677521 114.247991,23.0213106 Z M121.75177,19.1851139 C122.453539,19.1851139 123.146038,19.1851139 123.851676,19.1851139 C123.851676,19.723402 123.851676,20.2599974 123.851676,20.8087873 C123.154902,20.8087873 122.458428,20.8087873 121.75177,20.8087873 C121.75177,20.2719917 121.75177,19.7393459 121.75177,19.1851139 Z M118.547927,20.8102616 C118.547927,20.2677873 118.547927,19.7351961 118.547927,19.1892819 C119.246706,19.1892819 119.94318,19.1892819 120.651157,19.1892819 C120.651157,19.7261685 120.651157,20.2629095 120.651157,20.8102616 C119.953363,20.8102616 119.260811,20.8102616 118.547927,20.8102616 Z M117.451113,19.188208 C117.451113,19.7363609 117.451113,20.2689522 117.451113,20.8111534 C116.749432,20.8111534 116.057055,20.8111534 115.35089,20.8111534 C115.35089,20.2739756 115.35089,19.7373256 115.35089,19.188208 C116.045782,19.188208 116.742151,19.188208 117.451113,19.188208 Z" id="Shape-Copy"></path>
                </g>
            </g>
        </g>
    </g>
</svg>