<?xml version="1.0" encoding="UTF-8"?>
<svg width="16px" height="16px" viewBox="0 0 16 16" version="1.1" xmlns="http://www.w3.org/2000/svg" xmlns:xlink="http://www.w3.org/1999/xlink">
    <!-- Generator: Sketch 49.3 (51167) - http://www.bohemiancoding.com/sketch -->
    <title>tip</title>
    <desc>Created with Sketch.</desc>
    <defs></defs>
    <g id="Page-1" stroke="none" stroke-width="1" fill="none" fill-rule="evenodd">
        <g id="租户_求租发布_01发布" transform="translate(-128.000000, -951.000000)" fill="#47C98E" fill-rule="nonzero">
            <g id="item" transform="translate(0.000000, 123.000000)">
                <g id="Group-5" transform="translate(0.000000, 394.000000)">
                    <g id="Group-15" transform="translate(128.000000, 434.000000)">
                        <path d="M5.07530526e-16,8 C5.07530526e-16,3.581722 3.581722,-2.53765263e-16 8,0 C12.418278,2.53765263e-16 16,3.581722 16,8 C16,12.418278 12.418278,16 8,16 C3.581722,16 5.07530526e-16,12.418278 5.07530526e-16,8 Z M6.88875,3.42896429 C6.88875,4.06014686 7.40042457,4.57182143 8.03160714,4.57182143 C8.66278971,4.57182143 9.17446429,4.06014686 9.17446429,3.42896429 C9.17446429,2.79778171 8.66278971,2.28610714 8.03160714,2.28610714 C7.40042457,2.28610714 6.88875,2.79778171 6.88875,3.42896429 Z M9.18726786,12.5689107 L9.18726786,6.854625 C9.18726786,6.22344643 8.67558929,5.71176786 8.04441071,5.71176786 C7.41323214,5.71176786 6.90155357,6.22344643 6.90155357,6.854625 L6.90155357,12.5689107 C6.90155357,13.2000893 7.41323214,13.7117679 8.04441071,13.7117679 C8.67558929,13.7117679 9.18726786,13.2000893 9.18726786,12.5689107 Z" id="tip"></path>
                    </g>
                </g>
            </g>
        </g>
    </g>
</svg>