<?xml version="1.0" encoding="UTF-8"?>
<svg width="54px" height="18px" viewBox="0 0 54 18" version="1.1" xmlns="http://www.w3.org/2000/svg" xmlns:xlink="http://www.w3.org/1999/xlink">
    <!-- Generator: Sketch 49.3 (51167) - http://www.bohemiancoding.com/sketch -->
    <title>wodefabu</title>
    <desc>Created with Sketch.</desc>
    <defs>
        <linearGradient x1="0%" y1="50%" x2="100%" y2="50%" id="linearGradient-1">
            <stop stop-color="#FFAB42" offset="0%"></stop>
            <stop stop-color="#FF8200" offset="100%"></stop>
        </linearGradient>
    </defs>
    <g id="Page-1" stroke="none" stroke-width="1" fill="none" fill-rule="evenodd">
        <g id="租户_求租发布_02信息列表" transform="translate(-26.000000, -159.000000)">
            <g id="item" transform="translate(0.000000, 123.000000)">
                <g id="01" transform="translate(18.000000, 20.000000)">
                    <g id="wodefabu" transform="translate(8.000000, 16.000000)">
                        <rect id="Combined-Shape" fill="url(#linearGradient-1)" x="0" y="0" width="54" height="18" rx="9"></rect>
                        <path d="M12.3733066,8.6015625 L13.6332163,8.6015625 L12.3778224,9.84375 L12.3778224,12.2625 L11.1675866,13.3265625 L9.56447566,13.3265625 L9.56447566,12.28125 L10.9417963,12.28125 L10.9417963,11.2640625 L10.8289012,11.371875 L9,11.371875 L10.9417963,9.4875 L10.9417963,7.828125 L9.23482188,7.828125 L9.23482188,6.8109375 L10.9417963,6.8109375 L10.9417963,6.0890625 L9.3386854,6.24375 L9.3386854,5.11875 L13.1996989,4.715625 L12.9513297,5.896875 L12.3733066,5.953125 L12.3733066,6.8109375 L13.8770697,6.8109375 L13.7822378,4.696875 L15.1866533,4.696875 L15.286001,6.8109375 L17.4535876,6.8109375 L17.0110386,7.828125 L15.3718013,7.828125 L15.4395384,8.840625 L15.818866,8.428125 L17.5980933,8.428125 L15.5614651,10.640625 L15.6653287,12.28125 L17.4987456,12.28125 L17.0878073,13.3265625 L14.3060712,13.3265625 L14.2112393,11.7 L12.8294029,11.7046875 L14.1209232,10.2890625 L13.9583542,7.828125 L12.3733066,7.828125 L12.3733066,8.6015625 Z M16.4555946,4.846875 C16.5850483,4.85000002 16.7099843,4.88515591 16.8304064,4.95234375 C16.9508285,5.01953159 17.0479173,5.11874934 17.1216759,5.25 C17.1954344,5.38125066 17.2323131,5.51562431 17.2323131,5.653125 C17.2293025,5.7937507 17.1728555,5.96328026 17.0629704,6.16171875 C16.9530853,6.36015724 16.7506287,6.459375 16.4555946,6.459375 C16.3140986,6.46250002 16.1831416,6.42812536 16.0627195,6.35625 C15.9422974,6.28437464 15.8467139,6.18437564 15.7759659,6.05625 C15.7052179,5.92812436 15.6713497,5.7937507 15.6743603,5.653125 C15.6743603,5.5124993 15.7097337,5.3773444 15.7804817,5.24765625 C15.8512297,5.1179681 15.9483185,5.01875034 16.0717511,4.95 C16.1951838,4.88124966 16.3231303,4.846875 16.4555946,4.846875 Z M23.1525339,13.21875 L23.1525339,12.1640625 L25.0762669,12.1640625 L25.0762669,6.215625 L24.1595585,6.215625 L23.960863,6.5625 L22.4209734,6.5625 L23.4099348,4.5 L24.9724034,4.5 L24.6608128,5.1328125 L26.4264927,5.1328125 L26.4264927,12.0421875 L25.0762669,13.21875 L23.1525339,13.21875 Z M20.7185148,5.1328125 L22.1771199,5.1328125 L22.1771199,12.05625 L20.8675364,13.21875 L18.5464124,13.21875 L18.5464124,5.1328125 L19.160562,5.1328125 L19.4044155,4.51875 L20.9307577,4.51875 L20.7185148,5.1328125 Z M20.8223783,8.503125 L20.8223783,6.215625 L19.9101856,6.215625 L19.9101856,8.503125 L20.8223783,8.503125 Z M20.8223783,8.7375 L20.4565981,9.5953125 L19.9101856,9.5953125 L19.9101856,12.1640625 L20.8223783,12.1640625 L20.8223783,8.7375 Z M23.7576518,8.04375 C23.8991477,8.04375 24.037631,8.08124963 24.1731059,8.15625 C24.3085807,8.23125038 24.4147011,8.34062428 24.4914701,8.484375 C24.5682392,8.62812572 24.6073758,8.77890546 24.6088811,8.93671875 C24.6103864,9.09453204 24.5735077,9.24062433 24.4982439,9.375 C24.4229801,9.50937567 24.3176123,9.61718709 24.1821375,9.6984375 C24.0466626,9.77968791 23.9051688,9.81875002 23.7576518,9.815625 C23.6101347,9.815625 23.4678883,9.77578165 23.3309082,9.69609375 C23.1939281,9.61640585 23.0878077,9.50937567 23.0125439,9.375 C22.9372801,9.24062433 22.901154,9.09218831 22.9041646,8.9296875 C22.9041646,8.77343672 22.9425485,8.62421946 23.0193176,8.48203125 C23.0960867,8.33984304 23.2029597,8.23203162 23.3399398,8.15859375 C23.4769199,8.08515588 23.6161558,8.04687502 23.7576518,8.04375 Z M33.8685399,11.296875 L35.9367787,13.2796875 L33.9994982,13.2796875 L32.9292524,12.2484375 L31.9448068,13.2515625 L29.9533367,13.2515625 L31.9131962,11.278125 L30.3733066,9.8015625 L32.3105871,9.8015625 L32.8569995,10.3265625 L33.936277,9.234375 L30.4591069,9.234375 L29.1088811,13.2609375 L27.6141495,13.2609375 L29.5694932,7.434375 L27.6547918,7.434375 L27.6547918,6.5625 L28.34571,4.6359375 L29.7817361,4.6359375 L29.1901656,6.421875 L29.9081786,6.421875 L30.526844,4.5796875 L32.0170597,4.5796875 L31.4029102,6.421875 L36.0632213,6.421875 L35.6071249,7.434375 L31.059709,7.434375 L30.7977923,8.221875 L35.7832413,8.221875 L35.7832413,9.3375 L33.8685399,11.296875 Z M34.609132,4.5140625 C34.7536385,4.5140625 34.8988954,4.55390585 35.0449072,4.63359375 C35.1909189,4.71328165 35.3053182,4.82734301 35.3881084,4.97578125 C35.4708986,5.12421949 35.512293,5.28124917 35.512293,5.446875 C35.5092825,5.61562584 35.467888,5.77265552 35.3881084,5.91796875 C35.3083288,6.06328198 35.1991979,6.17734334 35.0607125,6.26015625 C34.9222271,6.34296916 34.7717018,6.38281252 34.609132,6.3796875 C34.4465622,6.3796875 34.2960368,6.33906291 34.1575514,6.2578125 C34.019066,6.17656209 33.9099352,6.06328198 33.8301555,5.91796875 C33.7503759,5.77265552 33.7097341,5.61640709 33.7082288,5.44921875 C33.7067235,5.28203041 33.748118,5.12500073 33.8324134,4.978125 C33.9136983,4.82812425 34.027345,4.71406289 34.1733567,4.6359375 C34.3193685,4.55781211 34.4646255,4.51718752 34.609132,4.5140625 Z M37.2237832,8.821875 L36.7134972,8.821875 L37.6527847,6.3515625 L36.8399398,6.3515625 L36.8399398,5.240625 L38.0817863,5.240625 L38.3572504,4.5328125 L39.8790768,4.5328125 L39.6036126,5.240625 L45,5.240625 L44.5168088,6.3421875 L39.1746111,6.3515625 L38.8314099,7.228125 L40.2945309,7.228125 L40.2945309,6.5390625 L41.7260411,6.5390625 L41.7260411,7.228125 L43.4781736,7.228125 L43.4781736,7.21875 L44.9096839,7.21875 L44.9096839,11.775 L43.7220271,12.928125 L42.6427496,12.928125 L42.6427496,11.8265625 L43.5368791,11.821875 L43.5368791,8.334375 L41.7260411,8.334375 L41.7260411,12.8625 L40.2945309,13.5 L40.2945309,8.334375 L38.6011039,8.334375 L38.6011039,12.5296875 L37.228299,13.1671875 L37.228299,12.9984375 L37.2237832,13.0125 L37.2237832,8.821875 Z" id="Combined-Shape" fill="#FFFFFF"></path>
                    </g>
                </g>
            </g>
        </g>
    </g>
</svg>