<?xml version="1.0" encoding="UTF-8"?>
<svg width="90px" height="90px" viewBox="0 0 90 90" version="1.1" xmlns="http://www.w3.org/2000/svg" xmlns:xlink="http://www.w3.org/1999/xlink">
    <!-- Generator: Sketch 49.3 (51167) - http://www.bohemiancoding.com/sketch -->
    <title>yijujue</title>
    <desc>Created with Sketch.</desc>
    <defs></defs>
    <g id="Page-1" stroke="none" stroke-width="1" fill="none" fill-rule="evenodd">
        <g id="Artboard" transform="translate(-818.000000, -336.000000)" fill-rule="nonzero">
            <g id="yijujue" transform="translate(818.000000, 336.000000)">
                <polygon id="Path-2" fill="#FF6464" opacity="0.800000012" points="90 0 0 90 56 90 90 58"></polygon>
                <path d="M50.6598906,52.9183025 L50.652438,58.3294374 L48.3346873,60.2705509 L40.2560966,60.2855402 L40.2560966,64.6474246 L50.8387524,64.6474246 L50.0338743,66.3936773 L37.6700532,66.3936773 L37.6775058,56.6881098 L40.248644,56.6881098 L40.248644,58.5392875 L48.0589421,58.5317929 L48.0589421,54.6645552 L37.5060966,54.6645552 L37.5060966,52.9183025 L50.6598906,52.9183025 Z M58.2764218,52.7309364 L66.1314353,52.7309364 L65.4234407,54.3797586 L60.6388879,54.3797586 L60.6388879,55.9011719 L65.9749312,55.9011719 L65.9749312,61.3647693 L63.6050125,63.238431 L60.6388879,63.238431 L60.6388879,64.872264 L66.0569096,64.872264 L65.296747,66.506097 L58.2764218,66.506097 L58.2764218,52.7309364 Z M63.6050125,57.5125209 L60.6388879,57.5125209 L60.6388879,61.6420713 L63.6050125,61.6420713 L63.6050125,57.5125209 Z M57.0765573,56.8305081 L58.1646331,56.8305081 L57.0765573,59.2138057 L57.0765573,64.6624139 L55.0270993,66.4761184 L53.1266928,66.4761184 L53.1266928,64.8048122 L54.6917334,64.8048122 L54.6917334,62.5564182 L52.6273703,62.5564182 L54.6917334,58.5542768 L54.6917334,55.4589877 L52.5453919,55.4589877 L52.5453919,53.7502083 L54.6917334,53.7502083 L54.6917334,52.5360755 L57.0765573,52.5360755 L57.0765573,53.7502083 L58.0826548,53.7502083 L57.3001345,55.4589877 L57.0765573,55.4589877 L57.0765573,56.8305081 Z M73.5243892,56.2534203 L77.4444434,56.2534203 L78.7039285,54.8144481 L76.1178852,54.8144481 L75.8421399,55.3240841 L73.3976955,55.3240841 L74.8062321,52.611022 L77.1985085,52.611022 L76.9302158,53.1281526 L81.3495925,53.1281526 L81.3495925,54.859416 L80.1422754,56.2534203 L81.3868554,56.2534203 L81.3868554,61.2148764 L79.1883459,63.0810434 L75.6930884,63.0810434 L75.6930884,64.7973175 L81.5060966,64.7973175 L80.7757443,66.483613 L73.5243892,66.483613 L73.5243892,56.2534203 Z M76.3787253,57.8947479 L75.6930884,57.8947479 L75.6930884,61.4397158 L76.3787253,61.4397158 L76.3787253,57.8947479 Z M79.1883459,57.8947479 L78.4728987,57.8947479 L78.4728987,61.4397158 L79.1883459,61.4397158 L79.1883459,57.8947479 Z M72.1680207,52.506097 L69.9173432,56.852992 L70.5284543,56.852992 L71.147018,55.5938914 L73.5765573,55.5938914 L70.5284543,61.7994588 L73.0772348,61.7994588 L72.2723567,63.5906794 L67.9498635,63.5906794 L67.9498635,61.8744053 L69.6937659,58.5617715 L67.8157172,58.5617715 L67.8157172,56.4033132 L69.6937659,52.506097 L72.1680207,52.506097 Z M73.2113811,64.6774032 L72.3617876,66.4161612 L67.8380749,66.4161612 L67.8380749,64.6774032 L73.2113811,64.6774032 Z" id="已拒绝" fill="#FFFFFF" transform="translate(59.506097, 59.506097) rotate(-45.000000) translate(-59.506097, -59.506097) "></path>
            </g>
        </g>
    </g>
</svg>