<?xml version="1.0" encoding="UTF-8"?>
<svg width="90px" height="90px" viewBox="0 0 90 90" version="1.1" xmlns="http://www.w3.org/2000/svg" xmlns:xlink="http://www.w3.org/1999/xlink">
    <!-- Generator: Sketch 49.3 (51167) - http://www.bohemiancoding.com/sketch -->
    <title>yiwancheng</title>
    <desc>Created with Sketch.</desc>
    <defs>
        <linearGradient x1="0%" y1="50%" x2="100%" y2="50%" id="linearGradient-1">
            <stop stop-color="#FFAB42" offset="0%"></stop>
            <stop stop-color="#FF8200" offset="100%"></stop>
        </linearGradient>
    </defs>
    <g id="Page-1" stroke="none" stroke-width="1" fill="none" fill-rule="evenodd">
        <g id="Artboard" transform="translate(-852.000000, -459.000000)" fill-rule="nonzero">
            <g id="yiwancheng" transform="translate(852.000000, 459.000000)">
                <polygon id="Path-2" fill="url(#linearGradient-1)" opacity="0.800000012" points="90 0 0 90 56 90 90 58"></polygon>
                <path d="M52.3255564,52.900697 L52.3182898,58.1209418 L50.058368,59.993578 L42.1813418,60.0080385 L42.1813418,64.2160474 L52.4999555,64.2160474 L51.7151595,65.900697 L39.6598214,65.900697 L39.667088,56.5375157 L42.1740751,56.5375157 L42.1740751,58.3233889 L49.7895027,58.3161587 L49.7895027,54.5853467 L39.4999555,54.5853467 L39.4999555,52.900697 L52.3255564,52.900697 Z M67.8102972,60.0893421 L67.1253356,61.8924917 L65.1703411,61.8924917 L65.1703411,65.2625704 L67.9387275,65.2625704 L67.1966858,67.0893421 L62.7587055,67.0893421 L62.7587055,61.8924917 L60.1758296,61.8924917 L57.6785738,67.0893421 L54.9387275,67.0893421 L57.6785738,61.8924917 L54.9387275,61.8924917 L54.9387275,60.0893421 L67.8102972,60.0893421 Z M54.5629746,59.6366678 L54.5629746,57.6366678 L66.5629746,57.6366678 L65.8966935,59.6366678 L54.5629746,59.6366678 Z M54.3385091,56.2042791 L54.3385091,52.9272106 L59.431143,52.9272106 C59.5133607,52.8135259 59.6439397,52.6640081 59.8228841,52.4786526 C60.0018284,52.2932971 60.2968404,52.2018565 60.7079287,52.2043279 C61.1190171,52.2067993 61.4454647,52.2525196 61.6872814,52.3414902 C61.9290981,52.4304609 62.0959491,52.5416725 62.1878394,52.6751284 L62.369201,52.9272106 L67.3385091,52.9272106 L67.3385091,55.3145772 L64.8865001,56.078238 L64.8865001,54.5212598 L56.7832635,54.5212598 L56.7832635,55.3961333 L54.3385091,56.2042791 Z M71.5073615,57.4199198 L76.1195483,57.4199198 L76.1269515,65.0807198 L74.4020084,66.7681865 L72.5438079,66.7607198 L72.5438079,65.1553865 L73.9652202,65.1553865 L73.9652202,59.0103198 L71.5073615,59.0103198 L71.5073615,65.8871198 L69.3234207,66.7831198 L69.3160175,54.3137865 L76.6599811,54.3137865 L76.4897077,52.7831198 L78.7106644,52.7831198 L78.9327601,54.3137865 L79.5028057,54.3212532 L79.2140813,53.3431198 L81.2869742,53.3431198 L81.6793433,54.3212532 L82.2197761,54.3137865 L81.4572476,55.9265865 L79.125243,55.9265865 L79.6064503,61.9820532 L80.2061086,57.1735198 L82.2641952,57.1735198 L81.3239902,63.6396532 L79.7471109,63.6471198 L79.9099811,65.0433865 L82.3160175,65.0359198 L81.5164731,66.6487198 L77.8444913,66.6412532 L76.8228512,55.9265865 L71.5073615,55.9265865 L71.5073615,57.4199198 Z" id="已完成" fill="#FFFFFF" transform="translate(60.907986, 59.646811) rotate(-45.000000) translate(-60.907986, -59.646811) "></path>
            </g>
        </g>
    </g>
</svg>