<?xml version="1.0" encoding="UTF-8"?>
<svg width="90px" height="90px" viewBox="0 0 90 90" version="1.1" xmlns="http://www.w3.org/2000/svg" xmlns:xlink="http://www.w3.org/1999/xlink">
    <!-- Generator: Sketch 49.3 (51167) - http://www.bohemiancoding.com/sketch -->
    <title>yuyuechenggong</title>
    <desc>Created with Sketch.</desc>
    <defs></defs>
    <g id="Page-1" stroke="none" stroke-width="1" fill="none" fill-rule="evenodd">
        <g id="Artboard" transform="translate(-707.000000, -336.000000)" fill-rule="nonzero">
            <g id="yuyuechenggong" transform="translate(707.000000, 336.000000)">
                <polygon id="Path-2" fill="#FFB400" opacity="0.800000012" points="90 0 0 90 56 90 90 58"></polygon>
                <path d="M30.6612374,66.3164355 L30.6612374,64.7229887 L31.6991706,64.7229887 L31.6991706,58.5173176 L30.3980994,58.5173176 L30.3980994,56.9750366 L31.1582758,56.9750366 L30.4492651,55.0307392 L32.4666564,55.0307392 L32.9417667,56.3098822 L33.8262027,54.4094412 L30.3980994,54.4094412 L30.3980994,52.8744695 L35.9532349,52.8744695 L35.9532349,54.4094412 L34.7106388,56.9750366 L36.1213508,56.9750366 L36.1213508,59.8841734 L34.2501473,60.7466812 L34.2501473,58.5173176 L33.9285342,58.5173176 L33.9285342,64.4963977 L31.8307396,66.3164355 L30.6612374,66.3164355 Z M40.938238,58.0129698 L40.938238,62.0842994 L43.5549992,66.2433416 L41.106354,66.2433416 L39.922233,64.3209723 L38.5773054,66.2433416 L36.1505884,66.2433416 L38.8112059,62.0842994 L38.8112059,58.0129698 L40.938238,58.0129698 Z M43.5403804,52.7940662 L42.8094416,54.482535 L41.1209727,54.482535 L40.938238,55.703203 L43.4819053,55.703203 L43.4819053,61.5653328 L41.3548732,62.5594096 L41.3548732,57.4062906 L38.5773054,57.4062906 L38.5773054,61.9600398 L36.4502733,62.9102603 L36.4502733,55.703203 L38.6357806,55.703203 L38.8842998,54.482535 L36.4941296,54.482535 L36.4941296,52.7940662 L43.5403804,52.7940662 Z M52.7429009,66.1702477 L52.7429009,64.5548728 L56.3756671,64.5548728 L56.3756671,55.2792584 L53.9562594,55.2792584 L53.6346463,55.9444128 L51.090979,55.9444128 L52.5674756,52.6040221 L55.0088114,52.6040221 L54.5775575,53.5907896 L58.5611744,53.5907896 L58.5611744,64.3648287 L56.3756671,66.1702477 L52.7429009,66.1702477 Z M49.7533609,52.7794475 L47.3631908,57.245484 L47.743279,57.245484 L48.7008089,55.5789434 L51.1421448,55.5789434 L47.9406325,61.6384267 L51.2737138,61.6384267 L50.4331341,63.3853706 L45.2215399,63.3853706 L45.2215399,61.7188299 L46.9319368,58.8900965 L45.1703741,58.8900965 L45.1703741,56.8069207 L47.1731467,52.7794475 L49.7533609,52.7794475 Z M51.222548,64.4744695 L50.3600402,66.1702477 L45.2653962,66.1702477 L45.2653962,64.4744695 L51.222548,64.4744695 Z M53.3788177,57.8887102 C53.641957,57.8887102 53.9063106,57.9581487 54.1718864,58.0970278 C54.4374622,58.2359069 54.6433413,58.4344766 54.7895298,58.692743 C54.9357183,58.9510093 55.0088114,59.2263269 55.0088114,59.5187039 C55.0039385,59.8159539 54.9320635,60.0876168 54.7931845,60.3337008 C54.6543054,60.5797847 54.4545174,60.7783545 54.1938146,60.9294159 C53.9331117,61.0804774 53.6614488,61.1535706 53.3788177,61.1486976 C53.0913137,61.1486976 52.820869,61.0743862 52.5674756,60.9257613 C52.3140822,60.7771363 52.1155124,60.5785665 51.9717604,60.3300461 C51.8280084,60.0815256 51.7549152,59.8122991 51.7524787,59.5223586 C51.7500423,59.2324181 51.8243536,58.9583187 51.9754151,58.7000524 C52.1264765,58.4369131 52.3311374,58.2371251 52.5894037,58.1006825 C52.8476701,57.9642399 53.1108055,57.8935832 53.3788177,57.8887102 Z M62.8444762,57.0188929 L67.3982254,57.0188929 L67.4055348,64.5183258 L65.7024472,66.1702477 L63.8677906,66.1629383 L63.8677906,64.5914197 L65.2711933,64.5914197 L65.2711933,58.5757928 L62.8444762,58.5757928 L62.8444762,65.3077398 L60.6882065,66.1848665 L60.6808971,53.9781872 L67.9318108,53.9781872 L67.7636949,52.4797625 L69.9565115,52.4797625 L70.1757932,53.9781872 L70.7386161,53.9854966 L70.4535499,53.0279667 L72.5001788,53.0279667 L72.8875764,53.9854966 L73.4211618,53.9781872 L72.6682947,55.5570152 L70.3658373,55.5570152 L70.8409475,61.4849295 L71.433008,56.7776831 L73.4650181,56.7776831 L72.5367257,63.1076138 L70.9798259,63.1149232 L71.1406325,64.4817789 L73.5161838,64.4744695 L72.7267698,66.0532975 L69.101313,66.0459881 L68.0926174,55.5570152 L62.8444762,55.5570152 L62.8444762,57.0188929 Z M77.0100717,63.9993592 L77.0100717,54.8991702 L75.211962,54.8991702 L75.211962,53.0937512 L81.4030143,53.0937512 L80.5624346,54.8991702 L79.3198385,54.8991702 L79.3198385,63.9993592 L81.2787547,63.9993592 L80.4454844,65.7974689 L75.1388681,65.8047783 L75.1388681,63.9993592 L77.0100717,63.9993592 Z M82.4774945,55.2573303 L81.4761082,55.2573303 L81.4761082,53.5834802 L82.674848,53.5834802 L82.7771794,52.7209723 L85.1527308,52.7209723 L85.0577087,53.5834802 L88.39079,53.5834802 L88.3980994,64.4671601 L86.5780616,66.1994853 L85.0138524,66.1848665 L85.0138524,64.4598507 L86.0444762,64.4671601 L86.059095,55.2573303 L84.8530458,55.2573303 L83.5446652,66.2652698 L81.1691139,66.2652698 L82.4774945,55.2573303 Z" id="预约成功" fill="#FFFFFF" transform="translate(59.398099, 59.398099) rotate(-45.000000) translate(-59.398099, -59.398099) "></path>
            </g>
        </g>
    </g>
</svg>