<?xml version="1.0" encoding="UTF-8"?>
<svg width="90px" height="90px" viewBox="0 0 90 90" version="1.1" xmlns="http://www.w3.org/2000/svg" xmlns:xlink="http://www.w3.org/1999/xlink">
    <!-- Generator: Sketch 49.3 (51167) - http://www.bohemiancoding.com/sketch -->
    <title>yuyueshenqing</title>
    <desc>Created with Sketch.</desc>
    <defs></defs>
    <g id="Page-1" stroke="none" stroke-width="1" fill="none" fill-rule="evenodd">
        <g id="Artboard" transform="translate(-717.000000, -459.000000)" fill-rule="nonzero">
            <g id="yuyueshenqing" transform="translate(717.000000, 459.000000)">
                <polygon id="Path-2" fill="#2F5BFF" opacity="0.800000012" points="90 0 0 90 56 90 90 58"></polygon>
                <path d="M29.7178594,66.1278898 L29.7178594,64.539134 L30.7513643,64.539134 L30.7513643,58.3517316 L29.4558441,58.3517316 L29.4558441,56.8139908 L30.2127772,56.8139908 L29.5067915,54.8754172 L31.5155756,54.8754172 L31.9886588,56.1507946 L32.8693213,54.2559481 L29.4558441,54.2559481 L29.4558441,52.7254952 L34.9872784,52.7254952 L34.9872784,54.2559481 L33.7499839,56.8139908 L35.1546771,56.8139908 L35.1546771,59.7145634 L33.2914571,60.5745322 L33.2914571,58.3517316 L32.9712162,58.3517316 L32.9712162,64.31321 L30.8823719,66.1278898 L29.7178594,66.1278898 Z M39.9510129,57.8488685 L39.9510129,61.9082126 L42.5566096,66.0550111 L40.1184116,66.0550111 L38.9393427,64.1383011 L37.6001533,66.0550111 L35.1837899,66.0550111 L37.8330558,61.9082126 L37.8330558,57.8488685 L39.9510129,57.8488685 Z M42.5420532,52.6453287 L41.8142329,54.3288268 L40.132968,54.3288268 L39.9510129,55.5459013 L42.4838276,55.5459013 L42.4838276,61.3907737 L40.3658705,62.3819242 L40.3658705,57.2439752 L37.6001533,57.2439752 L37.6001533,61.7843188 L35.4821962,62.731742 L35.4821962,55.5459013 L37.6583789,55.5459013 L37.9058378,54.3288268 L35.5258655,54.3288268 L35.5258655,52.6453287 L42.5420532,52.6453287 Z M51.7053108,65.9821324 L51.7053108,64.3715129 L55.3225777,64.3715129 L55.3225777,55.1232048 L52.9134925,55.1232048 L52.5932516,55.786401 L50.0604369,55.786401 L51.5306339,52.455844 L53.9615537,52.455844 L53.5321398,53.4397066 L57.4987604,53.4397066 L57.4987604,64.1820283 L55.3225777,65.9821324 L51.7053108,65.9821324 Z M48.7285258,52.6307529 L46.3485534,57.083642 L46.7270199,57.083642 L47.6804645,55.4220075 L50.1113843,55.4220075 L46.9235314,61.4636525 L50.242392,61.4636525 L49.4053986,63.2054536 L44.2160399,63.2054536 L44.2160399,61.543819 L45.9191394,58.723413 L44.1650925,58.723413 L44.1650925,56.6463698 L46.1593201,52.6307529 L48.7285258,52.6307529 Z M50.1914446,64.2913464 L49.3326166,65.9821324 L44.2597091,65.9821324 L44.2597091,64.2913464 L50.1914446,64.2913464 Z M52.3385145,57.7249747 C52.6005311,57.7249747 52.8637568,57.7942088 53.1281995,57.932679 C53.3926422,58.0711492 53.5976429,58.2691344 53.7432077,58.5266405 C53.8887724,58.7841465 53.9615537,59.0586536 53.9615537,59.3501699 C53.9567016,59.6465448 53.8851333,59.917408 53.7468468,60.1627675 C53.6085602,60.408127 53.4096246,60.6061122 53.1500341,60.756729 C52.8904436,60.9073457 52.6199397,60.9802237 52.3385145,60.9753651 C52.0522371,60.9753651 51.7829462,60.9012725 51.5306339,60.753085 C51.2783216,60.6048976 51.0805991,60.4069124 50.9374604,60.1591236 C50.7943217,59.9113347 50.7215404,59.6429008 50.7191143,59.3538138 C50.7166882,59.0647268 50.7906825,58.7914344 50.9410995,58.5339284 C51.0915164,58.2715637 51.2953041,58.0723639 51.5524685,57.9363229 C51.809633,57.800282 52.0716457,57.7298333 52.3385145,57.7249747 Z M59.3401458,53.5636004 L64.5950084,53.5636004 L64.5950084,52.5943136 L66.9021987,52.5943136 L66.9021987,53.5636004 L72.1279485,53.5636004 L72.1279485,62.5276816 L69.7989236,64.7577701 L66.9021987,64.7577701 L66.9021987,65.5448602 L64.5950084,66.455844 L64.5950084,64.7577701 L59.3401458,64.7577701 L59.3401458,53.5636004 Z M61.640058,59.9477753 L61.640058,63.0378326 L64.5950084,63.0378326 L64.5950084,59.9477753 L61.640058,59.9477753 Z M61.640058,55.2325228 L61.640058,58.2497014 L64.5950084,58.2497014 L64.5950084,55.2325228 L61.640058,55.2325228 Z M66.9021987,55.2325228 L66.9021987,58.2497014 L69.5077954,58.2497014 L68.845479,59.9477753 L66.9021987,59.9477753 L66.9021987,63.0378326 L69.8207582,63.0378326 L69.8280364,55.2325228 L66.9021987,55.2325228 Z M81.6696727,56.4495973 L78.6055492,56.4495973 L78.6055492,55.0721897 L81.6696727,55.0721897 L81.6696727,54.4235692 L78.6564967,54.4235692 L78.6564967,53.0534494 L81.6696727,53.0534494 L81.6696727,52.4631319 L83.9768631,52.4631319 L83.9841413,53.0534494 L87.4048967,53.0534494 L86.7134674,54.4235692 L83.9841413,54.4235692 L83.9841413,55.0721897 L87.3685057,55.0721897 L86.6843546,56.4495973 L83.9841413,56.4495973 L83.9841413,57.0617784 L87.4558441,57.0617784 L86.7644148,58.4100345 L78.4235942,58.4100345 L78.4235942,57.0617784 L81.6696727,57.0617784 L81.6696727,56.4495973 Z M78.5546018,66.0695869 L78.5546018,58.9274734 L87.2083852,58.9274734 L87.2083852,64.6994671 L84.9812551,66.0404354 L82.7177339,66.0404354 L82.7177339,64.6994671 L84.8939167,64.6994671 L84.8939167,60.246578 L80.8617922,60.246578 L80.8617922,60.9170621 L84.726518,60.9170621 L84.3917206,62.0321064 L80.8617922,62.0248185 L80.8617922,62.6661512 L84.5300065,62.6661512 L84.224322,63.7739075 L80.8617922,63.7739075 L80.8617922,65.0347092 L80.7598973,65.0857243 L78.5546018,66.0695869 Z M73.9911685,56.522476 L77.1135176,56.522476 L77.1135176,64.2330434 L78.2052481,64.2330434 L77.3973675,65.9748445 L74.8063272,65.9748445 L74.8063272,58.2642771 L73.9911685,58.2642771 L73.9911685,56.522476 Z M76.0072307,52.57245 C76.2207258,52.57245 76.4378567,52.631967 76.6586299,52.7510028 C76.8794032,52.8700386 77.0516523,53.0364433 77.1753823,53.250222 C77.2991124,53.4640006 77.3609765,53.6899223 77.3609765,53.9279939 C77.3561244,54.1709242 77.2942602,54.3980606 77.1753823,54.6094099 C77.0565044,54.8207592 76.8915335,54.9871639 76.6804645,55.108629 C76.4693956,55.2300942 76.2449866,55.2883965 76.0072307,55.2835379 C75.7646228,55.2835379 75.5377877,55.2228063 75.3267188,55.1013412 C75.1156498,54.979876 74.9518919,54.8159006 74.8354401,54.6094099 C74.7189882,54.4029192 74.6595502,54.1769974 74.6571241,53.9316379 C74.654698,53.6862783 74.7141361,53.459142 74.8354401,53.250222 C74.956744,53.0364433 75.1289931,52.8712532 75.3521925,52.7546467 C75.5753918,52.6380402 75.7937357,52.5773086 76.0072307,52.57245 Z" id="预约申请" fill="#FFFFFF" transform="translate(58.455844, 59.455844) rotate(-45.000000) translate(-58.455844, -59.455844) "></path>
            </g>
        </g>
    </g>
</svg>