<?xml version="1.0" encoding="UTF-8"?>
<svg width="90px" height="90px" viewBox="0 0 90 90" version="1.1" xmlns="http://www.w3.org/2000/svg" xmlns:xlink="http://www.w3.org/1999/xlink">
    <!-- Generator: Sketch 49.3 (51167) - http://www.bohemiancoding.com/sketch -->
    <title>yuyuezhong</title>
    <desc>Created with Sketch.</desc>
    <defs></defs>
    <g id="Page-1" stroke="none" stroke-width="1" fill="none" fill-rule="evenodd">
        <g id="Artboard" transform="translate(-929.000000, -336.000000)" fill-rule="nonzero">
            <g id="yuyuezhong" transform="translate(929.000000, 336.000000)">
                <polygon id="Path-2" fill="#2AE0A1" opacity="0.800000012" points="90 0 0 90 56 90 90 58"></polygon>
                <path d="M39.8373843,65.902425 L39.8373843,64.2428274 L40.9255069,64.2428274 L40.9255069,57.7795321 L39.5615222,57.7795321 L39.5615222,56.1732243 L40.3584571,56.1732243 L39.6151621,54.1482108 L41.7301046,54.1482108 L42.2281889,55.4804565 L43.155392,53.5011199 L39.5615222,53.5011199 L39.5615222,51.902425 L45.385277,51.902425 L45.385277,53.5011199 L44.082595,56.1732243 L45.5615222,56.1732243 L45.5615222,59.2031319 L43.5998364,60.1014462 L43.5998364,57.7795321 L43.2626717,57.7795321 L43.2626717,64.0068296 L41.063438,65.902425 L39.8373843,65.902425 Z M50.338716,56.9650996 L50.338716,60.9224709 L52.8125561,64.9650996 L50.4976499,64.9650996 L49.3782027,63.0965384 L48.1067318,64.9650996 L45.8125561,64.9650996 L48.3278572,60.9224709 L48.3278572,56.9650996 L50.338716,56.9650996 Z M52.25876,51.8620415 L51.5371105,53.5311166 L49.8701002,53.5311166 L49.6896879,54.737764 L52.2010281,54.737764 L52.2010281,60.5325617 L50.1010281,61.5152207 L50.1010281,56.42129 L47.35876,56.42129 L47.35876,60.9227351 L45.25876,61.8620415 L45.25876,54.737764 L47.416492,54.737764 L47.6618528,53.5311166 L45.302059,53.5311166 L45.302059,51.8620415 L52.25876,51.8620415 Z M61.4705486,65.3403337 L61.4705486,63.6733078 L64.8746582,63.6733078 L64.8746582,54.1011095 L62.6075349,54.1011095 L62.3061651,54.787532 L59.9226034,54.787532 L61.3061651,51.3403337 L63.5938363,51.3403337 L63.1897267,52.3586526 L66.9226034,52.3586526 L66.9226034,63.4771871 L64.8746582,65.3403337 L61.4705486,65.3403337 Z M58.7307549,51.3807172 L56.3810543,56.0126951 L56.754707,56.0126951 L57.6960244,54.284232 L60.0960244,54.284232 L56.948719,60.5688633 L60.2253657,60.5688633 L59.3990184,62.3807172 L54.2756651,62.3807172 L54.2756651,60.6522541 L55.9571022,57.7184153 L54.2253657,57.7184153 L54.2253657,55.5578364 L56.1942279,51.3807172 L58.7307549,51.3807172 Z M60.296673,64.037332 L59.4279613,66.037332 L54.296673,66.037332 L54.296673,64.037332 L60.296673,64.037332 Z M62.7692446,57.0631036 C63.0116657,57.0631036 63.2552055,57.1269999 63.4998713,57.2547942 C63.744537,57.3825886 63.9342063,57.5653094 64.0688847,57.8029621 C64.2035631,58.0406148 64.2709013,58.2939577 64.2709013,58.5629985 C64.266412,58.8365233 64.2001961,59.0865033 64.0722516,59.312946 C63.9443072,59.5393887 63.7602494,59.7221094 63.5200729,59.8611139 C63.2798964,60.0001183 63.0296228,60.0673775 62.7692446,60.0628934 C62.504377,60.0628934 62.2552257,59.9945133 62.0217831,59.8577509 C61.7883405,59.7209885 61.6054051,59.5382677 61.4729713,59.309583 C61.3405376,59.0808983 61.2731994,58.8331603 61.2709547,58.5663615 C61.2687101,58.2995627 61.3371706,58.0473408 61.4763383,57.8096881 C61.615506,57.5675514 61.8040529,57.3837096 62.0419848,57.2581572 C62.2799166,57.1326049 62.5223341,57.0675876 62.7692446,57.0631036 Z M74.4597711,53.0768706 L74.4597711,52.0106941 L76.7428736,52.0106941 L76.7428736,53.0768706 L82.1517379,53.0768706 L82.1445357,62.5106941 L80.5600482,64.4886353 L76.7428736,64.4812824 L76.7428736,65.0106941 L74.4597711,66.0106941 L74.4597711,64.4812824 L69.1517379,64.4812824 L69.1517379,53.0768706 L74.4597711,53.0768706 Z M74.2649067,54.140166 L71.2649067,54.140166 L71.2649067,62.140166 L74.2649067,62.140166 L74.2649067,54.140166 Z M76.1647391,62.8896193 L79.1647391,62.8971879 L79.1508823,54.8971879 L76.1647391,54.8971879 L76.1647391,62.8896193 Z" id="预约中" fill="#FFFFFF" transform="translate(60.856630, 58.688833) rotate(-45.000000) translate(-60.856630, -58.688833) "></path>
            </g>
        </g>
    </g>
</svg>