<?xml version="1.0" encoding="UTF-8"?>
<svg width="16px" height="16px" viewBox="0 0 16 16" version="1.1" xmlns="http://www.w3.org/2000/svg" xmlns:xlink="http://www.w3.org/1999/xlink">
    <!-- Generator: Sketch 49.3 (51167) - http://www.bohemiancoding.com/sketch -->
    <title>btn_search</title>
    <desc>Created with Sketch.</desc>
    <defs>
        <linearGradient x1="100%" y1="0%" x2="0%" y2="100%" id="linearGradient-1">
            <stop stop-color="#20E2D7" offset="0%"></stop>
            <stop stop-color="#F9FEA5" offset="100%"></stop>
        </linearGradient>
    </defs>
    <g id="Page-1" stroke="none" stroke-width="1" fill="none" fill-rule="evenodd">
        <g id="地图找房_00" transform="translate(-313.000000, -34.000000)" fill="#666666" fill-rule="nonzero">
            <g id="top-bar_show">
                <path d="M328.998276,48.8035689 L325.615702,45.3263037 C326.506601,44.1413235 327.04152,42.6696884 327.041899,41.0686579 C327.04133,37.1642731 323.899299,34.0005725 320.021234,34 C316.143169,33.9994275 313.001138,37.164464 313,41.0686579 C312.998863,44.9728518 316.143169,48.1367432 320.021234,48.1373157 C321.629887,48.1387538 323.189801,47.581502 324.43782,46.5595687 L327.785136,50 L328.998276,48.8035689 Z M316.257659,44.8579608 C314.462167,43.0502226 314.185002,40.2172359 315.595664,38.0915204 C317.006325,35.965805 319.711932,35.1393923 322.057863,36.117677 C324.403794,37.0959618 325.736686,39.6064825 325.241405,42.1139244 C324.746125,44.6213662 322.560613,46.4273832 320.021424,46.4275013 C318.609308,46.4297995 317.254615,45.8648742 316.257659,44.8579608 Z" id="btn_search"></path>
            </g>
        </g>
    </g>
</svg>