<?xml version="1.0" encoding="UTF-8"?>
<svg width="16px" height="16px" viewBox="0 0 16 16" version="1.1" xmlns="http://www.w3.org/2000/svg" xmlns:xlink="http://www.w3.org/1999/xlink">
    <!-- Generator: Sketch 49.3 (51167) - http://www.bohemiancoding.com/sketch -->
    <title>btn_select</title>
    <desc>Created with Sketch.</desc>
    <defs>
        <linearGradient x1="100%" y1="0%" x2="0%" y2="100%" id="linearGradient-1">
            <stop stop-color="#20E2D7" offset="0%"></stop>
            <stop stop-color="#F9FEA5" offset="100%"></stop>
        </linearGradient>
    </defs>
    <g id="Page-1" stroke="none" stroke-width="1" fill="none" fill-rule="evenodd">
        <g id="地图找房_00" transform="translate(-345.000000, -34.000000)" fill="#666666" fill-rule="nonzero">
            <g id="top-bar_show">
                <path d="M360.475223,35.1089526 C360.709035,34.8372053 360.685109,34.4199833 360.422095,34.1784301 C360.294583,34.0631269 360.137825,34.0082572 359.981089,34.0109713 C359.946546,34.0054979 359.909354,34.0000019 359.872162,34.0000019 L345.637606,34.0000019 C345.468378,33.9995802 345.305964,34.0688512 345.186301,34.1924871 C345.066639,34.3161229 344.999594,34.4839301 345.000002,34.6587771 C345.000002,34.8371827 345.069066,34.9991681 345.180664,35.1171854 L350.14337,40.9445378 L350.14337,47.5048778 C350.14337,47.8067967 350.339947,48.0621012 350.60828,48.1389549 L354.57208,49.9451077 C354.654432,49.9835346 354.742103,50 354.829796,50 C355.074204,50 355.307994,49.8545253 355.414273,49.6074761 C355.454875,49.5135627 355.473094,49.4109602 355.467401,49.3082713 L355.467401,40.9884381 L360.475223,35.1089526 Z M351.043989,40.0085645 L347.061605,35.3203569 L358.583688,35.3203569 L354.582718,40.0332852 L351.043989,40.0085645 Z M354.19217,41.3480537 L354.19217,48.3311118 L351.418579,47.0684537 L351.418579,41.328829 L354.19217,41.3480537 Z M357.082974,42.9562028 C356.963312,42.8325669 356.896267,42.6647597 356.896675,42.4899127 C356.896675,42.1248462 357.183593,41.8311375 357.534279,41.8311375 L360.362372,41.8311375 C360.715706,41.8311375 360.999976,42.1248462 360.999976,42.4899127 C360.999976,42.8549792 360.715728,43.1486879 360.362372,43.1486879 L357.534279,43.1486879 C357.365051,43.1491097 357.202637,43.0798386 357.082974,42.9562028 Z M360.362394,44.9301426 C360.715728,44.9301426 360.999998,45.2265881 360.999998,45.5889178 C361.000406,45.7637648 360.933361,45.931572 360.813699,46.0552079 C360.694036,46.1788437 360.531622,46.2481148 360.362394,46.2476931 L357.534301,46.2476931 C357.180967,46.2476931 356.896697,45.9539843 356.896697,45.5889178 C356.896697,45.2238514 357.180945,44.9301426 357.534301,44.9301426 L360.362394,44.9301426 Z M357.534301,48.031907 L360.362394,48.031907 C360.715728,48.031907 360.999998,48.3256158 360.999998,48.6906823 C360.999998,49.0557487 360.71575,49.3494575 360.362394,49.3494575 L357.534301,49.3494575 C357.180967,49.3494575 356.896697,49.0557487 356.896697,48.6906823 C356.896697,48.3256158 357.180945,48.031907 357.534301,48.031907 Z" id="btn_select"></path>
            </g>
        </g>
    </g>
</svg>