<?xml version="1.0" encoding="UTF-8"?>
<svg width="20px" height="20px" viewBox="0 0 20 20" version="1.1" xmlns="http://www.w3.org/2000/svg" xmlns:xlink="http://www.w3.org/1999/xlink">
    <!-- Generator: Sketch 49.3 (51167) - http://www.bohemiancoding.com/sketch -->
    <title>btn_point</title>
    <desc>Created with Sketch.</desc>
    <defs></defs>
    <g id="Page-1" stroke="none" stroke-width="1" fill="none" fill-rule="evenodd">
        <g id="地图找房_00" transform="translate(-22.000000, -625.000000)" fill="#666666" fill-rule="nonzero">
            <g id="定位" transform="translate(12.000000, 615.000000)">
                <path d="M29.0625,20.9375 L28.0667187,20.9375 C27.6367188,24.674375 24.6734375,27.6351562 20.9375,28.0654688 L20.9375,29.0625 C20.9375,29.5803125 20.5178125,30 20,30 C19.4821875,30 19.0625,29.5803125 19.0625,29.0625 L19.0625,28.0654688 C15.32625,27.6351562 12.3632812,24.674375 11.9329688,20.9375 L10.9375,20.9375 C10.4196875,20.9375 10,20.5178125 10,20 C10,19.4823437 10.4196875,19.0625 10.9375,19.0625 L11.9348437,19.0625 C12.3651563,15.3264062 15.325625,12.3632812 19.0625,11.9335938 L19.0625,10.9375 C19.0625,10.4198438 19.4821875,10 20,10 C20.5178125,10 20.9375,10.4198438 20.9375,10.9375 L20.9375,11.9348437 C24.6734375,12.3651563 27.6367188,15.3257813 28.0667187,19.0625 L29.0625,19.0625 C29.5803125,19.0625 30,19.4825 30,20 C30,20.5178125 29.5803125,20.9375 29.0625,20.9375 M24.375,19.0625 L26.1721875,19.0625 C25.765,16.3632812 23.635625,14.2335938 20.9375,13.8259375 L20.9375,15.625 C20.9375,16.1428125 20.5178125,16.5625 20,16.5625 C19.4821875,16.5625 19.0625,16.1428125 19.0625,15.625 L19.0625,13.8278125 C16.3632812,14.235 14.2334375,16.364375 13.8259375,19.0625 L15.625,19.0625 C16.1428125,19.0625 16.5625,19.4825 16.5625,20 C16.5625,20.5178125 16.1428125,20.9375 15.625,20.9375 L13.8278125,20.9375 C14.235,23.6370313 16.364375,25.7665625 19.0625,26.17375 L19.0625,24.375 C19.0625,23.8573438 19.4821875,23.4375 20,23.4375 C20.5178125,23.4375 20.9375,23.8575 20.9375,24.375 L20.9375,26.17375 C23.635625,25.7667188 25.765,23.6371875 26.1721875,20.9375 L24.375,20.9375 C23.8571875,20.9375 23.4375,20.5178125 23.4375,20 C23.4375,19.4825 23.8571875,19.0625 24.375,19.0625 M20,20.9375 C19.4821875,20.9375 19.0625,20.5178125 19.0625,20 C19.0625,19.4823437 19.4821875,19.0625 20,19.0625 C20.5178125,19.0625 20.9375,19.4825 20.9375,20 C20.9375,20.5178125 20.5178125,20.9375 20,20.9375" id="btn_point"></path>
            </g>
        </g>
    </g>
</svg>