<?xml version="1.0" encoding="UTF-8"?>
<svg width="20px" height="20px" viewBox="0 0 20 20" version="1.1" xmlns="http://www.w3.org/2000/svg" xmlns:xlink="http://www.w3.org/1999/xlink">
    <!-- Generator: Sketch 49.3 (51167) - http://www.bohemiancoding.com/sketch -->
    <title>btn_subway</title>
    <desc>Created with Sketch.</desc>
    <defs></defs>
    <g id="Page-1" stroke="none" stroke-width="1" fill="none" fill-rule="evenodd">
        <g id="地图找房_00" transform="translate(-269.000000, -625.000000)" fill="#666666" fill-rule="nonzero">
            <g id="地铁找房" transform="translate(259.000000, 615.000000)">
                <path d="M11.7036623,26.9798141 L28.2988248,26.9798141 C29.238948,26.9798141 30,26.2451743 30,25.3376781 L30,13.1474274 C30,11.40926 28.5400734,10 26.7394143,10 L13.2630728,10 C11.4624137,10 10.0024871,11.40926 10.0024871,13.1474274 L10.0024871,25.3400788 C10.0024871,26.2451743 10.7635391,26.9798141 11.7036623,26.9798141 Z M25.5024871,25 L25.5024871,25 C24.67406,25 24.0024871,24.3284271 24.0024871,23.5 L24.0024871,23.5 C24.0024871,22.6715729 24.67406,22 25.5024871,22 L25.5024871,22 C26.3309142,22 27.0024871,22.6715729 27.0024871,23.5 L27.0024871,23.5 C27.0024871,24.3284271 26.3309142,25 25.5024871,25 Z M27.9338432,15.0262223 L27.9338432,17.3474169 C27.9338432,18.4009576 27.0797797,19.2550212 26.0262389,19.2550212 L13.546602,19.2550212 C12.4930612,19.2550212 11.6389977,18.4009576 11.6389977,17.3474169 L11.6389977,15.0262223 C11.6389977,13.9726816 12.4930612,13.118618 13.546602,13.118618 L26.0262389,13.118618 C27.0797797,13.118618 27.9338432,13.9726816 27.9338432,15.0262223 Z M16.0024871,23.5 L16.0024871,23.5 C16.0024871,24.3284271 15.3309142,25 14.5024871,25 L14.5024871,25 C13.67406,25 13.0024871,24.3284271 13.0024871,23.5 L13.0024871,23.5 C13.0024871,22.6715729 13.67406,22 14.5024871,22 L14.5024871,22 C15.3309142,22 16.0024871,22.6715729 16.0024871,23.5 Z M26.2579852,28.5259188 L13.7370406,28.5259188 C13.3299843,28.5259188 13,28.8559031 13,29.2629594 L13,29.2629594 C13,29.6700157 13.3299843,30 13.7370406,30 L26.2579852,30 C26.6650415,30 26.9950258,29.6700157 26.9950258,29.2629594 L26.9950258,29.2629594 C26.9950258,28.8559031 26.6650415,28.5259188 26.2579852,28.5259188 Z" id="btn_subway"></path>
            </g>
        </g>
    </g>
</svg>