<?xml version="1.0" encoding="UTF-8"?>
<svg width="19px" height="20px" viewBox="0 0 19 20" version="1.1" xmlns="http://www.w3.org/2000/svg" xmlns:xlink="http://www.w3.org/1999/xlink">
    <!-- Generator: Sketch 55 (78076) - https://sketchapp.com -->
    <title>编组 33</title>
    <desc>Created with Sketch.</desc>
    <g id="元素" stroke="none" stroke-width="1" fill="none" fill-rule="evenodd">
        <g id="图标切图" transform="translate(-98.000000, -1287.000000)">
            <g id="编组-33" transform="translate(96.000000, 1286.000000)">
                <rect id="矩形复制-11" fill="#D8D8D8" opacity="0" x="0" y="0" width="24" height="24"></rect>
                <g id="消息" transform="translate(2.000000, 1.000000)" fill-rule="nonzero">
                    <path d="M4.21015625,16.2562631 L7.01323815,14.6316487 L7.27899629,14.6757376 C7.73779153,14.7518511 8.85596618,14.8390625 9.36171875,14.8390625 C13.4978347,14.8390625 16.4796875,11.8305917 16.4796875,7.9671875 C16.4796875,4.41162744 13.0279787,1.25703125 9.36171875,1.25703125 C5.04393979,1.25703125 1.5875,4.2833042 1.5875,7.9671875 C1.5875,10.1334211 2.40078291,11.9521095 3.94618737,13.2670775 L4.21015625,13.4916857 L4.21015625,16.2562631 Z" id="形状" stroke="#555555" stroke-width="1.5"></path>
                    <path d="M7.59292651,15.4732109 C8.16357338,15.5361249 8.94792752,15.5890625 9.36171875,15.5890625 C13.8075134,15.5890625 16.8721954,12.465366 17.2004426,8.65045091 C18.0224477,9.42821957 18.600461,10.4392978 18.8053752,11.6014241 C19.1212598,13.3928943 18.7340687,15.0307159 17.6919113,16.3431004 L18.184356,19.1358934 L15.2361012,17.9972899 C14.8806092,18.125295 14.056004,18.3396465 13.6690649,18.4078743 C10.9755475,18.8828141 8.69315206,17.5773494 7.59292651,15.4732109 Z" id="形状结合" fill="#FFB467"></path>
                    <path d="M12.9429688,7.07890625 C13.4820313,7.07890625 13.9179688,7.51484375 13.9179688,8.05390625 C13.9179688,8.59296875 13.4820313,9.02890625 12.9429688,9.02890625 C12.4039063,9.02890625 11.9679688,8.59296875 11.9679688,8.05390625 C11.9679688,7.51484375 12.4039063,7.07890625 12.9429688,7.07890625 Z" id="路径" fill="#555555"></path>
                    <path d="M9.00078125,7.07890625 C9.53984375,7.07890625 9.97578125,7.51484375 9.97578125,8.05390625 C9.97578125,8.59296875 9.53984375,9.02890625 9.00078125,9.02890625 C8.46171875,9.02890625 8.02578125,8.59296875 8.02578125,8.05390625 C8.02578125,7.79609375 8.12890625,7.54765625 8.31171875,7.36484375 C8.49453125,7.18203125 8.74296875,7.07890625 9.00078125,7.07890625 L9.00078125,7.07890625 Z" id="路径" fill="#555555"></path>
                    <path d="M5.09375,7.07890625 C5.6328125,7.07890625 6.06875,7.51484375 6.06875,8.05390625 C6.06875,8.59296875 5.6328125,9.02890625 5.09375,9.02890625 C4.5546875,9.02890625 4.11875,8.59296875 4.11875,8.05390625 C4.12109375,7.51484375 4.55703125,7.07890625 5.09375,7.07890625 L5.09375,7.07890625 Z" id="路径" fill="#555555"></path>
                </g>
            </g>
        </g>
    </g>
</svg>