<?xml version="1.0" encoding="UTF-8"?>
<svg width="20px" height="20px" viewBox="0 0 20 20" version="1.1" xmlns="http://www.w3.org/2000/svg" xmlns:xlink="http://www.w3.org/1999/xlink">
    <!-- Generator: Sketch 55 (78076) - https://sketchapp.com -->
    <title>编组 34</title>
    <desc>Created with Sketch.</desc>
    <g id="元素" stroke="none" stroke-width="1" fill="none" fill-rule="evenodd">
        <g id="图标切图" transform="translate(-98.000000, -1344.000000)">
            <g id="编组-34" transform="translate(96.000000, 1342.000000)">
                <rect id="矩形复制-13" fill="#D8D8D8" opacity="0" x="0" y="0" width="24" height="24"></rect>
                <rect id="矩形复制-5" fill="#FFB467" transform="translate(19.181981, 19.181981) rotate(-45.000000) translate(-19.181981, -19.181981) " x="17.6819805" y="16.1819805" width="3" height="6" rx="1.5"></rect>
                <ellipse id="椭圆形" stroke="#555555" stroke-width="1.5" cx="11.5" cy="11" rx="8.75" ry="8.25"></ellipse>
                <path d="M9.79819849,10.9209273 C10.0107368,8.6608181 11.7104768,6.89985954 13.7758114,6.89985954 C13.86622,6.89985954 13.9559281,6.90323387 14.0448415,6.9098767 L14.0448415,10.9209273 L9.79819849,10.9209273 Z" id="形状结合" fill="#FFB467" transform="translate(11.921520, 8.910393) rotate(41.000000) translate(-11.921520, -8.910393) "></path>
                <path d="M7.82356763,12.8805249 C7.68507901,12.9986498 7.49319275,13.0320938 7.32283962,12.967797 C7.1524865,12.9035003 7.03068631,12.751661 7.00500152,12.5715718 C6.97931673,12.3914826 7.05382121,12.2117074 7.19942128,12.1024478 L9.6960067,10.1073785 C9.83637958,9.99511595 10.0263403,9.96691993 10.1933265,10.0335609 L12.4462452,10.9333372 L15.2234468,9.08390789 C15.4528835,8.93102671 15.7629499,8.9928824 15.9159996,9.22206644 C16.0690493,9.45125048 16.0071255,9.76097555 15.7776888,9.91385673 L12.7817863,11.9089261 C12.6449525,11.9999453 12.4720345,12.0178522 12.3194187,11.9568078 L10.0924645,11.0675056 L7.82356763,12.8810236 L7.82356763,12.8805249 Z" id="路径" fill="#555555" fill-rule="nonzero"></path>
            </g>
        </g>
    </g>
</svg>