<?xml version="1.0" encoding="UTF-8"?>
<svg width="19px" height="20px" viewBox="0 0 19 20" version="1.1" xmlns="http://www.w3.org/2000/svg" xmlns:xlink="http://www.w3.org/1999/xlink">
    <!-- Generator: Sketch 55 (78076) - https://sketchapp.com -->
    <title>编组 38</title>
    <desc>Created with Sketch.</desc>
    <g id="元素" stroke="none" stroke-width="1" fill="none" fill-rule="evenodd">
        <g id="图标切图" transform="translate(-98.000000, -1567.000000)">
            <g id="编组-38" transform="translate(96.000000, 1566.000000)">
                <rect id="矩形复制-17" fill="#D8D8D8" opacity="0" x="0" y="0" width="24" height="24"></rect>
                <g id="设置" transform="translate(2.000000, 1.000000)" fill-rule="nonzero">
                    <path d="M10.9545029,18.2540317 L18.2172727,14.0615002 L18.2172727,5.65563037 L10.9550815,1.47826372 L3.68636364,5.6713744 L3.68636364,14.061294 L8.32378073,16.7357565 L8.32398479,16.7358742 L10.9545029,18.2540317 Z" id="形状结合" stroke="#555555" stroke-width="1.5"></path>
                    <path d="M4.92433958,8.04164249 L5.00000001,8 L10,10.75 L10,13.5359116 L10,16.4654696 L9.02340823,17 L8.82900697,16.893682 L5.00000001,19 L-4.79616347e-14,16.25 L-4.79616347e-14,10.75 L3,9.10064901 L3,9.01312156 L4.84831461,8 L4.92433958,8.04164249 Z" id="形状结合" fill="#FFB467"></path>
                </g>
            </g>
        </g>
    </g>
</svg>