<?xml version="1.0" encoding="UTF-8"?>
<svg width="20px" height="20px" viewBox="0 0 20 20" version="1.1" xmlns="http://www.w3.org/2000/svg" xmlns:xlink="http://www.w3.org/1999/xlink">
    <!-- Generator: Sketch 49.3 (51167) - http://www.bohemiancoding.com/sketch -->
    <title>nav_my_sel</title>
    <desc>Created with Sketch.</desc>
    <defs></defs>
    <g id="Page-1" stroke="none" stroke-width="1" fill="none" fill-rule="evenodd">
        <g id="首页_01" transform="translate(-319.000000, -1784.000000)" fill-rule="nonzero">
            <g id="navigation-bars" transform="translate(0.000000, 1768.000000)">
                <g id="my" transform="translate(282.000000, 0.000000)">
                    <g id="nav_my_sel" transform="translate(37.000000, 16.000000)">
                        <path d="M0.512850536,18.5213036 C0.185000878,18.2101488 3.01408204e-16,17.7803522 0.00234178327,17.339363 C0.0585445817,15.5776449 0.667408231,12.9613998 1.76804637,11.5623225 C2.65324044,10.4363451 3.79837246,9.55436674 5.11913822,8.97235058 C4.03489257,7.9918772 3.39090217,6.61966218 3.39090217,5.19819964 C3.39090217,3.80359938 3.95995551,2.49630154 4.99034014,1.51806669 C6.01604122,0.544308883 7.37661729,0.00706319703 8.82149757,0.00706319703 C10.2804285,0.00706319703 11.64803,0.551024454 12.673731,1.53597488 C13.6924068,2.51644825 14.252093,3.81479199 14.2544348,5.19596111 C14.2614601,6.08241649 14.02494,6.9621563 13.570634,7.73444698 C13.2966454,8.20229843 12.9453779,8.62314088 12.5355658,8.9835432 C13.8282302,9.56555936 14.9522862,10.4341065 15.8281131,11.5287446 C16.9217259,12.8964826 17.5446402,15.4769113 17.6359698,17.1960975 C17.6523623,17.2520606 17.6617294,17.3102622 17.6617294,17.3707024 C17.6617294,17.7534899 17.2823605,18.2549192 17.2378666,18.3108823 C16.8865991,18.7653026 16.4674199,19.0048247 16.0271647,19.0048247 L1.7493121,19.0048247 C1.28329723,19.0070632 0.836016627,18.8302198 0.512850536,18.5213036 Z M1.17323342,17.3505557 C1.17323342,17.4915827 1.23411978,17.6303711 1.33950003,17.7311047 C1.44488028,17.8318383 1.59007084,17.8900399 1.73994497,17.8900399 L16.0248229,17.8900399 C16.1419121,17.8676546 16.3831157,17.5676925 16.4721035,17.3729409 C16.3573561,14.3039249 14.2263334,10.6422893 11.1703062,9.66853145 C10.9525203,9.59913721 10.7979626,9.41557827 10.7745448,9.19844147 C10.7487852,8.98130467 10.858849,8.76864492 11.0555588,8.65671874 C12.31778,7.93591411 13.0975938,6.61294661 13.0858849,5.20491521 C13.0858849,2.9551989 11.1749898,1.12856357 8.82618114,1.12856357 C6.47737252,1.12856357 4.56647737,2.9551989 4.56647737,5.20043816 C4.56647737,6.5838458 5.34863298,7.90905182 6.60851238,8.66119578 C6.80053861,8.77759902 6.90826064,8.98802024 6.88015924,9.20515704 C6.85205784,9.42229384 6.69515836,9.60137573 6.4797143,9.66853145 C3.40261109,10.6131884 1.2739301,14.2703471 1.17323342,17.3505557 Z" id="Shape" fill="#FF8200"></path>
                        <path d="M19.7634799,5.16555143 L15.5798841,5.16555143 C15.451086,5.16555143 15.3457058,5.05960347 15.3457058,4.93011152 L15.3457058,4.23791822 C15.3457058,4.10842627 15.451086,4.00247831 15.5798841,4.00247831 L19.7634799,4.00247831 C19.892278,4.00247831 19.9976582,4.10842627 19.9976582,4.23791822 L19.9976582,4.93011152 C19.9976582,5.05960347 19.892278,5.16555143 19.7634799,5.16555143 Z M19.7634799,9.19863693 L14.9874129,9.19863693 C14.8586148,9.19863693 14.7532346,9.09268897 14.7532346,8.96319703 L14.7532346,8.27100372 C14.7532346,8.14151177 14.8586148,8.03556382 14.9874129,8.03556382 L19.7634799,8.03556382 C19.892278,8.03556382 19.9976582,8.14151177 19.9976582,8.27100372 L19.9976582,8.96319703 C19.9976582,9.09268897 19.892278,9.19863693 19.7634799,9.19863693 Z M19.7634799,13.229368 L17.3537849,13.229368 C17.2249868,13.229368 17.1196066,13.1234201 17.1196066,12.9939281 L17.1196066,12.3017348 C17.1196066,12.1722429 17.2249868,12.0662949 17.3537849,12.0662949 L19.7634799,12.0662949 C19.892278,12.0662949 19.9976582,12.1722429 19.9976582,12.3017348 L19.9976582,12.9939281 C19.9976582,13.1234201 19.892278,13.229368 19.7634799,13.229368 Z" id="Shape" fill="#FFCC01"></path>
                    </g>
                </g>
            </g>
        </g>
    </g>
</svg>