<?xml version="1.0" encoding="UTF-8"?>
<svg width="20px" height="20px" viewBox="0 0 20 20" version="1.1" xmlns="http://www.w3.org/2000/svg" xmlns:xlink="http://www.w3.org/1999/xlink">
    <!-- Generator: Sketch 49.3 (51167) - http://www.bohemiancoding.com/sketch -->
    <title>nav_home_sel</title>
    <desc>Created with Sketch.</desc>
    <defs></defs>
    <g id="Page-1" stroke="none" stroke-width="1" fill="none" fill-rule="evenodd">
        <g id="首页_01" transform="translate(-37.000000, -1785.000000)" fill-rule="nonzero">
            <g id="navigation-bars" transform="translate(0.000000, 1768.000000)">
                <g id="home">
                    <g id="nav_home_sel" transform="translate(37.000000, 17.000000)">
                        <path d="M18.9292751,7.30408888 L14.559447,4.35069673 C14.2576777,4.13991072 14.181102,3.72656614 14.387408,3.42205537 C14.593714,3.1175446 15.0066425,3.03442738 15.3151146,3.2353199 L19.6849428,6.18534574 C19.933901,6.35010814 20.0446421,6.65862091 19.957135,6.9436439 C19.8696278,7.22866689 19.604708,7.42233602 19.3059844,7.41966616 C19.1727782,7.41726368 19.0412169,7.37819195 18.9292751,7.30408888 Z M0.680800801,7.36917124 C0.38207729,7.37184109 0.117157428,7.17817196 0.0296503007,6.89314897 C-0.0578568266,6.60812599 0.0528842581,6.29961322 0.301842473,6.13485082 L8.80647714,0.398627148 C9.58632909,-0.132875629 10.6129877,-0.132875629 11.3928397,0.398627148 L13.5069099,1.79677557 C13.7172232,1.92539786 13.840432,2.15829465 13.8282211,2.4041373 C13.8160101,2.64997995 13.670326,2.86957775 13.4482975,2.97681714 C13.226269,3.08405654 12.9632907,3.0618421 12.7624873,2.91888503 L10.637172,1.51624819 C10.3131734,1.29484859 9.88614341,1.29484859 9.56214479,1.51624819 L1.05863463,7.25359396 C0.947073112,7.3288868 0.815482709,7.36913957 0.680800801,7.36917124 Z M5.7410753,19.179574 C3.76717261,19.177101 2.16762621,17.5809628 2.16514799,15.6112658 L2.16514799,8.19279959 C2.1652085,7.82100792 2.46726571,7.51964323 2.83985125,7.51964323 C3.21243679,7.51964323 3.51449401,7.82100792 3.51455452,8.19279959 L3.51455452,15.6090216 C3.51517326,16.8361827 4.5112952,17.8311862 5.7410753,17.8330426 L6.44951372,17.8330426 C6.82209925,17.833103 7.12410742,18.1345166 7.12410742,18.5063083 C7.12410742,18.8781 6.82209925,19.1795136 6.44951372,19.179574 L5.7410753,19.179574 Z M8.92005219,19.179574 C8.67897783,19.179613 8.45619919,19.0512979 8.33565071,18.8429727 C8.21510223,18.6346475 8.21510223,18.377969 8.33565071,18.1696439 C8.45619919,17.9613187 8.67897783,17.8330035 8.92005219,17.8330426 L14.4481209,17.8330426 C15.6770241,17.8311888 16.672784,16.8375506 16.6746417,15.6112658 L16.6746417,8.19279959 C16.6747022,7.82100792 16.9767595,7.51964323 17.349345,7.51964323 C17.7219305,7.51964323 18.0239877,7.82100792 18.0240483,8.19279959 L18.0240483,15.6090216 C18.0228094,17.5795949 16.4229007,19.1770988 14.4481209,19.179574 L8.92005219,19.179574 Z" id="Shape" fill="#FF8200"></path>
                        <path d="M9.99395488,13.8987263 C8.05954263,13.8968705 6.49185564,12.3325238 6.48999593,10.4022332 C6.49005643,10.0304415 6.79211365,9.72907681 7.16469919,9.72907681 C7.53728473,9.72907681 7.83934195,10.0304415 7.83940246,10.4022332 C7.83940248,11.5896242 8.80402845,12.5521949 9.99395488,12.5521949 C11.1838813,12.5521949 12.1485073,11.5896242 12.1485073,10.4022332 C12.1485678,10.0304415 12.450625,9.72907681 12.8232106,9.72907681 C13.1957961,9.72907681 13.4978533,10.0304415 13.4979138,10.4022332 C13.4960541,12.3325238 11.9283671,13.8968705 9.99395488,13.8987263 Z M7.16469918,8.89748434 C6.79207087,8.89748433 6.48999594,8.59605302 6.48999593,8.22421866 L6.48999593,7.16831364 C6.49005643,6.79652196 6.79211365,6.49515728 7.16469919,6.49515728 C7.53728473,6.49515728 7.83934195,6.79652196 7.83940246,7.16831364 L7.83940246,8.22421866 C7.83940245,8.59605303 7.5373275,8.89748434 7.16469918,8.89748434 Z M12.8254596,8.89748434 C12.4528313,8.89748434 12.1507563,8.59605303 12.1507563,8.22421866 L12.1507563,7.16831364 C12.1508168,6.79652196 12.452874,6.49515728 12.8254596,6.49515728 C13.1980451,6.49515728 13.5001023,6.79652196 13.5001628,7.16831364 L13.5001628,8.22421866 C13.5001628,8.59605302 13.1980879,8.89748433 12.8254596,8.89748434 Z" id="Shape" fill="#FFCC01"></path>
                    </g>
                </g>
            </g>
        </g>
    </g>
</svg>