<?xml version="1.0" encoding="UTF-8"?>
<svg width="20px" height="20px" viewBox="0 0 20 20" version="1.1" xmlns="http://www.w3.org/2000/svg" xmlns:xlink="http://www.w3.org/1999/xlink">
    <!-- Generator: Sketch 49.3 (51167) - http://www.bohemiancoding.com/sketch -->
    <title>nav_info_sel</title>
    <desc>Created with Sketch.</desc>
    <defs></defs>
    <g id="Page-1" stroke="none" stroke-width="1" fill="none" fill-rule="evenodd">
        <g id="首页_01" transform="translate(-225.000000, -1784.000000)" fill-rule="nonzero">
            <g id="navigation-bars" transform="translate(0.000000, 1768.000000)">
                <g id="info" transform="translate(188.000000, 0.000000)">
                    <g id="nav_info_sel" transform="translate(37.000000, 16.000000)">
                        <path d="M5.83078982,5.44843918 L3.0206158,5.44843918 C2.74645249,5.44843918 2.50655958,5.19124506 2.50655958,4.89730893 C2.50655958,4.60337281 2.74645249,4.34617869 3.0206158,4.34617869 L5.83078982,4.34617869 C6.10495313,4.34617869 6.34484604,4.60337281 6.34484604,4.89730893 C6.34484604,5.19124506 6.10495313,5.44843918 5.83078982,5.44843918 Z" id="Shape" fill="#FFCC01"></path>
                        <path d="M4.42570281,6.91811985 C4.1515395,6.91811985 3.91164659,6.66092573 3.91164659,6.3669896 L3.91164659,3.35414424 C3.91164659,3.06020812 4.1515395,2.80301399 4.42570281,2.80301399 C4.69986612,2.80301399 4.93975904,3.06020812 4.93975904,3.35414424 L4.93975904,6.3669896 C4.93975904,6.69766775 4.69986612,6.91811985 4.42570281,6.91811985 Z" id="Shape" fill="#FFCC01"></path>
                        <path d="M0.518875502,15.6259778 C0.450334679,15.6259778 0.347523434,15.5892357 0.27898259,15.5524937 C0.107630522,15.4422677 0.00481927711,15.2585576 0.00481927711,15.0748475 L0.00481927711,2.10491567 C0.00481927711,0.965913154 0.861579659,0.010620732 1.95823293,0.010620732 L14.6382865,0.010620732 C15.7006694,0.010620732 16.5917001,0.929171152 16.5917001,2.10491567 L16.5917001,11.1067097 C16.5917001,12.2457122 15.7349398,13.2010047 14.6382865,13.2010047 L4.1515395,13.2010047 L0.793038815,15.5524937 C0.724497992,15.5892357 0.621686747,15.6259777 0.518875502,15.6259778 Z M1.95823293,1.11288123 C1.44417671,1.11288123 1.03293173,1.55378543 1.03293173,2.10491567 L1.03293173,14.046071 L3.7060241,12.1354862 C3.77456492,12.0620022 3.87737616,12.0620022 3.98018741,12.0620022 L14.6040161,12.0620022 C15.1180723,12.0620022 15.5293173,11.621098 15.5293173,11.0699677 L15.5293173,2.06817367 C15.5293173,1.51704342 15.1180723,1.07613922 14.6040161,1.07613922 L1.95823293,1.07613922 L1.95823293,1.11288123 Z" id="Shape" fill="#FF8200"></path>
                        <path d="M7.71566265,8.93893074 L7.167336,8.93893074 C6.89317269,8.93893074 6.65327978,8.68173662 6.65327978,8.3878005 C6.65327978,8.09386437 6.89317269,7.83667025 7.167336,7.83667025 L7.71566265,7.83667025 C7.98982596,7.83667025 8.22971888,8.09386437 8.22971888,8.3878005 C8.22971888,8.68173662 7.98982596,8.93893074 7.71566265,8.93893074 Z M10.4230254,8.93893074 L9.8746988,8.93893074 C9.60053548,8.93893074 9.36064257,8.68173662 9.36064257,8.3878005 C9.36064257,8.09386437 9.60053548,7.83667025 9.8746988,7.83667025 L10.4230254,7.83667025 C10.6971888,7.83667025 10.9370817,8.09386437 10.9370817,8.3878005 C10.9370817,8.68173662 10.6971888,8.93893074 10.4230254,8.93893074 Z M13.0961178,8.93893074 L12.5477912,8.93893074 C12.2736279,8.93893074 12.0337349,8.68173662 12.0337349,8.3878005 C12.0337349,8.09386437 12.2736279,7.83667025 12.5477912,7.83667025 L13.0961178,7.83667025 C13.3702811,7.83667025 13.610174,8.09386437 13.610174,8.3878005 C13.610174,8.68173662 13.4045515,8.93893074 13.0961178,8.93893074 Z" id="Shape" fill="#FFCC01"></path>
                        <path d="M19.470415,19.9982777 C19.3676038,19.9982777 19.2647925,19.9615357 19.1962517,19.9247937 L15.8034806,17.5365626 L5.45381526,17.5365626 C4.35716199,17.5365626 3.46613118,16.5812702 3.46613118,15.4055257 L3.46613118,14.8911374 C3.46613118,14.5972013 3.7060241,14.3400072 3.98018741,14.3400072 C4.25435072,14.3400072 4.49424363,14.5972013 4.49424363,14.8911374 L4.49424363,15.4055257 C4.49424363,15.9933979 4.93975904,16.4343021 5.45381526,16.4343021 L15.9748327,16.4343021 C16.0776439,16.4343021 16.1804552,16.4710441 16.248996,16.5077862 L18.9563588,18.418371 L18.9563588,8.60825259 C18.9563588,8.02038032 18.5108434,7.57947612 17.9967871,7.57947615 L16.1461847,7.57947615 C15.8720214,7.57947615 15.6321285,7.32228202 15.6321285,7.0283459 C15.6321285,6.73440977 15.8720214,6.47721565 16.1461847,6.47721565 L17.9967871,6.47721565 C19.0934404,6.47721565 19.9844712,7.43250807 19.9844712,8.60825259 L19.9844712,19.4471475 C19.9844712,19.6675996 19.88166,19.8513096 19.7103079,19.9247937 C19.6417671,19.9615357 19.5389558,19.9982777 19.470415,19.9982777 Z" id="Shape" fill="#FF8200"></path>
                    </g>
                </g>
            </g>
        </g>
    </g>
</svg>