<?xml version="1.0" encoding="UTF-8"?>
<svg width="20px" height="20px" viewBox="0 0 20 20" version="1.1" xmlns="http://www.w3.org/2000/svg" xmlns:xlink="http://www.w3.org/1999/xlink">
    <!-- Generator: Sketch 49.3 (51167) - http://www.bohemiancoding.com/sketch -->
    <title>nav_rent_sel</title>
    <desc>Created with Sketch.</desc>
    <defs></defs>
    <g id="Page-1" stroke="none" stroke-width="1" fill="none" fill-rule="evenodd">
        <g id="首页_01" transform="translate(-131.000000, -1784.000000)" fill-rule="nonzero">
            <g id="navigation-bars" transform="translate(0.000000, 1768.000000)">
                <g id="rent" transform="translate(94.000000, 0.000000)">
                    <g id="nav_rent_sel" transform="translate(37.000000, 16.000000)">
                        <path d="M9.99591163,16.2411319 L11.0087702,16.2411319 L11.0087702,18.2291543 C11.0087702,19.1389273 10.1984833,19.9813097 9.2531487,19.9813096 L1.75799539,19.9813096 C0.812660732,19.9813096 0.00237388724,19.1726226 0.00237388724,18.2291543 L0.00237388724,1.75215532 C0.00237388724,0.842382369 0.812660732,1.13686838e-13 1.75799539,1.13686838e-13 L9.2531487,1.13686838e-13 C10.1984834,1.13686838e-13 11.0087702,0.808687068 11.0087702,1.75215532 L11.0087702,7.24448831 L9.99591163,7.24448831 L9.99591163,1.75215532 C9.99591163,1.38150709 9.62453017,1.01085884 9.2531487,1.01085884 L1.75799539,1.01085884 C1.38661393,1.01085884 1.01523244,1.38150707 1.01523244,1.75215532 L1.01523244,18.2291543 C1.01523244,18.5998026 1.38661391,18.9704508 1.75799539,18.9704508 L9.2531487,18.9704508 C9.62453017,18.9704508 9.99591165,18.5998026 9.99591163,18.2291543 L9.99591163,16.2411319 Z" id="Shape" fill="#FF8200"></path>
                        <path d="M7.5650511,7.74991773 C7.09238378,7.74991773 6.72100229,8.12056596 6.72100231,8.5923001 L6.72100231,14.6574531 C6.72100231,15.1291872 7.09238378,15.4998355 7.5650511,15.4998355 L18.166304,15.4998355 C18.6389713,15.4998355 19.0103528,15.1291872 19.0103528,14.6574531 L19.0103528,8.5923001 C19.0103528,8.12056598 18.6389713,7.74991773 18.166304,7.74991773 L7.5650511,7.74991773 Z M7.5650511,6.73905889 L18.166304,6.73905889 C19.1791626,6.73905889 19.9894494,7.54774596 19.9894494,8.5586048 L19.9894494,14.6237578 C19.9894494,15.6346166 19.1791626,16.4433037 18.166304,16.4433037 L7.5650511,16.4433037 C6.55219254,16.4433037 5.7419057,15.6346166 5.7419057,14.6237578 L5.7419057,8.5586048 C5.70814374,7.58144126 6.55219254,6.73905889 7.5650511,6.73905889 Z" id="Shape" fill="#FF8200"></path>
                        <path d="M14.9926805,8.99664363 L17.7611606,8.99664363 L17.7611606,11.2542284 L14.9926805,11.2542284 L14.9926805,8.99664363 Z M7.73386087,13.2422507 L11.7515331,13.2422507 L11.7515331,14.2531096 L7.73386087,14.2531096 L7.73386087,13.2422507 Z M2.6000061,2.24225074 L8.6000061,2.24225074 L8.6000061,3.25310958 L2.6000061,3.25310958 L2.6000061,2.24225074 Z M12.2242005,13.2422507 L13.237059,13.2422507 L13.237059,14.2531096 L12.2242005,14.2531096 L12.2242005,13.2422507 Z M13.979822,13.2422507 L14.9926805,13.2422507 L14.9926805,14.2531096 L13.979822,14.2531096 L13.979822,13.2422507 Z" id="Shape" fill="#FFCC01"></path>
                    </g>
                </g>
            </g>
        </g>
    </g>
</svg>