<?xml version="1.0" encoding="UTF-8"?>
<svg width="23px" height="17px" viewBox="0 0 23 17" version="1.1" xmlns="http://www.w3.org/2000/svg" xmlns:xlink="http://www.w3.org/1999/xlink">
    <!-- Generator: Sketch 49.3 (51167) - http://www.bohemiancoding.com/sketch -->
    <title>logo</title>
    <desc>Created with Sketch.</desc>
    <defs></defs>
    <g id="Page-1" stroke="none" stroke-width="1" fill="none" fill-rule="evenodd">
        <g id="首页_01" transform="translate(-140.000000, -1712.000000)">
            <g id="logo" transform="translate(140.000000, 1712.000000)">
                <path d="M16.5572049,3.54542893 L12.4513998,0.325698365 C12.1826066,0.121249909 11.8548345,0 11.4928108,0 C11.1209878,0 10.7805774,0.129232712 10.5162717,0.343704021 L0.32694781,8.36562282 C0.120430356,8.52554497 0,8.76520646 0,9.0351139 C0,9.51665432 0.403052469,9.90710209 0.902266058,9.90710209 L3.54587264,9.90710209 L3.54587264,16.1250848 C3.54587264,16.6001503 3.93821001,16.9897111 4.42625059,17 L12.8688307,17 C12.3785921,16.9921946 11.9764555,16.6026338 11.9764555,16.1259718 L11.9684878,14.792755 L5.82507436,14.7926663 L5.82507436,7.69976834 L4.78992279,7.69976834 L11.5126841,2.42304682 L13.7965565,4.24135196 L14.6140176,3.57390093 C14.8742937,3.351979 15.2270677,3.21769052 15.6061256,3.21769052 C15.9731864,3.21769052 16.2943645,3.335836 16.5572049,3.54542893" id="Combined-Shape" fill="#ADADAD"></path>
                <path d="M13.2790265,17 C12.7800877,17 12.3857355,16.616382 12.3788669,16.1406069 L12.3775847,14.7926663 L12.3775847,9.90710209 L9.72060715,9.90710209 C9.22890329,9.90089324 8.83226156,9.51284031 8.83226156,9.0351139 C8.83226156,8.75207918 8.96377334,8.49831474 9.1870503,8.33910217 L13.920467,4.63960514 L14.9124834,3.84017176 C15.1743164,3.61221838 15.5297462,3.4656009 15.9143907,3.4656009 C16.2954635,3.4656009 16.6439331,3.60858177 16.9108947,3.83280984 L22.7012595,8.39125648 C22.8828666,8.55082385 23,8.77895462 23,9.0351139 C23,9.51142115 22.5979549,9.89867579 22.1157756,9.90710209 L19.4280265,9.90710209 L19.4280265,16.1313823 C19.4261948,16.6091974 19.0182885,16.9963634 18.5254857,17 L13.2790265,17 Z M12.9973202,9.71294258 L14.657977,9.71294258 L14.657977,14.7926663 L17.1499237,14.7926663 L17.1499237,6.87780572 C17.1499237,6.36752721 16.7268148,5.94976052 16.1998519,5.94976052 C15.9701642,5.94976052 15.747162,6.0233797 15.5885419,6.15429767 L12.5619393,8.6013816 C12.4218188,8.71801922 12.3403108,8.88823032 12.3403108,9.07582619 C12.3403108,9.42777911 12.6262299,9.71303127 12.9973202,9.71294258 Z" id="Combined-Shape" fill="#CFCFCF"></path>
            </g>
        </g>
    </g>
</svg>