<?xml version="1.0" encoding="UTF-8"?>
<svg width="50px" height="50px" viewBox="0 0 50 50" version="1.1" xmlns="http://www.w3.org/2000/svg" xmlns:xlink="http://www.w3.org/1999/xlink">
    <!-- Generator: Sketch 55 (78076) - https://sketchapp.com -->
    <title>Fill 1</title>
    <desc>Created with Sketch.</desc>
    <g id="社区服务中心" stroke="none" stroke-width="1" fill="none" fill-rule="evenodd">
        <g id="已驳回-查看备份" transform="translate(-163.000000, -104.000000)" fill="#CA4E4E">
            <path d="M188.000153,104 C174.191359,104 163,115.191359 163,129.000153 C163,142.808641 174.191359,154 188.000153,154 C201.808641,154 213,142.808641 213,129.000153 C213,115.191359 201.808641,104 188.000153,104 Z M198.024457,136.563516 C198.70799,137.252055 198.70799,138.365215 198.019696,139.048749 C197.677777,139.390668 197.228618,139.561628 196.779399,139.561628 C196.329997,139.561628 195.876078,139.390668 195.534158,139.043988 L188.000153,131.490146 L180.465842,139.043988 C180.123983,139.390668 179.670003,139.561628 179.220845,139.561628 C178.771382,139.561628 178.322223,139.390668 177.980548,139.048749 C177.29201,138.365215 177.29201,137.252055 177.975543,136.563516 L185.51962,129.000153 L177.975543,121.436545 C177.29201,120.747945 177.29201,119.634785 177.980548,118.951251 C178.668903,118.267718 179.782308,118.267718 180.465842,118.956012 L188.000153,126.509854 L195.534158,118.951251 C196.217692,118.262713 197.331097,118.262713 198.019696,118.946246 C198.70799,119.62978 198.70799,120.743185 198.024457,121.431784 L190.48038,129.000153 L198.024457,136.563516 Z" id="Fill-1"></path>
        </g>
    </g>
</svg>