<?xml version="1.0" encoding="UTF-8"?>
<svg width="11px" height="14px" viewBox="0 0 11 14" version="1.1" xmlns="http://www.w3.org/2000/svg" xmlns:xlink="http://www.w3.org/1999/xlink">
    <!-- Generator: Sketch 55 (78076) - https://sketchapp.com -->
    <title>形状</title>
    <desc>Created with Sketch.</desc>
    <g id="社区服务中心" stroke="none" stroke-width="1" fill="none" fill-rule="evenodd">
        <g id="服务中心" transform="translate(-262.000000, -142.000000)" fill="#2184D9" fill-rule="nonzero">
            <g id="编组-7" transform="translate(242.000000, 134.000000)">
                <g id="编组-4" transform="translate(20.000000, 7.000000)">
                    <path d="M9.88085938,6.85046875 L8.88615625,6.85046875 L8.88615625,4.52745312 C8.88615625,2.58203125 7.31175,1 5.37471875,1 C3.43753125,1 1.86132812,2.58203125 1.86132812,4.52759375 L1.86132812,6.8504375 L0.8676875,6.8504375 C0.388515625,6.8504375 0,7.2403125 0,7.7215625 L0,14.0816875 C0,14.5636875 0.388515625,14.953875 0.8676875,14.953875 L9.88175,14.953875 C10.3609219,14.953875 10.7483906,14.5637187 10.7483906,14.0816875 L10.7483906,7.7215625 C10.7483906,7.24028125 10.3600313,6.8504375 9.88070313,6.8504375 L9.88085938,6.85046875 Z M5.86182812,11.0674063 L5.86182812,12.4561562 C5.86157813,12.5190625 5.81082812,12.5700156 5.74804687,12.5706094 L5.00221875,12.5706094 C4.93910937,12.5702656 4.88804687,12.51925 4.887625,12.4562031 L4.887625,11.0674219 C4.53726562,10.8874531 4.29460937,10.5267656 4.29460937,10.104 C4.29460937,9.50575 4.778125,9.01923438 5.37382812,9.01923438 C5.9704375,9.01923438 6.45410937,9.50573438 6.45410937,10.1038438 C6.455,10.5267656 6.21234375,10.8874688 5.86184375,11.0672656 L5.86182812,11.0674063 Z M7.5385625,6.85046875 L3.21060937,6.85046875 L3.21060937,4.5850625 C3.21060937,3.38676562 4.18242187,2.41090625 5.37548437,2.41090625 C6.56870312,2.41090625 7.53871875,3.38675 7.53871875,4.5850625 L7.53871875,6.85046875 L7.5385625,6.85046875 Z" id="形状"></path>
                </g>
            </g>
        </g>
    </g>
</svg>