<?xml version="1.0" encoding="UTF-8"?>
<svg width="72px" height="72px" viewBox="0 0 72 72" version="1.1" xmlns="http://www.w3.org/2000/svg" xmlns:xlink="http://www.w3.org/1999/xlink">
    <!-- Generator: Sketch 55 (78076) - https://sketchapp.com -->
    <title>Fill 1</title>
    <desc>Created with Sketch.</desc>
    <g id="社区服务中心" stroke="none" stroke-width="1" fill="none" fill-rule="evenodd">
        <g id="预约申请-反馈" transform="translate(-152.000000, -152.000000)" fill="#36C626">
            <g id="Group-36" transform="translate(152.000000, 152.000000)">
                <g id="check-circle">
                    <path d="M36.0002197,0 C16.1155568,0 0,16.1155568 0,36.0002197 C0,55.8844432 16.1155568,72 36.0002197,72 C55.8844432,72 72,55.8844432 72,36.0002197 C72,16.1155568 55.8844432,0 36.0002197,0 Z M54.30241,25.0594935 L29.0248596,50.4211553 L28.9970862,50.4492803 C28.8281602,50.6319173 28.6242537,50.7939878 28.3993413,50.9202868 C28.0055908,51.1455507 27.5695649,51.2509317 27.1476015,51.2509317 C26.2686942,51.2509317 25.4110564,50.7939878 24.9469055,49.9710669 L17.289777,36.5834626 C16.5938581,35.3670549 17.0158216,33.8204417 18.2321414,33.1313783 C19.4485491,32.435108 20.9952502,32.8570714 21.6843136,34.0734791 L27.6890084,44.5852986 L50.7163803,21.4875262 C51.7006686,20.4960309 53.3039713,20.4960309 54.2955546,21.4803192 C55.2866983,22.4719024 55.2866983,24.0752052 54.30241,25.0594935 Z" id="Fill-1"></path>
                </g>
            </g>
        </g>
    </g>
</svg>