<?xml version="1.0" encoding="UTF-8"?>
<svg width="16px" height="12px" viewBox="0 0 16 12" version="1.1" xmlns="http://www.w3.org/2000/svg" xmlns:xlink="http://www.w3.org/1999/xlink">
    <!-- Generator: Sketch 55 (78076) - https://sketchapp.com -->
    <title>形状</title>
    <desc>Created with Sketch.</desc>
    <g id="社区服务中心" stroke="none" stroke-width="1" fill="none" fill-rule="evenodd">
        <g id="服务中心" transform="translate(-272.000000, -650.000000)" fill="#FD8F5E" fill-rule="nonzero">
            <g id="编组-3" transform="translate(272.000000, 648.000000)">
                <g id="编组-6">
                    <g id="记录" transform="translate(0.000000, 1.000000)">
                        <path d="M4.0130356,1 L15.5163269,1 L15.5163269,3.69201522 L4.0130356,3.69201522 L4.0130356,1 Z M4.0130356,5.50546945 L15.5163269,5.50546945 L15.5163269,8.1911269 L4.0130356,8.1911269 L4.0130356,5.50546945 L4.0130356,5.50546945 Z M4.0130356,9.74901684 L15.5163269,9.74901684 L15.5163269,12.4348048 L4.0130356,12.4348048 L4.0130356,9.74901684 L4.0130356,9.74901684 Z M5.41788836e-14,1 L2.61718408,1 L2.61718408,3.69201522 L5.41788836e-14,3.69201522 L5.41788836e-14,1 Z M5.41788836e-14,5.50546945 L2.61718408,5.50546945 L2.61718408,8.1911269 L5.41788836e-14,8.1911269 L5.41788836e-14,5.50546945 L5.41788836e-14,5.50546945 Z M5.41788836e-14,9.74901684 L2.61718408,9.74901684 L2.61718408,12.4348048 L5.41788836e-14,12.4348048 L5.41788836e-14,9.74901684 L5.41788836e-14,9.74901684 Z" id="形状"></path>
                    </g>
                </g>
            </g>
        </g>
    </g>
</svg>