<?xml version="1.0" encoding="UTF-8"?>
<svg width="22px" height="22px" viewBox="0 0 22 22" version="1.1" xmlns="http://www.w3.org/2000/svg" xmlns:xlink="http://www.w3.org/1999/xlink">
    <!-- Generator: Sketch 55 (78076) - https://sketchapp.com -->
    <title>形状</title>
    <desc>Created with Sketch.</desc>
    <g id="61改版" stroke="none" stroke-width="1" fill="none" fill-rule="evenodd">
        <g id="删除" transform="translate(-293.000000, -524.000000)" fill="#F24B4B" fill-rule="nonzero">
            <g id="编组-11" transform="translate(280.000000, 511.000000)">
                <g id="清空" transform="translate(12.000000, 12.000000)">
                    <path d="M13.44,22.56 C13.44,22.56 13.32,22.56 13.44,22.56 L11.04,21.24 L11.04,21.12 C11.28,20.64 13.32,16.32 13.08,16.44 C12.84,16.68 11.4,18.24 10.32,19.8 L9.72,20.64 C9.72,20.64 7.32,18.96 6.48,18 C6.96,17.28 9.6,13.92 9.6,13.92 L5.16,16.56 C4.92,16.32 3.48,14.76 3,13.92 C3.36,13.56 5.76,11.52 5.76,11.52 L2.4,12.72 L1.2,10.44 L1.2,10.32 C1.8,10.2 6.72,9.24 9,7.56 L9.24,7.56 L16.08,14.4 C16.08,14.4 16.2,14.52 16.08,14.64 C15.84,15.24 13.92,18.36 13.44,22.56 Z M22.32,3.84 L18,8.16 L18,8.28 C18.96,9.96 18.96,11.88 17.52,13.32 L17.4,13.32 L10.56,6.48 L10.56,6.36 C12,4.92 13.92,4.92 15.6,5.88 L15.72,5.88 L20.04,1.56 C20.64,0.96 21.72,0.96 22.32,1.56 C22.92,2.16 22.92,3.24 22.32,3.84 L22.32,3.84 Z" id="形状"></path>
                </g>
            </g>
        </g>
    </g>
</svg>