<?xml version="1.0" encoding="UTF-8"?>
<svg width="16px" height="15px" viewBox="0 0 16 15" version="1.1" xmlns="http://www.w3.org/2000/svg" xmlns:xlink="http://www.w3.org/1999/xlink">
    <!-- Generator: Sketch 55 (78076) - https://sketchapp.com -->
    <title>形状</title>
    <desc>Created with Sketch.</desc>
    <g id="61改版" stroke="none" stroke-width="1" fill="none" fill-rule="evenodd">
        <g id="发现-政策房源" transform="translate(-305.000000, -1026.000000)" fill="#999999" fill-rule="nonzero">
            <g id="编组-9" transform="translate(32.000000, 849.000000)">
                <g id="编组-10">
                    <g id="编组-9" transform="translate(0.000000, 176.000000)">
                        <g id="点赞" transform="translate(273.000000, 1.000000)">
                            <path d="M14.1261818,7.36109091 L12.6716364,13.1792727 C12.6314536,13.3412918 12.4858363,13.4549334 12.3189091,13.4545455 L5.81818181,13.4545464 L5.81818181,6.81090908 L6.04218181,6.18618181 L7.55963636,1.94945453 L7.58,1.89272727 L7.59381819,1.83418181 C7.69660253,1.3977877 8.08657531,1.08978756 8.53490909,1.09090908 L8.536,1.09090908 C8.82072727,1.09090908 9.08036364,1.20945453 9.26690909,1.42436363 C9.45309091,1.63963636 9.53381819,1.91345453 9.49381819,2.19490908 L8.99781819,5.664 L8.82,6.90909091 L13.7734545,6.90909091 C13.928,6.90909091 14.0192727,6.99672727 14.06,7.04909091 C14.130073,7.13681365 14.1546071,7.25247459 14.1261818,7.36109091 Z M4.72727273,13.4545455 L2.18181819,13.4545455 C1.98145455,13.4545455 1.81818183,13.2916364 1.81818181,13.0909091 L1.81818181,7.27272727 C1.81818181,7.07236363 1.98145455,6.90909091 2.18181819,6.90909091 L4.72727273,6.90909091 L4.72727273,13.4545455 L4.72727273,13.4545455 Z M13.7734545,5.81818181 L10.0778182,5.81818181 L10.5734545,2.34945453 C10.7509091,1.10945453 9.78836364,7.10542736e-15 8.536,7.10542736e-15 L8.53490909,7.10542736e-15 C7.58186079,1.28818886e-05 6.7534775,0.654324337 6.53272727,1.58145453 L5.01490909,5.81818181 L2.18181819,5.81818181 C1.37849492,5.81818181 0.727272734,6.46940399 0.727272734,7.27272727 L0.727272734,13.0909091 C0.727272734,13.4766785 0.880519047,13.8466478 1.15329923,14.119428 C1.42607942,14.3922082 1.79604875,14.5454545 2.18181819,14.5454545 L12.3189091,14.5454545 C12.9863205,14.5455621 13.5681677,14.0914484 13.7301818,13.444 L15.1847273,7.62581817 C15.4141818,6.70763636 14.72,5.81818181 13.7734545,5.81818181 L13.7734545,5.81818181 Z" id="形状"></path>
                        </g>
                    </g>
                </g>
            </g>
        </g>
    </g>
</svg>