<?xml version="1.0" encoding="UTF-8"?>
<svg width="16px" height="15px" viewBox="0 0 16 15" version="1.1" xmlns="http://www.w3.org/2000/svg" xmlns:xlink="http://www.w3.org/1999/xlink">
    <!-- Generator: Sketch 55 (78076) - https://sketchapp.com -->
    <title>形状备份</title>
    <desc>Created with Sketch.</desc>
    <g id="61改版" stroke="none" stroke-width="1" fill="none" fill-rule="evenodd">
        <g id="发现-政策房源" transform="translate(-305.000000, -1060.000000)" fill="#FB9538" fill-rule="nonzero">
            <g id="编组-9" transform="translate(32.000000, 849.000000)">
                <g id="编组-10">
                    <g id="编组-9" transform="translate(0.000000, 176.000000)">
                        <g id="点赞" transform="translate(273.000000, 1.000000)">
                            <path d="M13.7734545,39.8181818 L10.0778182,39.8181818 L10.5734545,36.3494545 C10.7509091,35.1094545 9.78836364,34 8.536,34 L8.53490909,34 C7.58186079,34.0000129 6.7534775,34.6543243 6.53272727,35.5814545 L5.01490909,39.8181818 L2.18181819,39.8181818 C1.37849492,39.8181818 0.727272734,40.469404 0.727272734,41.2727273 L0.727272734,47.0909091 C0.727272734,47.4766785 0.880519047,47.8466478 1.15329923,48.119428 C1.42607942,48.3922082 1.79604875,48.5454545 2.18181819,48.5454545 L12.3189091,48.5454545 C12.9863205,48.5455621 13.5681677,48.0914484 13.7301818,47.444 L15.1847273,41.6258182 C15.4141818,40.7076364 14.72,39.8181818 13.7734545,39.8181818 L13.7734545,39.8181818 Z" id="形状备份"></path>
                        </g>
                    </g>
                </g>
            </g>
        </g>
    </g>
</svg>