<?xml version="1.0" encoding="UTF-8"?>
<svg width="48px" height="48px" viewBox="0 0 48 48" version="1.1" xmlns="http://www.w3.org/2000/svg" xmlns:xlink="http://www.w3.org/1999/xlink">
    <!-- Generator: Sketch 55 (78076) - https://sketchapp.com -->
    <title>编组 5</title>
    <desc>Created with Sketch.</desc>
    <defs>
        <linearGradient x1="13.1447415%" y1="0%" x2="83.9381834%" y2="100%" id="linearGradient-1">
            <stop stop-color="#FEA84B" offset="0%"></stop>
            <stop stop-color="#D2355F" offset="100%"></stop>
        </linearGradient>
        <path d="M6.20245308,3.61797058 C10.6707587,0.201735416 15.3023245,-2.47806169e-14 24.2472282,0 C27.0103049,6.71377555e-15 30.039976,0.109535597 33.3362413,0.328606791 L33.3362414,0.328604394 C40.8481707,0.827850404 46.8467835,6.78045555 47.4038499,14.2883184 C47.6362727,17.4207966 47.7524841,20.5015987 47.7524841,23.5307246 C47.7524841,26.8835371 47.6101095,30.241371 47.3253602,33.6042262 L47.3253622,33.6042263 C46.7300695,40.6345615 41.3489806,46.3172489 34.3615176,47.2946667 C30.9999457,47.7648889 27.628516,48 24.2472282,48 C20.7002192,48 17.1878556,47.741278 13.7101372,47.2238339 L13.7101373,47.223833 C7.16235641,46.2495993 2.01097556,41.1269628 1.00011894,34.5847357 C0.33337298,30.2695803 0,26.5849099 0,23.5307246 C5.02173597e-16,15.6886816 1.73414747,7.03420573 6.20245308,3.61797058 Z" id="path-2"></path>
        <linearGradient x1="54.3753762%" y1="38.0753795%" x2="45.4689805%" y2="53.3134082%" id="linearGradient-4">
            <stop stop-color="#FFFFFF" offset="0%"></stop>
            <stop stop-color="#FFFFFF" stop-opacity="0" offset="100%"></stop>
        </linearGradient>
        <linearGradient x1="57.5479459%" y1="38.0753795%" x2="42.1835544%" y2="53.3134082%" id="linearGradient-5">
            <stop stop-color="#FFFFFF" offset="0%"></stop>
            <stop stop-color="#FFFFFF" stop-opacity="0" offset="100%"></stop>
        </linearGradient>
        <linearGradient x1="54.5922031%" y1="38.0753795%" x2="45.2444405%" y2="53.3134082%" id="linearGradient-6">
            <stop stop-color="#FFFFFF" offset="0%"></stop>
            <stop stop-color="#FFFFFF" stop-opacity="0" offset="100%"></stop>
        </linearGradient>
    </defs>
    <g id="元素" stroke="none" stroke-width="1" fill="none" fill-rule="evenodd">
        <g id="图标切图" transform="translate(-97.000000, -147.000000)">
            <g id="编组-5" transform="translate(97.000000, 147.000000)">
                <g id="路径-2">
                    <mask id="mask-3" fill="white">
                        <use xlink:href="#path-2"></use>
                    </mask>
                    <use id="蒙版" fill="url(#linearGradient-1)" xlink:href="#path-2"></use>
                    <path d="M37.0133561,-46.9128231 C26.6639976,-18.3269401 27.3548745,10.912351 35.1169265,23.0820156 C42.8789786,35.2516801 57.5035695,44.7727086 58.3033175,61.0670435 C59.1030656,77.3613784 54.8829284,95.779233 44.9475105,99.7603 C35.0120927,103.741367 13.9351994,104.338768 10.4374097,86.6018577 C6.93962002,68.864947 3.76978976,-41.7804956 37.0133561,-46.9128231 Z" id="路径-2复制-3" fill="url(#linearGradient-4)" style="mix-blend-mode: overlay;" opacity="0.165527344" mask="url(#mask-3)" transform="translate(33.375296, 27.573648) scale(-1, 1) rotate(-68.000000) translate(-33.375296, -27.573648) "></path>
                    <path d="M29.353875,-54.2203716 C19.0045165,-25.6344887 19.6953934,3.6048025 27.4574454,15.774467 C35.2194975,27.9441315 49.8440884,37.4651601 50.6438364,53.759495 C51.4435845,70.0538298 47.2234473,88.4716844 37.2880294,92.4527514 C27.3526116,96.4338184 6.27571828,97.0312198 2.7779286,79.2943091 C-0.719861084,61.5573985 -48.678541,-44.9863061 29.353875,-54.2203716 Z" id="路径-2复制-2" fill="url(#linearGradient-5)" opacity="0.087937128" mask="url(#mask-3)" transform="translate(17.872802, 20.266099) rotate(-10.000000) translate(-17.872802, -20.266099) "></path>
                    <path d="M28.9138303,-28.8219093 C18.5644718,-0.236026367 19.2553486,29.0032648 27.0174007,41.1729293 C34.7794527,53.3425938 49.4040437,62.8636224 50.2037917,79.1579573 C51.0035397,95.4522921 46.7834026,113.870147 36.8479847,117.851214 C26.9125668,121.832281 5.83567353,122.429682 2.33788385,104.692771 C-1.15990583,86.9558608 -49.1185858,-19.5878438 28.9138303,-28.8219093 Z" id="路径-2复制-4" fill="url(#linearGradient-5)" opacity="0.139834449" mask="url(#mask-3)" transform="translate(17.432757, 45.664561) rotate(-13.000000) translate(-17.432757, -45.664561) "></path>
                    <path d="M10.1033035,-33.9936839 C-0.246055008,-5.40780095 0.44482186,23.8314902 8.20687391,36.0011547 C15.968926,48.1708193 30.5935169,57.6918478 31.3932649,73.9861827 C32.1930129,90.2805175 27.9728758,108.698372 18.0374579,112.679439 C8.10204003,116.660506 -12.9748532,117.257908 -16.4726429,99.5209968 C-19.9704326,81.7840862 -28.5125053,0.511693654 10.1033035,-33.9936839 Z" id="路径-2复制-5" fill="url(#linearGradient-6)" opacity="0.203311012" mask="url(#mask-3)" transform="translate(5.852713, 40.492787) rotate(6.000000) translate(-5.852713, -40.492787) "></path>
                </g>
                <g id="编组-4" transform="translate(7.752484, 7.969275)" fill="#FFFFFF" fill-rule="nonzero">
                    <path d="M17.4167429,28.3254 L17.4167429,27.9606286 L17.7815143,27.9606286 L17.4167429,28.3254 Z M27.8375899,10.0387457 C27.1554424,9.8287892 26.4310022,9.71532571 25.6802,9.71428571 C23.3361266,9.71764404 21.1338958,10.8375939 19.750441,12.7298793 C18.3669861,14.6221647 17.9678474,17.06036 18.6757143,19.295 L9.86291429,28.1078 C9.76771842,28.2033915 9.71427557,28.332807 9.71428571,28.4677143 L9.71428571,28.502621 L5.03555982,28.502621 C3.55173507,28.502621 2.08293507,27.4892267 2.08293507,25.9121448 L2.08293507,10.8873829 L1.49645125,11.2376153 C1.09285507,11.551581 0.519323639,11.4837105 0.200695068,11.0858134 C-0.118451609,10.6889524 -0.0495449325,10.1102401 0.354569353,9.79575624 L12.1718036,0.594902917 C13.1883065,-0.197782797 14.7845579,-0.198818978 15.8015789,0.594902917 L27.6193313,9.79575624 C27.7089676,9.86542236 27.7818744,9.94802965 27.8375899,10.0387457 Z" id="形状结合" style="mix-blend-mode: soft-light;"></path>
                    <path d="M17.3777778,20.5929365 L11.3333333,26.637381 L11.3333333,20.0294001 C11.3333333,18.9902593 12.4863111,17.5108815 14.3555556,17.5108815 C16.2248,17.5108815 17.3777778,18.990763 17.3777778,20.0294001 L17.3777778,20.5929365 Z" id="形状结合" style="mix-blend-mode: soft-light;"></path>
                    <path d="M26.6516286,10.6857143 C24.3075552,10.6890726 22.1053244,11.8090225 20.7218695,13.7013079 C19.3384146,15.5935933 18.939276,18.0317886 19.6471429,20.2664286 L10.8343429,29.0792286 C10.739147,29.17482 10.6857041,29.3042356 10.6857143,29.4391429 L10.6857143,33.4929143 C10.6857143,33.7726857 10.9130286,34 11.1928,34 L14.7409429,34 C14.875,34 15.0032286,33.9460857 15.0994,33.8513714 L16.1194,32.8313714 C16.2143748,32.7362276 16.2678126,32.6073483 16.2680286,32.4729143 L16.2680286,30.8598571 L17.8810857,30.8598571 C18.0155732,30.8598571 18.1445524,30.8064322 18.2396495,30.7113352 C18.3347465,30.6162382 18.3881714,30.4872589 18.3881714,30.3527714 L18.3881714,28.9320571 L19.8088857,28.9320571 C19.9429429,28.9320571 20.0711714,28.8781429 20.1673429,28.7834286 L24.0433429,24.9074286 C26.3020288,25.7597994 28.8351458,25.4500483 30.8218948,24.0785431 C32.8086438,22.7070379 33.9962887,20.448249 34,18.0340857 C33.9943816,13.9780217 30.7076926,10.6913327 26.6516286,10.6857143 Z M21.5224857,22.0004286 L12.8918286,30.6310857 C12.8294316,30.7023434 12.7325195,30.7328806 12.6405434,30.7102661 C12.5485672,30.6876516 12.4768649,30.6156567 12.4546253,30.5235892 C12.4323857,30.4315216 12.4633173,30.3347347 12.5348286,30.2726286 L21.1654857,21.6434286 C21.2651411,21.5485186 21.4223131,21.5504351 21.5196247,21.6477467 C21.6169363,21.7450583 21.6188528,21.9022303 21.5239429,22.0018857 L21.5224857,22.0004286 Z M30.2988571,21.1960857 L29.9404,21.5545429 L23.1297143,14.7453143 L23.4881714,14.3868571 C24.3891994,13.4815979 25.6148206,12.9742453 26.8920571,12.9778 C28.1787143,12.9778 29.3881429,13.4776 30.2974,14.3868571 C32.1747526,16.2684004 32.1747526,19.3145424 30.2974,21.1960857 L30.2988571,21.1960857 Z" id="形状复制"></path>
                </g>
            </g>
        </g>
    </g>
</svg>