<?xml version="1.0" encoding="UTF-8"?>
<svg width="48px" height="48px" viewBox="0 0 48 48" version="1.1" xmlns="http://www.w3.org/2000/svg" xmlns:xlink="http://www.w3.org/1999/xlink">
    <!-- Generator: Sketch 55 (78076) - https://sketchapp.com -->
    <title>编组 12</title>
    <desc>Created with Sketch.</desc>
    <defs>
        <linearGradient x1="13.1447415%" y1="0%" x2="83.9381834%" y2="100%" id="linearGradient-1">
            <stop stop-color="#4BA2FE" offset="0%"></stop>
            <stop stop-color="#6235D2" offset="100%"></stop>
        </linearGradient>
        <path d="M6.20245308,3.61797058 C10.6707587,0.201735416 15.3023245,-2.47806169e-14 24.2472282,0 C27.0103049,6.71377555e-15 30.039976,0.109535597 33.3362413,0.328606791 L33.3362414,0.328604394 C40.8481707,0.827850404 46.8467835,6.78045555 47.4038499,14.2883184 C47.6362727,17.4207966 47.7524841,20.5015987 47.7524841,23.5307246 C47.7524841,26.8835371 47.6101095,30.241371 47.3253602,33.6042262 L47.3253622,33.6042263 C46.7300695,40.6345615 41.3489806,46.3172489 34.3615176,47.2946667 C30.9999457,47.7648889 27.628516,48 24.2472282,48 C20.7002192,48 17.1878556,47.741278 13.7101372,47.2238339 L13.7101373,47.223833 C7.16235641,46.2495993 2.01097556,41.1269628 1.00011894,34.5847357 C0.33337298,30.2695803 0,26.5849099 0,23.5307246 C5.02173597e-16,15.6886816 1.73414747,7.03420573 6.20245308,3.61797058 Z" id="path-2"></path>
        <linearGradient x1="54.3753762%" y1="38.0753795%" x2="45.4689805%" y2="53.3134082%" id="linearGradient-4">
            <stop stop-color="#FFFFFF" offset="0%"></stop>
            <stop stop-color="#FFFFFF" stop-opacity="0" offset="100%"></stop>
        </linearGradient>
        <linearGradient x1="57.5479459%" y1="38.0753795%" x2="42.1835544%" y2="53.3134082%" id="linearGradient-5">
            <stop stop-color="#FFFFFF" offset="0%"></stop>
            <stop stop-color="#FFFFFF" stop-opacity="0" offset="100%"></stop>
        </linearGradient>
        <linearGradient x1="54.5922031%" y1="38.0753795%" x2="45.2444405%" y2="53.3134082%" id="linearGradient-6">
            <stop stop-color="#FFFFFF" offset="0%"></stop>
            <stop stop-color="#FFFFFF" stop-opacity="0" offset="100%"></stop>
        </linearGradient>
    </defs>
    <g id="元素" stroke="none" stroke-width="1" fill="none" fill-rule="evenodd">
        <g id="图标切图" transform="translate(-185.000000, -147.000000)">
            <g id="编组-12" transform="translate(185.000000, 147.000000)">
                <g id="编组-5复制">
                    <g id="路径-2">
                        <mask id="mask-3" fill="white">
                            <use xlink:href="#path-2"></use>
                        </mask>
                        <use id="蒙版" fill="url(#linearGradient-1)" xlink:href="#path-2"></use>
                        <path d="M37.0133561,-46.9128231 C26.6639976,-18.3269401 27.3548745,10.912351 35.1169265,23.0820156 C42.8789786,35.2516801 57.5035695,44.7727086 58.3033175,61.0670435 C59.1030656,77.3613784 54.8829284,95.779233 44.9475105,99.7603 C35.0120927,103.741367 13.9351994,104.338768 10.4374097,86.6018577 C6.93962002,68.864947 3.76978976,-41.7804956 37.0133561,-46.9128231 Z" id="路径-2复制-3" fill="url(#linearGradient-4)" style="mix-blend-mode: overlay;" opacity="0.100000001" mask="url(#mask-3)" transform="translate(33.375296, 27.573648) scale(-1, 1) rotate(-68.000000) translate(-33.375296, -27.573648) "></path>
                        <path d="M29.353875,-54.2203716 C19.0045165,-25.6344887 19.6953934,3.6048025 27.4574454,15.774467 C35.2194975,27.9441315 49.8440884,37.4651601 50.6438364,53.759495 C51.4435845,70.0538298 47.2234473,88.4716844 37.2880294,92.4527514 C27.3526116,96.4338184 6.27571828,97.0312198 2.7779286,79.2943091 C-0.719861084,61.5573985 -48.678541,-44.9863061 29.353875,-54.2203716 Z" id="路径-2复制-2" fill="url(#linearGradient-5)" opacity="0.07" mask="url(#mask-3)" transform="translate(17.872802, 20.266099) rotate(-10.000000) translate(-17.872802, -20.266099) "></path>
                        <path d="M28.9138303,-28.8219093 C18.5644718,-0.236026367 19.2553486,29.0032648 27.0174007,41.1729293 C34.7794527,53.3425938 49.4040437,62.8636224 50.2037917,79.1579573 C51.0035397,95.4522921 46.7834026,113.870147 36.8479847,117.851214 C26.9125668,121.832281 5.83567353,122.429682 2.33788385,104.692771 C-1.15990583,86.9558608 -49.1185858,-19.5878438 28.9138303,-28.8219093 Z" id="路径-2复制-4" fill="url(#linearGradient-5)" opacity="0.1" mask="url(#mask-3)" transform="translate(17.432757, 45.664561) rotate(-13.000000) translate(-17.432757, -45.664561) "></path>
                        <path d="M10.1033035,-33.9936839 C-0.246055008,-5.40780095 0.44482186,23.8314902 8.20687391,36.0011547 C15.968926,48.1708193 30.5935169,57.6918478 31.3932649,73.9861827 C32.1930129,90.2805175 27.9728758,108.698372 18.0374579,112.679439 C8.10204003,116.660506 -12.9748532,117.257908 -16.4726429,99.5209968 C-19.9704326,81.7840862 -28.5125053,0.511693654 10.1033035,-33.9936839 Z" id="路径-2复制-5" fill="url(#linearGradient-6)" opacity="0.149999991" mask="url(#mask-3)" transform="translate(5.852713, 40.492787) rotate(6.000000) translate(-5.852713, -40.492787) "></path>
                    </g>
                    <g id="解锁" transform="translate(10.000000, 8.000000)" fill="#FFFFFF" fill-rule="nonzero">
                        <path d="M0.0678627754,15.539733 C0.113196065,15.6688152 0.181241811,15.7937739 0.272000015,15.9146091 C0.453333379,16.1560357 0.714666714,16.3672839 1.05600002,16.5483539 C1.39733333,16.7294239 1.80266666,16.8720851 2.27200001,16.9763374 C2.74133336,17.0805898 3.26400003,17.132716 3.84000002,17.132716 L20.032,17.132716 C20.608,17.132716 21.136,17.0778464 21.616,16.968107 C22.096,16.8583676 22.512,16.7102195 22.864,16.5236626 C23.216,16.3371056 23.5651771,15.818834 23.7678437,15.5554595 C23.7686159,15.554456 23.7693966,15.5534366 23.7701858,15.5524012 C23.8121738,15.7240958 23.8331678,15.905735 23.8331678,16.0973188 L23.8331678,21.7219464 L23.8331678,24.4548163 L23.8331678,25.9483615 C23.8331678,26.5203575 23.7325389,27.060576 23.5312811,27.5690169 C23.3300232,28.0774578 23.0546177,28.5117511 22.7050646,28.8718967 C22.3555114,29.2320424 21.9424032,29.5180404 21.4657398,29.7298908 C20.9890765,29.9417412 20.4647468,30.0476663 19.8927508,30.0476663 L3.81330688,30.0476663 C3.24131085,30.0476663 2.72227742,29.9470374 2.25620656,29.7457796 C1.79013571,29.5445217 1.38761999,29.2691162 1.04865941,28.9195631 C0.709698823,28.5700099 0.450182104,28.1621979 0.27010925,27.6961271 C0.0900363958,27.2300563 -2.08333299e-08,26.7322079 3.55271368e-15,26.2025819 L3.55271368e-15,16.0973188 C3.55271368e-15,15.9010164 0.0226209251,15.7151545 0.0678627754,15.539733 Z M2.02917958,14.000294 C2.0412666,14.000098 2.05338715,14 2.06554122,14 L2.08000001,14 C2.06299469,14 2.04605455,14.000098 2.02917958,14.000294 Z M11.4015697,24.062629 L11.4015697,26.9905416 C11.4015697,27.6223667 11.8696789,28.1335361 12.4529358,28.1335361 C13.0359303,28.1335361 13.5088483,27.6221482 13.5098538,26.9905416 L13.5098538,24.062629 C14.550903,23.5313066 15.1111653,22.2876345 14.8573511,21.0717219 C14.6034932,19.8558094 13.603668,18.9943449 12.4528921,19.000028 C11.3054822,19.0015143 10.3119522,19.8636345 10.0601052,21.0763121 C9.8083019,22.2889897 10.3652418,23.5289897 11.4015697,24.062629 Z" id="形状结合"></path>
                        <path d="M24.0079444,9.99200722e-16 C25.0248262,9.99200722e-16 26.0046342,0.190665344 26.9473684,0.571996031 C27.8901026,0.953326719 28.7269116,1.47765641 29.4577954,2.14498509 C30.1886792,2.81231378 30.776564,3.59086393 31.2214498,4.48063553 C31.6663356,5.37040714 31.8887785,6.32373384 31.8887785,7.34061566 L31.8887785,12.0436941 L28.0436941,12.0436941 L28.0436941,8.23038725 C28.0436941,6.89572985 27.6676597,5.85766299 26.9155908,5.11618666 C26.163522,4.37471032 25.1519364,4.00397216 23.8808341,4.00397216 C22.7368421,4.00397216 21.8152929,4.37471032 21.1161867,5.11618666 C20.4170804,5.85766299 20.0675273,6.89572985 20.0675273,8.23038725 L20.0675273,12.1072492 L16.0635551,12.1072492 L16.0635551,7.34061566 C16.0635551,6.32373382 16.264813,5.37040711 16.6673287,4.48063553 C17.0698444,3.59086395 17.6259517,2.8123138 18.3356504,2.14498509 C19.0453492,1.47765639 19.8821582,0.953326698 20.8460774,0.571996031 C21.8099967,0.190665365 22.8639523,2.08333334e-08 24.0079444,0 L24.0079444,9.99200722e-16 Z" id="路径" opacity="0.900000036"></path>
                    </g>
                </g>
                <path d="M34,26 L34,22.2355967 L34,23.0092593 C34,23.3055556 33.8986667,23.585391 33.696,23.8487654 C33.4933334,24.1121399 33.216,24.3371056 32.864,24.5236626 C32.512,24.7102195 32.096,24.8583676 31.616,24.968107 C31.136,25.0778464 30.608,25.132716 30.032,25.132716 L13.84,25.132716 C13.264,25.132716 12.7413334,25.0805898 12.272,24.9763374 C11.8026667,24.8720851 11.3973333,24.7294239 11.056,24.5483539 C10.7146667,24.3672839 10.4533334,24.1560357 10.272,23.9146091 C10.0906667,23.6731825 9.99999998,23.4152949 10,23.1409465 L10,23.0864198 C10,22.7791495 10.208,22.521262 10.624,22.3127572 C11.04,22.1042524 11.5253334,22 12.08,22 L31.888,22 C32.4853333,22 32.9866667,22.1042524 33.392,22.3127572 C33.7973333,22.521262 34,22.7791495 34,23.0864198 L34,23.0360082 L34,26 Z" id="形状" fill="#000000" fill-rule="nonzero" style="mix-blend-mode: soft-light;" opacity="0.453078497"></path>
            </g>
        </g>
    </g>
</svg>