<?xml version="1.0" encoding="UTF-8"?>
<svg width="48px" height="48px" viewBox="0 0 48 48" version="1.1" xmlns="http://www.w3.org/2000/svg" xmlns:xlink="http://www.w3.org/1999/xlink">
    <!-- Generator: Sketch 55 (78076) - https://sketchapp.com -->
    <title>编组 13备份</title>
    <desc>Created with Sketch.</desc>
    <defs>
        <linearGradient x1="16.0620504%" y1="13.3449707%" x2="83.2636529%" y2="86.359432%" id="linearGradient-1">
            <stop stop-color="#C471F5" offset="0%"></stop>
            <stop stop-color="#8D1EFE" offset="100%"></stop>
        </linearGradient>
        <path d="M6.20245308,3.61797058 C10.6707587,0.201735416 15.3023245,-2.47806169e-14 24.2472282,0 C27.0103049,6.71377555e-15 30.039976,0.109535597 33.3362413,0.328606791 L33.3362414,0.328604394 C40.8481707,0.827850404 46.8467835,6.78045555 47.4038499,14.2883184 C47.6362727,17.4207966 47.7524841,20.5015987 47.7524841,23.5307246 C47.7524841,26.8835371 47.6101095,30.241371 47.3253602,33.6042262 L47.3253622,33.6042263 C46.7300695,40.6345615 41.3489806,46.3172489 34.3615176,47.2946667 C30.9999457,47.7648889 27.628516,48 24.2472282,48 C20.7002192,48 17.1878556,47.741278 13.7101372,47.2238339 L13.7101373,47.223833 C7.16235641,46.2495993 2.01097556,41.1269628 1.00011894,34.5847357 C0.33337298,30.2695803 0,26.5849099 0,23.5307246 C5.02173597e-16,15.6886816 1.73414747,7.03420573 6.20245308,3.61797058 Z" id="path-2"></path>
        <linearGradient x1="54.3753762%" y1="38.0753795%" x2="45.4689805%" y2="53.3134082%" id="linearGradient-4">
            <stop stop-color="#FFFFFF" offset="0%"></stop>
            <stop stop-color="#FFFFFF" stop-opacity="0" offset="100%"></stop>
        </linearGradient>
        <linearGradient x1="57.5479459%" y1="38.0753795%" x2="42.1835544%" y2="53.3134082%" id="linearGradient-5">
            <stop stop-color="#FFFFFF" offset="0%"></stop>
            <stop stop-color="#FFFFFF" stop-opacity="0" offset="100%"></stop>
        </linearGradient>
        <linearGradient x1="54.5922031%" y1="38.0753795%" x2="45.2444405%" y2="53.3134082%" id="linearGradient-6">
            <stop stop-color="#FFFFFF" offset="0%"></stop>
            <stop stop-color="#FFFFFF" stop-opacity="0" offset="100%"></stop>
        </linearGradient>
        <path d="M3.63611111,0.268333333 C1.94755556,0.268333333 0.568555556,1.64888889 0.568555556,3.33666667 L0.568555556,3.33666667 L0.568555556,6.40422222 L6.77366667,6.40422222 L6.77366667,3.33666667 C6.77366667,1.64888889 5.39388889,0.268333333 3.70611111,0.268333333 L3.70611111,0.268333333 L3.63611111,0.268333333 Z M2.56433333,3.33666667 C2.56433333,2.737 3.05511111,2.24622222 3.654,2.24622222 L3.654,2.24622222 L3.68744444,2.24622222 C4.28711111,2.24622222 4.77788889,2.737 4.77788889,3.33666667 L4.77788889,3.33666667 C4.77788889,3.93555556 4.28711111,4.42711111 3.68744444,4.42711111 L3.68744444,4.42711111 L3.654,4.42711111 C3.05511111,4.42711111 2.56433333,3.93555556 2.56433333,3.33666667 L2.56433333,3.33666667 Z" id="path-7"></path>
        <path d="M7.43775,0.162 L3.51975,4.04025 C3.4725,4.086 3.39675,4.08525 3.351,4.0395 L3.351,4.0395 L1.4505,2.13975 C1.404,2.094 1.32825,2.094 1.28175,2.13975 L1.28175,2.13975 L0.414,3.0075 C0.36825,3.054 0.36825,3.12975 0.414,3.17625 L0.414,3.17625 L3.351,6.114 C3.39825,6.1605 3.47325,6.1605 3.5205,6.11475 L3.5205,6.11475 L8.47425,1.2 C8.4975,1.17675 8.5095,1.14825 8.5095,1.1145 L8.5095,1.1145 C8.5095,1.08225 8.4975,1.05375 8.475,1.0305 L8.475,1.0305 L7.60575,0.16275 C7.5825,0.13875 7.55175,0.1275 7.521,0.1275 L7.521,0.1275 C7.491,0.1275 7.461,0.13875 7.43775,0.162 M7.43775,8.4465 L3.51975,12.3255 C3.4725,12.37125 3.39675,12.37125 3.351,12.32475 L3.351,12.32475 L1.4505,10.42425 C1.404,10.3785 1.32825,10.3785 1.28175,10.42425 L1.28175,10.42425 L0.414,11.29275 C0.36825,11.33925 0.36825,11.415 0.414,11.4615 L0.414,11.4615 L3.351,14.39925 C3.39825,14.44575 3.47325,14.44575 3.5205,14.39925 L3.5205,14.39925 L8.47425,9.4845 C8.4975,9.462 8.5095,9.4335 8.5095,9.4005 L8.5095,9.4005 C8.5095,9.3675 8.4975,9.339 8.475,9.31575 L8.475,9.31575 L7.60575,8.44725 C7.5825,8.424 7.55175,8.41275 7.521,8.41275 L7.521,8.41275 C7.491,8.41275 7.461,8.424 7.43775,8.4465" id="path-9"></path>
    </defs>
    <g id="元素" stroke="none" stroke-width="1" fill="none" fill-rule="evenodd">
        <g id="图标切图" transform="translate(-184.000000, -936.000000)">
            <g id="编组-13备份" transform="translate(184.000000, 936.000000)">
                <g id="编组-5复制-2">
                    <g id="路径-2">
                        <mask id="mask-3" fill="white">
                            <use xlink:href="#path-2"></use>
                        </mask>
                        <use id="蒙版" fill="url(#linearGradient-1)" xlink:href="#path-2"></use>
                        <path d="M37.0133561,-46.9128231 C26.6639976,-18.3269401 27.3548745,10.912351 35.1169265,23.0820156 C42.8789786,35.2516801 57.5035695,44.7727086 58.3033175,61.0670435 C59.1030656,77.3613784 54.8829284,95.779233 44.9475105,99.7603 C35.0120927,103.741367 13.9351994,104.338768 10.4374097,86.6018577 C6.93962002,68.864947 3.76978976,-41.7804956 37.0133561,-46.9128231 Z" id="路径-2复制-3" fill="url(#linearGradient-4)" style="mix-blend-mode: overlay;" opacity="0.165527344" mask="url(#mask-3)" transform="translate(33.375296, 27.573648) scale(-1, 1) rotate(-68.000000) translate(-33.375296, -27.573648) "></path>
                        <path d="M29.353875,-54.2203716 C19.0045165,-25.6344887 19.6953934,3.6048025 27.4574454,15.774467 C35.2194975,27.9441315 49.8440884,37.4651601 50.6438364,53.759495 C51.4435845,70.0538298 47.2234473,88.4716844 37.2880294,92.4527514 C27.3526116,96.4338184 6.27571828,97.0312198 2.7779286,79.2943091 C-0.719861084,61.5573985 -48.678541,-44.9863061 29.353875,-54.2203716 Z" id="路径-2复制-2" fill="url(#linearGradient-5)" opacity="0.087937128" mask="url(#mask-3)" transform="translate(17.872802, 20.266099) rotate(-10.000000) translate(-17.872802, -20.266099) "></path>
                        <path d="M28.9138303,-28.8219093 C18.5644718,-0.236026367 19.2553486,29.0032648 27.0174007,41.1729293 C34.7794527,53.3425938 49.4040437,62.8636224 50.2037917,79.1579573 C51.0035397,95.4522921 46.7834026,113.870147 36.8479847,117.851214 C26.9125668,121.832281 5.83567353,122.429682 2.33788385,104.692771 C-1.15990583,86.9558608 -49.1185858,-19.5878438 28.9138303,-28.8219093 Z" id="路径-2复制-4" fill="url(#linearGradient-5)" opacity="0.139834449" mask="url(#mask-3)" transform="translate(17.432757, 45.664561) rotate(-13.000000) translate(-17.432757, -45.664561) "></path>
                        <path d="M10.1033035,-33.9936839 C-0.246055008,-5.40780095 0.44482186,23.8314902 8.20687391,36.0011547 C15.968926,48.1708193 30.5935169,57.6918478 31.3932649,73.9861827 C32.1930129,90.2805175 27.9728758,108.698372 18.0374579,112.679439 C8.10204003,116.660506 -12.9748532,117.257908 -16.4726429,99.5209968 C-19.9704326,81.7840862 -28.5125053,0.511693654 10.1033035,-33.9936839 Z" id="路径-2复制-5" fill="url(#linearGradient-6)" opacity="0.203311012" mask="url(#mask-3)" transform="translate(5.852713, 40.492787) rotate(6.000000) translate(-5.852713, -40.492787) "></path>
                    </g>
                    <g id="灯" transform="translate(8.000000, 5.000000)" fill="#000000" fill-rule="nonzero" opacity="0">
                        <rect id="矩形" x="0" y="0" width="32" height="32"></rect>
                    </g>
                </g>
                <g id="Group" transform="translate(13.000000, 8.000000)">
                    <g id="Group-3" transform="translate(7.000000, 0.000000)">
                        <mask id="mask-8" fill="white">
                            <use xlink:href="#path-7"></use>
                        </mask>
                        <g id="Clip-2"></g>
                        <path d="M3.63611111,0.268333333 C1.94755556,0.268333333 0.568555556,1.64888889 0.568555556,3.33666667 L0.568555556,3.33666667 L0.568555556,6.40422222 L6.77366667,6.40422222 L6.77366667,3.33666667 C6.77366667,1.64888889 5.39388889,0.268333333 3.70611111,0.268333333 L3.70611111,0.268333333 L3.63611111,0.268333333 Z M2.56433333,3.33666667 C2.56433333,2.737 3.05511111,2.24622222 3.654,2.24622222 L3.654,2.24622222 L3.68744444,2.24622222 C4.28711111,2.24622222 4.77788889,2.737 4.77788889,3.33666667 L4.77788889,3.33666667 C4.77788889,3.93555556 4.28711111,4.42711111 3.68744444,4.42711111 L3.68744444,4.42711111 L3.654,4.42711111 C3.05511111,4.42711111 2.56433333,3.93555556 2.56433333,3.33666667 L2.56433333,3.33666667 Z" id="Fill-1" fill="#FFFFFF" opacity="0.600000024" mask="url(#mask-8)"></path>
                    </g>
                    <g id="Group-27" transform="translate(0.000000, 6.000000)" fill="#FFFFFF" fill-opacity="0.5" stroke="#FFFFFF">
                        <polygon id="Fill-25" points="0.52744 22.2853793 20.380533 22.2853793 20.380533 0 0.52744 0"></polygon>
                    </g>
                    <g id="Group-44" transform="translate(7.000000, 10.000000)" fill="#FFFFFF">
                        <path d="M1.666,0.47625 C1.43111111,0.47625 1.21177778,0.558 1.03988889,0.711 L1.03988889,0.711 C1.015,0.72975 1.03211111,0.7155 1.00488889,0.7425 L1.00488889,0.7425 C0.831444444,0.90975 0.733444444,1.1355 0.733444444,1.3755 L0.733444444,1.3755 L0.733444444,5.2785 C0.733444444,5.517 0.832222222,5.74575 1.00877778,5.91375 L1.00877778,5.91375 C1.18222222,6.08175 1.41788889,6.177 1.666,6.177 L1.666,6.177 L5.71355556,6.177 C5.94766667,6.177 6.16777778,6.09525 6.33888889,5.9415 L6.33888889,5.9415 C6.36533333,5.9235 6.34744444,5.93775 6.37388889,5.91075 L6.37388889,5.91075 C6.54811111,5.74425 6.64533333,5.517 6.64533333,5.2785 L6.64533333,5.2785 L6.64533333,1.3755 C6.64533333,1.1355 6.54733333,0.9075 6.37155556,0.7395 L6.37155556,0.7395 C6.19655556,0.5715 5.96088889,0.47625 5.71355556,0.47625 L5.71355556,0.47625 L1.666,0.47625 Z M1.80288889,5.14575 L5.57666667,5.14575 L5.57666667,1.50675 L1.80288889,1.50675 L1.80288889,5.14575 Z M1.666,8.7615 C1.43111111,8.7615 1.21177778,8.844 1.03988889,8.99625 L1.03988889,8.99625 C1.015,9.01425 1.03211111,9 1.00488889,9.027 L1.00488889,9.027 C0.831444444,9.195 0.733444444,9.4215 0.733444444,9.66 L0.733444444,9.66 L0.733444444,13.563 C0.733444444,13.803 0.832222222,14.03025 1.00877778,14.19825 L1.00877778,14.19825 C1.18222222,14.367 1.41788889,14.46225 1.666,14.46225 L1.666,14.46225 L5.71355556,14.46225 C5.94766667,14.46225 6.16777778,14.37975 6.33888889,14.22675 L6.33888889,14.22675 C6.36533333,14.2095 6.34744444,14.223 6.37388889,14.196 L6.37388889,14.196 C6.54811111,14.02875 6.64533333,13.8015 6.64533333,13.563 L6.64533333,13.563 L6.64533333,9.66 C6.64533333,9.42075 6.54733333,9.1935 6.37155556,9.02475 L6.37155556,9.02475 C6.19655556,8.85675 5.96088889,8.7615 5.71355556,8.7615 L5.71355556,8.7615 L1.666,8.7615 Z M1.80288889,13.431 L5.57666667,13.431 L5.57666667,9.792 L1.80288889,9.792 L1.80288889,13.431 Z" id="Fill-42"></path>
                    </g>
                    <g id="Group-47" transform="translate(7.000000, 10.000000)">
                        <mask id="mask-10" fill="white">
                            <use xlink:href="#path-9"></use>
                        </mask>
                        <g id="Clip-46"></g>
                        <path d="M7.43775,0.162 L3.51975,4.04025 C3.4725,4.086 3.39675,4.08525 3.351,4.0395 L3.351,4.0395 L1.4505,2.13975 C1.404,2.094 1.32825,2.094 1.28175,2.13975 L1.28175,2.13975 L0.414,3.0075 C0.36825,3.054 0.36825,3.12975 0.414,3.17625 L0.414,3.17625 L3.351,6.114 C3.39825,6.1605 3.47325,6.1605 3.5205,6.11475 L3.5205,6.11475 L8.47425,1.2 C8.4975,1.17675 8.5095,1.14825 8.5095,1.1145 L8.5095,1.1145 C8.5095,1.08225 8.4975,1.05375 8.475,1.0305 L8.475,1.0305 L7.60575,0.16275 C7.5825,0.13875 7.55175,0.1275 7.521,0.1275 L7.521,0.1275 C7.491,0.1275 7.461,0.13875 7.43775,0.162 M7.43775,8.4465 L3.51975,12.3255 C3.4725,12.37125 3.39675,12.37125 3.351,12.32475 L3.351,12.32475 L1.4505,10.42425 C1.404,10.3785 1.32825,10.3785 1.28175,10.42425 L1.28175,10.42425 L0.414,11.29275 C0.36825,11.33925 0.36825,11.415 0.414,11.4615 L0.414,11.4615 L3.351,14.39925 C3.39825,14.44575 3.47325,14.44575 3.5205,14.39925 L3.5205,14.39925 L8.47425,9.4845 C8.4975,9.462 8.5095,9.4335 8.5095,9.4005 L8.5095,9.4005 C8.5095,9.3675 8.4975,9.339 8.475,9.31575 L8.475,9.31575 L7.60575,8.44725 C7.5825,8.424 7.55175,8.41275 7.521,8.41275 L7.521,8.41275 C7.491,8.41275 7.461,8.424 7.43775,8.4465" id="Fill-45" fill="#9428FD" mask="url(#mask-10)"></path>
                    </g>
                </g>
            </g>
        </g>
    </g>
</svg>