<?xml version="1.0" encoding="UTF-8"?>
<svg width="48px" height="48px" viewBox="0 0 48 48" version="1.1" xmlns="http://www.w3.org/2000/svg" xmlns:xlink="http://www.w3.org/1999/xlink">
    <!-- Generator: Sketch 55 (78076) - https://sketchapp.com -->
    <title>编组 5复制 3</title>
    <desc>Created with Sketch.</desc>
    <defs>
        <linearGradient x1="13.1447415%" y1="0%" x2="83.9381834%" y2="100%" id="linearGradient-1">
            <stop stop-color="#77E7BE" offset="0%"></stop>
            <stop stop-color="#3290CE" offset="100%"></stop>
        </linearGradient>
        <path d="M6.20245308,3.61797058 C10.6707587,0.201735416 15.3023245,-2.47806169e-14 24.2472282,0 C27.0103049,6.71377555e-15 30.039976,0.109535597 33.3362413,0.328606791 L33.3362414,0.328604394 C40.8481707,0.827850404 46.8467835,6.78045555 47.4038499,14.2883184 C47.6362727,17.4207966 47.7524841,20.5015987 47.7524841,23.5307246 C47.7524841,26.8835371 47.6101095,30.241371 47.3253602,33.6042262 L47.3253622,33.6042263 C46.7300695,40.6345615 41.3489806,46.3172489 34.3615176,47.2946667 C30.9999457,47.7648889 27.628516,48 24.2472282,48 C20.7002192,48 17.1878556,47.741278 13.7101372,47.2238339 L13.7101373,47.223833 C7.16235641,46.2495993 2.01097556,41.1269628 1.00011894,34.5847357 C0.33337298,30.2695803 0,26.5849099 0,23.5307246 C5.02173597e-16,15.6886816 1.73414747,7.03420573 6.20245308,3.61797058 Z" id="path-2"></path>
        <linearGradient x1="54.3753762%" y1="38.0753795%" x2="45.4689805%" y2="53.3134082%" id="linearGradient-4">
            <stop stop-color="#FFFFFF" offset="0%"></stop>
            <stop stop-color="#FFFFFF" stop-opacity="0" offset="100%"></stop>
        </linearGradient>
        <linearGradient x1="57.5479459%" y1="38.0753795%" x2="42.1835544%" y2="53.3134082%" id="linearGradient-5">
            <stop stop-color="#FFFFFF" offset="0%"></stop>
            <stop stop-color="#FFFFFF" stop-opacity="0" offset="100%"></stop>
        </linearGradient>
        <linearGradient x1="54.5922031%" y1="38.0753795%" x2="45.2444405%" y2="53.3134082%" id="linearGradient-6">
            <stop stop-color="#FFFFFF" offset="0%"></stop>
            <stop stop-color="#FFFFFF" stop-opacity="0" offset="100%"></stop>
        </linearGradient>
    </defs>
    <g id="元素" stroke="none" stroke-width="1" fill="none" fill-rule="evenodd">
        <g id="图标切图" transform="translate(-361.000000, -147.000000)">
            <g id="编组-5复制-3" transform="translate(361.000000, 147.000000)">
                <g id="路径-2">
                    <mask id="mask-3" fill="white">
                        <use xlink:href="#path-2"></use>
                    </mask>
                    <use id="蒙版" fill="url(#linearGradient-1)" xlink:href="#path-2"></use>
                    <path d="M37.0133561,-46.9128231 C26.6639976,-18.3269401 27.3548745,10.912351 35.1169265,23.0820156 C42.8789786,35.2516801 57.5035695,44.7727086 58.3033175,61.0670435 C59.1030656,77.3613784 54.8829284,95.779233 44.9475105,99.7603 C35.0120927,103.741367 13.9351994,104.338768 10.4374097,86.6018577 C6.93962002,68.864947 3.76978976,-41.7804956 37.0133561,-46.9128231 Z" id="路径-2复制-3" fill="url(#linearGradient-4)" style="mix-blend-mode: overlay;" opacity="0.165527344" mask="url(#mask-3)" transform="translate(33.375296, 27.573648) scale(-1, 1) rotate(-68.000000) translate(-33.375296, -27.573648) "></path>
                    <path d="M29.353875,-54.2203716 C19.0045165,-25.6344887 19.6953934,3.6048025 27.4574454,15.774467 C35.2194975,27.9441315 49.8440884,37.4651601 50.6438364,53.759495 C51.4435845,70.0538298 47.2234473,88.4716844 37.2880294,92.4527514 C27.3526116,96.4338184 6.27571828,97.0312198 2.7779286,79.2943091 C-0.719861084,61.5573985 -48.678541,-44.9863061 29.353875,-54.2203716 Z" id="路径-2复制-2" fill="url(#linearGradient-5)" opacity="0.087937128" mask="url(#mask-3)" transform="translate(17.872802, 20.266099) rotate(-10.000000) translate(-17.872802, -20.266099) "></path>
                    <path d="M28.9138303,-28.8219093 C18.5644718,-0.236026367 19.2553486,29.0032648 27.0174007,41.1729293 C34.7794527,53.3425938 49.4040437,62.8636224 50.2037917,79.1579573 C51.0035397,95.4522921 46.7834026,113.870147 36.8479847,117.851214 C26.9125668,121.832281 5.83567353,122.429682 2.33788385,104.692771 C-1.15990583,86.9558608 -49.1185858,-19.5878438 28.9138303,-28.8219093 Z" id="路径-2复制-4" fill="url(#linearGradient-5)" opacity="0.139834449" mask="url(#mask-3)" transform="translate(17.432757, 45.664561) rotate(-13.000000) translate(-17.432757, -45.664561) "></path>
                    <path d="M10.1033035,-33.9936839 C-0.246055008,-5.40780095 0.44482186,23.8314902 8.20687391,36.0011547 C15.968926,48.1708193 30.5935169,57.6918478 31.3932649,73.9861827 C32.1930129,90.2805175 27.9728758,108.698372 18.0374579,112.679439 C8.10204003,116.660506 -12.9748532,117.257908 -16.4726429,99.5209968 C-19.9704326,81.7840862 -28.5125053,0.511693654 10.1033035,-33.9936839 Z" id="路径-2复制-5" fill="url(#linearGradient-6)" opacity="0.203311012" mask="url(#mask-3)" transform="translate(5.852713, 40.492787) rotate(6.000000) translate(-5.852713, -40.492787) "></path>
                </g>
                <g id="新闻通知" transform="translate(9.000000, 10.000000)">
                    <path d="M3.06940189,3.57982399 L14.7582551,9.05116199 C15.5159458,9.40582308 16,10.1668582 16,11.0034463 L16,31.1086105 L0,31.1086105 L-1.33226763e-15,5.5321083 C-1.47806064e-15,4.341618 0.965083073,3.37653493 2.15557338,3.37653493 C2.47139717,3.37653493 2.78336298,3.44593442 3.06940189,3.57982399 Z M7.52941176,9.86723115 L7.52941176,13.7293001 L11.2941176,13.7293001 L11.2941176,9.86723115 L7.52941176,9.86723115 Z M7.52941176,16.6258518 L7.52941176,20.4879208 L11.2941176,20.4879208 L11.2941176,16.6258518 L7.52941176,16.6258518 Z M7.52941176,23.3844725 L7.52941176,30.1430932 L11.2941176,30.1430932 L11.2941176,23.3844725 L7.52941176,23.3844725 Z" id="Combined-Shape" fill="#FFFFFF" style="mix-blend-mode: soft-light;"></path>
                    <path d="M3.06940189,3.57982399 L14.7582551,9.05116199 C15.5159458,9.40582308 16,10.1668582 16,11.0034463 L16,31.1086105 L0,31.1086105 L-1.33226763e-15,5.5321083 C-1.47806064e-15,4.341618 0.965083073,3.37653493 2.15557338,3.37653493 C2.47139717,3.37653493 2.78336298,3.44593442 3.06940189,3.57982399 Z M7.52941176,9.86723115 L7.52941176,13.7293001 L11.2941176,13.7293001 L11.2941176,9.86723115 L7.52941176,9.86723115 Z M7.52941176,16.6258518 L7.52941176,20.4879208 L11.2941176,20.4879208 L11.2941176,16.6258518 L7.52941176,16.6258518 Z M7.52941176,23.3844725 L7.52941176,30.1430932 L11.2941176,30.1430932 L11.2941176,23.3844725 L7.52941176,23.3844725 Z" id="Combined-Shape" fill="#FFFFFF" style="mix-blend-mode: soft-light;"></path>
                    <path d="M17.0707641,12.5968467 L23.7596174,15.733469 C24.5165678,16.0884278 25,16.8490709 25,17.6851151 L25,31.1068649 L14,31.1068649 L14,14.5484928 C14,13.3580025 14.9650831,12.3929195 16.1555734,12.3929195 C16.4719047,12.3929195 16.7843592,12.4625421 17.0707641,12.5968467 Z M19,16.8568649 L19,18.7568649 L21,18.7568649 L21,16.8568649 L19,16.8568649 Z M19,20.6568649 L19,22.5568649 L21,22.5568649 L21,20.6568649 L19,20.6568649 Z M18,24.4568649 L18,29.2068649 L21,29.2068649 L21,24.4568649 L18,24.4568649 Z" id="Combined-Shape复制" fill="#000000" style="mix-blend-mode: soft-light;" opacity="0.577706473" transform="translate(19.500000, 21.500000) scale(-1, 1) translate(-19.500000, -21.500000) "></path>
                    <path d="M25.6401134,1.28498707 L22.0562634,4.61306233 L17.4019128,4.61306233 C16.6285527,4.61522484 16.0021564,5.24340815 16,6.01897449 L16,11.9238056 C16.0021564,12.6993719 16.6285527,13.3275552 17.4019128,13.3297177 L22.0562634,13.3297177 L25.6401134,16.657793 C26.8384685,17.7707131 28.1125269,18.3207059 28.1125269,17.5474542 L28.1125269,0.395325842 C28.1119661,-0.377925839 26.8379077,0.17206698 25.6401134,1.28498707 Z M31.2000997,9.87117381 L33.1027758,9.87117381 C33.598299,9.87117381 34,9.46832689 34,8.97139003 C34,8.47445317 33.598299,8.07160625 33.1027758,8.07160625 L31.2000997,8.07160625 C30.7045765,8.07160625 30.3028755,8.47445317 30.3028755,8.97139003 C30.3028755,9.46832689 30.7045765,9.87117381 31.2000997,9.87117381 L31.2000997,9.87117381 Z M31.7311443,14.4803163 C31.3792657,14.1377521 30.8183149,14.1419872 30.4716192,14.4898257 C30.1249235,14.8376641 30.1209483,15.4002169 30.4626936,15.7529479 L32.4410729,17.7364088 C32.66776,17.9637426 32.9981636,18.0525265 33.3078239,17.9693166 C33.6174842,17.8861067 33.8593565,17.6435444 33.9423297,17.3330007 C34.0253029,17.0224571 33.9367715,16.6911109 33.7100844,16.4637771 L31.7311443,14.4803163 Z M31.204025,3.66491517 C31.441861,3.66495373 31.6699815,3.57028978 31.8382504,3.40172842 L33.7072806,1.52680396 C34.0490262,1.17407302 34.0450511,0.611519902 33.6983553,0.263681339 C33.3516595,-0.0841572237 32.7907084,-0.0883922467 32.4388299,0.254172275 L30.5692389,2.12909673 C30.3127379,2.38649816 30.2360922,2.77350016 30.3750371,3.10966709 C30.5139819,3.44583403 30.8411589,3.66497395 31.204025,3.66491517 L31.204025,3.66491517 Z" id="形状" fill="#FFFFFF" fill-rule="nonzero"></path>
                </g>
            </g>
        </g>
    </g>
</svg>