<?xml version="1.0" encoding="UTF-8"?>
<svg width="48px" height="48px" viewBox="0 0 48 48" version="1.1" xmlns="http://www.w3.org/2000/svg" xmlns:xlink="http://www.w3.org/1999/xlink">
    <!-- Generator: Sketch 55 (78076) - https://sketchapp.com -->
    <title>编组 5复制 8</title>
    <desc>Created with Sketch.</desc>
    <defs>
        <linearGradient x1="13.1447415%" y1="0%" x2="83.9381834%" y2="100%" id="linearGradient-1">
            <stop stop-color="#A2E875" offset="0%"></stop>
            <stop stop-color="#91AB20" offset="100%"></stop>
        </linearGradient>
        <path d="M6.20245308,3.61797058 C10.6707587,0.201735416 15.3023245,-2.47806169e-14 24.2472282,0 C27.0103049,6.71377555e-15 30.039976,0.109535597 33.3362413,0.328606791 L33.3362414,0.328604394 C40.8481707,0.827850404 46.8467835,6.78045555 47.4038499,14.2883184 C47.6362727,17.4207966 47.7524841,20.5015987 47.7524841,23.5307246 C47.7524841,26.8835371 47.6101095,30.241371 47.3253602,33.6042262 L47.3253622,33.6042263 C46.7300695,40.6345615 41.3489806,46.3172489 34.3615176,47.2946667 C30.9999457,47.7648889 27.628516,48 24.2472282,48 C20.7002192,48 17.1878556,47.741278 13.7101372,47.2238339 L13.7101373,47.223833 C7.16235641,46.2495993 2.01097556,41.1269628 1.00011894,34.5847357 C0.33337298,30.2695803 0,26.5849099 0,23.5307246 C5.02173597e-16,15.6886816 1.73414747,7.03420573 6.20245308,3.61797058 Z" id="path-2"></path>
        <linearGradient x1="54.3753762%" y1="38.0753795%" x2="45.4689805%" y2="53.3134082%" id="linearGradient-4">
            <stop stop-color="#FFFFFF" offset="0%"></stop>
            <stop stop-color="#FFFFFF" stop-opacity="0" offset="100%"></stop>
        </linearGradient>
        <linearGradient x1="57.5479459%" y1="38.0753795%" x2="42.1835544%" y2="53.3134082%" id="linearGradient-5">
            <stop stop-color="#FFFFFF" offset="0%"></stop>
            <stop stop-color="#FFFFFF" stop-opacity="0" offset="100%"></stop>
        </linearGradient>
        <linearGradient x1="54.5922031%" y1="38.0753795%" x2="45.2444405%" y2="53.3134082%" id="linearGradient-6">
            <stop stop-color="#FFFFFF" offset="0%"></stop>
            <stop stop-color="#FFFFFF" stop-opacity="0" offset="100%"></stop>
        </linearGradient>
    </defs>
    <g id="元素" stroke="none" stroke-width="1" fill="none" fill-rule="evenodd">
        <g id="图标切图" transform="translate(-97.000000, -325.000000)">
            <g id="编组-5复制-8" transform="translate(97.000000, 325.000000)">
                <g id="路径-2">
                    <mask id="mask-3" fill="white">
                        <use xlink:href="#path-2"></use>
                    </mask>
                    <use id="蒙版" fill="url(#linearGradient-1)" xlink:href="#path-2"></use>
                    <path d="M37.0133561,-46.9128231 C26.6639976,-18.3269401 27.3548745,10.912351 35.1169265,23.0820156 C42.8789786,35.2516801 57.5035695,44.7727086 58.3033175,61.0670435 C59.1030656,77.3613784 54.8829284,95.779233 44.9475105,99.7603 C35.0120927,103.741367 13.9351994,104.338768 10.4374097,86.6018577 C6.93962002,68.864947 3.76978976,-41.7804956 37.0133561,-46.9128231 Z" id="路径-2复制-3" fill="url(#linearGradient-4)" style="mix-blend-mode: overlay;" opacity="0.165527344" mask="url(#mask-3)" transform="translate(33.375296, 27.573648) scale(-1, 1) rotate(-68.000000) translate(-33.375296, -27.573648) "></path>
                    <path d="M29.353875,-54.2203716 C19.0045165,-25.6344887 19.6953934,3.6048025 27.4574454,15.774467 C35.2194975,27.9441315 49.8440884,37.4651601 50.6438364,53.759495 C51.4435845,70.0538298 47.2234473,88.4716844 37.2880294,92.4527514 C27.3526116,96.4338184 6.27571828,97.0312198 2.7779286,79.2943091 C-0.719861084,61.5573985 -48.678541,-44.9863061 29.353875,-54.2203716 Z" id="路径-2复制-2" fill="url(#linearGradient-5)" opacity="0.087937128" mask="url(#mask-3)" transform="translate(17.872802, 20.266099) rotate(-10.000000) translate(-17.872802, -20.266099) "></path>
                    <path d="M28.9138303,-28.8219093 C18.5644718,-0.236026367 19.2553486,29.0032648 27.0174007,41.1729293 C34.7794527,53.3425938 49.4040437,62.8636224 50.2037917,79.1579573 C51.0035397,95.4522921 46.7834026,113.870147 36.8479847,117.851214 C26.9125668,121.832281 5.83567353,122.429682 2.33788385,104.692771 C-1.15990583,86.9558608 -49.1185858,-19.5878438 28.9138303,-28.8219093 Z" id="路径-2复制-4" fill="url(#linearGradient-5)" opacity="0.139834449" mask="url(#mask-3)" transform="translate(17.432757, 45.664561) rotate(-13.000000) translate(-17.432757, -45.664561) "></path>
                    <path d="M10.1033035,-33.9936839 C-0.246055008,-5.40780095 0.44482186,23.8314902 8.20687391,36.0011547 C15.968926,48.1708193 30.5935169,57.6918478 31.3932649,73.9861827 C32.1930129,90.2805175 27.9728758,108.698372 18.0374579,112.679439 C8.10204003,116.660506 -12.9748532,117.257908 -16.4726429,99.5209968 C-19.9704326,81.7840862 -28.5125053,0.511693654 10.1033035,-33.9936839 Z" id="路径-2复制-5" fill="url(#linearGradient-6)" opacity="0.203311012" mask="url(#mask-3)" transform="translate(5.852713, 40.492787) rotate(6.000000) translate(-5.852713, -40.492787) "></path>
                </g>
                <g id="编组-7" transform="translate(22.830611, 24.000000)">
                    <path d="M17.5311789,4.11128713 L15.845248,4.11128713 C15.7677628,4.11214881 15.6918217,4.13261316 15.6247987,4.17069307 L14.8651591,1.90732673 C14.6224627,0.62019802 13.7050703,0 12.5797681,0 L5.43842684,0 C4.14546183,0 3.36054126,0.833267327 3.15303585,1.90653465 L2.38995796,4.17683168 C2.31951883,4.13483786 2.23882712,4.11219655 2.15636268,4.11128713 L0.469622786,4.11128713 C0.344500528,4.1118111 0.2247187,4.16099353 0.136642268,4.24800897 C0.0485658368,4.33502442 -0.000586074402,4.45274071 5.27475471e-06,4.57524752 L5.27475471e-06,4.97841584 C-0.000890671713,5.23336249 0.20923561,5.44086894 0.469622786,5.44217822 L1.10852103,5.55009901 C0.906274038,5.93960396 0.791397747,6.38514851 0.791397747,6.90316832 L0.555577757,9.57425743 C0.555907295,9.65317262 0.561107781,9.73199618 0.571150775,9.81029703 C0.561215502,9.85988228 0.556002137,9.91026337 0.555577757,9.96079208 L0.555577757,13.1722772 C0.55461016,13.3908582 0.642367851,13.6008629 0.799544702,13.7560915 C0.956721553,13.91132 1.17044213,13.9990567 1.39368928,14 L2.67269925,14 C2.89582085,13.9989523 3.10937555,13.9111504 3.26636868,13.7559159 C3.42336181,13.6006815 3.51092873,13.3907351 3.50979954,13.1722772 L3.50979954,12.14 L14.5055639,12.14 L14.5055639,13.1722772 C14.5045963,13.3908582 14.592354,13.6008629 14.7495308,13.7560915 C14.9067077,13.91132 15.1204283,13.9990567 15.3436754,14 L16.6228876,14 C16.8461164,13.9990568 17.0598163,13.9113138 17.216961,13.7560794 C17.3741057,13.6008451 17.4618183,13.39084 17.4607969,13.1722772 L17.4607969,9.96 C17.4603356,9.90947327 17.4551226,9.85909551 17.4452239,9.80950495 C17.4548648,9.7311672 17.4600638,9.65236649 17.4607969,9.57346535 L17.2239657,6.90316832 C17.2239657,6.38336634 17.1088872,5.9380198 16.9062357,5.54693069 L17.5311789,5.44217822 C17.791469,5.44076029 18.0013314,5.23306818 17.9999874,4.97821782 L17.9999874,4.57524752 C18.0009023,4.45278224 17.9519659,4.33500245 17.8639946,4.24794087 C17.7760233,4.16087929 17.6562611,4.11170507 17.5311789,4.11128713 Z" id="形状" fill="#FFFFFF" fill-rule="nonzero" opacity="0.602213542"></path>
                    <path d="M3.71568698,3.6360396 L4.27368642,2.16772277 L4.2817763,2.13346535 C4.33739423,1.83643564 4.46157388,1.7839604 4.64440516,1.55425743 L13.3826886,1.55425743 C13.5681491,1.79009901 13.6832276,1.85009901 13.7337894,2.13009901 L14.300081,3.6350495 L14.5075864,4.45306931 C14.4610696,5.05207921 13.7331826,5.52455446 13.1272507,5.52455446 L4.88871952,5.52455446 C4.28197855,5.52455446 3.55388939,5.05207921 3.50737258,4.45306931 L3.71568698,3.6360396 Z" id="路径" fill="#000000" style="mix-blend-mode: overlay;"></path>
                    <path d="M4.1070349,10.6186139 C3.40624908,10.6186139 2.83854178,10.0570297 2.83854178,9.36455446 C2.83854178,8.67207921 3.40624908,8.11049505 4.1070349,8.11049505 C4.80782072,8.11049505 5.37532578,8.67108911 5.37532578,9.36455446 C5.37532578,10.0580198 4.80761848,10.6186139 4.1070349,10.6186139 Z" id="路径" fill="#000000" style="mix-blend-mode: soft-light;"></path>
                    <path d="M11.1935672,9.69306931 C11.1939971,9.79162534 11.1543667,9.88630056 11.0834167,9.95621336 C11.0124667,10.0261262 10.9160259,10.0655331 10.8153653,10.0657426 L7.25581829,10.0657426 C7.04676535,10.0645428 6.87822626,9.89775394 6.8792344,9.69306931 L6.8792344,8.64356436 C6.87891209,8.5452686 6.91849847,8.45087632 6.98927926,8.3811664 C7.06006005,8.31145648 7.15623301,8.27214337 7.25662728,8.27188119 L10.8161743,8.27188119 C11.0251475,8.2726454 11.1940149,8.43895795 11.1935672,8.64356436 L11.1935672,9.69306931 Z" id="路径" fill="#000000" style="mix-blend-mode: soft-light;"></path>
                    <path d="M13.9093398,10.6184158 C13.208554,10.6184158 12.6402399,10.0568317 12.6402399,9.36435644 C12.6402399,8.67188119 13.208554,8.11029703 13.9093398,8.11029703 C14.6101256,8.11029703 15.1778329,8.67089109 15.1778329,9.36435644 C15.1778329,10.0578218 14.6101256,10.6184158 13.9093398,10.6184158 Z" id="路径" fill="#000000" style="mix-blend-mode: soft-light;"></path>
                </g>
                <path d="M13.8149855,10 L24.713423,10 C25.10405,10.0781254 25.6509195,10.1562496 26.354048,10.234375 C26.9790512,10.3125004 27.4868586,10.546873 27.8774855,10.9375 C28.2681125,11.4062523 28.463423,12.0312461 28.463423,12.8125 C28.463423,13.6718793 28.3462367,14.8437426 28.1118605,16.328125 L27.525923,19.2578125 C27.2915469,20.5078187 27.0181121,21.5234336 26.7056105,22.3046875 C26.3149836,23.1640668 25.8071762,23.7890605 25.182173,24.1796875 C24.7134207,24.4921891 24.1665512,24.7265617 23.541548,24.8828125 C22.9165449,25.0390633 22.0181164,25.1171875 20.8462355,25.1171875 L15.2212355,25.1171875 L12.984375,36.031318 L9,36.031318 L13.8149855,10 Z M24.010298,16.328125 C24.2446742,15.1562441 24.3618605,14.4921883 24.3618605,14.3359375 C24.3618605,14.0234359 24.2446742,13.7500012 24.010298,13.515625 C23.7759219,13.3593742 23.1509281,13.28125 22.135298,13.28125 L17.3306105,13.28125 L15.807173,21.953125 L20.3774855,21.953125 C20.8462379,21.953125 21.236859,21.9140629 21.5493605,21.8359375 C21.8618621,21.7578121 22.1352969,21.6015637 22.369673,21.3671875 C22.6040492,21.2109367 22.8384219,20.937502 23.072798,20.546875 C23.3071742,20.156248 23.5415469,19.2968816 23.775923,17.96875 L24.010298,16.328125 Z" id="P" fill="#FFFFFF" fill-rule="nonzero"></path>
            </g>
        </g>
    </g>
</svg>