<?xml version="1.0" encoding="UTF-8"?>
<svg width="48px" height="48px" viewBox="0 0 48 48" version="1.1" xmlns="http://www.w3.org/2000/svg" xmlns:xlink="http://www.w3.org/1999/xlink">
    <!-- Generator: Sketch 55 (78076) - https://sketchapp.com -->
    <title>编组 5复制 9</title>
    <desc>Created with Sketch.</desc>
    <defs>
        <linearGradient x1="13.1447415%" y1="0%" x2="83.9381834%" y2="100%" id="linearGradient-1">
            <stop stop-color="#FFAC28" offset="0%"></stop>
            <stop stop-color="#D2651C" offset="100%"></stop>
        </linearGradient>
        <path d="M6.20245308,3.61797058 C10.6707587,0.201735416 15.3023245,-2.47806169e-14 24.2472282,0 C27.0103049,6.71377555e-15 30.039976,0.109535597 33.3362413,0.328606791 L33.3362414,0.328604394 C40.8481707,0.827850404 46.8467835,6.78045555 47.4038499,14.2883184 C47.6362727,17.4207966 47.7524841,20.5015987 47.7524841,23.5307246 C47.7524841,26.8835371 47.6101095,30.241371 47.3253602,33.6042262 L47.3253622,33.6042263 C46.7300695,40.6345615 41.3489806,46.3172489 34.3615176,47.2946667 C30.9999457,47.7648889 27.628516,48 24.2472282,48 C20.7002192,48 17.1878556,47.741278 13.7101372,47.2238339 L13.7101373,47.223833 C7.16235641,46.2495993 2.01097556,41.1269628 1.00011894,34.5847357 C0.33337298,30.2695803 0,26.5849099 0,23.5307246 C5.02173597e-16,15.6886816 1.73414747,7.03420573 6.20245308,3.61797058 Z" id="path-2"></path>
        <linearGradient x1="54.3753762%" y1="38.0753795%" x2="45.4689805%" y2="53.3134082%" id="linearGradient-4">
            <stop stop-color="#FFFFFF" offset="0%"></stop>
            <stop stop-color="#FFFFFF" stop-opacity="0" offset="100%"></stop>
        </linearGradient>
        <linearGradient x1="57.5479459%" y1="38.0753795%" x2="42.1835544%" y2="53.3134082%" id="linearGradient-5">
            <stop stop-color="#FFFFFF" offset="0%"></stop>
            <stop stop-color="#FFFFFF" stop-opacity="0" offset="100%"></stop>
        </linearGradient>
        <linearGradient x1="54.5922031%" y1="38.0753795%" x2="45.2444405%" y2="53.3134082%" id="linearGradient-6">
            <stop stop-color="#FFFFFF" offset="0%"></stop>
            <stop stop-color="#FFFFFF" stop-opacity="0" offset="100%"></stop>
        </linearGradient>
    </defs>
    <g id="元素" stroke="none" stroke-width="1" fill="none" fill-rule="evenodd">
        <g id="图标切图" transform="translate(-185.000000, -325.000000)">
            <g id="编组-5复制-9" transform="translate(185.000000, 325.000000)">
                <g id="路径-2">
                    <mask id="mask-3" fill="white">
                        <use xlink:href="#path-2"></use>
                    </mask>
                    <use id="蒙版" fill="url(#linearGradient-1)" xlink:href="#path-2"></use>
                    <path d="M37.0133561,-46.9128231 C26.6639976,-18.3269401 27.3548745,10.912351 35.1169265,23.0820156 C42.8789786,35.2516801 57.5035695,44.7727086 58.3033175,61.0670435 C59.1030656,77.3613784 54.8829284,95.779233 44.9475105,99.7603 C35.0120927,103.741367 13.9351994,104.338768 10.4374097,86.6018577 C6.93962002,68.864947 3.76978976,-41.7804956 37.0133561,-46.9128231 Z" id="路径-2复制-3" fill="url(#linearGradient-4)" style="mix-blend-mode: overlay;" opacity="0.165527344" mask="url(#mask-3)" transform="translate(33.375296, 27.573648) scale(-1, 1) rotate(-68.000000) translate(-33.375296, -27.573648) "></path>
                    <path d="M29.353875,-54.2203716 C19.0045165,-25.6344887 19.6953934,3.6048025 27.4574454,15.774467 C35.2194975,27.9441315 49.8440884,37.4651601 50.6438364,53.759495 C51.4435845,70.0538298 47.2234473,88.4716844 37.2880294,92.4527514 C27.3526116,96.4338184 6.27571828,97.0312198 2.7779286,79.2943091 C-0.719861084,61.5573985 -48.678541,-44.9863061 29.353875,-54.2203716 Z" id="路径-2复制-2" fill="url(#linearGradient-5)" opacity="0.087937128" mask="url(#mask-3)" transform="translate(17.872802, 20.266099) rotate(-10.000000) translate(-17.872802, -20.266099) "></path>
                    <path d="M28.9138303,-28.8219093 C18.5644718,-0.236026367 19.2553486,29.0032648 27.0174007,41.1729293 C34.7794527,53.3425938 49.4040437,62.8636224 50.2037917,79.1579573 C51.0035397,95.4522921 46.7834026,113.870147 36.8479847,117.851214 C26.9125668,121.832281 5.83567353,122.429682 2.33788385,104.692771 C-1.15990583,86.9558608 -49.1185858,-19.5878438 28.9138303,-28.8219093 Z" id="路径-2复制-4" fill="url(#linearGradient-5)" opacity="0.139834449" mask="url(#mask-3)" transform="translate(17.432757, 45.664561) rotate(-13.000000) translate(-17.432757, -45.664561) "></path>
                    <path d="M10.1033035,-33.9936839 C-0.246055008,-5.40780095 0.44482186,23.8314902 8.20687391,36.0011547 C15.968926,48.1708193 30.5935169,57.6918478 31.3932649,73.9861827 C32.1930129,90.2805175 27.9728758,108.698372 18.0374579,112.679439 C8.10204003,116.660506 -12.9748532,117.257908 -16.4726429,99.5209968 C-19.9704326,81.7840862 -28.5125053,0.511693654 10.1033035,-33.9936839 Z" id="路径-2复制-5" fill="url(#linearGradient-6)" opacity="0.203311012" mask="url(#mask-3)" transform="translate(5.852713, 40.492787) rotate(6.000000) translate(-5.852713, -40.492787) "></path>
                </g>
                <path d="M36.9127578,31.6262276 L33.0531119,31.6262276 L33.0531119,27.7775036 C33.0297936,27.3772865 32.6975216,27.0646461 32.2954919,27.0646461 C31.8934622,27.0646461 31.5611902,27.3772865 31.5378719,27.7775036 L31.5378719,31.6262276 L27.678226,31.6262276 C27.2768731,31.64948 26.9633455,31.9808117 26.9633455,32.3817038 C26.9633455,32.7825958 27.2768731,33.1139276 27.678226,33.1371799 L31.5378719,33.1371799 L31.5378719,36.9859039 C31.5611902,37.386121 31.8934622,37.6987614 32.2954919,37.6987614 C32.6975216,37.6987614 33.0297936,37.386121 33.0531119,36.9859039 L33.0531119,33.1371799 L36.9127578,33.1371799 C37.3141107,33.1139276 37.6276382,32.7825958 37.6276382,32.3817038 C37.6276382,31.9808117 37.3141107,31.64948 36.9127578,31.6262276 M13.5747399,10.009164 L13.9081949,10.0779595 C14.0960029,10.1289191 14.2799781,10.1900706 14.4601205,10.261414 C14.8638438,10.4384987 15.2279613,10.6958447 15.5294762,11.0168902 L16.0929002,11.555788 L16.6448257,12.0832199 L18.0476364,13.5279246 L19.1974813,14.6745157 L19.9448805,15.4312658 L20.6462858,16.1536181 L21.4166819,16.8874364 L22.3365578,17.8161752 L22.6470159,18.1486866 L21.5891586,19.1806186 L21.2327067,18.7907776 L19.8413944,17.4034024 L14.3796313,11.9456289 C14.2585137,11.8038892 14.1045982,11.6936985 13.9311918,11.6245834 C13.707044,11.5892475 13.4945395,11.7355616 13.448257,11.9570948 C13.4255891,12.1495724 13.5037732,12.3401482 13.6552291,12.4615949 L14.4256251,13.2298109 L20.4137616,19.1780706 L21.0231794,19.762832 L19.7583501,21.0240822 L19.6433656,20.8750254 L19.5168826,20.7145026 L14.2761453,15.4873213 L12.5181602,13.7215711 C12.4284283,13.6154873 12.3238736,13.5228128 12.2077021,13.4463892 C12.0810864,13.3803464 11.9296335,13.3823123 11.8047846,13.4516191 C11.6799357,13.520926 11.5984723,13.6482579 11.5880635,13.7903666 C11.5854906,13.9113164 11.626261,14.0292162 11.703048,14.122878 C11.7470148,14.1811318 11.7966577,14.2349017 11.8512502,14.2834007 L18.9317394,21.3897174 C19.023727,21.4814447 19.127213,21.561706 19.230699,21.6419674 L18.5522906,22.2955243 L18.1613433,22.6165698 C18.1613433,22.6165698 18.0463588,22.6738994 18.0463588,22.6165698 L17.4484395,22.0318084 L10.9888666,15.6019804 C10.491657,15.1098743 10.1481725,14.4845899 10,13.8018325 L10,12.7941063 C10.048549,12.5265684 10.1252053,12.2654004 10.229969,12.0144244 C10.388392,11.6984748 10.5940865,11.4080051 10.8393867,11.1544811 C11.0629677,10.8767512 11.3312648,10.6359671 11.6327797,10.4435946 C11.9419602,10.2410302 12.2843585,10.0945213 12.6446432,10.00789 L13.5862384,10.00789" id="形状" fill="#FFFFFF" fill-rule="nonzero" style="mix-blend-mode: soft-light;"></path>
                <path d="M38,16.4504578 L38,17.1498784 C38,17.2760034 38,17.5511853 37.9310093,17.7575717 C37.7905184,18.5687877 37.4979502,19.3463299 37.0686257,20.0494798 C36.7794419,20.5292251 36.4232506,20.965483 36.0107684,21.3451277 C35.8152948,21.5171164 35.6313196,21.689105 35.4243475,21.8496278 C34.9565503,22.1745813 34.445732,22.4331266 33.9065523,22.6178438 C33.571411,22.7540902 33.2251953,22.861497 32.8716919,22.9388893 C32.5322612,23.0177526 32.1853183,23.0600367 31.8368315,23.0650143 L30.847965,23.0650143 C30.6397654,23.0602831 30.4392725,23.1435855 30.2960394,23.2943325 L27.4227049,26.182468 L16.8939588,36.7387498 L16.5835006,37.0368635 C16.3205621,37.2740681 16.0265917,37.4746365 15.7096185,37.6330909 C15.3505383,37.8208734 14.961472,37.9450223 14.5597737,38 L13.2080672,38 C12.8056006,37.928901 12.4173091,37.7933835 12.0582223,37.5986931 C11.1733295,37.091182 10.5154924,36.2666571 10.2184705,35.2927711 C10.0961493,34.8998175 10.0455207,34.4881676 10.0689907,34.0773846 C10.0952185,33.4752611 10.2689216,32.8887036 10.5749224,32.3689639 C10.7473992,32.0555623 10.9594817,31.7663666 11.2073371,31.5090206 L24.6784085,18.0302055 L24.7473992,18.0302055 C24.9074437,17.861797 24.9797057,17.6286699 24.9428728,17.3995804 C24.9428728,17.1243986 24.9428728,16.8606826 24.8738821,16.5855008 C24.8598298,16.3870053 24.8598298,16.1877689 24.8738821,15.9892734 C24.9007289,15.7005929 24.9429495,15.4135399 25.000365,15.1293301 C25.1409016,14.5394727 25.3657602,13.9712731 25.6672751,13.4438413 C25.945793,12.9393412 26.2894689,12.4730608 26.690637,12.0564661 C26.8822778,11.8539016 27.0905275,11.6653511 27.3115532,11.4946364 C27.5760175,11.28825 27.8634787,11.1162614 28.1394415,10.9328068 C28.4767293,10.7200505 28.8395693,10.5506098 29.2202957,10.4283067 C29.5371418,10.3212916 29.8590984,10.2333863 30.1861654,10.1645908 C30.5157616,10.0894308 30.8499273,10.0358092 31.1865304,10.004068 C31.5710896,9.98878016 31.9569264,10.0168079 32.3363753,10.0843294 C32.546117,10.1072206 32.7432764,10.1954906 32.8997992,10.3365795 C33.1433793,10.5713576 33.216547,10.9316007 33.0837744,11.2423864 C32.9819882,11.4858917 32.8290787,11.7048328 32.6353349,11.8844774 L31.5429823,13.0310685 L30.3931374,14.1776595 C30.2165579,14.3447343 30.0620052,14.5335256 29.9331995,14.7394892 C29.7415587,15.0426988 29.678956,15.4096079 29.7607228,15.7599552 C29.8424895,16.0835487 30.0136886,16.3765664 30.2551561,16.6084326 C30.7380909,17.1014668 31.2325242,17.5715691 31.7256799,18.0646033 C31.8853805,18.222578 32.0719109,18.351251 32.2776054,18.4429783 C32.503558,18.5479453 32.755619,18.5838521 33.0020077,18.5461715 C33.3405731,18.4710061 33.6459208,18.2900995 33.8758898,18.0302055 L35.2901989,16.5982407 L36.4400438,15.4516496 C36.6401271,15.2476831 36.9293997,15.1572721 37.2104399,15.2108655 C37.5413397,15.2516332 37.8109144,15.5013352 37.8735171,15.8312987 C37.8824603,16.0071093 37.8824603,16.1829199 37.8735171,16.3587306 L37.8735171,16.4504578" id="路径" fill="#FFFFFF" fill-rule="nonzero" opacity="0.900000036"></path>
                <path d="M13.8047089,32.3817038 C12.9964595,32.3604379 12.2560123,32.83004 11.9326449,33.5689933 C11.6092775,34.3079465 11.7675912,35.1686254 12.3329075,35.7450376 C12.8961498,36.3205865 13.7519977,36.5003679 14.5002179,36.2003078 C15.248438,35.9002477 15.7411529,35.1796498 15.7479467,34.3754982 C15.7515044,33.2752838 14.8632913,32.378769 13.7599927,32.3689639" id="路径" fill="#000000" style="mix-blend-mode: soft-light;"></path>
            </g>
        </g>
    </g>
</svg>