<?xml version="1.0" encoding="UTF-8"?>
<svg width="48px" height="48px" viewBox="0 0 48 48" version="1.1" xmlns="http://www.w3.org/2000/svg" xmlns:xlink="http://www.w3.org/1999/xlink">
    <!-- Generator: Sketch 55 (78076) - https://sketchapp.com -->
    <title>编组 5复制 10</title>
    <desc>Created with Sketch.</desc>
    <defs>
        <linearGradient x1="13.1447415%" y1="0%" x2="83.9381834%" y2="100%" id="linearGradient-1">
            <stop stop-color="#5DCAF2" offset="0%"></stop>
            <stop stop-color="#7066F2" offset="100%"></stop>
        </linearGradient>
        <path d="M6.20245308,3.61797058 C10.6707587,0.201735416 15.3023245,-2.47806169e-14 24.2472282,0 C27.0103049,6.71377555e-15 30.039976,0.109535597 33.3362413,0.328606791 L33.3362414,0.328604394 C40.8481707,0.827850404 46.8467835,6.78045555 47.4038499,14.2883184 C47.6362727,17.4207966 47.7524841,20.5015987 47.7524841,23.5307246 C47.7524841,26.8835371 47.6101095,30.241371 47.3253602,33.6042262 L47.3253622,33.6042263 C46.7300695,40.6345615 41.3489806,46.3172489 34.3615176,47.2946667 C30.9999457,47.7648889 27.628516,48 24.2472282,48 C20.7002192,48 17.1878556,47.741278 13.7101372,47.2238339 L13.7101373,47.223833 C7.16235641,46.2495993 2.01097556,41.1269628 1.00011894,34.5847357 C0.33337298,30.2695803 0,26.5849099 0,23.5307246 C5.02173597e-16,15.6886816 1.73414747,7.03420573 6.20245308,3.61797058 Z" id="path-2"></path>
        <linearGradient x1="54.3753762%" y1="38.0753795%" x2="45.4689805%" y2="53.3134082%" id="linearGradient-4">
            <stop stop-color="#FFFFFF" offset="0%"></stop>
            <stop stop-color="#FFFFFF" stop-opacity="0" offset="100%"></stop>
        </linearGradient>
        <linearGradient x1="57.5479459%" y1="38.0753795%" x2="42.1835544%" y2="53.3134082%" id="linearGradient-5">
            <stop stop-color="#FFFFFF" offset="0%"></stop>
            <stop stop-color="#FFFFFF" stop-opacity="0" offset="100%"></stop>
        </linearGradient>
        <linearGradient x1="54.5922031%" y1="38.0753795%" x2="45.2444405%" y2="53.3134082%" id="linearGradient-6">
            <stop stop-color="#FFFFFF" offset="0%"></stop>
            <stop stop-color="#FFFFFF" stop-opacity="0" offset="100%"></stop>
        </linearGradient>
        <polygon id="path-7" points="0 0.349793103 29.4501419 0.349793103 29.4501419 14.3415172 0 14.3415172"></polygon>
        <polygon id="path-9" points="0.860350712 0.713931034 13.233832 0.713931034 13.233832 17.9887448 0.860350712 17.9887448"></polygon>
        <polygon id="path-11" points="0.860350712 0.713931034 13.233832 0.713931034 13.233832 8.90515862 0.860350712 8.90515862"></polygon>
        <polygon id="path-13" points="0.450335484 1.05224828 14.4785161 1.05224828 14.4785161 15.3595586 0.450335484 15.3595586"></polygon>
    </defs>
    <g id="元素" stroke="none" stroke-width="1" fill="none" fill-rule="evenodd">
        <g id="图标切图" transform="translate(-273.000000, -325.000000)">
            <g id="编组-5复制-10" transform="translate(273.000000, 325.000000)">
                <g id="路径-2">
                    <mask id="mask-3" fill="white">
                        <use xlink:href="#path-2"></use>
                    </mask>
                    <use id="蒙版" fill="url(#linearGradient-1)" xlink:href="#path-2"></use>
                    <path d="M37.0133561,-46.9128231 C26.6639976,-18.3269401 27.3548745,10.912351 35.1169265,23.0820156 C42.8789786,35.2516801 57.5035695,44.7727086 58.3033175,61.0670435 C59.1030656,77.3613784 54.8829284,95.779233 44.9475105,99.7603 C35.0120927,103.741367 13.9351994,104.338768 10.4374097,86.6018577 C6.93962002,68.864947 3.76978976,-41.7804956 37.0133561,-46.9128231 Z" id="路径-2复制-3" fill="url(#linearGradient-4)" style="mix-blend-mode: overlay;" opacity="0.165527344" mask="url(#mask-3)" transform="translate(33.375296, 27.573648) scale(-1, 1) rotate(-68.000000) translate(-33.375296, -27.573648) "></path>
                    <path d="M29.353875,-54.2203716 C19.0045165,-25.6344887 19.6953934,3.6048025 27.4574454,15.774467 C35.2194975,27.9441315 49.8440884,37.4651601 50.6438364,53.759495 C51.4435845,70.0538298 47.2234473,88.4716844 37.2880294,92.4527514 C27.3526116,96.4338184 6.27571828,97.0312198 2.7779286,79.2943091 C-0.719861084,61.5573985 -48.678541,-44.9863061 29.353875,-54.2203716 Z" id="路径-2复制-2" fill="url(#linearGradient-5)" opacity="0.087937128" mask="url(#mask-3)" transform="translate(17.872802, 20.266099) rotate(-10.000000) translate(-17.872802, -20.266099) "></path>
                    <path d="M28.9138303,-28.8219093 C18.5644718,-0.236026367 19.2553486,29.0032648 27.0174007,41.1729293 C34.7794527,53.3425938 49.4040437,62.8636224 50.2037917,79.1579573 C51.0035397,95.4522921 46.7834026,113.870147 36.8479847,117.851214 C26.9125668,121.832281 5.83567353,122.429682 2.33788385,104.692771 C-1.15990583,86.9558608 -49.1185858,-19.5878438 28.9138303,-28.8219093 Z" id="路径-2复制-4" fill="url(#linearGradient-5)" opacity="0.139834449" mask="url(#mask-3)" transform="translate(17.432757, 45.664561) rotate(-13.000000) translate(-17.432757, -45.664561) "></path>
                    <path d="M10.1033035,-33.9936839 C-0.246055008,-5.40780095 0.44482186,23.8314902 8.20687391,36.0011547 C15.968926,48.1708193 30.5935169,57.6918478 31.3932649,73.9861827 C32.1930129,90.2805175 27.9728758,108.698372 18.0374579,112.679439 C8.10204003,116.660506 -12.9748532,117.257908 -16.4726429,99.5209968 C-19.9704326,81.7840862 -28.5125053,0.511693654 10.1033035,-33.9936839 Z" id="路径-2复制-5" fill="url(#linearGradient-6)" opacity="0.203311012" mask="url(#mask-3)" transform="translate(5.852713, 40.492787) rotate(6.000000) translate(-5.852713, -40.492787) "></path>
                </g>
                <g id="Group" transform="translate(9.000000, 7.000000)">
                    <path d="M8.16153548,10.8411586 C8.36005161,11.8386759 8.8536,12.5790897 9.26489032,12.496331 C9.67618065,12.4135724 9.84947097,11.5385379 9.65095484,10.5410207 C9.45243871,9.5446069 8.95889032,8.80308966 8.5476,8.88695172 C8.13630968,8.96971034 7.96301935,9.84474483 8.16153548,10.8411586" id="Fill-1" fill="#FFFFFF" style="mix-blend-mode: soft-light;" opacity="0.812313988"></path>
                    <path d="M21.2875097,10.8411586 C21.0889935,11.8386759 20.5943484,12.5790897 20.1841548,12.496331 C19.7728645,12.4135724 19.5995742,11.5385379 19.7980903,10.5410207 C19.9966065,9.5446069 20.4901548,8.80308966 20.9014452,8.88695172 C21.3127355,8.96971034 21.4860258,9.84474483 21.2875097,10.8411586" id="Fill-3" fill="#FFFFFF" style="mix-blend-mode: soft-light;" opacity="0.812313988"></path>
                    <g id="Group-7" transform="translate(0.000000, 16.941462)">
                        <mask id="mask-8" fill="white">
                            <use xlink:href="#path-7"></use>
                        </mask>
                        <g id="Clip-6"></g>
                        <path d="M29.4501419,14.3415172 L-0.000438709677,14.3415172 C-0.000438709677,14.3415172 0.478851613,8.20634483 2.47498065,5.50731034 C2.47498065,5.50731034 2.55175484,5.4742069 2.70530323,5.42013793 C3.81743226,5.00303448 8.60594839,3.16910345 10.8631097,1.43668966 L11.0813677,0.349793103 C11.0813677,0.349793103 11.998271,2.24882759 14.0492387,2.53241379 C14.256529,2.56662069 14.4846581,2.57655172 14.7248516,2.56662069 C14.9639484,2.57655172 15.1931742,2.56662069 15.4015613,2.53241379 C17.4624,2.24882759 18.3683355,0.349793103 18.3683355,0.349793103 L18.5865935,1.43668966 C20.8437548,3.16910345 25.632271,5.00303448 26.7444,5.42013793 C26.8979484,5.4742069 26.9845935,5.50731034 26.9845935,5.50731034 C28.9697548,8.20634483 29.4501419,14.3415172 29.4501419,14.3415172" id="Fill-5" fill="#000000" style="mix-blend-mode: overlay;" opacity="0.349121094" mask="url(#mask-8)"></path>
                    </g>
                    <path d="M11.2049742,21.7457655 L12.1427161,23.4196966 L13.4906516,21.2944552 L13.1660065,20.914869 L12.1032323,22.5170759 L10.8605871,20.1943172 C10.9198129,20.6334897 11.0283935,21.1532138 11.2049742,21.7457655" id="Fill-8" fill="#FFFFFF" style="mix-blend-mode: overlay;" opacity="0.332287016"></path>
                    <path d="M18.3672387,17.2932414 C18.3672387,17.2932414 17.4492387,19.1889655 15.4037548,19.478069 C15.194271,19.5067586 14.9628516,19.5211034 14.7248516,19.5067586 C14.4857548,19.5211034 14.2554323,19.5067586 14.0448516,19.478069 C12.0004645,19.1889655 11.0824645,17.2932414 11.0824645,17.2932414 C11.0824645,17.2932414 11.1175613,16.905931 11.1241419,16.5042759 C11.1384,16.3001379 11.1318194,16.096 11.1175613,15.9337931 C12.8197548,18.0623448 14.7248516,18.3790345 14.7248516,18.3790345 C14.7248516,18.3790345 16.6376258,18.0623448 18.3321419,15.9337931 C18.3178839,16.1026207 18.3113032,16.3067586 18.3244645,16.5108966 C18.3321419,16.9136552 18.3672387,17.2932414 18.3672387,17.2932414" id="Fill-10" fill="#FFFFFF" opacity="0.285039993"></path>
                    <g id="Group-16" transform="translate(7.677419, 0.389738)">
                        <mask id="mask-10" fill="white">
                            <use xlink:href="#path-9"></use>
                        </mask>
                        <g id="Clip-15"></g>
                        <path d="M13.1419871,8.65136552 C13.0926323,9.03205517 13.0432774,9.26377931 13.0432774,9.26377931 C11.9783097,17.1854345 7.0472129,17.9887448 7.0472129,17.9887448 C7.0472129,17.9887448 2.11611613,17.1854345 1.05114839,9.26377931 C1.05114839,9.26377931 1.00179355,9.03977931 0.953535484,8.66571034 L0.953535484,8.65798621 C0.707858065,6.69164138 0.462180645,0.596193103 7.0472129,0.715365517 C13.6179871,0.596193103 13.3876645,6.67729655 13.1419871,8.65136552" id="Fill-14" fill="#FFFFFF" style="mix-blend-mode: overlay;" opacity="0.110049293" mask="url(#mask-10)"></path>
                    </g>
                    <path d="M14.7245226,31.2834207 L24.6612968,31.2834207 L26.962329,22.5363862 L26.744071,22.3609379 C25.6319419,21.9438345 20.8434258,20.1121103 18.5851677,18.3774897 C18.5752968,18.3774897 19.142329,20.3526621 17.3304581,24.0403862 C17.3304581,24.0403862 15.7598774,27.0914207 14.7245226,29.2641103 L14.7245226,31.2834207 Z" id="Fill-17" fill="#FFFFFF" style="mix-blend-mode: overlay;"></path>
                    <path d="M18.244071,21.7457655 L17.3052323,23.4196966 L15.9572968,21.2944552 L16.2819419,20.914869 L17.3447161,22.5170759 L18.5873613,20.1943172 C18.5281355,20.6334897 18.4195548,21.1532138 18.244071,21.7457655" id="Fill-19" fill="#FFFFFF" style="mix-blend-mode: overlay;" opacity="0.332287016"></path>
                    <path d="M15.3687677,21.9769379 L16.0992194,26.4657655 C15.6418645,27.3650759 15.1395419,28.3857655 14.7249613,29.2519724 C14.3103806,28.3857655 13.8080581,27.3650759 13.3496065,26.4657655 L14.0811548,21.9769379 L13.1653484,20.9121103 L14.0383806,19.4754207 L14.0482516,19.4754207 C14.2555419,19.5085241 14.4847677,19.5184552 14.7249613,19.5085241 C14.9651548,19.5184552 15.1932839,19.5085241 15.4005742,19.4754207 L15.4126387,19.4754207 L16.2845742,20.9121103 L15.3687677,21.9769379 Z" id="Fill-21" fill="#FFFFFF" style="mix-blend-mode: soft-light;"></path>
                    <path d="M4.78489677,31.2861793 L2.48715484,22.5325241 L2.70650968,22.3581793 C3.81644516,21.9476966 8.60934839,20.1137655 10.8654129,18.3758345 C10.8807677,18.3758345 10.3071548,20.3543172 12.1157355,24.0453517 C12.1157355,24.0453517 13.866522,27.4011315 14.7249613,29.2591448 C14.7223058,30.5577856 14.6745097,31.0334897 14.7250085,31.2861793 L4.78489677,31.2861793 Z" id="Fill-23" fill="#FFFFFF" style="mix-blend-mode: overlay;"></path>
                    <g id="Group-27" transform="translate(7.677419, 0.389738)">
                        <mask id="mask-12" fill="white">
                            <use xlink:href="#path-11"></use>
                        </mask>
                        <g id="Clip-26"></g>
                        <path d="M13.1419871,8.65136552 L12.8831484,8.90515862 C12.8831484,8.90515862 12.6155355,5.71950345 11.1656,3.48502069 C11.1656,3.48502069 10.2563742,4.83122759 7.04063226,4.85991724 C3.83914839,4.83122759 2.92772903,3.48502069 2.92772903,3.48502069 C1.47779355,5.71950345 1.20469677,8.90515862 1.20469677,8.90515862 L0.953535484,8.66571034 L0.953535484,8.65798621 C0.707858065,6.69164138 0.462180645,0.596193103 7.0472129,0.715365517 C13.6179871,0.596193103 13.3876645,6.67729655 13.1419871,8.65136552" id="Fill-25" fill="#FFFFFF" mask="url(#mask-12)"></path>
                    </g>
                    <g id="Group-30" transform="translate(18.645161, 15.838014)">
                        <mask id="mask-14" fill="white">
                            <use xlink:href="#path-13"></use>
                        </mask>
                        <g id="Clip-29"></g>
                    </g>
                </g>
                <g id="编组-8" transform="translate(27.000000, 26.000000)">
                    <path d="M12.6323077,7.57938462 C12.6527692,7.38338462 12.6495385,6.55846154 12.6269231,6.34953846 L13.7663077,5.55369231 L13.2773846,4.06215385 L11.8838462,4.09553846 C11.6781538,3.74015385 11.4358462,3.40953846 11.1623077,3.108 L11.6189231,1.78876923 L10.3481538,0.868 L9.24,1.71015385 C8.87061538,1.54538462 8.47969231,1.414 8.07369231,1.33 L7.672,-5.24025268e-14 L6.104,-5.24025268e-14 L5.70015385,1.33 C5.28230769,1.41723077 4.88169231,1.554 4.50153846,1.72630769 L3.38692308,0.890615385 L2.12261538,1.81892308 L2.58784615,3.136 C2.31646154,3.43861538 2.07415385,3.76923077 1.87169231,4.12569231 L0.479230769,4.10307692 L-4.4408921e-14,5.59676923 L1.14261538,6.38507692 C1.12215385,6.58215385 1.12430769,7.406 1.14692308,7.61492308 L0.00753846154,8.41076923 L0.496461538,9.90123077 L1.89,9.86892308 C2.09461538,10.2243077 2.338,10.5538462 2.61261538,10.8564615 L2.15492308,12.1746154 L3.42461538,13.0953846 L4.53384615,12.2532308 C4.90430769,12.4190769 5.29415385,12.5493846 5.70015385,12.6355385 L6.104,13.9633846 L7.672,13.9633846 L8.07369231,12.6355385 C8.49261538,12.5472308 8.89215385,12.4104615 9.27338462,12.2381538 L10.3869231,13.0738462 L11.6501538,12.1455385 L11.186,10.8295385 C11.4584615,10.5258462 11.6996923,10.1952308 11.9021538,9.83876923 L13.2956923,9.86138462 L13.7749231,8.36769231 L12.6323077,7.57938462 Z" id="Fill-28" fill="#FFFFFF"></path>
                    <path d="M6.88756923,10.9768615 C4.68095385,10.9768615 2.89218462,9.18809231 2.89218462,6.98255385 C2.89218462,4.77593846 4.68095385,2.98716923 6.88756923,2.98716923 C9.09310769,2.98716923 10.8818769,4.77593846 10.8818769,6.98255385 C10.8818769,9.18809231 9.09310769,10.9768615 6.88756923,10.9768615" id="Fill-31" fill="#9AA5BF"></path>
                    <path d="M6.88756923,9.35415385 C5.57695385,9.35415385 4.51510769,8.29230769 4.51510769,6.98169231 C4.51510769,5.67215385 5.57695385,4.61030769 6.88756923,4.61030769 C8.19710769,4.61030769 9.25895385,5.67215385 9.25895385,6.98169231 C9.25895385,8.29230769 8.19710769,9.35415385 6.88756923,9.35415385" id="Fill-33" fill="#FFFFFF"></path>
                </g>
            </g>
        </g>
    </g>
</svg>