<?xml version="1.0" encoding="UTF-8"?>
<svg width="49px" height="48px" viewBox="0 0 49 48" version="1.1" xmlns="http://www.w3.org/2000/svg" xmlns:xlink="http://www.w3.org/1999/xlink">
    <!-- Generator: Sketch 55 (78076) - https://sketchapp.com -->
    <title>编组 39</title>
    <desc>Created with Sketch.</desc>
    <defs>
        <linearGradient x1="13.1447415%" y1="0%" x2="83.9381834%" y2="100%" id="linearGradient-1">
            <stop stop-color="#FEA84B" offset="0%"></stop>
            <stop stop-color="#D2355F" offset="100%"></stop>
        </linearGradient>
        <path d="M6.20245308,3.61797058 C10.6707587,0.201735416 15.3023245,-2.47806169e-14 24.2472282,0 C27.0103049,6.71377555e-15 30.039976,0.109535597 33.3362413,0.328606791 L33.3362414,0.328604394 C40.8481707,0.827850404 46.8467835,6.78045555 47.4038499,14.2883184 C47.6362727,17.4207966 47.7524841,20.5015987 47.7524841,23.5307246 C47.7524841,26.8835371 47.6101095,30.241371 47.3253602,33.6042262 L47.3253622,33.6042263 C46.7300695,40.6345615 41.3489806,46.3172489 34.3615176,47.2946667 C30.9999457,47.7648889 27.628516,48 24.2472282,48 C20.7002192,48 17.1878556,47.741278 13.7101372,47.2238339 L13.7101373,47.223833 C7.16235641,46.2495993 2.01097556,41.1269628 1.00011894,34.5847357 C0.33337298,30.2695803 0,26.5849099 0,23.5307246 C5.02173597e-16,15.6886816 1.73414747,7.03420573 6.20245308,3.61797058 Z" id="path-2"></path>
        <linearGradient x1="54.3753762%" y1="38.0753795%" x2="45.4689805%" y2="53.3134082%" id="linearGradient-4">
            <stop stop-color="#FFFFFF" offset="0%"></stop>
            <stop stop-color="#FFFFFF" stop-opacity="0" offset="100%"></stop>
        </linearGradient>
        <linearGradient x1="57.5479459%" y1="38.0753795%" x2="42.1835544%" y2="53.3134082%" id="linearGradient-5">
            <stop stop-color="#FFFFFF" offset="0%"></stop>
            <stop stop-color="#FFFFFF" stop-opacity="0" offset="100%"></stop>
        </linearGradient>
        <linearGradient x1="54.5922031%" y1="38.0753795%" x2="45.2444405%" y2="53.3134082%" id="linearGradient-6">
            <stop stop-color="#FFFFFF" offset="0%"></stop>
            <stop stop-color="#FFFFFF" stop-opacity="0" offset="100%"></stop>
        </linearGradient>
    </defs>
    <g id="元素" stroke="none" stroke-width="1" fill="none" fill-rule="evenodd">
        <g id="图标切图" transform="translate(-360.000000, -325.000000)">
            <g id="编组-39" transform="translate(360.784781, 325.000000)">
                <g id="编组-5备份">
                    <g id="路径-2">
                        <mask id="mask-3" fill="white">
                            <use xlink:href="#path-2"></use>
                        </mask>
                        <use id="蒙版" fill="url(#linearGradient-1)" xlink:href="#path-2"></use>
                        <path d="M37.0133561,-46.9128231 C26.6639976,-18.3269401 27.3548745,10.912351 35.1169265,23.0820156 C42.8789786,35.2516801 57.5035695,44.7727086 58.3033175,61.0670435 C59.1030656,77.3613784 54.8829284,95.779233 44.9475105,99.7603 C35.0120927,103.741367 13.9351994,104.338768 10.4374097,86.6018577 C6.93962002,68.864947 3.76978976,-41.7804956 37.0133561,-46.9128231 Z" id="路径-2复制-3" fill="url(#linearGradient-4)" style="mix-blend-mode: overlay;" opacity="0.165527344" mask="url(#mask-3)" transform="translate(33.375296, 27.573648) scale(-1, 1) rotate(-68.000000) translate(-33.375296, -27.573648) "></path>
                        <path d="M29.353875,-54.2203716 C19.0045165,-25.6344887 19.6953934,3.6048025 27.4574454,15.774467 C35.2194975,27.9441315 49.8440884,37.4651601 50.6438364,53.759495 C51.4435845,70.0538298 47.2234473,88.4716844 37.2880294,92.4527514 C27.3526116,96.4338184 6.27571828,97.0312198 2.7779286,79.2943091 C-0.719861084,61.5573985 -48.678541,-44.9863061 29.353875,-54.2203716 Z" id="路径-2复制-2" fill="url(#linearGradient-5)" opacity="0.087937128" mask="url(#mask-3)" transform="translate(17.872802, 20.266099) rotate(-10.000000) translate(-17.872802, -20.266099) "></path>
                        <path d="M28.9138303,-28.8219093 C18.5644718,-0.236026367 19.2553486,29.0032648 27.0174007,41.1729293 C34.7794527,53.3425938 49.4040437,62.8636224 50.2037917,79.1579573 C51.0035397,95.4522921 46.7834026,113.870147 36.8479847,117.851214 C26.9125668,121.832281 5.83567353,122.429682 2.33788385,104.692771 C-1.15990583,86.9558608 -49.1185858,-19.5878438 28.9138303,-28.8219093 Z" id="路径-2复制-4" fill="url(#linearGradient-5)" opacity="0.139834449" mask="url(#mask-3)" transform="translate(17.432757, 45.664561) rotate(-13.000000) translate(-17.432757, -45.664561) "></path>
                        <path d="M10.1033035,-33.9936839 C-0.246055008,-5.40780095 0.44482186,23.8314902 8.20687391,36.0011547 C15.968926,48.1708193 30.5935169,57.6918478 31.3932649,73.9861827 C32.1930129,90.2805175 27.9728758,108.698372 18.0374579,112.679439 C8.10204003,116.660506 -12.9748532,117.257908 -16.4726429,99.5209968 C-19.9704326,81.7840862 -28.5125053,0.511693654 10.1033035,-33.9936839 Z" id="路径-2复制-5" fill="url(#linearGradient-6)" opacity="0.203311012" mask="url(#mask-3)" transform="translate(5.852713, 40.492787) rotate(6.000000) translate(-5.852713, -40.492787) "></path>
                    </g>
                    <g id="编组-4" transform="translate(7.752484, 5.969275)" fill="#000000" fill-rule="nonzero" opacity="0.198869978">
                        <path d="M31.5975484,11.3414116 L18.0775975,0.688771614 C16.9140875,-0.230190279 15.0879161,-0.228990601 13.9249988,0.688771614 L0.405640607,11.3414116 C-0.0566812566,11.7055173 -0.135513073,12.3755436 0.229602667,12.8350246 C0.594125675,13.2957052 1.25026709,13.3742849 1.71199622,13.0107791 L2.38295566,12.6052841 L2.38295566,30.0007771 C2.38295566,31.826704 4.06331781,33 5.76086885,33 L27.0958374,33 C28.7726433,33 29.6480912,31.9088827 29.6480912,30.0007771 L29.6480912,12.6052841 L30.2580005,13.0107791 C30.4547836,13.1649391 30.6954281,13.2393199 30.9271817,13.2393199 C31.2419162,13.2393199 31.5578362,13.1013556 31.7676592,12.8350246 C32.1333676,12.3749438 32.060463,11.7055173 31.5975484,11.3414116 Z" id="形状结合" style="mix-blend-mode: soft-light;"></path>
                    </g>
                </g>
                <g id="VR" transform="translate(13.000000, 14.000000)" fill="#FFFFFF" fill-rule="nonzero">
                    <path d="M14.0741747,22.3036231 L14.0741747,27 C10.696381,26.2554538 7.31858727,25.3963632 3.77188237,24.6518143 L3.77188237,19.3827286 C3.77188237,18.7527269 3.65928907,18.2945462 3.1526184,17.8936363 C1.57631377,16.5190885 0.506675509,14.8008989 0.112593303,12.7390923 C0,12.2236379 0,11.7654544 0,11.25 L11.2593303,11.25 C11.4845169,11.25 11.8785943,11.3645456 11.8785943,11.5936363 C12.4978582,13.7127302 14.0741629,14.8009154 16.1008364,15.2590825 L18.296405,15.6027187 C18.5215916,15.6027187 18.8030741,15.8318099 18.8030741,15.946355 C19.5349303,17.4354473 19.422338,18.9245505 19.422338,20.4708918 C19.422338,21.5590743 18.4652947,22.3036204 17.5082513,22.3036204 L14.0741629,22.3036204" id="路径" style="mix-blend-mode: soft-light;"></path>
                    <path d="M12.6886494,8.5416665 C13.216122,6.76388975 15.2088003,5.31944581 17.3186797,5.31944581 L17.9633704,5.31944581 C19.0769247,5.54166804 19.8388306,5.09722358 20.1318728,3.98611192 C20.2490891,3.48611271 20.6593454,3.375 21.1282119,3.375 L24,3.375 L24,16.875 L20.4835156,16.875 C20.3662993,16.875 20.249083,16.6527778 20.1318672,16.5416672 C19.8974345,15.9305553 19.7802187,15.3749997 19.4871765,14.6527777 L17.2014589,14.6527777 C15.0329564,14.7638888 13.2747031,13.2083338 12.5714286,11.430557 L16.0879129,11.430557 L16.0879129,8.54165854 L12.688641,8.54165854 L12.6886494,8.5416665 Z" id="路径"></path>
                    <path d="M17.1428571,3.67524946 C15.7850061,3.79190923 14.7100419,4.02522821 13.6350858,4.78351642 C12.6732748,5.54180464 12.0509285,6.41675151 11.7114637,7.52502125 C11.5983095,7.64168102 11.4851553,7.875 11.2022706,7.875 L0,7.875 C0.33946209,5.07517559 3.28147047,1.28372059 6.90239222,0.292117858 C10.6930666,-0.699490449 15.5586971,0.933747418 17.1428571,3.67524946" id="路径" style="mix-blend-mode: soft-light;"></path>
                </g>
            </g>
        </g>
    </g>
</svg>