<?xml version="1.0" encoding="UTF-8"?>
<svg width="48px" height="48px" viewBox="0 0 48 48" version="1.1" xmlns="http://www.w3.org/2000/svg" xmlns:xlink="http://www.w3.org/1999/xlink">
    <!-- Generator: Sketch 55 (78076) - https://sketchapp.com -->
    <title>编组 40</title>
    <desc>Created with Sketch.</desc>
    <defs>
        <linearGradient x1="13.1447415%" y1="0%" x2="83.9381834%" y2="100%" id="linearGradient-1">
            <stop stop-color="#77E7BE" offset="0%"></stop>
            <stop stop-color="#3290CE" offset="100%"></stop>
        </linearGradient>
        <path d="M6.20245308,3.61797058 C10.6707587,0.201735416 15.3023245,-2.47806169e-14 24.2472282,0 C27.0103049,6.71377555e-15 30.039976,0.109535597 33.3362413,0.328606791 L33.3362414,0.328604394 C40.8481707,0.827850404 46.8467835,6.78045555 47.4038499,14.2883184 C47.6362727,17.4207966 47.7524841,20.5015987 47.7524841,23.5307246 C47.7524841,26.8835371 47.6101095,30.241371 47.3253602,33.6042262 L47.3253622,33.6042263 C46.7300695,40.6345615 41.3489806,46.3172489 34.3615176,47.2946667 C30.9999457,47.7648889 27.628516,48 24.2472282,48 C20.7002192,48 17.1878556,47.741278 13.7101372,47.2238339 L13.7101373,47.223833 C7.16235641,46.2495993 2.01097556,41.1269628 1.00011894,34.5847357 C0.33337298,30.2695803 0,26.5849099 0,23.5307246 C5.02173597e-16,15.6886816 1.73414747,7.03420573 6.20245308,3.61797058 Z" id="path-2"></path>
        <linearGradient x1="54.3753762%" y1="38.0753795%" x2="45.4689805%" y2="53.3134082%" id="linearGradient-4">
            <stop stop-color="#FFFFFF" offset="0%"></stop>
            <stop stop-color="#FFFFFF" stop-opacity="0" offset="100%"></stop>
        </linearGradient>
        <linearGradient x1="57.5479459%" y1="38.0753795%" x2="42.1835544%" y2="53.3134082%" id="linearGradient-5">
            <stop stop-color="#FFFFFF" offset="0%"></stop>
            <stop stop-color="#FFFFFF" stop-opacity="0" offset="100%"></stop>
        </linearGradient>
        <linearGradient x1="54.5922031%" y1="38.0753795%" x2="45.2444405%" y2="53.3134082%" id="linearGradient-6">
            <stop stop-color="#FFFFFF" offset="0%"></stop>
            <stop stop-color="#FFFFFF" stop-opacity="0" offset="100%"></stop>
        </linearGradient>
    </defs>
    <g id="元素" stroke="none" stroke-width="1" fill="none" fill-rule="evenodd">
        <g id="图标切图" transform="translate(-97.000000, -408.000000)">
            <g id="编组-40" transform="translate(97.000000, 408.000000)">
                <g id="编组-23备份">
                    <g id="编组-5复制-16">
                        <g id="路径-2">
                            <mask id="mask-3" fill="white">
                                <use xlink:href="#path-2"></use>
                            </mask>
                            <use id="蒙版" fill="url(#linearGradient-1)" xlink:href="#path-2"></use>
                            <path d="M37.0133561,-46.9128231 C26.6639976,-18.3269401 27.3548745,10.912351 35.1169265,23.0820156 C42.8789786,35.2516801 57.5035695,44.7727086 58.3033175,61.0670435 C59.1030656,77.3613784 54.8829284,95.779233 44.9475105,99.7603 C35.0120927,103.741367 13.9351994,104.338768 10.4374097,86.6018577 C6.93962002,68.864947 3.76978976,-41.7804956 37.0133561,-46.9128231 Z" id="路径-2复制-3" fill="url(#linearGradient-4)" style="mix-blend-mode: overlay;" opacity="0.165527344" mask="url(#mask-3)" transform="translate(33.375296, 27.573648) scale(-1, 1) rotate(-68.000000) translate(-33.375296, -27.573648) "></path>
                            <path d="M29.353875,-54.2203716 C19.0045165,-25.6344887 19.6953934,3.6048025 27.4574454,15.774467 C35.2194975,27.9441315 49.8440884,37.4651601 50.6438364,53.759495 C51.4435845,70.0538298 47.2234473,88.4716844 37.2880294,92.4527514 C27.3526116,96.4338184 6.27571828,97.0312198 2.7779286,79.2943091 C-0.719861084,61.5573985 -48.678541,-44.9863061 29.353875,-54.2203716 Z" id="路径-2复制-2" fill="url(#linearGradient-5)" opacity="0.087937128" mask="url(#mask-3)" transform="translate(17.872802, 20.266099) rotate(-10.000000) translate(-17.872802, -20.266099) "></path>
                            <path d="M28.9138303,-28.8219093 C18.5644718,-0.236026367 19.2553486,29.0032648 27.0174007,41.1729293 C34.7794527,53.3425938 49.4040437,62.8636224 50.2037917,79.1579573 C51.0035397,95.4522921 46.7834026,113.870147 36.8479847,117.851214 C26.9125668,121.832281 5.83567353,122.429682 2.33788385,104.692771 C-1.15990583,86.9558608 -49.1185858,-19.5878438 28.9138303,-28.8219093 Z" id="路径-2复制-4" fill="url(#linearGradient-5)" opacity="0.139834449" mask="url(#mask-3)" transform="translate(17.432757, 45.664561) rotate(-13.000000) translate(-17.432757, -45.664561) "></path>
                            <path d="M10.1033035,-33.9936839 C-0.246055008,-5.40780095 0.44482186,23.8314902 8.20687391,36.0011547 C15.968926,48.1708193 30.5935169,57.6918478 31.3932649,73.9861827 C32.1930129,90.2805175 27.9728758,108.698372 18.0374579,112.679439 C8.10204003,116.660506 -12.9748532,117.257908 -16.4726429,99.5209968 C-19.9704326,81.7840862 -28.5125053,0.511693654 10.1033035,-33.9936839 Z" id="路径-2复制-5" fill="url(#linearGradient-6)" opacity="0.203311012" mask="url(#mask-3)" transform="translate(5.852713, 40.492787) rotate(6.000000) translate(-5.852713, -40.492787) "></path>
                            <path d="M25.2979623,36.786554 L11.6651267,36.786554 C10.4134091,36.786554 9.38931601,35.9391599 9.38931601,34.9033986 L9.38931601,22.6952337 L8.68370335,22.1113748 C7.79861944,21.3790003 7.79861944,20.1805694 8.68370335,19.4481949 L11.1793805,17.3831311 L11.1793805,12.6715152 C11.1793805,12.0999553 11.6345627,11.6323528 12.1908668,11.6323528 L13.1541998,11.6323528 C13.7105039,11.6323528 14.1656861,12.0999553 14.1656861,12.6715152 L14.1656861,14.912063 L19.4120186,10.5709286 C20.2971026,9.83855415 21.7454126,9.83855415 22.6304965,10.5709286 L29.2955047,16.0859835 C23.9325394,16.85312 19.8077974,21.5089893 19.8077974,27.1379476 C19.8077974,31.2549679 22.0143117,34.8514196 25.2979623,36.786554 Z M15.6909076,26.5599021 L15.6909076,25.0424186 C15.6909076,24.6069722 15.3441037,24.2506791 14.9202545,24.2506791 L13.4431863,24.2506791 C13.0193037,24.2506791 12.6725333,24.6069722 12.6725333,25.0424186 L12.6725333,26.5599021 C12.6725333,26.9953828 13.0193037,27.3516415 13.4431863,27.3516415 L14.9202545,27.3516415 C15.3441037,27.3516415 15.6909076,26.9953828 15.6909076,26.5599021 Z" id="Combined-Shape" fill="#FFFFFF" fill-rule="nonzero" style="mix-blend-mode: soft-light;" opacity="0.964146205" mask="url(#mask-3)"></path>
                        </g>
                    </g>
                </g>
                <g id="退" transform="translate(22.000000, 17.000000)" fill-rule="nonzero">
                    <path d="M9.62896658,3.73249512 C13.3774968,3.73249512 16.4167027,6.76268175 16.4167027,10.5000134 C16.4167027,14.2377512 13.3775195,17.2675318 9.62896658,17.2675318 C5.87964478,17.2675318 2.84143401,14.2377512 2.84143401,10.5000134 C2.84143401,6.76268175 5.87962217,3.73249512 9.62896658,3.73249512 Z M7.38579168,6.96997291 L6.36810958,6.96997291 C6.6011633,7.49885524 6.76013655,8.02773757 6.84500898,8.55602662 L7.95813836,8.55602662 C7.851898,7.98511081 7.66098423,7.45662325 7.38579168,6.96997291 L7.38579168,6.96997291 Z M13.1102535,12.3627915 C12.6014125,12.1938662 12.18784,12.0034282 11.8699139,11.7918757 C12.3995066,11.5380912 12.8025245,11.1364981 13.0783119,10.5863002 L11.9971241,10.5863002 C11.8699139,10.90363 11.6576322,11.1364959 11.3610728,11.2843067 C11.2124953,11.0938693 11.0852855,10.861398 10.979442,10.5863002 L9.86629231,10.5863002 C9.95076784,10.861398 10.099346,11.1787279 10.3116277,11.5380912 L10.3116271,11.5380915 C10.0493682,11.640857 9.78418959,11.7360526 9.51642386,11.8235595 L9.51642386,10.3960613 L11.6154927,10.3960613 C12.3787543,10.4173752 12.7493941,10.0580114 12.7286221,9.31737804 L12.7286221,7.09686314 L8.43524744,7.09686314 L8.43524744,13.0924706 C9.26201464,12.8599995 9.90864081,12.5849017 10.375144,12.2675515 L10.375144,11.6330903 C10.7991127,12.3311172 11.7109513,12.8070025 13.1102665,13.060787 L13.1102665,12.3627805 L13.1102535,12.3627915 Z M5.95454618,9.92016667 L6.5905975,9.92016667 L6.5905975,12.4896837 C6.61154744,12.9339058 6.39988139,13.2406873 5.95454618,13.4095927 L5.95454618,14.075936 C6.61154818,13.9697629 7.07807175,13.7478411 7.35385908,13.4095927 C7.60827961,13.768956 8.05361503,13.9490437 8.68966635,13.9490437 L13.3009875,13.9490437 L13.3009875,13.2193739 L8.78512493,13.2193739 C8.08536898,13.2193739 7.73550118,12.8703604 7.73550118,12.1725524 L7.73550118,9.12713869 L5.95454618,9.12713869 L5.95455749,9.92017569 L5.95454618,9.92016667 Z M9.51643355,9.06358406 L11.7109497,9.06358406 L11.7109497,9.25402168 C11.7109497,9.52911954 11.5727475,9.66638197 11.2973772,9.66638197 L9.51643355,9.66638197 L9.51643355,9.06358406 L9.51643355,9.06358406 Z M9.51643355,7.79466191 L11.7109497,7.79466191 L11.7109497,8.39745982 L9.51643355,8.39745982 L9.51643355,7.79466191 Z" id="形状" fill="#FFFFFF"></path>
                    <path d="M9.62897495,20.6513834 C5.72700083,20.6513834 2.34379583,18.459915 0.635107572,15.2478044 L1.79323885,14.729687 C3.30083991,17.5010135 6.24417331,19.3824701 9.62898399,19.3824701 C14.5492508,19.3824701 18.5377505,15.406581 18.5377505,10.5000134 C18.5377505,5.59486711 14.5492508,1.61755682 9.62896138,1.61755682 C6.7359173,1.61755682 4.17481852,3.00016561 2.54731868,5.12952789 L3.15570261,5.47975047 L3.15488767,5.48867258 C3.33053711,5.61374073 3.39078412,5.85027598 3.28046806,6.04049478 C3.23630224,6.1170267 3.16933808,6.16659386 3.09462189,6.20210383 L3.09422436,6.21104577 L1.02996024,7.14334617 L1.01936601,7.13684294 C0.898059208,7.19329025 0.755404149,7.19917873 0.631235624,7.12772256 C0.506470286,7.05604819 0.439903473,6.93016725 0.42789799,6.79718915 L0.41732364,6.79130056 L0.189557339,4.49891615 L0.198919223,4.49425683 C0.200549104,4.42644878 0.213369517,4.35883901 0.249803328,4.29588851 C0.363577021,4.09916584 0.612093634,4.03155562 0.812371211,4.13548882 L0.816247155,4.13346648 L1.4313297,4.48733678 C3.28474365,1.97913406 6.26409848,0.348619565 9.62896259,0.348619565 C15.2516562,0.348619565 19.810465,4.893798 19.810465,10.4999986 C19.810465,16.1070112 15.2516562,20.6513776 9.62896259,20.6513776 L9.62897495,20.6513834 Z" id="路径" fill="#000000" style="mix-blend-mode: overlay;"></path>
                </g>
            </g>
        </g>
    </g>
</svg>