<?xml version="1.0" encoding="UTF-8"?>
<svg width="48px" height="49px" viewBox="0 0 48 49" version="1.1" xmlns="http://www.w3.org/2000/svg" xmlns:xlink="http://www.w3.org/1999/xlink">
    <!-- Generator: Sketch 55 (78076) - https://sketchapp.com -->
    <title>编组 40备份</title>
    <desc>Created with Sketch.</desc>
    <defs>
        <linearGradient x1="13.1447415%" y1="0%" x2="83.9381834%" y2="100%" id="linearGradient-1">
            <stop stop-color="#F7808B" offset="0%"></stop>
            <stop stop-color="#A52739" offset="100%"></stop>
        </linearGradient>
        <path d="M6.20245308,3.61797058 C10.6707587,0.201735416 15.3023245,-2.47806169e-14 24.2472282,0 C27.0103049,6.71377555e-15 30.039976,0.109535597 33.3362413,0.328606791 L33.3362414,0.328604394 C40.8481707,0.827850404 46.8467835,6.78045555 47.4038499,14.2883184 C47.6362727,17.4207966 47.7524841,20.5015987 47.7524841,23.5307246 C47.7524841,26.8835371 47.6101095,30.241371 47.3253602,33.6042262 L47.3253622,33.6042263 C46.7300695,40.6345615 41.3489806,46.3172489 34.3615176,47.2946667 C30.9999457,47.7648889 27.628516,48 24.2472282,48 C20.7002192,48 17.1878556,47.741278 13.7101372,47.2238339 L13.7101373,47.223833 C7.16235641,46.2495993 2.01097556,41.1269628 1.00011894,34.5847357 C0.33337298,30.2695803 0,26.5849099 0,23.5307246 C5.02173597e-16,15.6886816 1.73414747,7.03420573 6.20245308,3.61797058 Z" id="path-2"></path>
        <linearGradient x1="54.3753762%" y1="38.0753795%" x2="45.4689805%" y2="53.3134082%" id="linearGradient-4">
            <stop stop-color="#FFFFFF" offset="0%"></stop>
            <stop stop-color="#FFFFFF" stop-opacity="0" offset="100%"></stop>
        </linearGradient>
        <linearGradient x1="57.5479459%" y1="38.0753795%" x2="42.1835544%" y2="53.3134082%" id="linearGradient-5">
            <stop stop-color="#FFFFFF" offset="0%"></stop>
            <stop stop-color="#FFFFFF" stop-opacity="0" offset="100%"></stop>
        </linearGradient>
        <linearGradient x1="54.5922031%" y1="38.0753795%" x2="45.2444405%" y2="53.3134082%" id="linearGradient-6">
            <stop stop-color="#FFFFFF" offset="0%"></stop>
            <stop stop-color="#FFFFFF" stop-opacity="0" offset="100%"></stop>
        </linearGradient>
    </defs>
    <g id="元素" stroke="none" stroke-width="1" fill="none" fill-rule="evenodd">
        <g id="图标切图" transform="translate(-185.000000, -409.000000)">
            <g id="编组-40备份" transform="translate(185.000000, 409.643769)">
                <g id="编组-23备份">
                    <g id="编组-5复制-16">
                        <g id="路径-2">
                            <mask id="mask-3" fill="white">
                                <use xlink:href="#path-2"></use>
                            </mask>
                            <use id="蒙版" fill="url(#linearGradient-1)" xlink:href="#path-2"></use>
                            <path d="M37.0133561,-46.9128231 C26.6639976,-18.3269401 27.3548745,10.912351 35.1169265,23.0820156 C42.8789786,35.2516801 57.5035695,44.7727086 58.3033175,61.0670435 C59.1030656,77.3613784 54.8829284,95.779233 44.9475105,99.7603 C35.0120927,103.741367 13.9351994,104.338768 10.4374097,86.6018577 C6.93962002,68.864947 3.76978976,-41.7804956 37.0133561,-46.9128231 Z" id="路径-2复制-3" fill="url(#linearGradient-4)" style="mix-blend-mode: overlay;" opacity="0.165527344" mask="url(#mask-3)" transform="translate(33.375296, 27.573648) scale(-1, 1) rotate(-68.000000) translate(-33.375296, -27.573648) "></path>
                            <path d="M29.353875,-54.2203716 C19.0045165,-25.6344887 19.6953934,3.6048025 27.4574454,15.774467 C35.2194975,27.9441315 49.8440884,37.4651601 50.6438364,53.759495 C51.4435845,70.0538298 47.2234473,88.4716844 37.2880294,92.4527514 C27.3526116,96.4338184 6.27571828,97.0312198 2.7779286,79.2943091 C-0.719861084,61.5573985 -48.678541,-44.9863061 29.353875,-54.2203716 Z" id="路径-2复制-2" fill="url(#linearGradient-5)" opacity="0.087937128" mask="url(#mask-3)" transform="translate(17.872802, 20.266099) rotate(-10.000000) translate(-17.872802, -20.266099) "></path>
                            <path d="M28.9138303,-28.8219093 C18.5644718,-0.236026367 19.2553486,29.0032648 27.0174007,41.1729293 C34.7794527,53.3425938 49.4040437,62.8636224 50.2037917,79.1579573 C51.0035397,95.4522921 46.7834026,113.870147 36.8479847,117.851214 C26.9125668,121.832281 5.83567353,122.429682 2.33788385,104.692771 C-1.15990583,86.9558608 -49.1185858,-19.5878438 28.9138303,-28.8219093 Z" id="路径-2复制-4" fill="url(#linearGradient-5)" opacity="0.139834449" mask="url(#mask-3)" transform="translate(17.432757, 45.664561) rotate(-13.000000) translate(-17.432757, -45.664561) "></path>
                            <path d="M10.1033035,-33.9936839 C-0.246055008,-5.40780095 0.44482186,23.8314902 8.20687391,36.0011547 C15.968926,48.1708193 30.5935169,57.6918478 31.3932649,73.9861827 C32.1930129,90.2805175 27.9728758,108.698372 18.0374579,112.679439 C8.10204003,116.660506 -12.9748532,117.257908 -16.4726429,99.5209968 C-19.9704326,81.7840862 -28.5125053,0.511693654 10.1033035,-33.9936839 Z" id="路径-2复制-5" fill="url(#linearGradient-6)" opacity="0.203311012" mask="url(#mask-3)" transform="translate(5.852713, 40.492787) rotate(6.000000) translate(-5.852713, -40.492787) "></path>
                            <path d="M26.2780719,36.786554 L12.6452363,36.786554 C11.3935186,36.786554 10.3694256,35.9391599 10.3694256,34.9033986 L10.3694256,22.6952337 L9.66381293,22.1113748 C8.77872902,21.3790003 8.77872902,20.1805694 9.66381293,19.4481949 L12.1594901,17.3831311 L12.1594901,12.6715152 C12.1594901,12.0999553 12.6146723,11.6323528 13.1709764,11.6323528 L14.1343094,11.6323528 C14.6906134,11.6323528 15.1457956,12.0999553 15.1457956,12.6715152 L15.1457956,14.912063 L20.3921282,10.5709286 C21.2772122,9.83855415 22.7255222,9.83855415 23.6106061,10.5709286 L30.2756143,16.0859835 C24.912649,16.85312 20.787907,21.5089893 20.787907,27.1379476 C20.787907,31.2549679 22.9944213,34.8514196 26.2780719,36.786554 Z M16.6710171,26.5599021 L16.6710171,25.0424186 C16.6710171,24.6069722 16.3242132,24.2506791 15.9003641,24.2506791 L14.4232959,24.2506791 C13.9994133,24.2506791 13.6526428,24.6069722 13.6526428,25.0424186 L13.6526428,26.5599021 C13.6526428,26.9953828 13.9994133,27.3516415 14.4232959,27.3516415 L15.9003641,27.3516415 C16.3242132,27.3516415 16.6710171,26.9953828 16.6710171,26.5599021 Z" id="Combined-Shape" fill="#FFFFFF" fill-rule="nonzero" style="mix-blend-mode: soft-light;" mask="url(#mask-3)"></path>
                        </g>
                    </g>
                </g>
                <g id="换" transform="translate(23.000000, 16.356231)" fill="#FFFFFF" fill-rule="nonzero">
                    <path d="M16.4291522,7.19131849 L19.635083,7.19131849 C19.635083,7.19131849 19.8050675,7.20039923 19.8786015,6.86409675 C19.9402474,6.58245059 19.750755,6.3124633 19.750755,6.3124633 C19.6665934,6.19309597 15.7408206,0.629982726 15.7408206,0.629982726 C15.7408206,0.629982726 15.4704323,0.0985446075 14.9364447,0.0985446075 C14.415004,0.0985446075 14.2024803,0.475209108 14.2024803,0.475209108 L10.2991659,6.19077565 C10.2991659,6.19077565 10.1674808,6.55297399 10.232421,6.86160456 C10.3026606,7.19481328 10.5452625,7.19134713 10.5452625,7.19134713 L13.5457452,7.19134713 L13.5457452,12.7518536 C13.5457452,12.7518536 12.9597653,17.1361035 11.3423337,17.1361035 C11.3423337,17.1361035 16.4291808,17.062455 16.4291808,12.6104863 L16.4291522,7.19131849 Z" id="路径"></path>
                    <path d="M3.50032721,12.8782965 L0.291503165,12.8782965 C0.291503165,12.8782965 0.0961670005,12.9373642 0.0493596544,13.2950079 C0.0181070139,13.5337712 0.138734758,13.6827297 0.175487405,13.7348079 C0.259878129,13.8542898 4.18905978,19.4224733 4.18905978,19.4224733 C4.18905978,19.4224733 4.45973458,19.9543984 4.99409457,19.9543984 C5.51622279,19.9543984 5.72891835,19.5772183 5.72891835,19.5772183 L9.635613,13.8564382 C9.635613,13.8564382 9.77915743,13.6185916 9.69516775,13.2950652 C9.59138378,12.8953407 9.38945906,12.8783537 9.38945906,12.8783537 L6.38616911,12.8783537 L6.38616911,7.28954516 C6.38616911,7.28954516 6.97263594,2.90134214 8.59170032,2.90134214 C8.59170032,2.90134214 3.50024127,2.97499066 3.50024127,7.4310271 L3.50032721,12.8782965 Z" id="路径"></path>
                </g>
            </g>
        </g>
    </g>
</svg>