<?xml version="1.0" encoding="UTF-8"?>
<svg width="48px" height="48px" viewBox="0 0 48 48" version="1.1" xmlns="http://www.w3.org/2000/svg" xmlns:xlink="http://www.w3.org/1999/xlink">
    <!-- Generator: Sketch 55 (78076) - https://sketchapp.com -->
    <title>编组 41</title>
    <desc>Created with Sketch.</desc>
    <defs>
        <linearGradient x1="13.1447415%" y1="0%" x2="83.9381834%" y2="100%" id="linearGradient-1">
            <stop stop-color="#FFAC28" offset="0%"></stop>
            <stop stop-color="#D2651C" offset="100%"></stop>
        </linearGradient>
        <path d="M6.20245308,3.61797058 C10.6707587,0.201735416 15.3023245,-2.47806169e-14 24.2472282,0 C27.0103049,6.71377555e-15 30.039976,0.109535597 33.3362413,0.328606791 L33.3362414,0.328604394 C40.8481707,0.827850404 46.8467835,6.78045555 47.4038499,14.2883184 C47.6362727,17.4207966 47.7524841,20.5015987 47.7524841,23.5307246 C47.7524841,26.8835371 47.6101095,30.241371 47.3253602,33.6042262 L47.3253622,33.6042263 C46.7300695,40.6345615 41.3489806,46.3172489 34.3615176,47.2946667 C30.9999457,47.7648889 27.628516,48 24.2472282,48 C20.7002192,48 17.1878556,47.741278 13.7101372,47.2238339 L13.7101373,47.223833 C7.16235641,46.2495993 2.01097556,41.1269628 1.00011894,34.5847357 C0.33337298,30.2695803 0,26.5849099 0,23.5307246 C5.02173597e-16,15.6886816 1.73414747,7.03420573 6.20245308,3.61797058 Z" id="path-2"></path>
        <linearGradient x1="54.3753762%" y1="38.0753795%" x2="45.4689805%" y2="53.3134082%" id="linearGradient-4">
            <stop stop-color="#FFFFFF" offset="0%"></stop>
            <stop stop-color="#FFFFFF" stop-opacity="0" offset="100%"></stop>
        </linearGradient>
        <linearGradient x1="57.5479459%" y1="38.0753795%" x2="42.1835544%" y2="53.3134082%" id="linearGradient-5">
            <stop stop-color="#FFFFFF" offset="0%"></stop>
            <stop stop-color="#FFFFFF" stop-opacity="0" offset="100%"></stop>
        </linearGradient>
        <linearGradient x1="54.5922031%" y1="38.0753795%" x2="45.2444405%" y2="53.3134082%" id="linearGradient-6">
            <stop stop-color="#FFFFFF" offset="0%"></stop>
            <stop stop-color="#FFFFFF" stop-opacity="0" offset="100%"></stop>
        </linearGradient>
    </defs>
    <g id="元素" stroke="none" stroke-width="1" fill="none" fill-rule="evenodd">
        <g id="图标切图" transform="translate(-273.000000, -408.000000)">
            <g id="编组-41" transform="translate(273.000000, 408.000000)">
                <g id="编组-21备份">
                    <g id="编组-5复制-20">
                        <g id="路径-2">
                            <mask id="mask-3" fill="white">
                                <use xlink:href="#path-2"></use>
                            </mask>
                            <use id="蒙版" fill="url(#linearGradient-1)" xlink:href="#path-2"></use>
                            <path d="M37.0133561,-46.9128231 C26.6639976,-18.3269401 27.3548745,10.912351 35.1169265,23.0820156 C42.8789786,35.2516801 57.5035695,44.7727086 58.3033175,61.0670435 C59.1030656,77.3613784 54.8829284,95.779233 44.9475105,99.7603 C35.0120927,103.741367 13.9351994,104.338768 10.4374097,86.6018577 C6.93962002,68.864947 3.76978976,-41.7804956 37.0133561,-46.9128231 Z" id="路径-2复制-3" fill="url(#linearGradient-4)" style="mix-blend-mode: overlay;" opacity="0.165527344" mask="url(#mask-3)" transform="translate(33.375296, 27.573648) scale(-1, 1) rotate(-68.000000) translate(-33.375296, -27.573648) "></path>
                            <path d="M29.353875,-54.2203716 C19.0045165,-25.6344887 19.6953934,3.6048025 27.4574454,15.774467 C35.2194975,27.9441315 49.8440884,37.4651601 50.6438364,53.759495 C51.4435845,70.0538298 47.2234473,88.4716844 37.2880294,92.4527514 C27.3526116,96.4338184 6.27571828,97.0312198 2.7779286,79.2943091 C-0.719861084,61.5573985 -48.678541,-44.9863061 29.353875,-54.2203716 Z" id="路径-2复制-2" fill="url(#linearGradient-5)" opacity="0.087937128" mask="url(#mask-3)" transform="translate(17.872802, 20.266099) rotate(-10.000000) translate(-17.872802, -20.266099) "></path>
                            <path d="M28.9138303,-28.8219093 C18.5644718,-0.236026367 19.2553486,29.0032648 27.0174007,41.1729293 C34.7794527,53.3425938 49.4040437,62.8636224 50.2037917,79.1579573 C51.0035397,95.4522921 46.7834026,113.870147 36.8479847,117.851214 C26.9125668,121.832281 5.83567353,122.429682 2.33788385,104.692771 C-1.15990583,86.9558608 -49.1185858,-19.5878438 28.9138303,-28.8219093 Z" id="路径-2复制-4" fill="url(#linearGradient-5)" opacity="0.139834449" mask="url(#mask-3)" transform="translate(17.432757, 45.664561) rotate(-13.000000) translate(-17.432757, -45.664561) "></path>
                            <path d="M10.1033035,-33.9936839 C-0.246055008,-5.40780095 0.44482186,23.8314902 8.20687391,36.0011547 C15.968926,48.1708193 30.5935169,57.6918478 31.3932649,73.9861827 C32.1930129,90.2805175 27.9728758,108.698372 18.0374579,112.679439 C8.10204003,116.660506 -12.9748532,117.257908 -16.4726429,99.5209968 C-19.9704326,81.7840862 -28.5125053,0.511693654 10.1033035,-33.9936839 Z" id="路径-2复制-5" fill="url(#linearGradient-6)" opacity="0.203311012" mask="url(#mask-3)" transform="translate(5.852713, 40.492787) rotate(6.000000) translate(-5.852713, -40.492787) "></path>
                        </g>
                    </g>
                </g>
                <path d="M46,19 L24,19 L24,18.7674419 C24,16.6744186 25.6397516,15 27.689441,15 L42.310559,15 C44.3602484,15 46,16.6744186 46,18.7674419 L46,19 Z M46,21 L46,29.2325581 C46,31.3255814 44.3602484,33 42.310559,33 L27.689441,33 C25.6397516,33 24,31.3255814 24,29.2325581 L24,21 L46,21 Z M38,27 L38,29 L44,29 L44,27 L38,27 Z" id="形状结合" fill="#FFFFFF" fill-rule="nonzero" opacity="0.971470424"></path>
                <path d="M31.1224598,11.2255139 L31.1224598,10.4283519 C31.1224598,9.35599535 30.3316469,8.5423792 29.2643507,8.5423792 L12.4149952,8.5423792 C11.3491831,8.54387479 10.5405324,9.33954124 10.5405324,10.4283519 L10.5405324,36.6734292 C10.5637928,37.6808839 11.3943701,38.4786173 12.3956766,38.4552121 C12.4016213,38.4550732 12.4075653,38.4549048 12.4135083,38.454707 L29.350555,38.454707 C30.3485763,38.4221907 31.1367519,37.5912553 31.1224502,36.5866818 L31.1224502,30.7567598 L31.1224598,11.2255139 Z M15.2348506,27.7819805 L15.2348506,26.2414951 L17.4675547,26.2414951 L17.4675547,27.7819805 L15.2348506,27.7819805 Z M15.2348506,29.6156043 L17.4868802,29.6156043 L17.4868802,31.1366455 L15.2348506,31.1366455 L15.2348506,29.6171011 L15.2348506,29.6156043 Z M17.4868802,34.4928073 L15.2348506,34.4928073 L15.2348506,32.9717661 L17.4868802,32.9717661 L17.4868802,34.4928073 Z M22.1633605,27.7804837 L19.9291687,27.7804837 L19.9291687,26.2414951 L22.1633605,26.2414951 L22.1633605,27.7819805 L22.1633605,27.7804837 Z M22.1633605,29.6156043 L22.1633605,31.1545929 L19.9291687,31.1545929 L19.9291687,29.6141075 L22.1633605,29.6141075 L22.1633605,29.6156043 Z M22.1811984,34.4928073 L19.9291687,34.4928073 L19.9291687,32.9538187 L22.1797107,32.9538187 L22.1797107,34.4943041 L22.1811984,34.4928073 Z M26.8576787,34.4928073 L24.6219993,34.4928073 L24.6219993,32.9538187 L26.8576787,32.9538187 L26.8576787,34.4943041 L26.8576787,34.4928073 Z M24.6219993,31.1366455 L24.6219993,29.6171011 L26.8576787,29.6171011 L26.8576787,31.1381423 L24.6219993,31.1381423 L24.6219993,31.1366455 Z M26.8755166,27.7804837 L24.6398371,27.7804837 L24.6398371,26.2414951 L26.8755166,26.2414951 L26.8755166,27.7819805 L26.8755166,27.7804837 Z M26.4280824,23.0064782 L15.8175179,23.0064782 C15.0088672,23.0064782 14.3726514,22.5398461 14.1838662,21.7950294 L14.1838662,21.7950293 C14.1496483,21.6535191 14.1321845,21.5084337 14.1318392,21.3627952 C14.1318392,19.0445919 14.1496771,16.744322 14.1318392,14.4261292 L14.1318392,14.4261283 C14.1202431,13.5044247 14.8509697,12.7464875 15.7669786,12.7301 L15.8353572,12.7301 C18.1394127,12.7480474 20.4434822,12.7301 22.7475274,12.7301 L26.3403578,12.7301 L26.3403578,12.7301 C27.2241157,12.7026303 27.9626762,13.4011887 27.9899765,14.2903731 C27.990126,14.2952431 27.9902536,14.3001137 27.9903592,14.3049848 L27.9903592,21.3284082 L27.9903592,21.3284089 C28.0011391,22.2193636 27.3109493,22.9599984 26.4265713,23.0064898 L26.4280824,23.0064782 Z" id="形状" fill="#FFFFFF" fill-rule="nonzero" style="mix-blend-mode: soft-light;" opacity="0.838564918"></path>
                <path d="M26.4280824,23.0064782 L15.8175179,23.0064782 C15.0088672,23.0064782 14.3726514,22.5398461 14.1838662,21.7950294 L14.1838662,21.7950293 C14.1496483,21.6535191 14.1321845,21.5084337 14.1318392,21.3627952 C14.1318392,19.0445919 14.1496771,16.744322 14.1318392,14.4261292 L14.1318392,14.4261283 C14.1202431,13.5044247 14.8509697,12.7464875 15.7669786,12.7301 L15.8353572,12.7301 C18.1394127,12.7480474 20.4434822,12.7301 22.7475274,12.7301 L26.3403578,12.7301 L26.3403578,12.7301 C27.2241157,12.7026303 27.9626762,13.4011887 27.9899765,14.2903731 C27.990126,14.2952431 27.9902536,14.3001137 27.9903592,14.3049848 L27.9903592,21.3284082 L27.9903592,21.3284089 C28.0011391,22.2193636 27.3109493,22.9599984 26.4265713,23.0064898 L26.4280824,23.0064782 Z" id="路径" fill="#000000" style="mix-blend-mode: soft-light;" opacity="0.0555013021"></path>
                <polygon id="路径" fill="#FFFFFF" style="mix-blend-mode: soft-light;" points="16.2348506 26.7819805 16.2348506 25.2414951 18.4675547 25.2414951 18.4675547 26.7819805"></polygon>
                <polygon id="路径" fill="#FFFFFF" style="mix-blend-mode: soft-light;" points="18.1633605 33.7804837 15.9291687 33.7804837 15.9291687 32.2414951 18.1633605 32.2414951 18.1633605 33.7819805"></polygon>
                <polygon id="路径" fill="#FFFFFF" style="mix-blend-mode: soft-light;" points="27.8576787 33.4928073 25.6219993 33.4928073 25.6219993 31.9538187 27.8576787 31.9538187 27.8576787 33.4943041"></polygon>
                <polygon id="路径" fill="#FFFFFF" style="mix-blend-mode: soft-light;" points="26.8755166 27.7804837 24.6398371 27.7804837 24.6398371 26.2414951 26.8755166 26.2414951 26.8755166 27.7819805"></polygon>
                <g id="刷卡" transform="translate(38.000000, 27.000000)" fill="#000000" fill-rule="nonzero" opacity="0.0493396577">
                    <polygon id="路径" style="mix-blend-mode: soft-light;" points="2.47863745e-15 0 6 0 6 2 0 2"></polygon>
                </g>
            </g>
        </g>
    </g>
</svg>