<?xml version="1.0" encoding="UTF-8"?>
<svg width="48px" height="48px" viewBox="0 0 48 48" version="1.1" xmlns="http://www.w3.org/2000/svg" xmlns:xlink="http://www.w3.org/1999/xlink">
    <!-- Generator: Sketch 55 (78076) - https://sketchapp.com -->
    <title>编组 5复制 12</title>
    <desc>Created with Sketch.</desc>
    <defs>
        <linearGradient x1="13.1447415%" y1="0%" x2="83.9381834%" y2="100%" id="linearGradient-1">
            <stop stop-color="#FFDE59" offset="0%"></stop>
            <stop stop-color="#D97936" offset="100%"></stop>
        </linearGradient>
        <path d="M6.20245308,3.61797058 C10.6707587,0.201735416 15.3023245,-2.47806169e-14 24.2472282,0 C27.0103049,6.71377555e-15 30.039976,0.109535597 33.3362413,0.328606791 L33.3362414,0.328604394 C40.8481707,0.827850404 46.8467835,6.78045555 47.4038499,14.2883184 C47.6362727,17.4207966 47.7524841,20.5015987 47.7524841,23.5307246 C47.7524841,26.8835371 47.6101095,30.241371 47.3253602,33.6042262 L47.3253622,33.6042263 C46.7300695,40.6345615 41.3489806,46.3172489 34.3615176,47.2946667 C30.9999457,47.7648889 27.628516,48 24.2472282,48 C20.7002192,48 17.1878556,47.741278 13.7101372,47.2238339 L13.7101373,47.223833 C7.16235641,46.2495993 2.01097556,41.1269628 1.00011894,34.5847357 C0.33337298,30.2695803 0,26.5849099 0,23.5307246 C5.02173597e-16,15.6886816 1.73414747,7.03420573 6.20245308,3.61797058 Z" id="path-2"></path>
        <linearGradient x1="54.3753762%" y1="38.0753795%" x2="45.4689805%" y2="53.3134082%" id="linearGradient-4">
            <stop stop-color="#FFFFFF" offset="0%"></stop>
            <stop stop-color="#FFFFFF" stop-opacity="0" offset="100%"></stop>
        </linearGradient>
        <linearGradient x1="57.5479459%" y1="38.0753795%" x2="42.1835544%" y2="53.3134082%" id="linearGradient-5">
            <stop stop-color="#FFFFFF" offset="0%"></stop>
            <stop stop-color="#FFFFFF" stop-opacity="0" offset="100%"></stop>
        </linearGradient>
        <linearGradient x1="54.5922031%" y1="38.0753795%" x2="45.2444405%" y2="53.3134082%" id="linearGradient-6">
            <stop stop-color="#FFFFFF" offset="0%"></stop>
            <stop stop-color="#FFFFFF" stop-opacity="0" offset="100%"></stop>
        </linearGradient>
    </defs>
    <g id="元素" stroke="none" stroke-width="1" fill="none" fill-rule="evenodd">
        <g id="图标切图" transform="translate(-97.000000, -496.000000)">
            <g id="编组-5复制-12" transform="translate(97.000000, 496.000000)">
                <g id="路径-2">
                    <mask id="mask-3" fill="white">
                        <use xlink:href="#path-2"></use>
                    </mask>
                    <use id="蒙版" fill="url(#linearGradient-1)" xlink:href="#path-2"></use>
                    <path d="M37.0133561,-46.9128231 C26.6639976,-18.3269401 27.3548745,10.912351 35.1169265,23.0820156 C42.8789786,35.2516801 57.5035695,44.7727086 58.3033175,61.0670435 C59.1030656,77.3613784 54.8829284,95.779233 44.9475105,99.7603 C35.0120927,103.741367 13.9351994,104.338768 10.4374097,86.6018577 C6.93962002,68.864947 3.76978976,-41.7804956 37.0133561,-46.9128231 Z" id="路径-2复制-3" fill="url(#linearGradient-4)" style="mix-blend-mode: overlay;" opacity="0.165527344" mask="url(#mask-3)" transform="translate(33.375296, 27.573648) scale(-1, 1) rotate(-68.000000) translate(-33.375296, -27.573648) "></path>
                    <path d="M29.353875,-54.2203716 C19.0045165,-25.6344887 19.6953934,3.6048025 27.4574454,15.774467 C35.2194975,27.9441315 49.8440884,37.4651601 50.6438364,53.759495 C51.4435845,70.0538298 47.2234473,88.4716844 37.2880294,92.4527514 C27.3526116,96.4338184 6.27571828,97.0312198 2.7779286,79.2943091 C-0.719861084,61.5573985 -48.678541,-44.9863061 29.353875,-54.2203716 Z" id="路径-2复制-2" fill="url(#linearGradient-5)" opacity="0.087937128" mask="url(#mask-3)" transform="translate(17.872802, 20.266099) rotate(-10.000000) translate(-17.872802, -20.266099) "></path>
                    <path d="M28.9138303,-28.8219093 C18.5644718,-0.236026367 19.2553486,29.0032648 27.0174007,41.1729293 C34.7794527,53.3425938 49.4040437,62.8636224 50.2037917,79.1579573 C51.0035397,95.4522921 46.7834026,113.870147 36.8479847,117.851214 C26.9125668,121.832281 5.83567353,122.429682 2.33788385,104.692771 C-1.15990583,86.9558608 -49.1185858,-19.5878438 28.9138303,-28.8219093 Z" id="路径-2复制-4" fill="url(#linearGradient-5)" opacity="0.139834449" mask="url(#mask-3)" transform="translate(17.432757, 45.664561) rotate(-13.000000) translate(-17.432757, -45.664561) "></path>
                    <path d="M10.1033035,-33.9936839 C-0.246055008,-5.40780095 0.44482186,23.8314902 8.20687391,36.0011547 C15.968926,48.1708193 30.5935169,57.6918478 31.3932649,73.9861827 C32.1930129,90.2805175 27.9728758,108.698372 18.0374579,112.679439 C8.10204003,116.660506 -12.9748532,117.257908 -16.4726429,99.5209968 C-19.9704326,81.7840862 -28.5125053,0.511693654 10.1033035,-33.9936839 Z" id="路径-2复制-5" fill="url(#linearGradient-6)" opacity="0.203311012" mask="url(#mask-3)" transform="translate(5.852713, 40.492787) rotate(6.000000) translate(-5.852713, -40.492787) "></path>
                </g>
                <g id="fun_icon_02" transform="translate(10.000000, 12.000000)">
                    <path d="M26.0279399,16.7674606 C25.3415245,16.3469055 24.5364951,16.1048333 23.6754975,16.1047055 C22.2176147,16.104489 20.9201978,16.7984925 20.0873012,17.8781213 L20.0873012,17.0934983 L17.0190774,17.0934983 L17.0190774,22.1314968 L19.3431293,22.1314968 C19.5545285,22.7947903 19.9104273,23.3923229 20.3732578,23.8861276 L17.0241139,23.8861276 L14.4516129,23.8861276 L14.4516129,8.83794961 L14.4516129,6.10036097 C14.4516129,5.2837839 14.9400868,4.55092003 15.6816914,4.25496612 L23.3992524,1.1749959 C23.6327033,1.08181196 23.8694729,1.03846154 24.1004783,1.03846154 C25.1210362,1.03846154 26.0279399,1.88473558 26.0279399,3.020331 L26.0279399,16.7674606 Z M21.9282413,7.01750143 L21.9282413,9.53651559 L24.3828377,9.53651559 L24.3828377,7.01750143 L21.9282413,7.01750143 Z M21.9282413,11.7406044 L21.9282413,14.2596186 L24.3828377,14.2596186 L24.3828377,11.7406044 L21.9282413,11.7406044 Z" id="Combined-Shape" fill="#000000" style="mix-blend-mode: soft-light;" opacity="0.842564174"></path>
                    <path d="M30.9264516,26.2938462 L30.596129,26.6261538 C30.2658065,26.9584615 29.44,26.9584615 29.1096774,26.6261538 L26.5496774,24.3830769 C25.6412903,24.9646154 24.5677419,25.2969231 23.4116129,25.2969231 C20.1909677,25.2969231 17.5483871,22.6384615 17.5483871,19.3984615 C17.5483871,16.1584615 20.1909677,13.5 23.4116129,13.5 C26.6322581,13.5 29.2748387,16.1584615 29.2748387,19.3984615 C29.2748387,20.5615385 28.9445161,21.6415385 28.3664516,22.5553846 L30.9264516,24.7984615 C31.2567742,25.2138462 31.2567742,25.8784615 30.9264516,26.2938462 Z M23.4116129,15.9923077 C21.5948387,15.9923077 20.1083871,17.4876923 20.1083871,19.3153846 C20.1083871,21.1430769 21.5948387,22.6384615 23.4116129,22.6384615 C25.2283871,22.6384615 26.7148387,21.1430769 26.7148387,19.3153846 C26.7148387,17.4876923 25.2283871,15.9923077 23.4116129,15.9923077 Z" id="形状结合" fill="#FFFFFF" fill-rule="nonzero"></path>
                    <path d="M4.22145884,0.259282287 L14.7456018,4.97671096 C15.8228644,5.45959204 16.516129,6.53007319 16.516129,7.71061073 L16.516129,27 L0,27 L-1.33226763e-15,2.99318206 C-2.26971108e-15,1.33854078 1.34135178,-0.00281099396 2.99599305,-0.00281099396 C3.41839023,-0.00281099396 3.8360135,0.0865070866 4.22145884,0.259282287 Z M7.18093803,6.12623115 L7.18093803,9.40099776 L10.3793516,9.40099776 L10.3793516,6.12623115 L7.18093803,6.12623115 Z M7.18093803,12.2663942 L7.18093803,15.5411608 L10.3793516,15.5411608 L10.3793516,12.2663942 L7.18093803,12.2663942 Z M6.78115057,17.9971872 L6.78115057,24.5466815 L10.7791391,24.5466815 L10.7791391,17.9971872 L6.78115057,17.9971872 Z" id="Combined-Shape" fill="#FFFFFF" opacity="0.838030134"></path>
                    <path d="M4.22145884,0.259282287 L14.7456018,4.97671096 C15.8228644,5.45959204 16.516129,6.53007319 16.516129,7.71061073 L16.516129,27 L0,27 L-1.33226763e-15,2.99318206 C-2.26971108e-15,1.33854078 1.34135178,-0.00281099396 2.99599305,-0.00281099396 C3.41839023,-0.00281099396 3.8360135,0.0865070866 4.22145884,0.259282287 Z M7.18093803,6.12623115 L7.18093803,9.40099776 L10.3793516,9.40099776 L10.3793516,6.12623115 L7.18093803,6.12623115 Z M7.18093803,12.2663942 L7.18093803,15.5411608 L10.3793516,15.5411608 L10.3793516,12.2663942 L7.18093803,12.2663942 Z M6.78115057,17.9971872 L6.78115057,24.5466815 L10.7791391,24.5466815 L10.7791391,17.9971872 L6.78115057,17.9971872 Z" id="Combined-Shape" fill="#FFFFFF" opacity="0.656319754"></path>
                </g>
            </g>
        </g>
    </g>
</svg>