<?xml version="1.0" encoding="UTF-8"?>
<svg width="48px" height="48px" viewBox="0 0 48 48" version="1.1" xmlns="http://www.w3.org/2000/svg" xmlns:xlink="http://www.w3.org/1999/xlink">
    <!-- Generator: Sketch 55 (78076) - https://sketchapp.com -->
    <title>编组 5复制 14</title>
    <desc>Created with Sketch.</desc>
    <defs>
        <linearGradient x1="13.1447415%" y1="0%" x2="83.9381834%" y2="100%" id="linearGradient-1">
            <stop stop-color="#4BD5D9" offset="0%"></stop>
            <stop stop-color="#5355E0" offset="100%"></stop>
        </linearGradient>
        <path d="M6.20245308,3.61797058 C10.6707587,0.201735416 15.3023245,-2.47806169e-14 24.2472282,0 C27.0103049,6.71377555e-15 30.039976,0.109535597 33.3362413,0.328606791 L33.3362414,0.328604394 C40.8481707,0.827850404 46.8467835,6.78045555 47.4038499,14.2883184 C47.6362727,17.4207966 47.7524841,20.5015987 47.7524841,23.5307246 C47.7524841,26.8835371 47.6101095,30.241371 47.3253602,33.6042262 L47.3253622,33.6042263 C46.7300695,40.6345615 41.3489806,46.3172489 34.3615176,47.2946667 C30.9999457,47.7648889 27.628516,48 24.2472282,48 C20.7002192,48 17.1878556,47.741278 13.7101372,47.2238339 L13.7101373,47.223833 C7.16235641,46.2495993 2.01097556,41.1269628 1.00011894,34.5847357 C0.33337298,30.2695803 0,26.5849099 0,23.5307246 C5.02173597e-16,15.6886816 1.73414747,7.03420573 6.20245308,3.61797058 Z" id="path-2"></path>
        <linearGradient x1="54.3753762%" y1="38.0753795%" x2="45.4689805%" y2="53.3134082%" id="linearGradient-4">
            <stop stop-color="#FFFFFF" offset="0%"></stop>
            <stop stop-color="#FFFFFF" stop-opacity="0" offset="100%"></stop>
        </linearGradient>
        <linearGradient x1="57.5479459%" y1="38.0753795%" x2="42.1835544%" y2="53.3134082%" id="linearGradient-5">
            <stop stop-color="#FFFFFF" offset="0%"></stop>
            <stop stop-color="#FFFFFF" stop-opacity="0" offset="100%"></stop>
        </linearGradient>
        <linearGradient x1="54.5922031%" y1="38.0753795%" x2="45.2444405%" y2="53.3134082%" id="linearGradient-6">
            <stop stop-color="#FFFFFF" offset="0%"></stop>
            <stop stop-color="#FFFFFF" stop-opacity="0" offset="100%"></stop>
        </linearGradient>
    </defs>
    <g id="元素" stroke="none" stroke-width="1" fill="none" fill-rule="evenodd">
        <g id="图标切图" transform="translate(-273.000000, -496.000000)">
            <g id="编组-5复制-14" transform="translate(273.000000, 496.000000)">
                <g id="路径-2">
                    <mask id="mask-3" fill="white">
                        <use xlink:href="#path-2"></use>
                    </mask>
                    <use id="蒙版" fill="url(#linearGradient-1)" xlink:href="#path-2"></use>
                    <path d="M37.0133561,-46.9128231 C26.6639976,-18.3269401 27.3548745,10.912351 35.1169265,23.0820156 C42.8789786,35.2516801 57.5035695,44.7727086 58.3033175,61.0670435 C59.1030656,77.3613784 54.8829284,95.779233 44.9475105,99.7603 C35.0120927,103.741367 13.9351994,104.338768 10.4374097,86.6018577 C6.93962002,68.864947 3.76978976,-41.7804956 37.0133561,-46.9128231 Z" id="路径-2复制-3" fill="url(#linearGradient-4)" style="mix-blend-mode: overlay;" opacity="0.165527344" mask="url(#mask-3)" transform="translate(33.375296, 27.573648) scale(-1, 1) rotate(-68.000000) translate(-33.375296, -27.573648) "></path>
                    <path d="M29.353875,-54.2203716 C19.0045165,-25.6344887 19.6953934,3.6048025 27.4574454,15.774467 C35.2194975,27.9441315 49.8440884,37.4651601 50.6438364,53.759495 C51.4435845,70.0538298 47.2234473,88.4716844 37.2880294,92.4527514 C27.3526116,96.4338184 6.27571828,97.0312198 2.7779286,79.2943091 C-0.719861084,61.5573985 -48.678541,-44.9863061 29.353875,-54.2203716 Z" id="路径-2复制-2" fill="url(#linearGradient-5)" opacity="0.087937128" mask="url(#mask-3)" transform="translate(17.872802, 20.266099) rotate(-10.000000) translate(-17.872802, -20.266099) "></path>
                    <path d="M28.9138303,-28.8219093 C18.5644718,-0.236026367 19.2553486,29.0032648 27.0174007,41.1729293 C34.7794527,53.3425938 49.4040437,62.8636224 50.2037917,79.1579573 C51.0035397,95.4522921 46.7834026,113.870147 36.8479847,117.851214 C26.9125668,121.832281 5.83567353,122.429682 2.33788385,104.692771 C-1.15990583,86.9558608 -49.1185858,-19.5878438 28.9138303,-28.8219093 Z" id="路径-2复制-4" fill="url(#linearGradient-5)" opacity="0.139834449" mask="url(#mask-3)" transform="translate(17.432757, 45.664561) rotate(-13.000000) translate(-17.432757, -45.664561) "></path>
                    <path d="M10.1033035,-33.9936839 C-0.246055008,-5.40780095 0.44482186,23.8314902 8.20687391,36.0011547 C15.968926,48.1708193 30.5935169,57.6918478 31.3932649,73.9861827 C32.1930129,90.2805175 27.9728758,108.698372 18.0374579,112.679439 C8.10204003,116.660506 -12.9748532,117.257908 -16.4726429,99.5209968 C-19.9704326,81.7840862 -28.5125053,0.511693654 10.1033035,-33.9936839 Z" id="路径-2复制-5" fill="url(#linearGradient-6)" opacity="0.203311012" mask="url(#mask-3)" transform="translate(5.852713, 40.492787) rotate(6.000000) translate(-5.852713, -40.492787) "></path>
                </g>
                <g id="Group" transform="translate(9.000000, 22.000000)">
                    <path d="M30.9638889,16.5908 C31.1482089,17.6738 30.0627689,18.5731333 28.5370089,18.5731333 L2.44804895,18.5731333 C0.922288949,18.5731333 -0.161871051,17.6738 0.0198889494,16.5908 L2.59908895,1.32493333 C2.72452895,0.587733333 3.81380895,-8.8817842e-15 5.03748895,-8.8817842e-15 L25.9475689,-8.8817842e-15 C27.1699689,-8.8817842e-15 28.2618089,0.587733333 28.3846889,1.32493333 L30.9638889,16.5908 Z M25.96608,1.26666667 L4.68864,1.26666667 L2.56,16.5325333 L28.09472,16.5325333 L25.96608,1.26666667 Z" id="形状结合" fill="#FFFFFF" style="mix-blend-mode: soft-light;"></path>
                    <polygon id="Fill-3" fill="#FFFFFF" style="mix-blend-mode: soft-light;" opacity="0.508161272" points="25.96608 1.26666667 4.68864 1.26666667 2.56 16.5325333 28.09472 16.5325333"></polygon>
                    <path d="M21.99296,7.23773333 C21.66784,8.07246667 21.32608,8.58293333 21.05088,8.9984 C20.55808,9.73813333 20.28288,10.1510667 20.90496,11.3252667 C21.62304,12.6793333 18.85952,14.44 15.7248,15.9055333 C15.13088,15.4520667 14.66368,14.953 14.33984,14.4058 C13.14432,12.3930667 14.07104,10.2650667 14.56384,9.386 C16.48896,9.01613333 17.22112,8.42206667 17.87392,7.7292 C18.38848,7.18453333 18.78784,6.75893333 20.864,6.55626667 C21.28256,6.51573333 21.69728,6.4752 22.10688,6.43593333 C22.14016,6.669 22.11328,6.92866667 21.99296,7.23773333 M26.1312,6.04706667 L25.9904,5.03373333 C24.87168,5.13886667 23.61728,5.2592 22.2912,5.38586667 C21.7792,4.9476 21.0112,4.5942 20.16384,4.20533333 C19.32032,3.82026667 18.37568,3.38833333 17.4784,2.7854 C16.68992,2.2572 16.24448,1.748 16.13568,1.26666667 L15.38048,1.26666667 C15.4816,1.8582 15.99104,2.47126667 16.91264,3.097 C17.86112,3.7392 18.8416,4.19013333 19.71584,4.59293333 C20.40192,4.91086667 20.97792,5.1794 21.39776,5.472 C21.11872,5.4986 20.83712,5.52646667 20.55296,5.55306667 C18.58048,5.74306667 17.66912,6.15726667 17.08416,6.612 C16.33408,6.56893333 15.10528,6.27886667 14.2464,4.98306667 C12.8896,2.93486667 12.31744,2.44593333 10.09792,2.58526667 C9.21472,2.63593333 7.97056,1.9304 7.04256,1.26666667 L6.0352,1.26666667 C7.08096,2.1128 8.7616,3.14513333 10.14912,3.05013333 C11.41504,2.97286667 11.93088,3.0476 12.73472,4.05966667 C12.27904,4.49033333 10.39104,6.11546667 7.78752,6.28393333 C6.26688,6.3802 4.77824,6.232 3.5392,5.90646667 L3.46112,6.4562 C4.5248,6.70446667 5.69344,6.82606667 6.8288,6.82606667 C7.16672,6.82606667 7.49952,6.81593333 7.8272,6.7944 C10.432,6.62593333 12.33024,5.2478 13.11232,4.5714 C13.23648,4.75253333 13.37088,4.95013333 13.5168,5.17433333 C14.36672,6.47646667 15.616,6.93246667 16.57856,7.07306667 C16.54784,7.10473333 16.51712,7.1364 16.4864,7.16553333 C15.8592,7.8166 15.2576,8.4398 11.35744,8.6336 C7.19232,8.8388 4.51712,9.92053333 2.8288,11.001 L2.56,12.9314 C3.6032,11.8522 6.12352,9.98893333 11.43808,9.72293333 C12.26496,9.6824 12.97664,9.62033333 13.5936,9.5418 C13.04448,10.6222667 12.36224,12.6476667 13.52192,14.6414 C13.8624,15.2278667 14.35008,15.7636667 14.96192,16.2538667 C14.74816,16.3488667 14.53568,16.4413333 14.32192,16.5325333 L16.704,16.5325333 C16.608,16.4793333 16.50304,16.4286667 16.41216,16.3729333 C19.6288,14.8453333 22.63808,12.8832667 21.7024,11.1542667 C21.18656,10.1979333 21.35808,9.9332 21.81504,9.2378 C22.08256,8.82613333 22.44864,8.2688 22.78016,7.39226667 C22.93248,6.99453333 22.96448,6.65633333 22.90816,6.35866667 C24.05248,6.2472 25.14304,6.14206667 26.1312,6.04706667" id="Fill-5" fill="#000000" style="mix-blend-mode: overlay;"></path>
                    <polygon id="Fill-7" fill="#66C5B9" points="25.445376 5.01954667 25.373696 4.51414667 25.380096 4.51414667"></polygon>
                    <path d="M15.4987277,6 C14.6743003,6 14,6.44783715 14,6.99915182 C14,7.55216285 14.6743003,8 15.4987277,8 C16.3282443,8 17,7.55216285 17,6.99915182 C17,6.44783715 16.3282443,6 15.4987277,6" id="Fill-13" fill="#000000" opacity="0.1507859"></path>
                </g>
                <path d="M24.5,5 C18.7152778,5 14,9.75051547 14,15.6886598 C14,21.4783505 23.5277778,28.3072165 23.9166667,28.6041237 L24.5,29 L25.0833333,28.6041237 C25.4722222,28.3072165 35,21.4783505 35,15.6886598 C35,9.75051547 30.2847222,5 24.5,5 Z M24.5,19.5979381 C21.8263889,19.5979381 19.6388889,17.371134 19.6388889,14.6494845 C19.6388889,11.927835 21.8263889,9.70103091 24.5,9.70103094 C27.1736111,9.70103096 29.3611111,11.9278351 29.3611111,14.6494845 C29.3611111,17.371134 27.1736111,19.5979381 24.5,19.5979381 Z" id="形状" fill="#FFFFFF" fill-rule="nonzero"></path>
            </g>
        </g>
    </g>
</svg>