<?xml version="1.0" encoding="UTF-8"?>
<svg width="48px" height="48px" viewBox="0 0 48 48" version="1.1" xmlns="http://www.w3.org/2000/svg" xmlns:xlink="http://www.w3.org/1999/xlink">
    <!-- Generator: Sketch 55 (78076) - https://sketchapp.com -->
    <title>编组 20</title>
    <desc>Created with Sketch.</desc>
    <defs>
        <linearGradient x1="13.1447415%" y1="0%" x2="83.9381834%" y2="100%" id="linearGradient-1">
            <stop stop-color="#5DCAF2" offset="0%"></stop>
            <stop stop-color="#7066F2" offset="100%"></stop>
        </linearGradient>
        <path d="M6.20245308,3.61797058 C10.6707587,0.201735416 15.3023245,-2.47806169e-14 24.2472282,0 C27.0103049,6.71377555e-15 30.039976,0.109535597 33.3362413,0.328606791 L33.3362414,0.328604394 C40.8481707,0.827850404 46.8467835,6.78045555 47.4038499,14.2883184 C47.6362727,17.4207966 47.7524841,20.5015987 47.7524841,23.5307246 C47.7524841,26.8835371 47.6101095,30.241371 47.3253602,33.6042262 L47.3253622,33.6042263 C46.7300695,40.6345615 41.3489806,46.3172489 34.3615176,47.2946667 C30.9999457,47.7648889 27.628516,48 24.2472282,48 C20.7002192,48 17.1878556,47.741278 13.7101372,47.2238339 L13.7101373,47.223833 C7.16235641,46.2495993 2.01097556,41.1269628 1.00011894,34.5847357 C0.33337298,30.2695803 0,26.5849099 0,23.5307246 C5.02173597e-16,15.6886816 1.73414747,7.03420573 6.20245308,3.61797058 Z" id="path-2"></path>
        <linearGradient x1="54.3753762%" y1="38.0753795%" x2="45.4689805%" y2="53.3134082%" id="linearGradient-4">
            <stop stop-color="#FFFFFF" offset="0%"></stop>
            <stop stop-color="#FFFFFF" stop-opacity="0" offset="100%"></stop>
        </linearGradient>
        <linearGradient x1="57.5479459%" y1="38.0753795%" x2="42.1835544%" y2="53.3134082%" id="linearGradient-5">
            <stop stop-color="#FFFFFF" offset="0%"></stop>
            <stop stop-color="#FFFFFF" stop-opacity="0" offset="100%"></stop>
        </linearGradient>
        <linearGradient x1="54.5922031%" y1="38.0753795%" x2="45.2444405%" y2="53.3134082%" id="linearGradient-6">
            <stop stop-color="#FFFFFF" offset="0%"></stop>
            <stop stop-color="#FFFFFF" stop-opacity="0" offset="100%"></stop>
        </linearGradient>
    </defs>
    <g id="元素" stroke="none" stroke-width="1" fill="none" fill-rule="evenodd">
        <g id="图标切图" transform="translate(-97.000000, -584.000000)">
            <g id="编组-20" transform="translate(97.000000, 584.000000)">
                <g id="编组-5复制-11">
                    <g id="路径-2">
                        <mask id="mask-3" fill="white">
                            <use xlink:href="#path-2"></use>
                        </mask>
                        <use id="蒙版" fill="url(#linearGradient-1)" xlink:href="#path-2"></use>
                        <path d="M37.0133561,-46.9128231 C26.6639976,-18.3269401 27.3548745,10.912351 35.1169265,23.0820156 C42.8789786,35.2516801 57.5035695,44.7727086 58.3033175,61.0670435 C59.1030656,77.3613784 54.8829284,95.779233 44.9475105,99.7603 C35.0120927,103.741367 13.9351994,104.338768 10.4374097,86.6018577 C6.93962002,68.864947 3.76978976,-41.7804956 37.0133561,-46.9128231 Z" id="路径-2复制-3" fill="url(#linearGradient-4)" style="mix-blend-mode: overlay;" opacity="0.165527344" mask="url(#mask-3)" transform="translate(33.375296, 27.573648) scale(-1, 1) rotate(-68.000000) translate(-33.375296, -27.573648) "></path>
                        <path d="M29.353875,-54.2203716 C19.0045165,-25.6344887 19.6953934,3.6048025 27.4574454,15.774467 C35.2194975,27.9441315 49.8440884,37.4651601 50.6438364,53.759495 C51.4435845,70.0538298 47.2234473,88.4716844 37.2880294,92.4527514 C27.3526116,96.4338184 6.27571828,97.0312198 2.7779286,79.2943091 C-0.719861084,61.5573985 -48.678541,-44.9863061 29.353875,-54.2203716 Z" id="路径-2复制-2" fill="url(#linearGradient-5)" opacity="0.087937128" mask="url(#mask-3)" transform="translate(17.872802, 20.266099) rotate(-10.000000) translate(-17.872802, -20.266099) "></path>
                        <path d="M28.9138303,-28.8219093 C18.5644718,-0.236026367 19.2553486,29.0032648 27.0174007,41.1729293 C34.7794527,53.3425938 49.4040437,62.8636224 50.2037917,79.1579573 C51.0035397,95.4522921 46.7834026,113.870147 36.8479847,117.851214 C26.9125668,121.832281 5.83567353,122.429682 2.33788385,104.692771 C-1.15990583,86.9558608 -49.1185858,-19.5878438 28.9138303,-28.8219093 Z" id="路径-2复制-4" fill="url(#linearGradient-5)" opacity="0.139834449" mask="url(#mask-3)" transform="translate(17.432757, 45.664561) rotate(-13.000000) translate(-17.432757, -45.664561) "></path>
                        <path d="M10.1033035,-33.9936839 C-0.246055008,-5.40780095 0.44482186,23.8314902 8.20687391,36.0011547 C15.968926,48.1708193 30.5935169,57.6918478 31.3932649,73.9861827 C32.1930129,90.2805175 27.9728758,108.698372 18.0374579,112.679439 C8.10204003,116.660506 -12.9748532,117.257908 -16.4726429,99.5209968 C-19.9704326,81.7840862 -28.5125053,0.511693654 10.1033035,-33.9936839 Z" id="路径-2复制-5" fill="url(#linearGradient-6)" opacity="0.203311012" mask="url(#mask-3)" transform="translate(5.852713, 40.492787) rotate(6.000000) translate(-5.852713, -40.492787) "></path>
                    </g>
                </g>
                <g id="商店" transform="translate(10.000000, 9.000000)" fill-rule="nonzero">
                    <g id="编组-11">
                        <rect id="矩形" fill="#000000" opacity="0" x="0" y="0" width="28" height="28"></rect>
                        <path d="M2.9108911,10 L25.0891089,10 C26.9372937,10 27.8613861,10.7058823 27.8613861,12.117647 L27.8613861,25.8823529 C27.8613861,27.2941176 26.9372937,28 25.0891089,28 L2.9108911,28 C1.06270628,28 0.138613863,27.2941176 0.138613863,25.8823529 L0.138613863,12.117647 C0.138613863,10.7058823 1.06270628,9.99999999 2.9108911,10 Z" id="路径" fill="#FFFFFF" style="mix-blend-mode: overlay;" opacity="0.547061012"></path>
                        <path d="M2.9108911,8.8817842e-14 L3.1881188,8.8817842e-14 L3.1881188,6.93069308 C3.1881188,7.69623629 2.56752341,8.31683169 1.8019802,8.31683169 L1.52475247,8.31683169 C0.759209256,8.31683169 0.138613863,7.69623629 0.138613863,6.93069308 L0.138613863,2.77227724 C0.138613863,1.2411908 1.37980466,8.9099098e-14 2.9108911,8.8817842e-14 L2.9108911,8.8817842e-14 Z" id="路径" fill="#000000" style="mix-blend-mode: overlay;" opacity="0.408342634"></path>
                        <path d="M3.1881188,8.8817842e-14 L6.23762377,8.8817842e-14 L6.23762377,6.93069308 C6.23762377,7.69623629 5.61702837,8.31683169 4.85148516,8.31683169 L4.57425743,8.31683169 C4.20663061,8.31683169 3.85406083,8.17079251 3.59410941,7.9108411 C3.33415799,7.65088968 3.1881188,7.2983199 3.1881188,6.93069308 L3.1881188,8.8817842e-14 L3.1881188,8.8817842e-14 Z" id="路径" fill="#FFFFFF" style="mix-blend-mode: overlay;" opacity="0.626139323"></path>
                        <path d="M6.23762377,8.8817842e-14 L9.2871287,8.8817842e-14 L9.2871287,6.93069308 C9.2871287,7.69623629 8.66653331,8.31683169 7.9009901,8.31683169 L7.62376237,8.31683169 C6.85821916,8.31683169 6.23762377,7.69623629 6.23762377,6.93069308 L6.23762377,8.8817842e-14 L6.23762377,8.8817842e-14 Z" id="路径" fill="#000000" style="mix-blend-mode: overlay;" opacity="0.408342634"></path>
                        <path d="M9.2871287,8.8817842e-14 L12.3366337,8.8817842e-14 L12.3366337,6.93069308 C12.3366337,7.69623629 11.7160383,8.31683169 10.9504951,8.31683169 L10.6732673,8.31683169 C10.3056405,8.31683169 9.95307073,8.17079251 9.69311931,7.9108411 C9.43316789,7.65088968 9.2871287,7.2983199 9.2871287,6.93069308 L9.2871287,8.8817842e-14 L9.2871287,8.8817842e-14 Z" id="路径" fill="#FFFFFF" style="mix-blend-mode: overlay;" opacity="0.626139323"></path>
                        <path d="M12.3366337,8.8817842e-14 L15.3861386,8.8817842e-14 L15.3861386,6.93069308 C15.3861386,7.69623629 14.7655432,8.31683169 14,8.31683169 L13.7227723,8.31683169 C12.9572291,8.31683169 12.3366337,7.69623629 12.3366337,6.93069308 L12.3366337,8.8817842e-14 L12.3366337,8.8817842e-14 Z" id="路径" fill="#000000" style="mix-blend-mode: overlay;" opacity="0.408342634"></path>
                        <path d="M15.3861386,8.8817842e-14 L18.4356436,8.8817842e-14 L18.4356436,6.93069308 C18.4356436,7.2983199 18.2896044,7.65088968 18.029653,7.9108411 C17.7697015,8.17079251 17.4171318,8.31683169 17.0495049,8.31683169 L16.7722772,8.31683169 C16.4046504,8.31683169 16.0520806,8.17079251 15.7921292,7.9108411 C15.5321778,7.65088968 15.3861386,7.2983199 15.3861386,6.93069308 L15.3861386,8.8817842e-14 L15.3861386,8.8817842e-14 Z" id="路径" fill="#FFFFFF" style="mix-blend-mode: overlay;" opacity="0.626139323"></path>
                        <path d="M18.4356436,8.8817842e-14 L21.4851485,8.8817842e-14 L21.4851485,6.93069308 C21.4851485,7.69623629 20.8645531,8.31683169 20.0990099,8.31683169 L19.8217822,8.31683169 C19.056239,8.31683169 18.4356436,7.69623629 18.4356436,6.93069308 L18.4356436,8.8817842e-14 Z" id="路径" fill="#000000" style="mix-blend-mode: overlay;" opacity="0.408342634"></path>
                        <path d="M21.4851485,8.8817842e-14 L24.5346535,8.8817842e-14 L24.5346535,6.93069308 C24.5346535,7.2983199 24.3886143,7.65088968 24.1286629,7.9108411 C23.8687114,8.17079251 23.5161417,8.31683169 23.1485148,8.31683169 L22.8712871,8.31683169 C22.5036603,8.31683169 22.1510905,8.17079251 21.8911391,7.9108411 C21.6311877,7.65088968 21.4851485,7.2983199 21.4851485,6.93069308 L21.4851485,8.8817842e-14 L21.4851485,8.8817842e-14 Z" id="路径" fill="#FFFFFF" style="mix-blend-mode: overlay;" opacity="0.626139323"></path>
                        <path d="M24.5346535,8.8817842e-14 L25.0891089,8.8817842e-14 C26.6201953,8.8911594e-14 27.8613861,1.2411908 27.8613861,2.77227724 L27.8613861,6.93069308 C27.8613861,7.69623629 27.2407907,8.31683169 26.4752475,8.31683169 L25.9207921,8.31683169 C25.1552489,8.31683169 24.5346535,7.69623629 24.5346535,6.93069308 L24.5346535,8.8817842e-14 L24.5346535,8.8817842e-14 Z" id="路径" fill="#000000" style="mix-blend-mode: overlay;" opacity="0.408342634"></path>
                        <polygon id="路径" fill="#000000" style="mix-blend-mode: soft-light;" points="3.74257425 9.14851484 14.2772277 9.14851484 14.2772277 27.1683168 3.74257425 27.1683168"></polygon>
                        <polygon id="路径" fill="#FFFFFF" style="mix-blend-mode: overlay;" opacity="0.637788318" points="4.57425743 9.98019802 13.4455445 9.98019802 13.4455445 15.2475247 4.57425743 15.2475247"></polygon>
                        <polygon id="路径" fill="#FFFFFF" style="mix-blend-mode: overlay;" opacity="0.637788318" points="4.57425743 16.3564356 13.4455445 16.3564356 13.4455445 26.3366337 4.57425743 26.3366337"></polygon>
                        <polygon id="路径" fill="#A0A0A0" points="12.3366337 15.5247525 14 15.5247525 14 16.0792079 12.3366337 16.0792079"></polygon>
                        <polygon id="路径" fill="#000000" style="mix-blend-mode: soft-light;" opacity="0.580357143" points="7.34653464 11.6435644 10.6732673 11.6435644 10.6732673 13.029703 7.34653464 13.029703"></polygon>
                        <polygon id="路径" fill="#000000" style="mix-blend-mode: soft-light;" opacity="0.689243862" points="16.2178218 9.14851484 25.6435644 9.14851484 25.6435644 18.5742574 16.2178218 18.5742574"></polygon>
                        <polygon id="路径" fill="#FFFFFF" style="mix-blend-mode: soft-light;" opacity="0.826543899" transform="translate(20.965347, 13.941832) scale(-1, 1) translate(-20.965347, -13.941832) " points="17.5 9.94183169 24.4306931 9.94183169 24.4306931 17.9418317"></polygon>
                    </g>
                    <path d="M21.2505744,23.8493713 C21.1399442,26.3241178 21.0846299,28.2176453 21.0846299,29.5300108 L19.7017595,29.5300108 L20.0336484,23.8493713 L21.2505744,23.8493713 Z M16.7147593,23.8493713 L17.9316853,23.8493713 C17.562918,25.5741946 17.0466516,27.4677222 16.3828704,29.5300108 L15,29.5300108 C15.7744113,27.430226 16.3459921,25.5366984 16.7147593,23.8493713 Z M21.6377781,22.8932241 L19.8123891,22.8932241 L18.7614076,30.8798658 L17.2125927,30.8798658 L18.3188891,22.8932241 L16.2722408,22.8932241 L16.4381853,21.5996131 L18.5401483,21.5996131 L18.7614076,19.7998066 C18.3557636,19.8373027 17.7473067,19.8747983 16.9360186,19.9122945 L17.1019631,18.5624396 C18.6507857,18.4499511 20.2917755,18.2624731 22.0249818,18 L21.8590374,19.4060989 L20.2549077,19.6310747 L19.9783336,21.5996131 L21.7484077,21.5996131 L21.6377781,22.8932241 Z M28.1862228,18.3219619 C28.4907958,18.3219619 28.7192222,18.3780588 28.8715087,18.4902544 C28.9857236,18.6398485 29.0237947,18.8455374 28.985723,19.1073271 L27.5009369,29.7097572 L28.5288658,29.7097572 L28.3004371,31 L20.5909703,31 L20.7622918,29.7097572 L21.8473279,29.7097572 L23.4463284,18.3219619 L28.1862228,18.3219619 Z M27.2725082,19.5561072 L24.8169003,19.5561072 L24.4171501,22.0804953 L27.0440796,22.0804953 L27.3867225,19.7243997 C27.3867225,19.6122041 27.3486515,19.5561072 27.2725082,19.5561072 Z M26.5301151,25.8390287 L26.8727581,23.3146406 L24.2458287,23.3146406 L23.9031857,25.8390287 L26.5301151,25.8390287 Z M23.3321141,29.7097572 L25.9590435,29.7097572 L26.3587936,27.073174 L23.7318642,27.073174 L23.3321141,29.7097572 Z" id="租" fill="#FFFFFF"></path>
                </g>
            </g>
        </g>
    </g>
</svg>