<?xml version="1.0" encoding="UTF-8"?>
<svg width="48px" height="48px" viewBox="0 0 48 48" version="1.1" xmlns="http://www.w3.org/2000/svg" xmlns:xlink="http://www.w3.org/1999/xlink">
    <!-- Generator: Sketch 55 (78076) - https://sketchapp.com -->
    <title>编组 19</title>
    <desc>Created with Sketch.</desc>
    <defs>
        <linearGradient x1="13.1447415%" y1="0%" x2="83.9381834%" y2="100%" id="linearGradient-1">
            <stop stop-color="#FEA84B" offset="0%"></stop>
            <stop stop-color="#D2355F" offset="100%"></stop>
        </linearGradient>
        <path d="M6.20245308,3.61797058 C10.6707587,0.201735416 15.3023245,-2.47806169e-14 24.2472282,0 C27.0103049,6.71377555e-15 30.039976,0.109535597 33.3362413,0.328606791 L33.3362414,0.328604394 C40.8481707,0.827850404 46.8467835,6.78045555 47.4038499,14.2883184 C47.6362727,17.4207966 47.7524841,20.5015987 47.7524841,23.5307246 C47.7524841,26.8835371 47.6101095,30.241371 47.3253602,33.6042262 L47.3253622,33.6042263 C46.7300695,40.6345615 41.3489806,46.3172489 34.3615176,47.2946667 C30.9999457,47.7648889 27.628516,48 24.2472282,48 C20.7002192,48 17.1878556,47.741278 13.7101372,47.2238339 L13.7101373,47.223833 C7.16235641,46.2495993 2.01097556,41.1269628 1.00011894,34.5847357 C0.33337298,30.2695803 0,26.5849099 0,23.5307246 C5.02173597e-16,15.6886816 1.73414747,7.03420573 6.20245308,3.61797058 Z" id="path-2"></path>
        <linearGradient x1="54.3753762%" y1="38.0753795%" x2="45.4689805%" y2="53.3134082%" id="linearGradient-4">
            <stop stop-color="#FFFFFF" offset="0%"></stop>
            <stop stop-color="#FFFFFF" stop-opacity="0" offset="100%"></stop>
        </linearGradient>
        <linearGradient x1="57.5479459%" y1="38.0753795%" x2="42.1835544%" y2="53.3134082%" id="linearGradient-5">
            <stop stop-color="#FFFFFF" offset="0%"></stop>
            <stop stop-color="#FFFFFF" stop-opacity="0" offset="100%"></stop>
        </linearGradient>
        <linearGradient x1="54.5922031%" y1="38.0753795%" x2="45.2444405%" y2="53.3134082%" id="linearGradient-6">
            <stop stop-color="#FFFFFF" offset="0%"></stop>
            <stop stop-color="#FFFFFF" stop-opacity="0" offset="100%"></stop>
        </linearGradient>
    </defs>
    <g id="元素" stroke="none" stroke-width="1" fill="none" fill-rule="evenodd">
        <g id="图标切图" transform="translate(-185.000000, -584.000000)">
            <g id="编组-19" transform="translate(185.000000, 584.000000)">
                <g id="编组-5复制-17">
                    <g id="路径-2">
                        <mask id="mask-3" fill="white">
                            <use xlink:href="#path-2"></use>
                        </mask>
                        <use id="蒙版" fill="url(#linearGradient-1)" xlink:href="#path-2"></use>
                        <path d="M37.0133561,-46.9128231 C26.6639976,-18.3269401 27.3548745,10.912351 35.1169265,23.0820156 C42.8789786,35.2516801 57.5035695,44.7727086 58.3033175,61.0670435 C59.1030656,77.3613784 54.8829284,95.779233 44.9475105,99.7603 C35.0120927,103.741367 13.9351994,104.338768 10.4374097,86.6018577 C6.93962002,68.864947 3.76978976,-41.7804956 37.0133561,-46.9128231 Z" id="路径-2复制-3" fill="url(#linearGradient-4)" style="mix-blend-mode: overlay;" opacity="0.165527344" mask="url(#mask-3)" transform="translate(33.375296, 27.573648) scale(-1, 1) rotate(-68.000000) translate(-33.375296, -27.573648) "></path>
                        <path d="M29.353875,-54.2203716 C19.0045165,-25.6344887 19.6953934,3.6048025 27.4574454,15.774467 C35.2194975,27.9441315 49.8440884,37.4651601 50.6438364,53.759495 C51.4435845,70.0538298 47.2234473,88.4716844 37.2880294,92.4527514 C27.3526116,96.4338184 6.27571828,97.0312198 2.7779286,79.2943091 C-0.719861084,61.5573985 -48.678541,-44.9863061 29.353875,-54.2203716 Z" id="路径-2复制-2" fill="url(#linearGradient-5)" opacity="0.087937128" mask="url(#mask-3)" transform="translate(17.872802, 20.266099) rotate(-10.000000) translate(-17.872802, -20.266099) "></path>
                        <path d="M28.9138303,-28.8219093 C18.5644718,-0.236026367 19.2553486,29.0032648 27.0174007,41.1729293 C34.7794527,53.3425938 49.4040437,62.8636224 50.2037917,79.1579573 C51.0035397,95.4522921 46.7834026,113.870147 36.8479847,117.851214 C26.9125668,121.832281 5.83567353,122.429682 2.33788385,104.692771 C-1.15990583,86.9558608 -49.1185858,-19.5878438 28.9138303,-28.8219093 Z" id="路径-2复制-4" fill="url(#linearGradient-5)" opacity="0.139834449" mask="url(#mask-3)" transform="translate(17.432757, 45.664561) rotate(-13.000000) translate(-17.432757, -45.664561) "></path>
                        <path d="M10.1033035,-33.9936839 C-0.246055008,-5.40780095 0.44482186,23.8314902 8.20687391,36.0011547 C15.968926,48.1708193 30.5935169,57.6918478 31.3932649,73.9861827 C32.1930129,90.2805175 27.9728758,108.698372 18.0374579,112.679439 C8.10204003,116.660506 -12.9748532,117.257908 -16.4726429,99.5209968 C-19.9704326,81.7840862 -28.5125053,0.511693654 10.1033035,-33.9936839 Z" id="路径-2复制-5" fill="url(#linearGradient-6)" opacity="0.203311012" mask="url(#mask-3)" transform="translate(5.852713, 40.492787) rotate(6.000000) translate(-5.852713, -40.492787) "></path>
                    </g>
                    <path d="M14.8149855,10 L25.713423,10 C26.10405,10.0781254 26.6509195,10.1562496 27.354048,10.234375 C27.9790512,10.3125004 28.4868586,10.546873 28.8774855,10.9375 C29.2681125,11.4062523 29.463423,12.0312461 29.463423,12.8125 C29.463423,13.6718793 29.3462367,14.8437426 29.1118605,16.328125 L28.525923,19.2578125 C28.2915469,20.5078187 28.0181121,21.5234336 27.7056105,22.3046875 C27.3149836,23.1640668 26.8071762,23.7890605 26.182173,24.1796875 C25.7134207,24.4921891 25.1665512,24.7265617 24.541548,24.8828125 C23.9165449,25.0390633 23.0181164,25.1171875 21.8462355,25.1171875 L16.2212355,25.1171875 L13.984375,36.031318 L10,36.031318 L14.8149855,10 Z M25.010298,16.328125 C25.2446742,15.1562441 25.3618605,14.4921883 25.3618605,14.3359375 C25.3618605,14.0234359 25.2446742,13.7500012 25.010298,13.515625 C24.7759219,13.3593742 24.1509281,13.28125 23.135298,13.28125 L18.3306105,13.28125 L16.807173,21.953125 L21.3774855,21.953125 C21.8462379,21.953125 22.236859,21.9140629 22.5493605,21.8359375 C22.8618621,21.7578121 23.1352969,21.6015637 23.369673,21.3671875 C23.6040492,21.2109367 23.8384219,20.937502 24.072798,20.546875 C24.3071742,20.156248 24.5415469,19.2968816 24.775923,17.96875 L25.010298,16.328125 Z" id="P" fill="#FFFFFF" fill-rule="nonzero" opacity="0.806594122"></path>
                </g>
                <polygon id="矩形-2" fill="#000000" style="mix-blend-mode: soft-light;" opacity="0.563662574" points="32.1214798 21 40 21 40 40 14 40"></polygon>
                <path d="M29.2505744,32.8493713 C29.1399442,35.3241178 29.0846299,37.2176453 29.0846299,38.5300108 L27.7017595,38.5300108 L28.0336484,32.8493713 L29.2505744,32.8493713 Z M24.7147593,32.8493713 L25.9316853,32.8493713 C25.562918,34.5741946 25.0466516,36.4677222 24.3828704,38.5300108 L23,38.5300108 C23.7744113,36.430226 24.3459921,34.5366984 24.7147593,32.8493713 Z M29.6377781,31.8932241 L27.8123891,31.8932241 L26.7614076,39.8798658 L25.2125927,39.8798658 L26.3188891,31.8932241 L24.2722408,31.8932241 L24.4381853,30.5996131 L26.5401483,30.5996131 L26.7614076,28.7998066 C26.3557636,28.8373027 25.7473067,28.8747983 24.9360186,28.9122945 L25.1019631,27.5624396 C26.6507857,27.4499511 28.2917755,27.2624731 30.0249818,27 L29.8590374,28.4060989 L28.2549077,28.6310747 L27.9783336,30.5996131 L29.7484077,30.5996131 L29.6377781,31.8932241 Z M36.1862228,27.3219619 C36.4907958,27.3219619 36.7192222,27.3780588 36.8715087,27.4902544 C36.9857236,27.6398485 37.0237947,27.8455374 36.985723,28.1073271 L35.5009369,38.7097572 L36.5288658,38.7097572 L36.3004371,40 L28.5909703,40 L28.7622918,38.7097572 L29.8473279,38.7097572 L31.4463284,27.3219619 L36.1862228,27.3219619 Z M35.2725082,28.5561072 L32.8169003,28.5561072 L32.4171501,31.0804953 L35.0440796,31.0804953 L35.3867225,28.7243997 C35.3867225,28.6122041 35.3486515,28.5561072 35.2725082,28.5561072 Z M34.5301151,34.8390287 L34.8727581,32.3146406 L32.2458287,32.3146406 L31.9031857,34.8390287 L34.5301151,34.8390287 Z M31.3321141,38.7097572 L33.9590435,38.7097572 L34.3587936,36.073174 L31.7318642,36.073174 L31.3321141,38.7097572 Z" id="租" fill="#FFFFFF" fill-rule="nonzero"></path>
            </g>
        </g>
    </g>
</svg>