<?xml version="1.0" encoding="UTF-8"?>
<svg width="48px" height="48px" viewBox="0 0 48 48" version="1.1" xmlns="http://www.w3.org/2000/svg" xmlns:xlink="http://www.w3.org/1999/xlink">
    <!-- Generator: Sketch 55 (78076) - https://sketchapp.com -->
    <title>编组 23</title>
    <desc>Created with Sketch.</desc>
    <defs>
        <linearGradient x1="13.1447415%" y1="0%" x2="83.9381834%" y2="100%" id="linearGradient-1">
            <stop stop-color="#77E7BE" offset="0%"></stop>
            <stop stop-color="#3290CE" offset="100%"></stop>
        </linearGradient>
        <path d="M6.20245308,3.61797058 C10.6707587,0.201735416 15.3023245,-2.47806169e-14 24.2472282,0 C27.0103049,6.71377555e-15 30.039976,0.109535597 33.3362413,0.328606791 L33.3362414,0.328604394 C40.8481707,0.827850404 46.8467835,6.78045555 47.4038499,14.2883184 C47.6362727,17.4207966 47.7524841,20.5015987 47.7524841,23.5307246 C47.7524841,26.8835371 47.6101095,30.241371 47.3253602,33.6042262 L47.3253622,33.6042263 C46.7300695,40.6345615 41.3489806,46.3172489 34.3615176,47.2946667 C30.9999457,47.7648889 27.628516,48 24.2472282,48 C20.7002192,48 17.1878556,47.741278 13.7101372,47.2238339 L13.7101373,47.223833 C7.16235641,46.2495993 2.01097556,41.1269628 1.00011894,34.5847357 C0.33337298,30.2695803 0,26.5849099 0,23.5307246 C5.02173597e-16,15.6886816 1.73414747,7.03420573 6.20245308,3.61797058 Z" id="path-2"></path>
        <linearGradient x1="54.3753762%" y1="38.0753795%" x2="45.4689805%" y2="53.3134082%" id="linearGradient-4">
            <stop stop-color="#FFFFFF" offset="0%"></stop>
            <stop stop-color="#FFFFFF" stop-opacity="0" offset="100%"></stop>
        </linearGradient>
        <linearGradient x1="57.5479459%" y1="38.0753795%" x2="42.1835544%" y2="53.3134082%" id="linearGradient-5">
            <stop stop-color="#FFFFFF" offset="0%"></stop>
            <stop stop-color="#FFFFFF" stop-opacity="0" offset="100%"></stop>
        </linearGradient>
        <linearGradient x1="54.5922031%" y1="38.0753795%" x2="45.2444405%" y2="53.3134082%" id="linearGradient-6">
            <stop stop-color="#FFFFFF" offset="0%"></stop>
            <stop stop-color="#FFFFFF" stop-opacity="0" offset="100%"></stop>
        </linearGradient>
    </defs>
    <g id="元素" stroke="none" stroke-width="1" fill="none" fill-rule="evenodd">
        <g id="图标切图" transform="translate(-97.000000, -672.000000)">
            <g id="编组-23" transform="translate(97.000000, 672.000000)">
                <g id="编组-5复制-16">
                    <g id="路径-2">
                        <mask id="mask-3" fill="white">
                            <use xlink:href="#path-2"></use>
                        </mask>
                        <use id="蒙版" fill="url(#linearGradient-1)" xlink:href="#path-2"></use>
                        <path d="M37.0133561,-46.9128231 C26.6639976,-18.3269401 27.3548745,10.912351 35.1169265,23.0820156 C42.8789786,35.2516801 57.5035695,44.7727086 58.3033175,61.0670435 C59.1030656,77.3613784 54.8829284,95.779233 44.9475105,99.7603 C35.0120927,103.741367 13.9351994,104.338768 10.4374097,86.6018577 C6.93962002,68.864947 3.76978976,-41.7804956 37.0133561,-46.9128231 Z" id="路径-2复制-3" fill="url(#linearGradient-4)" style="mix-blend-mode: overlay;" opacity="0.165527344" mask="url(#mask-3)" transform="translate(33.375296, 27.573648) scale(-1, 1) rotate(-68.000000) translate(-33.375296, -27.573648) "></path>
                        <path d="M29.353875,-54.2203716 C19.0045165,-25.6344887 19.6953934,3.6048025 27.4574454,15.774467 C35.2194975,27.9441315 49.8440884,37.4651601 50.6438364,53.759495 C51.4435845,70.0538298 47.2234473,88.4716844 37.2880294,92.4527514 C27.3526116,96.4338184 6.27571828,97.0312198 2.7779286,79.2943091 C-0.719861084,61.5573985 -48.678541,-44.9863061 29.353875,-54.2203716 Z" id="路径-2复制-2" fill="url(#linearGradient-5)" opacity="0.087937128" mask="url(#mask-3)" transform="translate(17.872802, 20.266099) rotate(-10.000000) translate(-17.872802, -20.266099) "></path>
                        <path d="M28.9138303,-28.8219093 C18.5644718,-0.236026367 19.2553486,29.0032648 27.0174007,41.1729293 C34.7794527,53.3425938 49.4040437,62.8636224 50.2037917,79.1579573 C51.0035397,95.4522921 46.7834026,113.870147 36.8479847,117.851214 C26.9125668,121.832281 5.83567353,122.429682 2.33788385,104.692771 C-1.15990583,86.9558608 -49.1185858,-19.5878438 28.9138303,-28.8219093 Z" id="路径-2复制-4" fill="url(#linearGradient-5)" opacity="0.139834449" mask="url(#mask-3)" transform="translate(17.432757, 45.664561) rotate(-13.000000) translate(-17.432757, -45.664561) "></path>
                        <path d="M10.1033035,-33.9936839 C-0.246055008,-5.40780095 0.44482186,23.8314902 8.20687391,36.0011547 C15.968926,48.1708193 30.5935169,57.6918478 31.3932649,73.9861827 C32.1930129,90.2805175 27.9728758,108.698372 18.0374579,112.679439 C8.10204003,116.660506 -12.9748532,117.257908 -16.4726429,99.5209968 C-19.9704326,81.7840862 -28.5125053,0.511693654 10.1033035,-33.9936839 Z" id="路径-2复制-5" fill="url(#linearGradient-6)" opacity="0.203311012" mask="url(#mask-3)" transform="translate(5.852713, 40.492787) rotate(6.000000) translate(-5.852713, -40.492787) "></path>
                    </g>
                </g>
                <g id="fun_icon_05" transform="translate(9.000000, 10.000000)">
                    <path d="M10.0485679,17.5142845 L5.30511905,17.5142845 C4.79035933,17.5142845 4.37308982,17.1032647 4.37308982,16.5962147 C4.37308982,16.0891646 4.79035929,15.6781448 5.30511905,15.6781448 L10.0485679,15.6781448 C10.5633277,15.6781448 10.9805972,16.0891646 10.9805972,16.5962147 C10.9805972,17.1032647 10.5633277,17.5142845 10.0485679,17.5142845 Z M10.0485679,22.8426703 L5.30511905,22.8426703 C4.79035933,22.8426703 4.37308982,22.4316505 4.37308982,21.9246005 C4.37308982,21.4175504 4.79035929,21.0065306 5.30511905,21.0065306 L10.0485679,21.0065306 C10.5633277,21.0065306 10.9805972,21.4175504 10.9805972,21.9246005 C10.9805972,22.4316505 10.5633277,22.8426703 10.0485679,22.8426703 Z" id="Shape" fill="#000000" fill-rule="nonzero" style="mix-blend-mode: overlay;" opacity="0.600000024"></path>
                    <path d="M13.3950654,22.3759322 C13.3950654,17.5560101 17.302416,13.6486595 22.1223382,13.6486595 C26.9422603,13.6486595 30.8496109,17.5560101 30.8496109,22.3759322 C30.8496109,27.1958544 26.9422603,31.103205 22.1223382,31.103205 C17.302416,31.103205 13.3950654,27.1958544 13.3950654,22.3759322 Z M25.8470224,23.7639535 L22.8910452,21.6119518 L22.8910452,18.7646971 C22.8910452,18.2576472 22.4737757,17.8466273 21.9590159,17.8466273 C21.4442562,17.8466273 21.0269867,18.2576472 21.0269867,18.7646971 L21.0269867,22.5381007 L24.7390261,25.2405771 C24.8990625,25.3574671 25.0930461,25.4205107 25.2922786,25.420381 C25.577899,25.420427 25.8597912,25.2915759 26.0425621,25.047966 C26.3485007,24.6402053 26.2609832,24.0653558 25.8470224,23.7639535 Z" id="Shape" fill="#FFFFFF" fill-rule="nonzero"></path>
                    <path d="M7.72527275,7.27417896 C7.21051303,7.27417896 6.79324352,6.86315909 6.79324352,6.35610907 L6.79324352,0.939496766 C6.79324352,0.432446785 7.21051299,0.0214268757 7.72527275,0.0214268757 C8.24003251,0.0214268757 8.65730198,0.432446746 8.65730194,0.939496766 L8.65730194,6.35610907 C8.65730194,6.86315906 8.24003248,7.27417896 7.72527275,7.27417896 Z M22.6509544,7.27417896 C22.1361947,7.27417896 21.7189252,6.86315909 21.7189252,6.35610907 L21.7189252,0.939496766 C21.7189252,0.432446785 22.1361947,0.0214268757 22.6509544,0.0214268757 C23.1657142,0.0214268757 23.5829837,0.432446746 23.5829837,0.939496766 L23.5829837,6.35610907 C23.5829837,6.86315906 23.1657142,7.27417896 22.6509544,7.27417896 Z" id="Combined-Shape" fill="#000000" style="mix-blend-mode: overlay;" opacity="0.690917969"></path>
                    <path d="M28.1029526,2.72973305 L25.4470421,2.72973305 L25.4470421,6.35610907 C25.4470421,7.87721318 24.195187,9.11031871 22.6509544,9.11031875 C21.1067218,9.11031879 19.8548668,7.87721318 19.8548668,6.35610907 L19.8548668,2.72973305 L10.5213604,2.72973305 L10.5213604,6.35610907 C10.5213604,7.87721318 9.26950535,9.11031871 7.72527275,9.11031875 C6.18104016,9.11031879 4.92918511,7.87721318 4.92918507,6.35610907 L4.92918507,2.72973305 L2.27327461,2.72973305 C1.03097287,2.72973305 0.0202337822,3.72528802 0.0202337822,4.94898336 L0.0202337822,26.7672355 C0.0202337822,27.9909308 1.03092626,28.9865317 2.27327461,28.9865317 L11.7111682,28.9865317 C12.225928,28.9865317 12.6431975,28.5755119 12.6431975,28.0684618 C12.6431975,27.5614118 12.225928,27.150392 11.7111682,27.150392 L2.27327461,27.150392 C2.05876808,27.150392 1.88429224,26.9785293 1.8842922,26.7672355 L1.8842922,11.7954895 L28.4918884,11.7954895 L28.4918884,13.3106721 C28.4918884,13.817722 28.9091578,14.228742 29.4239176,14.228742 C29.9386773,14.228742 30.3559468,13.8177221 30.3559468,13.3106721 L30.3559468,4.94898336 C30.3559934,3.72528802 29.3452543,2.72973305 28.1029526,2.72973305 Z" id="Shape" fill="#FFFFFF" fill-rule="nonzero" style="mix-blend-mode: overlay;" opacity="0.854422433"></path>
                </g>
            </g>
        </g>
    </g>
</svg>