<?xml version="1.0" encoding="UTF-8"?>
<svg width="48px" height="48px" viewBox="0 0 48 48" version="1.1" xmlns="http://www.w3.org/2000/svg" xmlns:xlink="http://www.w3.org/1999/xlink">
    <!-- Generator: Sketch 55 (78076) - https://sketchapp.com -->
    <title>编组 22</title>
    <desc>Created with Sketch.</desc>
    <defs>
        <linearGradient x1="13.1447415%" y1="0%" x2="83.9381834%" y2="100%" id="linearGradient-1">
            <stop stop-color="#F7808B" offset="0%"></stop>
            <stop stop-color="#A52739" offset="100%"></stop>
        </linearGradient>
        <path d="M6.20245308,3.61797058 C10.6707587,0.201735416 15.3023245,-2.47806169e-14 24.2472282,0 C27.0103049,6.71377555e-15 30.039976,0.109535597 33.3362413,0.328606791 L33.3362414,0.328604394 C40.8481707,0.827850404 46.8467835,6.78045555 47.4038499,14.2883184 C47.6362727,17.4207966 47.7524841,20.5015987 47.7524841,23.5307246 C47.7524841,26.8835371 47.6101095,30.241371 47.3253602,33.6042262 L47.3253622,33.6042263 C46.7300695,40.6345615 41.3489806,46.3172489 34.3615176,47.2946667 C30.9999457,47.7648889 27.628516,48 24.2472282,48 C20.7002192,48 17.1878556,47.741278 13.7101372,47.2238339 L13.7101373,47.223833 C7.16235641,46.2495993 2.01097556,41.1269628 1.00011894,34.5847357 C0.33337298,30.2695803 0,26.5849099 0,23.5307246 C5.02173597e-16,15.6886816 1.73414747,7.03420573 6.20245308,3.61797058 Z" id="path-2"></path>
        <linearGradient x1="54.3753762%" y1="38.0753795%" x2="45.4689805%" y2="53.3134082%" id="linearGradient-4">
            <stop stop-color="#FFFFFF" offset="0%"></stop>
            <stop stop-color="#FFFFFF" stop-opacity="0" offset="100%"></stop>
        </linearGradient>
        <linearGradient x1="57.5479459%" y1="38.0753795%" x2="42.1835544%" y2="53.3134082%" id="linearGradient-5">
            <stop stop-color="#FFFFFF" offset="0%"></stop>
            <stop stop-color="#FFFFFF" stop-opacity="0" offset="100%"></stop>
        </linearGradient>
        <linearGradient x1="54.5922031%" y1="38.0753795%" x2="45.2444405%" y2="53.3134082%" id="linearGradient-6">
            <stop stop-color="#FFFFFF" offset="0%"></stop>
            <stop stop-color="#FFFFFF" stop-opacity="0" offset="100%"></stop>
        </linearGradient>
    </defs>
    <g id="元素" stroke="none" stroke-width="1" fill="none" fill-rule="evenodd">
        <g id="图标切图" transform="translate(-185.000000, -672.000000)">
            <g id="编组-22" transform="translate(185.000000, 672.000000)">
                <g id="编组-5复制-18">
                    <g id="路径-2">
                        <mask id="mask-3" fill="white">
                            <use xlink:href="#path-2"></use>
                        </mask>
                        <use id="蒙版" fill="url(#linearGradient-1)" xlink:href="#path-2"></use>
                        <path d="M37.0133561,-46.9128231 C26.6639976,-18.3269401 27.3548745,10.912351 35.1169265,23.0820156 C42.8789786,35.2516801 57.5035695,44.7727086 58.3033175,61.0670435 C59.1030656,77.3613784 54.8829284,95.779233 44.9475105,99.7603 C35.0120927,103.741367 13.9351994,104.338768 10.4374097,86.6018577 C6.93962002,68.864947 3.76978976,-41.7804956 37.0133561,-46.9128231 Z" id="路径-2复制-3" fill="url(#linearGradient-4)" style="mix-blend-mode: overlay;" opacity="0.165527344" mask="url(#mask-3)" transform="translate(33.375296, 27.573648) scale(-1, 1) rotate(-68.000000) translate(-33.375296, -27.573648) "></path>
                        <path d="M29.353875,-54.2203716 C19.0045165,-25.6344887 19.6953934,3.6048025 27.4574454,15.774467 C35.2194975,27.9441315 49.8440884,37.4651601 50.6438364,53.759495 C51.4435845,70.0538298 47.2234473,88.4716844 37.2880294,92.4527514 C27.3526116,96.4338184 6.27571828,97.0312198 2.7779286,79.2943091 C-0.719861084,61.5573985 -48.678541,-44.9863061 29.353875,-54.2203716 Z" id="路径-2复制-2" fill="url(#linearGradient-5)" opacity="0.087937128" mask="url(#mask-3)" transform="translate(17.872802, 20.266099) rotate(-10.000000) translate(-17.872802, -20.266099) "></path>
                        <path d="M28.9138303,-28.8219093 C18.5644718,-0.236026367 19.2553486,29.0032648 27.0174007,41.1729293 C34.7794527,53.3425938 49.4040437,62.8636224 50.2037917,79.1579573 C51.0035397,95.4522921 46.7834026,113.870147 36.8479847,117.851214 C26.9125668,121.832281 5.83567353,122.429682 2.33788385,104.692771 C-1.15990583,86.9558608 -49.1185858,-19.5878438 28.9138303,-28.8219093 Z" id="路径-2复制-4" fill="url(#linearGradient-5)" opacity="0.139834449" mask="url(#mask-3)" transform="translate(17.432757, 45.664561) rotate(-13.000000) translate(-17.432757, -45.664561) "></path>
                        <path d="M10.1033035,-33.9936839 C-0.246055008,-5.40780095 0.44482186,23.8314902 8.20687391,36.0011547 C15.968926,48.1708193 30.5935169,57.6918478 31.3932649,73.9861827 C32.1930129,90.2805175 27.9728758,108.698372 18.0374579,112.679439 C8.10204003,116.660506 -12.9748532,117.257908 -16.4726429,99.5209968 C-19.9704326,81.7840862 -28.5125053,0.511693654 10.1033035,-33.9936839 Z" id="路径-2复制-5" fill="url(#linearGradient-6)" opacity="0.203311012" mask="url(#mask-3)" transform="translate(5.852713, 40.492787) rotate(6.000000) translate(-5.852713, -40.492787) "></path>
                    </g>
                </g>
                <g id="fun_icon_06" transform="translate(8.000000, 8.000000)" fill="#FFFFFF">
                    <path d="M6.9888,18.1096714 C4.66109429,18.6515899 3.42450063,19.1573804 1.82420296,22.1559956 C1.27864693,23.4204719 0.987683721,24.395925 0.11479408,26.8164939 C-0.285280338,28.9119118 0.805831712,29.4177023 1.71509175,29.7789813 C2.18790698,29.851237 2.51524059,29.8873649 2.55161099,29.8873649 C5.46124313,30.212516 14.7569614,30.108885 15.0115542,30.108885 C15.7025918,30.108885 16.3208887,30.1450129 16.9755559,30.1450129 C18.3212608,30.108885 18.8384844,29.0835611 18.2052266,28.3386182 C15.7986175,25.5075651 14.3356211,22.8785535 16.0814004,20.0967056 C16.226882,19.8799383 16.3359932,19.6631709 16.4451044,19.4102756 C16.8451789,18.4709504 16.226882,18.1819272 15.6449556,18.1096714 C12.3716195,17.7845204 9.89843214,17.6761367 6.9888,18.1096714 Z" id="Shape" fill-rule="nonzero" style="mix-blend-mode: soft-light;"></path>
                    <path d="M7.38887442,8.06611687 C7.38887442,12.5156102 11.0201135,16.1226373 15.499474,16.1226373 C19.9788345,16.1226373 23.6100736,12.5156102 23.6100736,8.06611687 C23.6100736,5.18779933 22.0642021,2.52812422 19.5547738,1.08896544 C17.0453456,-0.350193344 13.9536024,-0.350193344 11.4441742,1.08896544 C8.93474591,2.52812422 7.38887438,5.18779933 7.38887442,8.06611687 L7.38887442,8.06611687 Z" id="Shape" fill-rule="nonzero" style="mix-blend-mode: soft-light;"></path>
                    <path d="M24.7328194,30.5454217 C24.7295872,30.5454436 24.7263542,30.5454545 24.7231205,30.5454545 C24.4023214,30.5454545 24.1006944,30.4454403 23.8507398,30.2563695 C23.8415126,30.2496953 23.8174193,30.2327606 23.7821509,30.2078566 C22.3903812,29.2239515 19.8748407,27.2974818 18.6650519,25.4485132 C18.1528397,24.6723069 17.4545455,23.6142877 17.4545455,22.1071008 C17.4545455,19.5416954 19.4559257,17.4545455 21.9160004,17.4545455 C22.9890216,17.4545455 23.9330669,17.8528094 24.7309124,18.6402722 C25.5226063,17.8618744 26.4840808,17.4545455 27.5470546,17.4545455 C30.0024132,17.4545455 32,19.5416954 32,22.1071008 C32,22.8372712 31.8361316,23.4620356 31.609199,24 L30.2511637,24 C30.5419541,23.4673574 30.7696038,22.8592601 30.7696038,22.1070012 C30.7696038,20.2007535 29.3239062,18.6498353 27.546952,18.6498353 C26.6322287,18.6498353 25.8731375,19.0632408 25.2261056,19.91386 L24.7343982,20.5603665 L24.2388974,19.9166492 C23.5827408,19.0643366 22.8229319,18.6499349 21.9160004,18.6499349 C20.1343301,18.6499349 18.6848391,20.2008531 18.6848391,22.1071008 C18.6848391,23.2639389 19.2231951,24.0797922 19.6982935,24.7995163 C20.5072116,26.0357482 22.257612,27.6519148 24.5058711,29.2410854 C24.5589788,29.2786406 24.593222,29.3030464 24.6063451,29.3131076 C24.6180651,29.3219954 24.630029,29.3296663 24.6437399,29.3356796 L24.7328194,29.3999445 L24.7328194,30.5454217 Z" id="btn_cellection" fill-rule="nonzero"></path>
                    <path d="M25.651426,24.8181818 L26.8663102,24.8181818 L26.8663102,26.0416942 L25.651426,26.0416942 L25.651426,24.8181818 Z M27.7219251,24.8181818 L32,24.8181818 L32,26.0416942 L27.7219251,26.0416942 L27.7219251,24.8181818 Z M25.651426,27.0450037 L26.8663102,27.0450037 L26.8663102,28.2685161 L25.651426,28.2685161 L25.651426,27.0450037 Z M27.7219251,27.0450037 L32,27.0450037 L32,28.2685161 L27.7219251,28.2685161 L27.7219251,27.0450037 Z M25.651426,29.3159365 L26.8663102,29.3159365 L26.8663102,30.5394489 L25.651426,30.5394489 L25.651426,29.3159365 Z M27.7219251,29.3159365 L32,29.3159365 L32,30.5394489 L27.7219251,30.5394489 L27.7219251,29.3159365 Z" id="Combined-Shape"></path>
                </g>
            </g>
        </g>
    </g>
</svg>