<?xml version="1.0" encoding="UTF-8"?>
<svg width="48px" height="48px" viewBox="0 0 48 48" version="1.1" xmlns="http://www.w3.org/2000/svg" xmlns:xlink="http://www.w3.org/1999/xlink">
    <!-- Generator: Sketch 55 (78076) - https://sketchapp.com -->
    <title>编组 21</title>
    <desc>Created with Sketch.</desc>
    <defs>
        <linearGradient x1="13.1447415%" y1="0%" x2="83.9381834%" y2="100%" id="linearGradient-1">
            <stop stop-color="#FFAC28" offset="0%"></stop>
            <stop stop-color="#D2651C" offset="100%"></stop>
        </linearGradient>
        <path d="M6.20245308,3.61797058 C10.6707587,0.201735416 15.3023245,-2.47806169e-14 24.2472282,0 C27.0103049,6.71377555e-15 30.039976,0.109535597 33.3362413,0.328606791 L33.3362414,0.328604394 C40.8481707,0.827850404 46.8467835,6.78045555 47.4038499,14.2883184 C47.6362727,17.4207966 47.7524841,20.5015987 47.7524841,23.5307246 C47.7524841,26.8835371 47.6101095,30.241371 47.3253602,33.6042262 L47.3253622,33.6042263 C46.7300695,40.6345615 41.3489806,46.3172489 34.3615176,47.2946667 C30.9999457,47.7648889 27.628516,48 24.2472282,48 C20.7002192,48 17.1878556,47.741278 13.7101372,47.2238339 L13.7101373,47.223833 C7.16235641,46.2495993 2.01097556,41.1269628 1.00011894,34.5847357 C0.33337298,30.2695803 0,26.5849099 0,23.5307246 C5.02173597e-16,15.6886816 1.73414747,7.03420573 6.20245308,3.61797058 Z" id="path-2"></path>
        <linearGradient x1="54.3753762%" y1="38.0753795%" x2="45.4689805%" y2="53.3134082%" id="linearGradient-4">
            <stop stop-color="#FFFFFF" offset="0%"></stop>
            <stop stop-color="#FFFFFF" stop-opacity="0" offset="100%"></stop>
        </linearGradient>
        <linearGradient x1="57.5479459%" y1="38.0753795%" x2="42.1835544%" y2="53.3134082%" id="linearGradient-5">
            <stop stop-color="#FFFFFF" offset="0%"></stop>
            <stop stop-color="#FFFFFF" stop-opacity="0" offset="100%"></stop>
        </linearGradient>
        <linearGradient x1="54.5922031%" y1="38.0753795%" x2="45.2444405%" y2="53.3134082%" id="linearGradient-6">
            <stop stop-color="#FFFFFF" offset="0%"></stop>
            <stop stop-color="#FFFFFF" stop-opacity="0" offset="100%"></stop>
        </linearGradient>
    </defs>
    <g id="元素" stroke="none" stroke-width="1" fill="none" fill-rule="evenodd">
        <g id="图标切图" transform="translate(-273.000000, -672.000000)">
            <g id="编组-21" transform="translate(273.000000, 672.000000)">
                <g id="编组-5复制-20">
                    <g id="路径-2">
                        <mask id="mask-3" fill="white">
                            <use xlink:href="#path-2"></use>
                        </mask>
                        <use id="蒙版" fill="url(#linearGradient-1)" xlink:href="#path-2"></use>
                        <path d="M37.0133561,-46.9128231 C26.6639976,-18.3269401 27.3548745,10.912351 35.1169265,23.0820156 C42.8789786,35.2516801 57.5035695,44.7727086 58.3033175,61.0670435 C59.1030656,77.3613784 54.8829284,95.779233 44.9475105,99.7603 C35.0120927,103.741367 13.9351994,104.338768 10.4374097,86.6018577 C6.93962002,68.864947 3.76978976,-41.7804956 37.0133561,-46.9128231 Z" id="路径-2复制-3" fill="url(#linearGradient-4)" style="mix-blend-mode: overlay;" opacity="0.165527344" mask="url(#mask-3)" transform="translate(33.375296, 27.573648) scale(-1, 1) rotate(-68.000000) translate(-33.375296, -27.573648) "></path>
                        <path d="M29.353875,-54.2203716 C19.0045165,-25.6344887 19.6953934,3.6048025 27.4574454,15.774467 C35.2194975,27.9441315 49.8440884,37.4651601 50.6438364,53.759495 C51.4435845,70.0538298 47.2234473,88.4716844 37.2880294,92.4527514 C27.3526116,96.4338184 6.27571828,97.0312198 2.7779286,79.2943091 C-0.719861084,61.5573985 -48.678541,-44.9863061 29.353875,-54.2203716 Z" id="路径-2复制-2" fill="url(#linearGradient-5)" opacity="0.087937128" mask="url(#mask-3)" transform="translate(17.872802, 20.266099) rotate(-10.000000) translate(-17.872802, -20.266099) "></path>
                        <path d="M28.9138303,-28.8219093 C18.5644718,-0.236026367 19.2553486,29.0032648 27.0174007,41.1729293 C34.7794527,53.3425938 49.4040437,62.8636224 50.2037917,79.1579573 C51.0035397,95.4522921 46.7834026,113.870147 36.8479847,117.851214 C26.9125668,121.832281 5.83567353,122.429682 2.33788385,104.692771 C-1.15990583,86.9558608 -49.1185858,-19.5878438 28.9138303,-28.8219093 Z" id="路径-2复制-4" fill="url(#linearGradient-5)" opacity="0.139834449" mask="url(#mask-3)" transform="translate(17.432757, 45.664561) rotate(-13.000000) translate(-17.432757, -45.664561) "></path>
                        <path d="M10.1033035,-33.9936839 C-0.246055008,-5.40780095 0.44482186,23.8314902 8.20687391,36.0011547 C15.968926,48.1708193 30.5935169,57.6918478 31.3932649,73.9861827 C32.1930129,90.2805175 27.9728758,108.698372 18.0374579,112.679439 C8.10204003,116.660506 -12.9748532,117.257908 -16.4726429,99.5209968 C-19.9704326,81.7840862 -28.5125053,0.511693654 10.1033035,-33.9936839 Z" id="路径-2复制-5" fill="url(#linearGradient-6)" opacity="0.203311012" mask="url(#mask-3)" transform="translate(5.852713, 40.492787) rotate(6.000000) translate(-5.852713, -40.492787) "></path>
                    </g>
                </g>
                <g id="fun_icon_07" transform="translate(9.000000, 11.000000)" fill="#FFFFFF" fill-rule="nonzero">
                    <path d="M17.2979623,26.786554 L3.66512667,26.786554 C2.41340906,26.786554 1.38931601,25.9391599 1.38931601,24.9033986 L1.38931601,12.6952337 L0.683703349,12.1113748 C-0.20138056,11.3790003 -0.20138056,10.1805694 0.683703349,9.44819491 L3.17938051,7.38313114 L3.17938051,2.67151519 C3.17938051,2.0999553 3.63456271,1.63235284 4.19086678,1.63235284 L5.15419978,1.63235284 C5.71050385,1.63235284 6.16568605,2.0999553 6.16568605,2.67151519 L6.16568605,4.912063 L11.4120186,0.570928635 C12.2971026,-0.161445847 13.7454126,-0.161445847 14.6304965,0.570928635 L21.2955047,6.08598351 C15.9325394,6.85312004 11.8077974,11.5089893 11.8077974,17.1379476 C11.8077974,21.2549679 14.0143117,24.8514196 17.2979623,26.786554 Z M7.69090756,16.5599021 L7.69090756,15.0424186 C7.69090756,14.6069722 7.34410365,14.2506791 6.92025453,14.2506791 L5.4431863,14.2506791 C5.01930371,14.2506791 4.67253327,14.6069722 4.67253327,15.0424186 L4.67253327,16.5599021 C4.67253327,16.9953828 5.01930374,17.3516415 5.4431863,17.3516415 L6.92025453,17.3516415 C7.34410365,17.3516415 7.69090756,16.9953828 7.69090756,16.5599021 Z" id="Combined-Shape" style="mix-blend-mode: soft-light;"></path>
                    <path d="M22.7776566,7.31782946 C28.0672574,7.31782946 32.3553488,11.6492349 32.3553488,16.992266 C32.3553488,22.3352972 28.0672574,26.6666667 22.7776566,26.6666667 C17.4880915,26.6666667 13.2,22.3352971 13.2,16.992266 C13.2,11.649235 17.4880915,7.31782946 22.7776566,7.31782946 Z M20.79,14.2626263 C20.79,15.5122402 21.8242222,16.5252525 23.1,16.5252525 C24.3757778,16.5252525 25.41,15.5122402 25.41,14.2626263 C25.41,13.0130123 24.3757778,12 23.1,12 C21.8242222,12 20.79,13.0130123 20.79,14.2626263 Z M23.1,22.6666667 C23.1,22.6666667 26.59338,22.6356364 27.72,20.4040404 L27.72,19.7575758 C27.72,19.7575758 25.75518,17.8149495 23.1,17.8181818 C20.44482,17.8149495 18.48,19.7575758 18.48,19.7575758 L18.48,20.4040404 C19.60662,22.6356364 23.1,22.6666667 23.1,22.6666667 Z" id="形状结合"></path>
                </g>
            </g>
        </g>
    </g>
</svg>