<?xml version="1.0" encoding="UTF-8"?>
<svg width="48px" height="48px" viewBox="0 0 48 48" version="1.1" xmlns="http://www.w3.org/2000/svg" xmlns:xlink="http://www.w3.org/1999/xlink">
    <!-- Generator: Sketch 55 (78076) - https://sketchapp.com -->
    <title>编组 5复制 21</title>
    <desc>Created with Sketch.</desc>
    <defs>
        <linearGradient x1="13.1447415%" y1="0%" x2="83.9381834%" y2="100%" id="linearGradient-1">
            <stop stop-color="#4BD2FE" offset="0%"></stop>
            <stop stop-color="#4E66FA" offset="100%"></stop>
        </linearGradient>
        <path d="M6.20245308,3.61797058 C10.6707587,0.201735416 15.3023245,-2.47806169e-14 24.2472282,0 C27.0103049,6.71377555e-15 30.039976,0.109535597 33.3362413,0.328606791 L33.3362414,0.328604394 C40.8481707,0.827850404 46.8467835,6.78045555 47.4038499,14.2883184 C47.6362727,17.4207966 47.7524841,20.5015987 47.7524841,23.5307246 C47.7524841,26.8835371 47.6101095,30.241371 47.3253602,33.6042262 L47.3253622,33.6042263 C46.7300695,40.6345615 41.3489806,46.3172489 34.3615176,47.2946667 C30.9999457,47.7648889 27.628516,48 24.2472282,48 C20.7002192,48 17.1878556,47.741278 13.7101372,47.2238339 L13.7101373,47.223833 C7.16235641,46.2495993 2.01097556,41.1269628 1.00011894,34.5847357 C0.33337298,30.2695803 0,26.5849099 0,23.5307246 C5.02173597e-16,15.6886816 1.73414747,7.03420573 6.20245308,3.61797058 Z" id="path-2"></path>
        <linearGradient x1="54.3753762%" y1="38.0753795%" x2="45.4689805%" y2="53.3134082%" id="linearGradient-4">
            <stop stop-color="#FFFFFF" offset="0%"></stop>
            <stop stop-color="#FFFFFF" stop-opacity="0" offset="100%"></stop>
        </linearGradient>
        <linearGradient x1="57.5479459%" y1="38.0753795%" x2="42.1835544%" y2="53.3134082%" id="linearGradient-5">
            <stop stop-color="#FFFFFF" offset="0%"></stop>
            <stop stop-color="#FFFFFF" stop-opacity="0" offset="100%"></stop>
        </linearGradient>
        <linearGradient x1="54.5922031%" y1="38.0753795%" x2="45.2444405%" y2="53.3134082%" id="linearGradient-6">
            <stop stop-color="#FFFFFF" offset="0%"></stop>
            <stop stop-color="#FFFFFF" stop-opacity="0" offset="100%"></stop>
        </linearGradient>
    </defs>
    <g id="元素" stroke="none" stroke-width="1" fill="none" fill-rule="evenodd">
        <g id="图标切图" transform="translate(-361.000000, -672.000000)">
            <g id="编组-5复制-21" transform="translate(361.000000, 672.000000)">
                <g id="路径-2">
                    <mask id="mask-3" fill="white">
                        <use xlink:href="#path-2"></use>
                    </mask>
                    <use id="蒙版" fill="url(#linearGradient-1)" xlink:href="#path-2"></use>
                    <path d="M37.0133561,-46.9128231 C26.6639976,-18.3269401 27.3548745,10.912351 35.1169265,23.0820156 C42.8789786,35.2516801 57.5035695,44.7727086 58.3033175,61.0670435 C59.1030656,77.3613784 54.8829284,95.779233 44.9475105,99.7603 C35.0120927,103.741367 13.9351994,104.338768 10.4374097,86.6018577 C6.93962002,68.864947 3.76978976,-41.7804956 37.0133561,-46.9128231 Z" id="路径-2复制-3" fill="url(#linearGradient-4)" style="mix-blend-mode: overlay;" opacity="0.165527344" mask="url(#mask-3)" transform="translate(33.375296, 27.573648) scale(-1, 1) rotate(-68.000000) translate(-33.375296, -27.573648) "></path>
                    <path d="M29.353875,-54.2203716 C19.0045165,-25.6344887 19.6953934,3.6048025 27.4574454,15.774467 C35.2194975,27.9441315 49.8440884,37.4651601 50.6438364,53.759495 C51.4435845,70.0538298 47.2234473,88.4716844 37.2880294,92.4527514 C27.3526116,96.4338184 6.27571828,97.0312198 2.7779286,79.2943091 C-0.719861084,61.5573985 -48.678541,-44.9863061 29.353875,-54.2203716 Z" id="路径-2复制-2" fill="url(#linearGradient-5)" opacity="0.087937128" mask="url(#mask-3)" transform="translate(17.872802, 20.266099) rotate(-10.000000) translate(-17.872802, -20.266099) "></path>
                    <path d="M28.9138303,-28.8219093 C18.5644718,-0.236026367 19.2553486,29.0032648 27.0174007,41.1729293 C34.7794527,53.3425938 49.4040437,62.8636224 50.2037917,79.1579573 C51.0035397,95.4522921 46.7834026,113.870147 36.8479847,117.851214 C26.9125668,121.832281 5.83567353,122.429682 2.33788385,104.692771 C-1.15990583,86.9558608 -49.1185858,-19.5878438 28.9138303,-28.8219093 Z" id="路径-2复制-4" fill="url(#linearGradient-5)" opacity="0.139834449" mask="url(#mask-3)" transform="translate(17.432757, 45.664561) rotate(-13.000000) translate(-17.432757, -45.664561) "></path>
                    <path d="M10.1033035,-33.9936839 C-0.246055008,-5.40780095 0.44482186,23.8314902 8.20687391,36.0011547 C15.968926,48.1708193 30.5935169,57.6918478 31.3932649,73.9861827 C32.1930129,90.2805175 27.9728758,108.698372 18.0374579,112.679439 C8.10204003,116.660506 -12.9748532,117.257908 -16.4726429,99.5209968 C-19.9704326,81.7840862 -28.5125053,0.511693654 10.1033035,-33.9936839 Z" id="路径-2复制-5" fill="url(#linearGradient-6)" opacity="0.203311012" mask="url(#mask-3)" transform="translate(5.852713, 40.492787) rotate(6.000000) translate(-5.852713, -40.492787) "></path>
                </g>
                <g id="物业合同" transform="translate(8.000000, 8.000000)" fill="#FFFFFF" fill-rule="nonzero">
                    <path d="M24.0644848,31.9815758 C24.0644848,31.9815758 3.90545453,31.9815758 3.90545453,31.9815758 C2.25212122,31.9815758 0.9071515,30.7713939 0.9071515,29.2838788 C0.9071515,29.2838788 0.9071515,2.70448484 0.9071515,2.70448484 C0.9071515,1.21696969 2.25212122,0.006787875 3.90545453,0.006787875 C3.90545453,0.006787875 19.9238788,0.006787875 19.9238788,0.006787875 C19.9238788,0.006787875 27.0637576,5.87151516 27.0637576,5.87151516 C27.0637576,5.87151516 27.0637576,29.2838788 27.0637576,29.2838788 C27.0637576,30.7713939 25.7187879,31.9815758 24.0644848,31.9815758 Z" id="形状" style="mix-blend-mode: soft-light;" opacity="0.572102865"></path>
                    <path d="M3.90545453,1.97236363 C3.90545453,1.97236363 19.2208485,1.97236363 19.2208485,1.97236363 C19.2208485,1.97236363 19.5718788,2.26036363 19.5718788,2.26036363 C19.5718788,2.26036363 19.5718788,7.16024244 19.5718788,7.16024244 C19.5718788,7.16024244 25.0981818,7.16024244 25.0981818,7.16024244 C25.0981818,7.16024244 25.0981818,29.2838788 25.0981818,29.2838788 C25.0981818,29.6804848 24.6249697,30.016 24.0644848,30.016 C24.0644848,30.016 3.90545453,30.016 3.90545453,30.016 C3.34496969,30.016 2.87175756,29.6804848 2.87175756,29.2838788 C2.87175756,29.2838788 2.87175756,2.70448484 2.87175756,2.70448484 C2.87175756,2.30690909 3.34496969,1.97236363 3.90545453,1.97236363 Z M22.6991515,11.3086061 C22.6991515,10.9827879 22.4353939,10.7190303 22.1095758,10.7190303 C22.1095758,10.7190303 13.4647273,10.7190303 13.4647273,10.7190303 C13.1389091,10.7190303 12.8751515,10.9827879 12.8751515,11.3086061 C12.8751515,11.6344243 13.1389091,11.8981818 13.4647273,11.8981818 C13.4647273,11.8981818 22.1095758,11.8981818 22.1095758,11.8981818 C22.4353939,11.8981818 22.6991515,11.6344243 22.6991515,11.3086061 Z M9.16703031,14.2681212 C10.3907879,14.2681212 11.3866667,13.2722424 11.3866667,12.0475152 C11.3866667,12.0475152 11.3866667,10.5706667 11.3866667,10.5706667 C11.3866667,9.34593941 10.3907879,8.35006059 9.16703031,8.35006059 C9.16703031,8.35006059 7.69018181,8.35006059 7.69018181,8.35006059 C6.46545453,8.35006059 5.46957575,9.34593941 5.46957575,10.5706667 C5.46957575,10.5706667 5.46957575,12.0475152 5.46957575,12.0475152 C5.46957575,13.2722424 6.46545453,14.2681212 7.69018181,14.2681212 C7.69018181,14.2681212 9.16703031,14.2681212 9.16703031,14.2681212 Z M10.2075152,10.5706667 C10.2075152,10.5706667 10.2075152,12.0475152 10.2075152,12.0475152 C10.2075152,12.6225455 9.74109091,13.0889697 9.16703031,13.0889697 C9.16703031,13.0889697 7.69018181,13.0889697 7.69018181,13.0889697 C7.1151515,13.0889697 6.64872728,12.6225455 6.64872728,12.0475152 C6.64872728,12.0475152 6.64872728,10.5706667 6.64872728,10.5706667 C6.64872728,9.99660606 7.1151515,9.52921213 7.69018181,9.52921213 C7.69018181,9.52921213 9.16703031,9.52921213 9.16703031,9.52921213 C9.74109091,9.52921213 10.2075152,9.99660606 10.2075152,10.5706667 Z M6.4751515,16.3898182 C6.14933334,16.3898182 5.88557575,16.6535758 5.88557575,16.9793939 C5.88557575,17.3052121 6.14933334,17.5689697 6.4751515,17.5689697 C6.4751515,17.5689697 21.9961212,17.5689697 21.9961212,17.5689697 C22.3219394,17.5689697 22.585697,17.3052121 22.585697,16.9793939 C22.585697,16.6535758 22.3219394,16.3898182 21.9961212,16.3898182 C21.9961212,16.3898182 6.4751515,16.3898182 6.4751515,16.3898182 Z M6.4751515,20.2870303 C6.14933334,20.2870303 5.88557575,20.5507879 5.88557575,20.8766061 C5.88557575,21.2014545 6.14933334,21.4661818 6.4751515,21.4661818 C6.4751515,21.4661818 21.9961212,21.4661818 21.9961212,21.4661818 C22.3219394,21.4661818 22.585697,21.2014545 22.585697,20.8766061 C22.585697,20.5507879 22.3219394,20.2870303 21.9961212,20.2870303 C21.9961212,20.2870303 6.4751515,20.2870303 6.4751515,20.2870303 Z M6.4751515,24.3801212 C6.14933334,24.3801212 5.88557575,24.6438788 5.88557575,24.969697 C5.88557575,25.2945455 6.14933334,25.5592727 6.4751515,25.5592727 C6.4751515,25.5592727 15.12,25.5592727 15.12,25.5592727 C15.4458182,25.5592727 15.7095758,25.2945455 15.7095758,24.969697 C15.7095758,24.6438788 15.4458182,24.3801212 15.12,24.3801212 C15.12,24.3801212 6.4751515,24.3801212 6.4751515,24.3801212 Z" id="形状结合" style="mix-blend-mode: soft-light;"></path>
                </g>
                <g id="我的" transform="translate(27.000000, 21.000000)" fill="#FFFFFF" fill-rule="nonzero">
                    <path d="M15.8457386,7.77823276 C15.8457386,11.2418103 13.5275568,14.1814655 10.3352273,15.1842672 C11.9676136,16.0353448 13.0808239,17.7209052 13.0808239,19.6577586 L13.0808239,19.9019397 C13.0832386,20.037069 13.0832386,20.1674569 13.0808239,20.6178879 L13.0784091,21.2579741 L2.76491477,21.2579741 L2.76491477,19.6601293 C2.76491477,17.7232759 3.878125,16.0377155 5.51051136,15.1866379 C2.31818182,14.1814655 1.42108547e-14,11.2418103 1.42108547e-14,7.77823276 C1.42108547e-14,3.48965517 3.55454545,8.17124146e-14 7.92286932,8.17124146e-14 C12.2911932,8.17124146e-14 15.8457386,3.48965517 15.8457386,7.77823276 Z M12.494181,12.143991 C12.7596983,11.9025138 12.7810345,11.4871729 12.5439655,11.2191331 C12.3068966,10.9486785 11.8991379,10.9269456 11.6359914,11.1684229 C11.5150862,11.2770876 8.66077586,13.8150138 5.02176724,11.124957 C4.73491379,10.912457 4.33189655,10.9776558 4.12327586,11.2698433 C4.04030172,11.3857524 4,11.5209797 4,11.6537922 C4,11.8566331 4.0924569,12.0570592 4.26551724,12.1850422 C8.73663793,15.4884513 12.4586207,12.1777979 12.494181,12.143991 Z" id="形状结合"></path>
                </g>
            </g>
        </g>
    </g>
</svg>