<?xml version="1.0" encoding="UTF-8"?>
<svg width="48px" height="48px" viewBox="0 0 48 48" version="1.1" xmlns="http://www.w3.org/2000/svg" xmlns:xlink="http://www.w3.org/1999/xlink">
    <!-- Generator: Sketch 55 (78076) - https://sketchapp.com -->
    <title>编组 25</title>
    <desc>Created with Sketch.</desc>
    <defs>
        <linearGradient x1="13.1447415%" y1="0%" x2="83.9381834%" y2="100%" id="linearGradient-1">
            <stop stop-color="#FF6F75" offset="0%"></stop>
            <stop stop-color="#7145D3" offset="100%"></stop>
        </linearGradient>
        <path d="M6.20245308,3.61797058 C10.6707587,0.201735416 15.3023245,-2.47806169e-14 24.2472282,0 C27.0103049,6.71377555e-15 30.039976,0.109535597 33.3362413,0.328606791 L33.3362414,0.328604394 C40.8481707,0.827850404 46.8467835,6.78045555 47.4038499,14.2883184 C47.6362727,17.4207966 47.7524841,20.5015987 47.7524841,23.5307246 C47.7524841,26.8835371 47.6101095,30.241371 47.3253602,33.6042262 L47.3253622,33.6042263 C46.7300695,40.6345615 41.3489806,46.3172489 34.3615176,47.2946667 C30.9999457,47.7648889 27.628516,48 24.2472282,48 C20.7002192,48 17.1878556,47.741278 13.7101372,47.2238339 L13.7101373,47.223833 C7.16235641,46.2495993 2.01097556,41.1269628 1.00011894,34.5847357 C0.33337298,30.2695803 0,26.5849099 0,23.5307246 C5.02173597e-16,15.6886816 1.73414747,7.03420573 6.20245308,3.61797058 Z" id="path-2"></path>
        <linearGradient x1="54.3753762%" y1="38.0753795%" x2="45.4689805%" y2="53.3134082%" id="linearGradient-4">
            <stop stop-color="#FFFFFF" offset="0%"></stop>
            <stop stop-color="#FFFFFF" stop-opacity="0" offset="100%"></stop>
        </linearGradient>
        <linearGradient x1="57.5479459%" y1="38.0753795%" x2="42.1835544%" y2="53.3134082%" id="linearGradient-5">
            <stop stop-color="#FFFFFF" offset="0%"></stop>
            <stop stop-color="#FFFFFF" stop-opacity="0" offset="100%"></stop>
        </linearGradient>
        <linearGradient x1="54.5922031%" y1="38.0753795%" x2="45.2444405%" y2="53.3134082%" id="linearGradient-6">
            <stop stop-color="#FFFFFF" offset="0%"></stop>
            <stop stop-color="#FFFFFF" stop-opacity="0" offset="100%"></stop>
        </linearGradient>
    </defs>
    <g id="元素" stroke="none" stroke-width="1" fill="none" fill-rule="evenodd">
        <g id="图标切图" transform="translate(-185.000000, -761.000000)">
            <g id="编组-25" transform="translate(185.000000, 761.000000)">
                <g id="编组-5复制-23">
                    <g id="路径-2">
                        <mask id="mask-3" fill="white">
                            <use xlink:href="#path-2"></use>
                        </mask>
                        <use id="蒙版" fill="url(#linearGradient-1)" xlink:href="#path-2"></use>
                        <path d="M37.0133561,-46.9128231 C26.6639976,-18.3269401 27.3548745,10.912351 35.1169265,23.0820156 C42.8789786,35.2516801 57.5035695,44.7727086 58.3033175,61.0670435 C59.1030656,77.3613784 54.8829284,95.779233 44.9475105,99.7603 C35.0120927,103.741367 13.9351994,104.338768 10.4374097,86.6018577 C6.93962002,68.864947 3.76978976,-41.7804956 37.0133561,-46.9128231 Z" id="路径-2复制-3" fill="url(#linearGradient-4)" style="mix-blend-mode: overlay;" opacity="0.165527344" mask="url(#mask-3)" transform="translate(33.375296, 27.573648) scale(-1, 1) rotate(-68.000000) translate(-33.375296, -27.573648) "></path>
                        <path d="M29.353875,-54.2203716 C19.0045165,-25.6344887 19.6953934,3.6048025 27.4574454,15.774467 C35.2194975,27.9441315 49.8440884,37.4651601 50.6438364,53.759495 C51.4435845,70.0538298 47.2234473,88.4716844 37.2880294,92.4527514 C27.3526116,96.4338184 6.27571828,97.0312198 2.7779286,79.2943091 C-0.719861084,61.5573985 -48.678541,-44.9863061 29.353875,-54.2203716 Z" id="路径-2复制-2" fill="url(#linearGradient-5)" opacity="0.087937128" mask="url(#mask-3)" transform="translate(17.872802, 20.266099) rotate(-10.000000) translate(-17.872802, -20.266099) "></path>
                        <path d="M28.9138303,-28.8219093 C18.5644718,-0.236026367 19.2553486,29.0032648 27.0174007,41.1729293 C34.7794527,53.3425938 49.4040437,62.8636224 50.2037917,79.1579573 C51.0035397,95.4522921 46.7834026,113.870147 36.8479847,117.851214 C26.9125668,121.832281 5.83567353,122.429682 2.33788385,104.692771 C-1.15990583,86.9558608 -49.1185858,-19.5878438 28.9138303,-28.8219093 Z" id="路径-2复制-4" fill="url(#linearGradient-5)" opacity="0.139834449" mask="url(#mask-3)" transform="translate(17.432757, 45.664561) rotate(-13.000000) translate(-17.432757, -45.664561) "></path>
                        <path d="M10.1033035,-33.9936839 C-0.246055008,-5.40780095 0.44482186,23.8314902 8.20687391,36.0011547 C15.968926,48.1708193 30.5935169,57.6918478 31.3932649,73.9861827 C32.1930129,90.2805175 27.9728758,108.698372 18.0374579,112.679439 C8.10204003,116.660506 -12.9748532,117.257908 -16.4726429,99.5209968 C-19.9704326,81.7840862 -28.5125053,0.511693654 10.1033035,-33.9936839 Z" id="路径-2复制-5" fill="url(#linearGradient-6)" opacity="0.203311012" mask="url(#mask-3)" transform="translate(5.852713, 40.492787) rotate(6.000000) translate(-5.852713, -40.492787) "></path>
                    </g>
                    <g id="编组-9" transform="translate(10.000000, 8.000000)">
                        <path d="M26.0919551,11.7977343 C21.2810911,9.96571668 15.8194202,11.6926858 12.9436932,15.9967006 C12.7018215,16.3587028 12.4837933,16.7306287 12.2894113,17.1104755 L12.2894113,9.24383772 L12.2894113,5.99928822 C12.2894113,5.03149317 12.8718225,4.16291377 13.7560433,3.81215358 L22.9577507,0.161818505 C23.236096,0.0513782735 23.5183982,2.57571742e-14 23.7938278,2.57571742e-14 C25.0106467,2.57571742e-14 26.0919551,1.00299146 26.0919551,2.34888232 L26.0919551,11.7977343 Z M21.2038528,7.0862695 L21.2038528,10.0717678 L24.1304871,10.0717678 L24.1304871,7.0862695 L21.2038528,7.0862695 Z" id="Combined-Shape" fill="#000000" style="mix-blend-mode: soft-light;" opacity="0.842564174"></path>
                        <path d="M15.1127013,13.5978314 C14.2924741,14.2730999 13.5589075,15.0759277 12.9436932,15.9967006 C10.0080415,20.390403 10.5848354,26.2459845 14.3213354,29.9824504 C14.4020624,30.0634306 14.4839166,30.1430277 14.5668611,30.2212265 L4.17443857e-14,30.2212265 L4.26325641e-14,8.35396777 C4.24467181e-14,6.83641969 1.23021579,5.6062039 2.74776386,5.6062039 C3.133894,5.6062039 3.51568896,5.68758562 3.86825617,5.84504305 L13.4854297,10.1400978 C14.4752904,10.5821721 15.1127013,11.5649312 15.1127013,12.6490225 L15.1127013,13.5978314 Z M6.57075099,11.1912898 L6.57075099,14.1767881 L9.49738523,14.1767881 L9.49738523,11.1912898 L6.57075099,11.1912898 Z M6.57075099,16.7890769 L6.57075099,19.7745752 L9.49738523,19.7745752 L9.49738523,16.7890769 L6.57075099,16.7890769 Z M6.20493474,22.0136546 L6.20493474,27.9846157 L9.86320151,27.9846157 L9.86320151,22.0136546 L6.20493474,22.0136546 Z" id="Combined-Shape" fill="#FFFFFF" style="mix-blend-mode: soft-light;"></path>
                        <path d="M15.1127013,13.5978314 C14.2924741,14.2730999 13.5589075,15.0759277 12.9436932,15.9967006 C10.0080415,20.390403 10.5848354,26.2459845 14.3213354,29.9824504 C14.4020624,30.0634306 14.4839166,30.1430277 14.5668611,30.2212265 L2.84217094e-14,30.2212265 L2.93098879e-14,8.35396777 C2.91240418e-14,6.83641969 1.23021579,5.6062039 2.74776386,5.6062039 C3.133894,5.6062039 3.51568896,5.68758562 3.86825617,5.84504305 L13.4854297,10.1400978 C14.4752904,10.5821721 15.1127013,11.5649312 15.1127013,12.6490225 L15.1127013,13.5978314 Z M6.57075099,11.1912898 L6.57075099,14.1767881 L9.49738523,14.1767881 L9.49738523,11.1912898 L6.57075099,11.1912898 Z M6.57075099,16.7890769 L6.57075099,19.7745752 L9.49738523,19.7745752 L9.49738523,16.7890769 L6.57075099,16.7890769 Z M6.20493474,22.0136546 L6.20493474,27.9846157 L9.86320151,27.9846157 L9.86320151,22.0136546 L6.20493474,22.0136546 Z" id="Combined-Shape" fill="#FFFFFF" style="mix-blend-mode: soft-light;"></path>
                    </g>
                </g>
                <path d="M32.5776566,21 C37.8672574,21 42.1553488,25.3314055 42.1553488,30.6744366 C42.1553488,36.0174677 37.8672574,40.3488372 32.5776566,40.3488372 C27.2880915,40.3488372 23,36.0174677 23,30.6744366 C23,25.3314055 27.2880915,21 32.5776566,21 Z M30.59,27.9447968 C30.59,29.1944108 31.6242222,30.2074231 32.9,30.2074231 C34.1757778,30.2074231 35.21,29.1944108 35.21,27.9447968 C35.21,26.6951828 34.1757778,25.6821705 32.9,25.6821705 C31.6242222,25.6821705 30.59,26.6951828 30.59,27.9447968 Z M32.9,36.3488372 C32.9,36.3488372 36.39338,36.3178069 37.52,34.0862109 L37.52,33.4397463 C37.52,33.4397463 35.55518,31.49712 32.9,31.5003524 C30.24482,31.49712 28.28,33.4397463 28.28,33.4397463 L28.28,34.0862109 C29.40662,36.3178069 32.9,36.3488372 32.9,36.3488372 Z" id="形状结合" fill="#FFFFFF" fill-rule="nonzero"></path>
            </g>
        </g>
    </g>
</svg>