<?xml version="1.0" encoding="UTF-8"?>
<svg width="48px" height="48px" viewBox="0 0 48 48" version="1.1" xmlns="http://www.w3.org/2000/svg" xmlns:xlink="http://www.w3.org/1999/xlink">
    <!-- Generator: Sketch 55 (78076) - https://sketchapp.com -->
    <title>编组 24</title>
    <desc>Created with Sketch.</desc>
    <defs>
        <linearGradient x1="13.1447415%" y1="0%" x2="83.9381834%" y2="100%" id="linearGradient-1">
            <stop stop-color="#F997C9" offset="0%"></stop>
            <stop stop-color="#D96736" offset="100%"></stop>
        </linearGradient>
        <path d="M6.20245308,3.61797058 C10.6707587,0.201735416 15.3023245,-2.47806169e-14 24.2472282,0 C27.0103049,6.71377555e-15 30.039976,0.109535597 33.3362413,0.328606791 L33.3362414,0.328604394 C40.8481707,0.827850404 46.8467835,6.78045555 47.4038499,14.2883184 C47.6362727,17.4207966 47.7524841,20.5015987 47.7524841,23.5307246 C47.7524841,26.8835371 47.6101095,30.241371 47.3253602,33.6042262 L47.3253622,33.6042263 C46.7300695,40.6345615 41.3489806,46.3172489 34.3615176,47.2946667 C30.9999457,47.7648889 27.628516,48 24.2472282,48 C20.7002192,48 17.1878556,47.741278 13.7101372,47.2238339 L13.7101373,47.223833 C7.16235641,46.2495993 2.01097556,41.1269628 1.00011894,34.5847357 C0.33337298,30.2695803 0,26.5849099 0,23.5307246 C5.02173597e-16,15.6886816 1.73414747,7.03420573 6.20245308,3.61797058 Z" id="path-2"></path>
        <linearGradient x1="54.3753762%" y1="38.0753795%" x2="45.4689805%" y2="53.3134082%" id="linearGradient-4">
            <stop stop-color="#FFFFFF" offset="0%"></stop>
            <stop stop-color="#FFFFFF" stop-opacity="0" offset="100%"></stop>
        </linearGradient>
        <linearGradient x1="57.5479459%" y1="38.0753795%" x2="42.1835544%" y2="53.3134082%" id="linearGradient-5">
            <stop stop-color="#FFFFFF" offset="0%"></stop>
            <stop stop-color="#FFFFFF" stop-opacity="0" offset="100%"></stop>
        </linearGradient>
        <linearGradient x1="54.5922031%" y1="38.0753795%" x2="45.2444405%" y2="53.3134082%" id="linearGradient-6">
            <stop stop-color="#FFFFFF" offset="0%"></stop>
            <stop stop-color="#FFFFFF" stop-opacity="0" offset="100%"></stop>
        </linearGradient>
    </defs>
    <g id="元素" stroke="none" stroke-width="1" fill="none" fill-rule="evenodd">
        <g id="图标切图" transform="translate(-273.000000, -761.000000)">
            <g id="编组-24" transform="translate(273.000000, 761.000000)">
                <g id="编组-5复制-24">
                    <g id="路径-2">
                        <mask id="mask-3" fill="white">
                            <use xlink:href="#path-2"></use>
                        </mask>
                        <use id="蒙版" fill="url(#linearGradient-1)" xlink:href="#path-2"></use>
                        <path d="M37.0133561,-46.9128231 C26.6639976,-18.3269401 27.3548745,10.912351 35.1169265,23.0820156 C42.8789786,35.2516801 57.5035695,44.7727086 58.3033175,61.0670435 C59.1030656,77.3613784 54.8829284,95.779233 44.9475105,99.7603 C35.0120927,103.741367 13.9351994,104.338768 10.4374097,86.6018577 C6.93962002,68.864947 3.76978976,-41.7804956 37.0133561,-46.9128231 Z" id="路径-2复制-3" fill="url(#linearGradient-4)" style="mix-blend-mode: overlay;" opacity="0.165527344" mask="url(#mask-3)" transform="translate(33.375296, 27.573648) scale(-1, 1) rotate(-68.000000) translate(-33.375296, -27.573648) "></path>
                        <path d="M29.353875,-54.2203716 C19.0045165,-25.6344887 19.6953934,3.6048025 27.4574454,15.774467 C35.2194975,27.9441315 49.8440884,37.4651601 50.6438364,53.759495 C51.4435845,70.0538298 47.2234473,88.4716844 37.2880294,92.4527514 C27.3526116,96.4338184 6.27571828,97.0312198 2.7779286,79.2943091 C-0.719861084,61.5573985 -48.678541,-44.9863061 29.353875,-54.2203716 Z" id="路径-2复制-2" fill="url(#linearGradient-5)" opacity="0.087937128" mask="url(#mask-3)" transform="translate(17.872802, 20.266099) rotate(-10.000000) translate(-17.872802, -20.266099) "></path>
                        <path d="M28.9138303,-28.8219093 C18.5644718,-0.236026367 19.2553486,29.0032648 27.0174007,41.1729293 C34.7794527,53.3425938 49.4040437,62.8636224 50.2037917,79.1579573 C51.0035397,95.4522921 46.7834026,113.870147 36.8479847,117.851214 C26.9125668,121.832281 5.83567353,122.429682 2.33788385,104.692771 C-1.15990583,86.9558608 -49.1185858,-19.5878438 28.9138303,-28.8219093 Z" id="路径-2复制-4" fill="url(#linearGradient-5)" opacity="0.139834449" mask="url(#mask-3)" transform="translate(17.432757, 45.664561) rotate(-13.000000) translate(-17.432757, -45.664561) "></path>
                        <path d="M10.1033035,-33.9936839 C-0.246055008,-5.40780095 0.44482186,23.8314902 8.20687391,36.0011547 C15.968926,48.1708193 30.5935169,57.6918478 31.3932649,73.9861827 C32.1930129,90.2805175 27.9728758,108.698372 18.0374579,112.679439 C8.10204003,116.660506 -12.9748532,117.257908 -16.4726429,99.5209968 C-19.9704326,81.7840862 -28.5125053,0.511693654 10.1033035,-33.9936839 Z" id="路径-2复制-5" fill="url(#linearGradient-6)" opacity="0.203311012" mask="url(#mask-3)" transform="translate(5.852713, 40.492787) rotate(6.000000) translate(-5.852713, -40.492787) "></path>
                    </g>
                </g>
                <g id="Group" transform="translate(11.000000, 10.000000)">
                    <polygon id="Clip-2" points="0.0002 2.85576535e-05 26.632 2.85576535e-05 26.632 27.1334 0.0002 27.1334"></polygon>
                    <path d="M25.5172,11.1714 C26.1912,11.6684 26.6322,12.4674 26.6322,13.3654 L26.6322,24.4114 C26.6322,25.9084 25.4052,27.1334 23.9082,27.1334 L2.7242,27.1334 C1.2262,27.1334 0.0002,25.9084 0.0002,24.4114 L0.0002,13.3654 C0.0002,12.6534 0.2772,12.0034 0.7282,11.5164 L0.7322,11.5124 C0.7712,11.4694 0.8112,11.4294 0.8532,11.3904 L11.6572,0.7014 C12.7152,-0.1946 13.7742,-0.2316 14.8322,0.5874 L25.5172,11.1714 Z" id="Path" fill="#FFFFFF" style="mix-blend-mode: soft-light;"></path>
                    <path d="M4.6292,8.6364 L21.5002,8.6364 L21.5002,15.7084 L13.4482,22.0274 L4.6292,15.1894 L4.6292,8.6364 Z M7.4872,13.6074 L18.7632,13.6074 L18.7632,12.5104 L7.4872,12.5104 L7.4872,13.6074 Z M7.4872,15.9514 L18.7632,15.9514 L18.7632,14.8554 L7.4872,14.8554 L7.4872,15.9514 Z M7.4872,11.3364 L18.7632,11.3364 L18.7632,10.2394 L7.4872,10.2394 L7.4872,11.3364 Z" id="形状结合" fill="#FFFFFF" style="mix-blend-mode: overlay;" opacity="0.842006138"></path>
                    <polygon id="Path" fill="#000000" style="mix-blend-mode: overlay;" points="7.4872 13.6074 18.7632 13.6074 18.7632 12.5104 7.4872 12.5104"></polygon>
                    <polygon id="Path" fill="#000000" style="mix-blend-mode: overlay;" points="7.4872 15.9514 18.7632 15.9514 18.7632 14.8554 7.4872 14.8554"></polygon>
                    <polygon id="Path" fill="#000000" style="mix-blend-mode: overlay;" points="7.4872 11.3364 18.7632 11.3364 18.7632 10.2394 7.4872 10.2394"></polygon>
                    <path d="M24.8292,24.5854 L19.5342,19.5024 C19.3082,19.2844 18.9462,19.2924 18.7272,19.5184 C18.5102,19.7454 18.5172,20.1064 18.7432,20.3244 L24.0392,25.4064 C24.2672,25.6264 24.6282,25.6194 24.8462,25.3914 C25.0632,25.1644 25.0572,24.8034 24.8292,24.5854 L24.8292,24.5854 Z" id="Path" fill="#000000" style="mix-blend-mode: soft-light;"></path>
                    <path d="M2.9692,25.4064 L8.2652,20.3244 C8.4902,20.1064 8.4982,19.7454 8.2792,19.5184 C8.0612,19.2924 7.7002,19.2844 7.4732,19.5024 L2.1772,24.5854 C1.9512,24.8034 1.9442,25.1644 2.1612,25.3914 C2.3802,25.6194 2.7412,25.6264 2.9692,25.4064 L2.9692,25.4064 Z" id="Path" fill="#000000" style="mix-blend-mode: soft-light;"></path>
                </g>
            </g>
        </g>
    </g>
</svg>