<?xml version="1.0" encoding="UTF-8"?>
<svg width="48px" height="48px" viewBox="0 0 48 48" version="1.1" xmlns="http://www.w3.org/2000/svg" xmlns:xlink="http://www.w3.org/1999/xlink">
    <!-- Generator: Sketch 55 (78076) - https://sketchapp.com -->
    <title>编组 24备份 2</title>
    <desc>Created with Sketch.</desc>
    <defs>
        <linearGradient x1="13.1447415%" y1="0%" x2="83.9381834%" y2="100%" id="linearGradient-1">
            <stop stop-color="#FEA84B" offset="0%"></stop>
            <stop stop-color="#D2355F" offset="100%"></stop>
        </linearGradient>
        <path d="M6.20245308,3.61797058 C10.6707587,0.201735416 15.3023245,-2.47806169e-14 24.2472282,0 C27.0103049,6.71377555e-15 30.039976,0.109535597 33.3362413,0.328606791 L33.3362414,0.328604394 C40.8481707,0.827850404 46.8467835,6.78045555 47.4038499,14.2883184 C47.6362727,17.4207966 47.7524841,20.5015987 47.7524841,23.5307246 C47.7524841,26.8835371 47.6101095,30.241371 47.3253602,33.6042262 L47.3253622,33.6042263 C46.7300695,40.6345615 41.3489806,46.3172489 34.3615176,47.2946667 C30.9999457,47.7648889 27.628516,48 24.2472282,48 C20.7002192,48 17.1878556,47.741278 13.7101372,47.2238339 L13.7101373,47.223833 C7.16235641,46.2495993 2.01097556,41.1269628 1.00011894,34.5847357 C0.33337298,30.2695803 0,26.5849099 0,23.5307246 C5.02173597e-16,15.6886816 1.73414747,7.03420573 6.20245308,3.61797058 Z" id="path-2"></path>
        <linearGradient x1="54.3753762%" y1="38.0753795%" x2="45.4689805%" y2="53.3134082%" id="linearGradient-4">
            <stop stop-color="#FFFFFF" offset="0%"></stop>
            <stop stop-color="#FFFFFF" stop-opacity="0" offset="100%"></stop>
        </linearGradient>
        <linearGradient x1="57.5479459%" y1="38.0753795%" x2="42.1835544%" y2="53.3134082%" id="linearGradient-5">
            <stop stop-color="#FFFFFF" offset="0%"></stop>
            <stop stop-color="#FFFFFF" stop-opacity="0" offset="100%"></stop>
        </linearGradient>
        <linearGradient x1="54.5922031%" y1="38.0753795%" x2="45.2444405%" y2="53.3134082%" id="linearGradient-6">
            <stop stop-color="#FFFFFF" offset="0%"></stop>
            <stop stop-color="#FFFFFF" stop-opacity="0" offset="100%"></stop>
        </linearGradient>
    </defs>
    <g id="元素" stroke="none" stroke-width="1" fill="none" fill-rule="evenodd">
        <g id="图标切图" transform="translate(-360.000000, -761.000000)">
            <g id="编组-24备份-2" transform="translate(360.000000, 761.000000)">
                <g id="编组-24备份">
                    <g id="编组-5复制-24">
                        <g id="路径-2">
                            <mask id="mask-3" fill="white">
                                <use xlink:href="#path-2"></use>
                            </mask>
                            <use id="蒙版" fill="url(#linearGradient-1)" xlink:href="#path-2"></use>
                            <path d="M37.0133561,-46.9128231 C26.6639976,-18.3269401 27.3548745,10.912351 35.1169265,23.0820156 C42.8789786,35.2516801 57.5035695,44.7727086 58.3033175,61.0670435 C59.1030656,77.3613784 54.8829284,95.779233 44.9475105,99.7603 C35.0120927,103.741367 13.9351994,104.338768 10.4374097,86.6018577 C6.93962002,68.864947 3.76978976,-41.7804956 37.0133561,-46.9128231 Z" id="路径-2复制-3" fill="url(#linearGradient-4)" style="mix-blend-mode: overlay;" opacity="0.165527344" mask="url(#mask-3)" transform="translate(33.375296, 27.573648) scale(-1, 1) rotate(-68.000000) translate(-33.375296, -27.573648) "></path>
                            <path d="M29.353875,-54.2203716 C19.0045165,-25.6344887 19.6953934,3.6048025 27.4574454,15.774467 C35.2194975,27.9441315 49.8440884,37.4651601 50.6438364,53.759495 C51.4435845,70.0538298 47.2234473,88.4716844 37.2880294,92.4527514 C27.3526116,96.4338184 6.27571828,97.0312198 2.7779286,79.2943091 C-0.719861084,61.5573985 -48.678541,-44.9863061 29.353875,-54.2203716 Z" id="路径-2复制-2" fill="url(#linearGradient-5)" opacity="0.087937128" mask="url(#mask-3)" transform="translate(17.872802, 20.266099) rotate(-10.000000) translate(-17.872802, -20.266099) "></path>
                            <path d="M28.9138303,-28.8219093 C18.5644718,-0.236026367 19.2553486,29.0032648 27.0174007,41.1729293 C34.7794527,53.3425938 49.4040437,62.8636224 50.2037917,79.1579573 C51.0035397,95.4522921 46.7834026,113.870147 36.8479847,117.851214 C26.9125668,121.832281 5.83567353,122.429682 2.33788385,104.692771 C-1.15990583,86.9558608 -49.1185858,-19.5878438 28.9138303,-28.8219093 Z" id="路径-2复制-4" fill="url(#linearGradient-5)" opacity="0.139834449" mask="url(#mask-3)" transform="translate(17.432757, 45.664561) rotate(-13.000000) translate(-17.432757, -45.664561) "></path>
                            <path d="M10.1033035,-33.9936839 C-0.246055008,-5.40780095 0.44482186,23.8314902 8.20687391,36.0011547 C15.968926,48.1708193 30.5935169,57.6918478 31.3932649,73.9861827 C32.1930129,90.2805175 27.9728758,108.698372 18.0374579,112.679439 C8.10204003,116.660506 -12.9748532,117.257908 -16.4726429,99.5209968 C-19.9704326,81.7840862 -28.5125053,0.511693654 10.1033035,-33.9936839 Z" id="路径-2复制-5" fill="url(#linearGradient-6)" opacity="0.203311012" mask="url(#mask-3)" transform="translate(5.852713, 40.492787) rotate(6.000000) translate(-5.852713, -40.492787) "></path>
                        </g>
                    </g>
                    <g id="fun_icon_13" transform="translate(10.000000, 6.000000)">
                        <g id="支付方式">
                            <polygon id="Path-3" fill="#FFFFFF" style="mix-blend-mode: soft-light;" points="2.4062743 12.1760988 12.2924755 2.03342202 15.4606288 4.37609756 26.6024565 15.5544433 15.4606288 26.6958464 2.4062743 13.0448888"></polygon>
                            <path d="M14.575009,29.9631345 C14.575009,29.9631345 9.55576481,23.910249 9.20961003,23.7373094 C8.69037789,23.5643698 8.86345526,22.8726115 8.86345526,22.8726115 C8.86345526,22.8726115 10.4211517,20.2785177 10.5942291,19.0679406 C10.7673065,17.8573635 10.7673065,17.1656051 9.20961003,16.4738467 C7.82499092,15.7820884 7.1326814,16.9926655 7.1326814,16.9926655 C7.1326814,16.9926656 4.70959799,22.0079135 4.36344321,22.6996719 C4.01728844,23.3914302 3.49805629,24.7749469 4.36344321,25.4667053 C5.05575277,26.1584636 8.86345529,29.6172554 10.074997,30.8278325 C10.5942291,31.3466512 11.1134613,31.1737116 11.1134613,31.1737116 L19.940408,31.1737116 C21.8442593,31.1737116 22.3634915,29.9631345 22.3634915,29.9631345 L22.3634915,25.1208261 L16.3057829,29.9631345 L14.575009,29.9631345 L14.575009,29.9631345 Z" id="Shape" fill="#FFFFFF" fill-rule="nonzero" style="mix-blend-mode: soft-light;"></path>
                            <path d="M27.5558131,14.7444509 L13.3634673,0.390465165 C12.6711578,-0.128353583 11.8057709,-0.128353583 11.2865387,0.390465165 L0.555740691,11.4585987 C-0.136568866,11.9774175 -0.136568866,12.8421154 0.555740691,13.5338738 L5.74806229,18.895001 C6.26729444,18.0303031 6.61344922,17.3385447 6.78652662,16.8197259 L3.49805625,13.3609342 C2.9788241,12.8421154 2.9788241,12.1503571 3.32497888,11.8044779 L11.6326935,3.33043815 C12.1519256,2.81161941 12.8442352,2.81161941 13.19039,3.33043815 L24.6134975,14.7444509 C25.1327297,15.2632696 25.1327297,15.955028 24.7865749,16.3009072 L16.4788603,25.1208261 C15.9596282,25.6396448 15.2673186,25.6396448 14.9211638,25.1208261 L10.9403839,20.970276 C10.4211518,21.8349739 10.074997,22.5267323 9.90191959,22.8726115 L10.2480744,23.2184906 C11.1134613,23.910249 13.5365447,26.1584636 15.0942412,27.5419803 L16.3057829,27.5419803 L22.8827236,21.6620344 L22.8827236,21.8349739 L27.7288905,16.8197259 C28.0750453,16.1279676 28.0750453,15.2632696 27.5558131,14.7444509 L27.5558131,14.7444509 Z" id="Shape" fill="#FFFFFF" fill-rule="nonzero"></path>
                            <path d="M20.4596402,31.1737116 L11.4596161,31.1737116 C10.4211517,31.1737116 9.55576481,32.0384096 9.55576481,33.0760471 C9.55576481,34.1136846 10.4211517,34.805443 11.4596161,34.9783826 L20.4596402,34.9783826 C21.6711819,34.9783826 22.5365689,34.1136846 22.3634915,33.0760471 C22.3634915,32.0384096 21.4981046,31.1737116 20.4596402,31.1737116 Z" id="Path" fill="#000000" style="mix-blend-mode: soft-light;" opacity="0.489281064"></path>
                            <path d="M8.34422311,12.6691758 L7.82499096,12.6691758 C7.65191359,12.6691758 7.65191359,12.8421154 7.65191355,13.015055 C7.65191355,13.3609342 7.82499092,13.5338738 8.17114574,13.7068134 C9.03653266,13.8797529 9.72884222,14.0526925 10.5942291,14.2256321 C11.4596161,14.3985717 12.1519256,14.5715113 13.0173126,14.7444509 L11.4596161,16.3009072 C11.2865387,16.6467863 11.2865387,16.8197259 11.4596161,17.1656051 C11.8057709,17.5114843 11.9788482,17.3385447 12.325003,17.1656051 L14.4019317,15.0903301 L15.6134734,16.3009072 L13.5365447,18.3761822 C13.3634674,18.7220614 13.3634674,18.8950009 13.5365447,19.2408801 C13.8826995,19.5867593 14.0557769,19.4138197 14.4019317,19.2408801 L16.4788603,17.1656051 L18.2096342,18.895001 C18.3827116,19.0679406 18.555789,19.2408802 18.7288663,19.2408801 C18.9019437,19.2408801 19.0750211,19.0679406 19.2480985,18.895001 C19.4211759,18.7220614 19.5942533,18.5491218 19.4211759,18.3761822 C19.4211759,18.2032426 19.2480985,18.030303 19.0750211,17.8573635 L17.3442473,16.1279676 L19.4211759,14.0526925 C19.7673307,13.7068134 19.7673307,13.5338738 19.4211759,13.1879946 C19.0750211,12.8421154 18.9019438,12.8421154 18.555789,13.1879946 L16.4788603,15.2632696 L15.2673186,14.0526925 L17.3442473,11.9774175 C17.690402,11.6315383 17.690402,11.4585987 17.3442473,11.1127195 C16.9980925,10.7668404 16.8250151,10.7668404 16.4788603,11.1127195 L15.0942412,12.6691758 L13.8826995,7.99980699 C13.8826995,7.82686742 13.7096222,7.65392781 13.7096221,7.48098824 C13.5365447,7.48098824 13.5365447,7.30804867 13.19039,7.48098824 C13.0173126,7.48098824 12.8442352,7.65392781 12.8442352,7.65392781 C12.8442352,7.65392781 12.6711578,7.99980699 12.8442352,8.17274656 C13.0173126,9.03744449 13.3634673,9.90214245 13.5365447,10.93978 C13.7096221,11.8044779 14.0557769,12.6691759 14.2288543,13.7068134 L14.0557769,13.8797529 L8.34422311,12.6691758 L8.34422311,12.6691758 Z" id="Shape" fill="#000000" fill-rule="nonzero" style="mix-blend-mode: soft-light;"></path>
                        </g>
                    </g>
                </g>
            </g>
        </g>
    </g>
</svg>