<?xml version="1.0" encoding="UTF-8"?>
<svg width="48px" height="48px" viewBox="0 0 48 48" version="1.1" xmlns="http://www.w3.org/2000/svg" xmlns:xlink="http://www.w3.org/1999/xlink">
    <!-- Generator: Sketch 55 (78076) - https://sketchapp.com -->
    <title>编组 43</title>
    <desc>Created with Sketch.</desc>
    <defs>
        <linearGradient x1="13.1447415%" y1="0%" x2="83.9381834%" y2="100%" id="linearGradient-1">
            <stop stop-color="#FFAC28" offset="0%"></stop>
            <stop stop-color="#D2651C" offset="100%"></stop>
        </linearGradient>
        <path d="M6.20245308,3.61797058 C10.6707587,0.201735416 15.3023245,-2.47806169e-14 24.2472282,0 C27.0103049,6.71377555e-15 30.039976,0.109535597 33.3362413,0.328606791 L33.3362414,0.328604394 C40.8481707,0.827850404 46.8467835,6.78045555 47.4038499,14.2883184 C47.6362727,17.4207966 47.7524841,20.5015987 47.7524841,23.5307246 C47.7524841,26.8835371 47.6101095,30.241371 47.3253602,33.6042262 L47.3253622,33.6042263 C46.7300695,40.6345615 41.3489806,46.3172489 34.3615176,47.2946667 C30.9999457,47.7648889 27.628516,48 24.2472282,48 C20.7002192,48 17.1878556,47.741278 13.7101372,47.2238339 L13.7101373,47.223833 C7.16235641,46.2495993 2.01097556,41.1269628 1.00011894,34.5847357 C0.33337298,30.2695803 0,26.5849099 0,23.5307246 C5.02173597e-16,15.6886816 1.73414747,7.03420573 6.20245308,3.61797058 Z" id="path-2"></path>
        <linearGradient x1="54.3753762%" y1="38.0753795%" x2="45.4689805%" y2="53.3134082%" id="linearGradient-4">
            <stop stop-color="#FFFFFF" offset="0%"></stop>
            <stop stop-color="#FFFFFF" stop-opacity="0" offset="100%"></stop>
        </linearGradient>
        <linearGradient x1="57.5479459%" y1="38.0753795%" x2="42.1835544%" y2="53.3134082%" id="linearGradient-5">
            <stop stop-color="#FFFFFF" offset="0%"></stop>
            <stop stop-color="#FFFFFF" stop-opacity="0" offset="100%"></stop>
        </linearGradient>
        <linearGradient x1="54.5922031%" y1="38.0753795%" x2="45.2444405%" y2="53.3134082%" id="linearGradient-6">
            <stop stop-color="#FFFFFF" offset="0%"></stop>
            <stop stop-color="#FFFFFF" stop-opacity="0" offset="100%"></stop>
        </linearGradient>
    </defs>
    <g id="元素" stroke="none" stroke-width="1" fill="none" fill-rule="evenodd">
        <g id="图标切图" transform="translate(-185.000000, -848.000000)">
            <g id="编组-43" transform="translate(185.000000, 848.000000)">
                <g id="编组-5复制-9备份">
                    <g id="路径-2">
                        <mask id="mask-3" fill="white">
                            <use xlink:href="#path-2"></use>
                        </mask>
                        <use id="蒙版" fill="url(#linearGradient-1)" xlink:href="#path-2"></use>
                        <path d="M37.0133561,-46.9128231 C26.6639976,-18.3269401 27.3548745,10.912351 35.1169265,23.0820156 C42.8789786,35.2516801 57.5035695,44.7727086 58.3033175,61.0670435 C59.1030656,77.3613784 54.8829284,95.779233 44.9475105,99.7603 C35.0120927,103.741367 13.9351994,104.338768 10.4374097,86.6018577 C6.93962002,68.864947 3.76978976,-41.7804956 37.0133561,-46.9128231 Z" id="路径-2复制-3" fill="url(#linearGradient-4)" style="mix-blend-mode: overlay;" opacity="0.165527344" mask="url(#mask-3)" transform="translate(33.375296, 27.573648) scale(-1, 1) rotate(-68.000000) translate(-33.375296, -27.573648) "></path>
                        <path d="M29.353875,-54.2203716 C19.0045165,-25.6344887 19.6953934,3.6048025 27.4574454,15.774467 C35.2194975,27.9441315 49.8440884,37.4651601 50.6438364,53.759495 C51.4435845,70.0538298 47.2234473,88.4716844 37.2880294,92.4527514 C27.3526116,96.4338184 6.27571828,97.0312198 2.7779286,79.2943091 C-0.719861084,61.5573985 -48.678541,-44.9863061 29.353875,-54.2203716 Z" id="路径-2复制-2" fill="url(#linearGradient-5)" opacity="0.087937128" mask="url(#mask-3)" transform="translate(17.872802, 20.266099) rotate(-10.000000) translate(-17.872802, -20.266099) "></path>
                        <path d="M28.9138303,-28.8219093 C18.5644718,-0.236026367 19.2553486,29.0032648 27.0174007,41.1729293 C34.7794527,53.3425938 49.4040437,62.8636224 50.2037917,79.1579573 C51.0035397,95.4522921 46.7834026,113.870147 36.8479847,117.851214 C26.9125668,121.832281 5.83567353,122.429682 2.33788385,104.692771 C-1.15990583,86.9558608 -49.1185858,-19.5878438 28.9138303,-28.8219093 Z" id="路径-2复制-4" fill="url(#linearGradient-5)" opacity="0.139834449" mask="url(#mask-3)" transform="translate(17.432757, 45.664561) rotate(-13.000000) translate(-17.432757, -45.664561) "></path>
                        <path d="M10.1033035,-33.9936839 C-0.246055008,-5.40780095 0.44482186,23.8314902 8.20687391,36.0011547 C15.968926,48.1708193 30.5935169,57.6918478 31.3932649,73.9861827 C32.1930129,90.2805175 27.9728758,108.698372 18.0374579,112.679439 C8.10204003,116.660506 -12.9748532,117.257908 -16.4726429,99.5209968 C-19.9704326,81.7840862 -28.5125053,0.511693654 10.1033035,-33.9936839 Z" id="路径-2复制-5" fill="url(#linearGradient-6)" opacity="0.203311012" mask="url(#mask-3)" transform="translate(5.852713, 40.492787) rotate(6.000000) translate(-5.852713, -40.492787) "></path>
                    </g>
                </g>
                <g id="进度" transform="translate(7.000000, 8.000000)" fill-rule="nonzero">
                    <rect id="矩形" fill="#000000" opacity="0" x="0" y="0" width="34" height="34"></rect>
                    <path d="M12.8512741,28.3903781 C11.3543572,27.9141528 9.97640761,27.1763348 8.79639114,26.2192061 C8.33804092,25.8876461 7.67196222,25.9375403 7.2806112,26.3327491 C6.88926017,26.7279579 6.9096054,27.3301625 7.32691037,27.7031723 C8.72339379,28.8318442 10.352772,29.7015869 12.1220581,30.262765 C12.2389951,30.3010458 12.3622646,30.321249 12.4866661,30.322522 C13.0207516,30.3172223 13.4741625,29.9682917 13.563731,29.4936471 C13.6532995,29.0190025 13.3533772,28.5545604 12.8512741,28.3903781 L12.8512741,28.3903781 Z M16.1106488,29.296693 C15.9038315,29.4846476 15.7885378,29.7390913 15.7902357,30.0038179 C15.7919814,30.133966 15.8220107,30.2625436 15.8786255,30.3822791 C15.9347703,30.5028827 16.0132266,30.6140169 16.1106488,30.7109427 C16.2180434,30.798916 16.3413629,30.8696555 16.4752568,30.9200923 C16.7426801,31.0266359 17.0475368,31.0266359 17.3149601,30.9200923 C17.5925375,30.8295367 17.8111321,30.632492 17.9115914,30.3822791 C17.9682061,30.2625436 17.9982355,30.133966 17.9999812,30.0038179 C18.0025916,29.599198 17.7333712,29.2333705 17.3188067,29.0782104 C16.9042422,28.9230504 16.4267423,29.0094012 16.1106488,29.296693 Z" id="形状" fill="#FFFFFF" style="mix-blend-mode: soft-light;"></path>
                    <path d="M30.8570158,17 C30.8215771,22.8061863 27.1138493,27.9727813 21.5792525,29.9133418 C21.212563,30.0698335 20.7883929,30.0114516 20.4787296,29.7618681 C20.1690663,29.5122845 20.0253022,29.1129208 20.105729,28.725706 C20.1861558,28.3384912 20.4774257,28.0276884 20.8614382,27.9193182 C25.543403,26.2788733 28.6808556,21.910318 28.7142768,17 L30.8570158,17 Z M16,5.27853595 C12.1519172,5.57800891 8.67064139,7.73167724 6.72042059,11.0744738 C4.61425826,14.6845635 4.61387851,19.1329 6.71942442,22.7433421 C6.93054687,23.0721323 6.94259795,23.4890454 6.75081313,23.8292501 C6.55902832,24.1694547 6.19428271,24.3781819 5.80078269,24.372909 C5.40728267,24.3676361 5.04837713,24.1492119 4.86596352,23.803993 C2.37785241,19.5375543 2.37802287,14.2810456 4.86641069,10.0147652 C7.19904889,6.01551364 11.3859276,3.45604069 16,3.15183157 L16,5.27853595 Z" id="形状结合" fill="#FFFFFF" style="mix-blend-mode: soft-light;"></path>
                    <path d="M17,3.24836864e-14 C25.843059,0.0375849623 33,7.14616044 33,15.9096128 L30.8572706,15.9096128 C30.8572843,15.9397089 30.8571993,15.9697881 30.8570158,15.9998503 L28.7142838,15.9998503 C28.7144814,15.9697913 28.7145697,15.9397119 28.7145413,15.9096128 L26.5718119,15.9096128 C26.5718119,10.660856 22.292848,6.40151049 17,6.36400489 L17,3.19744231e-14 Z" id="形状结合" fill="#FFFFFF" opacity="0.91968936"></path>
                </g>
            </g>
        </g>
    </g>
</svg>