<?xml version="1.0" encoding="UTF-8"?>
<svg width="48px" height="48px" viewBox="0 0 48 48" version="1.1" xmlns="http://www.w3.org/2000/svg" xmlns:xlink="http://www.w3.org/1999/xlink">
    <!-- Generator: Sketch 55 (78076) - https://sketchapp.com -->
    <title>编组 42</title>
    <desc>Created with Sketch.</desc>
    <defs>
        <linearGradient x1="13.1447415%" y1="0%" x2="83.9381834%" y2="100%" id="linearGradient-1">
            <stop stop-color="#5DCAF2" offset="0%"></stop>
            <stop stop-color="#7066F2" offset="100%"></stop>
        </linearGradient>
        <path d="M6.20245308,3.61797058 C10.6707587,0.201735416 15.3023245,-2.47806169e-14 24.2472282,0 C27.0103049,6.71377555e-15 30.039976,0.109535597 33.3362413,0.328606791 L33.3362414,0.328604394 C40.8481707,0.827850404 46.8467835,6.78045555 47.4038499,14.2883184 C47.6362727,17.4207966 47.7524841,20.5015987 47.7524841,23.5307246 C47.7524841,26.8835371 47.6101095,30.241371 47.3253602,33.6042262 L47.3253622,33.6042263 C46.7300695,40.6345615 41.3489806,46.3172489 34.3615176,47.2946667 C30.9999457,47.7648889 27.628516,48 24.2472282,48 C20.7002192,48 17.1878556,47.741278 13.7101372,47.2238339 L13.7101373,47.223833 C7.16235641,46.2495993 2.01097556,41.1269628 1.00011894,34.5847357 C0.33337298,30.2695803 0,26.5849099 0,23.5307246 C5.02173597e-16,15.6886816 1.73414747,7.03420573 6.20245308,3.61797058 Z" id="path-2"></path>
        <linearGradient x1="54.3753762%" y1="38.0753795%" x2="45.4689805%" y2="53.3134082%" id="linearGradient-4">
            <stop stop-color="#FFFFFF" offset="0%"></stop>
            <stop stop-color="#FFFFFF" stop-opacity="0" offset="100%"></stop>
        </linearGradient>
        <linearGradient x1="57.5479459%" y1="38.0753795%" x2="42.1835544%" y2="53.3134082%" id="linearGradient-5">
            <stop stop-color="#FFFFFF" offset="0%"></stop>
            <stop stop-color="#FFFFFF" stop-opacity="0" offset="100%"></stop>
        </linearGradient>
        <linearGradient x1="54.5922031%" y1="38.0753795%" x2="45.2444405%" y2="53.3134082%" id="linearGradient-6">
            <stop stop-color="#FFFFFF" offset="0%"></stop>
            <stop stop-color="#FFFFFF" stop-opacity="0" offset="100%"></stop>
        </linearGradient>
    </defs>
    <g id="元素" stroke="none" stroke-width="1" fill="none" fill-rule="evenodd">
        <g id="图标切图" transform="translate(-273.000000, -848.000000)">
            <g id="编组-42" transform="translate(273.000000, 848.000000)">
                <g id="编组-5复制-10备份">
                    <g id="路径-2">
                        <mask id="mask-3" fill="white">
                            <use xlink:href="#path-2"></use>
                        </mask>
                        <use id="蒙版" fill="url(#linearGradient-1)" xlink:href="#path-2"></use>
                        <path d="M37.0133561,-46.9128231 C26.6639976,-18.3269401 27.3548745,10.912351 35.1169265,23.0820156 C42.8789786,35.2516801 57.5035695,44.7727086 58.3033175,61.0670435 C59.1030656,77.3613784 54.8829284,95.779233 44.9475105,99.7603 C35.0120927,103.741367 13.9351994,104.338768 10.4374097,86.6018577 C6.93962002,68.864947 3.76978976,-41.7804956 37.0133561,-46.9128231 Z" id="路径-2复制-3" fill="url(#linearGradient-4)" style="mix-blend-mode: overlay;" opacity="0.165527344" mask="url(#mask-3)" transform="translate(33.375296, 27.573648) scale(-1, 1) rotate(-68.000000) translate(-33.375296, -27.573648) "></path>
                        <path d="M29.353875,-54.2203716 C19.0045165,-25.6344887 19.6953934,3.6048025 27.4574454,15.774467 C35.2194975,27.9441315 49.8440884,37.4651601 50.6438364,53.759495 C51.4435845,70.0538298 47.2234473,88.4716844 37.2880294,92.4527514 C27.3526116,96.4338184 6.27571828,97.0312198 2.7779286,79.2943091 C-0.719861084,61.5573985 -48.678541,-44.9863061 29.353875,-54.2203716 Z" id="路径-2复制-2" fill="url(#linearGradient-5)" opacity="0.087937128" mask="url(#mask-3)" transform="translate(17.872802, 20.266099) rotate(-10.000000) translate(-17.872802, -20.266099) "></path>
                        <path d="M28.9138303,-28.8219093 C18.5644718,-0.236026367 19.2553486,29.0032648 27.0174007,41.1729293 C34.7794527,53.3425938 49.4040437,62.8636224 50.2037917,79.1579573 C51.0035397,95.4522921 46.7834026,113.870147 36.8479847,117.851214 C26.9125668,121.832281 5.83567353,122.429682 2.33788385,104.692771 C-1.15990583,86.9558608 -49.1185858,-19.5878438 28.9138303,-28.8219093 Z" id="路径-2复制-4" fill="url(#linearGradient-5)" opacity="0.139834449" mask="url(#mask-3)" transform="translate(17.432757, 45.664561) rotate(-13.000000) translate(-17.432757, -45.664561) "></path>
                        <path d="M10.1033035,-33.9936839 C-0.246055008,-5.40780095 0.44482186,23.8314902 8.20687391,36.0011547 C15.968926,48.1708193 30.5935169,57.6918478 31.3932649,73.9861827 C32.1930129,90.2805175 27.9728758,108.698372 18.0374579,112.679439 C8.10204003,116.660506 -12.9748532,117.257908 -16.4726429,99.5209968 C-19.9704326,81.7840862 -28.5125053,0.511693654 10.1033035,-33.9936839 Z" id="路径-2复制-5" fill="url(#linearGradient-6)" opacity="0.203311012" mask="url(#mask-3)" transform="translate(5.852713, 40.492787) rotate(6.000000) translate(-5.852713, -40.492787) "></path>
                    </g>
                </g>
                <g id="fun_icon_02" transform="translate(11.000000, 11.253702)">
                    <path d="M16.8638884,8.75249049 L24.6778419,12.2422224 C25.4821037,12.6014079 26,13.3998996 26,14.2807238 L26,28.5581395 L13.7209302,28.5581395 L13.7209302,10.7909918 C13.7209302,9.55798401 14.7204806,8.55843368 15.9534884,8.55843368 C16.2672191,8.55843368 16.5774275,8.62455633 16.8638884,8.75249049 Z M19.0596654,13.0963159 L19.0596654,15.5220333 L21.4375557,15.5220333 L21.4375557,13.0963159 L19.0596654,13.0963159 Z M19.0596654,17.644518 L19.0596654,20.0702353 L21.4375557,20.0702353 L21.4375557,17.644518 L19.0596654,17.644518 Z M18.7624397,21.8894874 L18.7624397,26.7408933 L21.7347815,26.7408933 L21.7347815,21.8894874 L18.7624397,21.8894874 Z" id="Combined-Shape" fill="#000000" style="mix-blend-mode: soft-light;" opacity="0.842564174"></path>
                    <path d="M4.16545561,0.94746628 L11.7003393,5.81800383 C12.336653,6.22931602 12.7209302,6.93528159 12.7209302,7.6929575 L12.7209302,28.7209302 L0.720930233,28.7209302 L0.720930233,2.82241995 C0.720930233,1.58941213 1.72048056,0.589861807 2.95348837,0.589861807 C3.38348547,0.589861807 3.80433416,0.714037915 4.16545561,0.94746628 Z M5.72093023,6.72093023 L5.72093023,9.72093023 L7.72093023,9.72093023 L7.72093023,6.72093023 L5.72093023,6.72093023 Z M5.72093023,13.7209302 L5.72093023,16.7209302 L7.72093023,16.7209302 L7.72093023,13.7209302 L5.72093023,13.7209302 Z M5.72093023,18.7209302 L5.72093023,25.7209302 L8.72093023,25.7209302 L8.72093023,18.7209302 L5.72093023,18.7209302 Z" id="Combined-Shape复制" fill="#FFFFFF" style="mix-blend-mode: soft-light;" transform="translate(6.720930, 14.655396) scale(-1, 1) translate(-6.720930, -14.655396) "></path>
                    <path d="M4.16545561,0.94746628 L11.7003393,5.81800383 C12.336653,6.22931602 12.7209302,6.93528159 12.7209302,7.6929575 L12.7209302,28.7209302 L0.720930233,28.7209302 L0.720930233,2.82241995 C0.720930233,1.58941213 1.72048056,0.589861807 2.95348837,0.589861807 C3.38348547,0.589861807 3.80433416,0.714037915 4.16545561,0.94746628 Z M5.72093023,6.72093023 L5.72093023,9.72093023 L7.72093023,9.72093023 L7.72093023,6.72093023 L5.72093023,6.72093023 Z M5.72093023,13.7209302 L5.72093023,16.7209302 L7.72093023,16.7209302 L7.72093023,13.7209302 L5.72093023,13.7209302 Z M5.72093023,18.7209302 L5.72093023,25.7209302 L8.72093023,25.7209302 L8.72093023,18.7209302 L5.72093023,18.7209302 Z" id="Combined-Shape复制" fill="#FFFFFF" style="mix-blend-mode: soft-light;" transform="translate(6.720930, 14.655396) scale(-1, 1) translate(-6.720930, -14.655396) "></path>
                </g>
                <g id="huangguan" transform="translate(34.000000, 14.253702) rotate(-20.000000) translate(-34.000000, -14.253702) translate(26.000000, 6.253702)" fill-rule="nonzero">
                    <rect id="矩形" fill="#000000" opacity="0" x="0" y="0" width="16" height="16"></rect>
                    <path d="M13.3814295,9.29135691 C13.3955653,9.0600125 13.5065831,8.77902041 13.7275842,8.55767448 C14.1937208,8.09188269 14.9863598,8.07464391 15.4587023,8.54698645 C15.9310449,9.019329 15.9258733,9.82403517 15.4600815,10.2901717 C15.006012,10.7442412 14.2985325,10.7728575 13.8013662,10.3984313 L8.89865753,12.6839485 C8.00396492,11.5189519 7.04790225,10.4163596 6.30870342,9.67716077 C5.13370827,8.50216561 4.12661883,7.78916973 3.31432758,7.09961859 L5.63673584,2.20897709 C5.21231711,1.78490314 5.24162303,1.00433125 5.70810437,0.538194672 C6.18630809,0.0599909531 6.99101428,0.0548193125 7.46370159,0.527506625 C7.93604412,0.999849156 7.91880534,1.7924882 7.44060164,2.27069192 C7.30544961,2.40584395 7.14650808,2.49203784 6.70657444,2.59236753 L6.5193613,5.27506627 L9.5920012,3.24468292 C9.26515395,2.89301184 9.30583748,2.17381 9.77231883,1.70767341 C10.2874135,1.1925787 11.116254,1.1870623 11.6251428,1.69595105 C12.1216196,2.19242787 12.1285151,3.03402505 11.6137652,3.54877497 C11.331394,3.83114616 10.8549141,4.01663542 10.4411834,3.87320878 L8.77453833,7.25993923 L8.79867261,7.2844183 L12.1492016,5.58122697 C12.1001912,5.17124132 12.2421668,4.76145667 12.5343159,4.46967053 C13.0494106,3.95457583 13.8782511,3.94905942 14.3871399,4.45794816 C14.8839615,4.95476975 14.890857,5.79602216 14.3757623,6.31111686 C13.93376,6.75277438 13.3848773,6.79242356 12.8870214,6.53970306 L10.7594113,9.51511625 L13.3814295,9.29135691 L13.3814295,9.29135691 Z M0.183075828,8.77695175 C0.735061516,8.22496606 1.82731053,7.10858275 2.60305558,7.76227725 C3.41534683,8.45182839 4.42278105,9.1644795 5.5977762,10.3394746 C6.34904217,11.0907406 7.29303769,12.1823001 8.1877303,13.3466072 C8.8652143,14.2202685 7.920874,15.1404745 7.2337363,15.8272674 L0.183075828,8.77695175 Z" id="形状" fill="#FFFFFF"></path>
                </g>
            </g>
        </g>
    </g>
</svg>