<?xml version="1.0" encoding="UTF-8"?>
<svg width="48px" height="48px" viewBox="0 0 48 48" version="1.1" xmlns="http://www.w3.org/2000/svg" xmlns:xlink="http://www.w3.org/1999/xlink">
    <!-- Generator: Sketch 55 (78076) - https://sketchapp.com -->
    <title>编组 46</title>
    <desc>Created with Sketch.</desc>
    <defs>
        <linearGradient x1="13.1447415%" y1="0%" x2="83.9381834%" y2="100%" id="linearGradient-1">
            <stop stop-color="#FF6F75" offset="0%"></stop>
            <stop stop-color="#7145D3" offset="100%"></stop>
        </linearGradient>
        <path d="M6.20245308,3.61797058 C10.6707587,0.201735416 15.3023245,-2.47806169e-14 24.2472282,0 C27.0103049,6.71377555e-15 30.039976,0.109535597 33.3362413,0.328606791 L33.3362414,0.328604394 C40.8481707,0.827850404 46.8467835,6.78045555 47.4038499,14.2883184 C47.6362727,17.4207966 47.7524841,20.5015987 47.7524841,23.5307246 C47.7524841,26.8835371 47.6101095,30.241371 47.3253602,33.6042262 L47.3253622,33.6042263 C46.7300695,40.6345615 41.3489806,46.3172489 34.3615176,47.2946667 C30.9999457,47.7648889 27.628516,48 24.2472282,48 C20.7002192,48 17.1878556,47.741278 13.7101372,47.2238339 L13.7101373,47.223833 C7.16235641,46.2495993 2.01097556,41.1269628 1.00011894,34.5847357 C0.33337298,30.2695803 0,26.5849099 0,23.5307246 C5.02173597e-16,15.6886816 1.73414747,7.03420573 6.20245308,3.61797058 Z" id="path-2"></path>
        <linearGradient x1="54.3753762%" y1="38.0753795%" x2="45.4689805%" y2="53.3134082%" id="linearGradient-4">
            <stop stop-color="#FFFFFF" offset="0%"></stop>
            <stop stop-color="#FFFFFF" stop-opacity="0" offset="100%"></stop>
        </linearGradient>
        <linearGradient x1="57.5479459%" y1="38.0753795%" x2="42.1835544%" y2="53.3134082%" id="linearGradient-5">
            <stop stop-color="#FFFFFF" offset="0%"></stop>
            <stop stop-color="#FFFFFF" stop-opacity="0" offset="100%"></stop>
        </linearGradient>
        <linearGradient x1="54.5922031%" y1="38.0753795%" x2="45.2444405%" y2="53.3134082%" id="linearGradient-6">
            <stop stop-color="#FFFFFF" offset="0%"></stop>
            <stop stop-color="#FFFFFF" stop-opacity="0" offset="100%"></stop>
        </linearGradient>
    </defs>
    <g id="元素" stroke="none" stroke-width="1" fill="none" fill-rule="evenodd">
        <g id="图标切图" transform="translate(-96.000000, -936.000000)">
            <g id="编组-46" transform="translate(96.000000, 936.000000)">
                <g id="编组-16备份">
                    <g id="编组-5复制-15">
                        <g id="路径-2">
                            <mask id="mask-3" fill="white">
                                <use xlink:href="#path-2"></use>
                            </mask>
                            <use id="蒙版" fill="url(#linearGradient-1)" xlink:href="#path-2"></use>
                            <path d="M37.0133561,-46.9128231 C26.6639976,-18.3269401 27.3548745,10.912351 35.1169265,23.0820156 C42.8789786,35.2516801 57.5035695,44.7727086 58.3033175,61.0670435 C59.1030656,77.3613784 54.8829284,95.779233 44.9475105,99.7603 C35.0120927,103.741367 13.9351994,104.338768 10.4374097,86.6018577 C6.93962002,68.864947 3.76978976,-41.7804956 37.0133561,-46.9128231 Z" id="路径-2复制-3" fill="url(#linearGradient-4)" style="mix-blend-mode: overlay;" opacity="0.165527344" mask="url(#mask-3)" transform="translate(33.375296, 27.573648) scale(-1, 1) rotate(-68.000000) translate(-33.375296, -27.573648) "></path>
                            <path d="M29.353875,-54.2203716 C19.0045165,-25.6344887 19.6953934,3.6048025 27.4574454,15.774467 C35.2194975,27.9441315 49.8440884,37.4651601 50.6438364,53.759495 C51.4435845,70.0538298 47.2234473,88.4716844 37.2880294,92.4527514 C27.3526116,96.4338184 6.27571828,97.0312198 2.7779286,79.2943091 C-0.719861084,61.5573985 -48.678541,-44.9863061 29.353875,-54.2203716 Z" id="路径-2复制-2" fill="url(#linearGradient-5)" opacity="0.087937128" mask="url(#mask-3)" transform="translate(17.872802, 20.266099) rotate(-10.000000) translate(-17.872802, -20.266099) "></path>
                            <path d="M28.9138303,-28.8219093 C18.5644718,-0.236026367 19.2553486,29.0032648 27.0174007,41.1729293 C34.7794527,53.3425938 49.4040437,62.8636224 50.2037917,79.1579573 C51.0035397,95.4522921 46.7834026,113.870147 36.8479847,117.851214 C26.9125668,121.832281 5.83567353,122.429682 2.33788385,104.692771 C-1.15990583,86.9558608 -49.1185858,-19.5878438 28.9138303,-28.8219093 Z" id="路径-2复制-4" fill="url(#linearGradient-5)" opacity="0.139834449" mask="url(#mask-3)" transform="translate(17.432757, 45.664561) rotate(-13.000000) translate(-17.432757, -45.664561) "></path>
                            <path d="M10.1033035,-33.9936839 C-0.246055008,-5.40780095 0.44482186,23.8314902 8.20687391,36.0011547 C15.968926,48.1708193 30.5935169,57.6918478 31.3932649,73.9861827 C32.1930129,90.2805175 27.9728758,108.698372 18.0374579,112.679439 C8.10204003,116.660506 -12.9748532,117.257908 -16.4726429,99.5209968 C-19.9704326,81.7840862 -28.5125053,0.511693654 10.1033035,-33.9936839 Z" id="路径-2复制-5" fill="url(#linearGradient-6)" opacity="0.203311012" mask="url(#mask-3)" transform="translate(5.852713, 40.492787) rotate(6.000000) translate(-5.852713, -40.492787) "></path>
                        </g>
                    </g>
                </g>
                <g id="展示" transform="translate(8.000000, 8.000000)">
                    <path d="M28.9516705,4.48320383 L3.2919631,4.48320383 C2.88034669,4.48320383 2.54664657,4.1512307 2.54664657,3.74160191 C2.54664657,3.33197313 2.88030797,3 3.2919631,3 L28.9516705,3 C29.3632869,3 29.696987,3.33197313 29.696987,3.74160191 C29.696987,4.1512307 29.3633256,4.48320383 28.9516705,4.48320383 Z" id="形状" fill="#FFFFFF" fill-rule="nonzero"></path>
                    <path d="M28.8710822,19.9999993 C28.6803576,19.9999993 28.4896331,19.9276234 28.3441403,19.7829103 C28.0530773,19.4932528 28.0530773,19.023542 28.3441403,18.7338845 C31.2321935,15.8596616 31.2321935,11.182941 28.3441403,8.30871816 C28.0530773,8.01906062 28.0530773,7.54934986 28.3441403,7.25969233 C28.6352034,6.97026602 29.1069997,6.97026602 29.3980627,7.25969233 C32.8673124,10.7123824 32.8673124,16.3302202 29.3980627,19.7829103 C29.258403,19.9221376 29.0687626,20.0002597 28.8710822,19.9999993 Z" id="路径" fill="#000000" fill-rule="nonzero" style="mix-blend-mode: soft-light;" opacity="0.209263393"></path>
                    <path d="M3.13318737,19.9999993 C2.94246286,19.9999993 2.75173835,19.9276234 2.60624556,19.7829103 C0.925546344,18.1102112 0,15.8866387 0,13.5213977 C0,11.1559639 0.925546344,8.93239138 2.60624556,7.25969233 C2.89730859,6.97026602 3.36910487,6.97026602 3.66016789,7.25969233 C3.95123092,7.54934986 3.95123092,8.01906062 3.66016789,8.30871816 C0.771998593,11.182941 0.771998593,15.8596616 3.66016789,18.7338845 C3.95123092,19.023542 3.95123092,19.4932528 3.66016789,19.7829103 C3.52051549,19.9221484 3.33087039,20.0002725 3.13318737,19.9999993 Z" id="路径" fill="#000000" fill-rule="nonzero" style="mix-blend-mode: soft-light;" opacity="0.209263393"></path>
                    <path d="M7,4 L24,4 L24,18 C24,19.1045695 23.1045695,20 22,20 L7,20 L7,4 Z" id="矩形" fill="#FFFFFF" style="mix-blend-mode: soft-light;" opacity="0.690755208"></path>
                    <path d="M22.6292906,23 L6.73401983,23 C6.32864226,23 6,22.6602153 6,22.2409477 L6,3.75905228 C6,3.33978467 6.32860412,3 6.73401983,3 C7.13943555,3 7.46803966,3.33978467 7.46803966,3.75905228 L7.46803966,21.4819349 L22.6293288,21.4819349 C23.6784897,21.4819349 24.5319603,20.5990233 24.5319603,19.5137951 L24.5319603,3.75905228 C24.5319603,3.33978467 24.8605645,3 25.2659802,3 C25.6713959,3 26,3.33978467 26,3.75905228 L26,19.5137951 C25.9999619,21.4360991 24.4878337,23 22.6292906,23 L22.6292906,23 Z" id="路径" fill="#FFFFFF" fill-rule="nonzero"></path>
                    <path d="M17.7224951,3.36528204 C17.3065037,3.36528204 16.9692568,3.03237126 16.9692568,2.62158547 C16.9692568,1.99615069 16.4540131,1.48739314 15.8208092,1.48739314 C15.1875662,1.48739314 14.6723224,1.99618934 14.6723224,2.62158547 C14.6723224,3.03237126 14.3351147,3.36528204 13.9190842,3.36528204 C13.5030537,3.36528204 13.1658459,3.03237126 13.1658459,2.62158547 C13.1658459,1.17600909 14.3568751,0 15.8207701,0 C17.2846651,0 18.4756942,1.17600909 18.4756942,2.62158547 C18.4757333,3.03237126 18.1385256,3.36528204 17.7224951,3.36528204 Z M6.75251893,29.9999999 C6.60189339,30.0000518 6.45475165,29.9552548 6.33030474,29.8714579 C5.98613052,29.6408474 5.89646675,29.1783897 6.12999957,28.8385224 L10.8284043,22.0013294 C11.0620546,21.6614621 11.5302552,21.5724952 11.8746251,21.8035308 C12.2187993,22.0341413 12.3084631,22.496599 12.0749303,22.8364663 L7.37652551,29.6736592 C7.230817,29.8856416 6.99384009,29.9999999 6.75251893,29.9999999 L6.75251893,29.9999999 Z M24.2474419,29.9999999 C24.0061208,29.9999999 23.769183,29.8858348 23.6234354,29.6736592 L18.9250697,22.836505 C18.6915369,22.4966376 18.7812007,22.0341799 19.1253749,21.8035694 C19.4697448,21.5725338 19.9380628,21.6613075 20.1715957,22.0013681 L24.8700004,28.838561 C25.1035332,29.1784284 25.0138695,29.640886 24.6696953,29.8714965 C24.5452297,29.9552807 24.3980756,30.0000637 24.2474419,29.9999999 L24.2474419,29.9999999 Z" id="形状" fill="#FFFFFF" fill-rule="nonzero" style="mix-blend-mode: soft-light;"></path>
                    <path d="M17.7841756,11.8714734 L13.8574819,11.8714734 C13.4414906,11.8714734 13.1042437,11.5385626 13.1042437,11.1277768 L13.1042437,7.25002704 C13.1042437,6.83924125 13.4414515,6.50633047 13.8574819,6.50633047 L17.7841756,6.50633047 C18.2001669,6.50633047 18.5374139,6.83924125 18.5374139,7.25002704 L18.5374139,11.1277768 C18.5373747,11.5385626 18.2001669,11.8714734 17.7841756,11.8714734 Z" id="路径" fill="#FFFFFF" fill-rule="nonzero" style="mix-blend-mode: soft-light;"></path>
                    <path d="M19.9043264,18.7955849 C18.2859952,18.7955849 16.9692568,17.4955555 16.9692568,15.8974755 C16.9692568,14.2993955 18.2859561,12.9993661 19.9043264,12.9993661 C21.5226576,12.9993661 22.8392786,14.2993955 22.8392786,15.8974755 C22.8392786,17.4955168 21.5226967,18.7955849 19.9043264,18.7955849 Z" id="路径" fill="#FFFFFF" fill-rule="nonzero" style="mix-blend-mode: overlay;" opacity="0.725516183"></path>
                    <path d="M14.5953392,18.7955849 L9.69361566,18.7955849 C9.42452697,18.7956537 9.17586542,18.6538786 9.04139103,18.4237172 C8.90675391,18.1936445 8.90675391,17.9100934 9.04139103,17.6800207 L11.4922528,13.4882202 C11.626768,13.2580348 11.8753687,13.1163526 12.1444774,13.1163526 C12.4135861,13.1163526 12.6621868,13.2579962 12.7967021,13.4882202 L15.2475638,17.6800207 C15.3822009,17.9100934 15.3822009,18.1936445 15.2475638,18.4237172 C15.1130776,18.6538669 14.8644235,18.7956377 14.5953392,18.7955849 L14.5953392,18.7955849 Z" id="路径" fill="#FFFFFF" fill-rule="nonzero" style="mix-blend-mode: soft-light;" opacity="0.602213542"></path>
                    <path d="M22.2308544,27 L9.76914557,27 C9.34436908,27 9,26.5523567 9,26 C9,25.4476433 9.34432912,25 9.76914557,25 L22.2308544,25 C22.6556309,25 23,25.4476433 23,26 C23,26.5523567 22.6556309,27 22.2308544,27 Z" id="路径" fill="#FFFFFF" fill-rule="nonzero" style="mix-blend-mode: overlay;"></path>
                </g>
            </g>
        </g>
    </g>
</svg>