<?xml version="1.0" encoding="UTF-8"?>
<svg width="77px" height="29px" viewBox="0 0 77 29" version="1.1" xmlns="http://www.w3.org/2000/svg" xmlns:xlink="http://www.w3.org/1999/xlink">
    <!-- Generator: Sketch 49.3 (51167) - http://www.bohemiancoding.com/sketch -->
    <title>已认证</title>
    <desc>Created with Sketch.</desc>
    <defs>
        <linearGradient x1="0%" y1="50%" x2="100%" y2="50%" id="linearGradient-1">
            <stop stop-color="#FFAB42" offset="0%"></stop>
            <stop stop-color="#FF8200" offset="100%"></stop>
        </linearGradient>
        <filter x="-46.7%" y="-27.8%" width="193.3%" height="177.8%" filterUnits="objectBoundingBox" id="filter-2">
            <feOffset dx="0" dy="2" in="SourceAlpha" result="shadowOffsetOuter1"></feOffset>
            <feGaussianBlur stdDeviation="2" in="shadowOffsetOuter1" result="shadowBlurOuter1"></feGaussianBlur>
            <feColorMatrix values="0 0 0 0 1   0 0 0 0 0.505882353   0 0 0 0 0.125490196  0 0 0 1 0" type="matrix" in="shadowBlurOuter1" result="shadowMatrixOuter1"></feColorMatrix>
            <feMerge>
                <feMergeNode in="shadowMatrixOuter1"></feMergeNode>
                <feMergeNode in="SourceGraphic"></feMergeNode>
            </feMerge>
        </filter>
        <path d="M42.3217421,8.22739578 L42.3153275,12.9182458 L40.3203916,14.6009746 L33.3669818,14.6139686 L33.3669818,18.3952355 L42.4756921,18.3952355 L41.7829169,19.9090417 L31.1411209,19.9090417 L31.1475354,11.4953979 L33.3605672,11.4953979 L33.3605672,13.1001624 L40.083052,13.0936654 L40.083052,9.74120195 L31,9.74120195 L31,8.22739578 L42.3217421,8.22739578 Z M53.0854153,8 L52.3028359,11.3459664 L53.6114112,11.3459664 L55.7025658,20 L53.4061445,20 L51.8666442,13.1001624 L50.2245105,20 L48.0114787,20 L50.8467252,8.00649702 L53.0854153,8 Z M44.1755571,11.4889009 L47.1647535,11.4889009 L47.1647535,18.3627504 L48.255233,18.3627504 L47.543214,19.9155387 L44.9773801,19.9155387 L44.9773801,13.0416892 L44.1755571,13.0416892 L44.1755571,11.4889009 Z M45.8561783,8.06497022 C46.0571696,8.06497022 46.2613652,8.12127718 46.4687711,8.2338928 C46.676177,8.34650841 46.8386782,8.50676669 46.9562795,8.71467244 C47.0738808,8.92257819 47.1326806,9.13914343 47.1326806,9.36437466 C47.1284042,9.59393726 47.0696044,9.80941968 46.9562795,10.0108284 C46.8429546,10.2122371 46.6879371,10.3714125 46.4912221,10.4883595 C46.2945072,10.6053065 46.0828281,10.6616134 45.8561783,10.6572821 C45.6252521,10.6572821 45.4103656,10.5988095 45.2115125,10.4818625 C45.0126594,10.3649155 44.8576418,10.2079057 44.7464551,10.0108284 C44.6352684,9.81375104 44.5786068,9.59826863 44.5764686,9.36437466 C44.5743304,9.13048069 44.630992,8.91391545 44.7464551,8.71467244 C44.8619182,8.51109806 45.0244194,8.35300544 45.2339635,8.24038982 C45.4435077,8.12777421 45.6509105,8.06930159 45.8561783,8.06497022 Z M61.5654963,11.2030319 L63.5925051,11.2030319 L63.5925051,18.4147266 L64.612424,18.4147266 L64.612424,9.66323768 L61.2255233,9.66323768 L61.2255233,8.1169464 L69,8.1169464 L68.2815665,9.66323768 L66.6458474,9.66323768 L66.6458474,12.6128858 L68.8075625,12.6128858 L68.089129,14.15268 L66.6458474,14.15268 L66.6458474,18.4147266 L68.8524646,18.4147266 L68.1340311,19.9805089 L61.0587441,19.9805089 L61.0587441,18.4147266 L61.5654963,18.4147266 L61.5654963,11.2030319 Z M59.8207292,12.0411478 L59.8079001,18.525176 L60.7444294,18.5121819 L60.070898,20 L57.7744767,19.993503 L57.7680621,13.6069302 L57.1201891,13.6069302 L57.1201891,12.0411478 L59.8207292,12.0411478 Z M58.7045915,8.02598809 C58.9098592,8.02598809 59.116193,8.08229505 59.3235989,8.19491067 C59.5310049,8.30752628 59.6913679,8.46561891 59.8046928,8.66919329 C59.9180177,8.87276767 59.9757484,9.09149856 59.9778866,9.32539253 C59.9800248,9.5592865 59.9255013,9.77368609 59.8143147,9.96859773 C59.6988515,10.1678407 59.5416958,10.3270162 59.3428427,10.4461289 C59.1439896,10.5652415 58.9312413,10.6226313 58.7045915,10.6182999 C58.4779417,10.6182999 58.2651934,10.5609102 58.0663403,10.4461289 C57.8674872,10.3313476 57.7103314,10.1732549 57.5948683,9.97184624 C57.4794052,9.77043754 57.4238127,9.55278947 57.4280891,9.31889551 C57.4280891,9.09366428 57.4868889,8.87709904 57.6044902,8.66919329 C57.7220915,8.46128754 57.8824545,8.30319491 58.0855841,8.19491067 C58.2887136,8.08662642 58.4950473,8.03031946 58.7045915,8.02598809 Z" id="path-3"></path>
        <filter x="-18.4%" y="-41.7%" width="136.8%" height="216.7%" filterUnits="objectBoundingBox" id="filter-4">
            <feOffset dx="0" dy="2" in="SourceAlpha" result="shadowOffsetOuter1"></feOffset>
            <feGaussianBlur stdDeviation="2" in="shadowOffsetOuter1" result="shadowBlurOuter1"></feGaussianBlur>
            <feColorMatrix values="0 0 0 0 1   0 0 0 0 0.396078431   0 0 0 0 0.0862745098  0 0 0 1 0" type="matrix" in="shadowBlurOuter1"></feColorMatrix>
        </filter>
    </defs>
    <g id="Page-1" stroke="none" stroke-width="1" fill="none" fill-rule="evenodd">
        <g id="租户_个人中心_01已认证" transform="translate(-298.000000, -98.000000)">
            <g id="item_01" transform="translate(18.000000, 74.000000)">
                <g id="已认证" transform="translate(280.000000, 24.000000)">
                    <path d="M14,0 L77,0 L77,28 L14,28 C6.2680135,28 9.46895252e-16,21.7319865 0,14 L0,14 C-9.46895252e-16,6.2680135 6.2680135,1.42034288e-15 14,0 Z" id="Rectangle-2" fill="url(#linearGradient-1)"></path>
                    <g id="实名认证" filter="url(#filter-2)" transform="translate(12.000000, 5.000000)" fill-rule="nonzero">
                        <path d="M6.70733945,0.42525081 C6.70733945,0.42525081 5.73853211,1.1333107 4.15321101,1.7528631 C2.7440367,2.28390801 1.33486239,2.3724155 1.33486239,2.3724155 L0.630275229,2.3724155 C0.277981651,2.3724155 0.0137614679,2.63793795 0.0137614679,2.9919679 L0.0137614679,9.89555178 C0.0137614679,11.6657015 0.982568807,13.5243587 2.7440367,15.2060009 C4.3293578,16.7106282 6.17889908,17.6842105 7.5,17.6842105 C6.17889908,17.6842105 6.70733945,0.42525081 6.70733945,0.42525081 Z" id="Shape" fill="#FFFFFF" opacity="0.600000024"></path>
                        <path d="M14.9862385,2.9919679 C14.9862385,2.63793795 14.7220183,2.3724155 14.3697248,2.3724155 L13.6651376,2.3724155 C13.6651376,2.3724155 12.5201835,2.3724155 11.287156,1.92987807 C11.1110092,1.84137058 10.9348624,1.84137058 10.7587156,1.7528631 C9.26146789,1.1333107 8.29266055,0.42525081 8.20458716,0.42525081 L7.85229358,0.0712208674 C7.67614679,-0.0172866183 7.32385321,-0.0172866183 7.14770642,0.0712208674 L6.70733945,0.42525081 C6.70733945,0.42525081 6.17889908,17.6842105 7.5,17.6842105 C8.82110092,17.6842105 10.6706422,16.7106282 12.2559633,15.2060009 C14.0174312,13.5243587 14.9862385,11.577194 14.9862385,9.89555178 L14.9862385,2.9919679 Z" id="Shape" fill="#FFFFFF"></path>
                        <path d="M10.846789,5.64719247 C10.7587156,5.64719247 10.7587156,5.55868498 10.6706422,5.55868498 C10.3183486,5.55868498 10.0541284,5.73569995 9.96605505,6.17823738 L7.5,11.4886865 L7.32385321,11.0461491 L5.12201835,6.17823738 L5.03394495,6.17823738 C4.94587156,5.91271493 4.76972477,5.73569995 4.59357798,5.64719247 C4.50550459,5.55868498 4.41743119,5.55868498 4.3293578,5.55868498 C3.97706422,5.55868498 3.80091743,5.73569995 3.80091743,5.91271493 C3.80091743,6.0897299 3.80091743,6.17823738 3.88899083,6.26674487 L6.79541284,12.4622689 C6.79541284,12.4622689 6.79541284,12.5507764 6.88348624,12.5507764 C6.97155963,12.7277913 7.23577982,12.9048063 7.5,12.9048063 C7.85229358,12.9048063 8.11651376,12.7277913 8.20458716,12.4622689 L11.1110092,6.26674487 C11.1110092,6.17823738 11.1990826,6.00122241 11.1990826,5.91271493 C11.1110092,5.73569995 10.9348624,5.64719247 10.846789,5.64719247 Z" id="Shape" fill="#FF8200"></path>
                    </g>
                    <g>
                        <use fill="black" fill-opacity="1" filter="url(#filter-4)" xlink:href="#path-3"></use>
                        <use fill="#FFFFFF" fill-rule="evenodd" xlink:href="#path-3"></use>
                    </g>
                </g>
            </g>
        </g>
    </g>
</svg>