<?xml version="1.0" encoding="UTF-8"?>
<svg width="16px" height="19px" viewBox="0 0 16 19" version="1.1" xmlns="http://www.w3.org/2000/svg" xmlns:xlink="http://www.w3.org/1999/xlink">
    <!-- Generator: Sketch 49.3 (51167) - http://www.bohemiancoding.com/sketch -->
    <title>实名认证</title>
    <desc>Created with Sketch.</desc>
    <defs></defs>
    <g id="Page-1" stroke="none" stroke-width="1" fill="none" fill-rule="evenodd">
        <g id="租户_个人中心_01已认证" transform="translate(-66.000000, -143.000000)" fill-rule="nonzero">
            <g id="item_01" transform="translate(18.000000, 74.000000)">
                <g id="头像" transform="translate(0.000000, 24.000000)">
                    <g id="实名认证" transform="translate(48.000000, 45.000000)">
                        <path d="M7.15449541,0.448875855 C7.15449541,0.448875855 6.12110092,1.1962724 4.43009174,1.85024438 C2.92697248,2.41079179 1.42385321,2.50421636 1.42385321,2.50421636 L0.672293578,2.50421636 C0.296513761,2.50421636 0.0146788991,2.78449006 0.0146788991,3.15818833 L0.0146788991,10.4453047 C0.0146788991,12.313796 1.04807339,14.275712 2.92697248,16.0507788 C4.61798165,17.6389964 6.59082569,18.6666667 8,18.6666667 C6.59082569,18.6666667 7.15449541,0.448875855 7.15449541,0.448875855 Z" id="Shape" fill="#FFCB44"></path>
                        <path d="M8.84550459,0.448875855 L8.37577982,0.0751775823 L8.84550459,0.448875855 Z M14.5761468,2.50421636 C14.5761468,2.50421636 13.3548624,2.50421636 12.039633,2.03709352 C13.4488073,2.50421636 14.5761468,2.50421636 14.5761468,2.50421636 Z" id="Shape" fill="#FFD464"></path>
                        <path d="M15.9853211,3.15818833 C15.9853211,2.78449006 15.7034862,2.50421636 15.3277064,2.50421636 L14.5761468,2.50421636 C14.5761468,2.50421636 13.3548624,2.50421636 12.039633,2.03709352 C11.8517431,1.94366895 11.6638532,1.94366895 11.4759633,1.85024438 C9.87889908,1.1962724 8.84550459,0.448875855 8.75155963,0.448875855 L8.37577982,0.0751775823 C8.18788991,-0.018246986 7.81211009,-0.018246986 7.62422018,0.0751775823 L7.15449541,0.448875855 C7.15449541,0.448875855 6.59082569,18.6666667 8,18.6666667 C9.40917431,18.6666667 11.3820183,17.6389964 13.0730275,16.0507788 C14.9519266,14.275712 15.9853211,12.2203715 15.9853211,10.4453047 L15.9853211,3.15818833 Z" id="Shape" fill="#FFD464"></path>
                        <path d="M4.24220183,6.61489736 C4.14825688,6.52147279 4.05431193,6.42804822 4.05431193,6.24119909 C4.05431193,6.05434995 4.24220183,5.86750081 4.61798165,5.86750081 C4.71192661,5.86750081 4.80587156,5.86750081 4.89981651,5.96092538 C4.71192661,5.77407625 4.5240367,5.58722711 4.33614679,5.58722711 C3.96036697,5.58722711 3.77247706,5.77407625 3.77247706,5.96092538 C3.77247706,6.05434995 3.77247706,6.24119909 3.86642202,6.33462366 L6.9666055,12.8743434 C7.06055046,13.0611926 7.15449541,13.1546171 7.34238532,13.2480417 L7.24844037,13.1546171 L4.24220183,6.61489736 Z M10.6304587,6.52147279 C10.7244037,6.05434995 10.9122936,5.86750081 11.3820183,5.86750081 C11.4759633,5.86750081 11.5699083,5.86750081 11.5699083,5.96092538 C11.4759633,5.77407625 11.2880734,5.58722711 11.0062385,5.58722711 C10.6304587,5.58722711 10.3486239,5.77407625 10.2546789,6.24119909 L7.71816514,11.659824 L8,12.1269469 L10.6304587,6.52147279 Z" id="Shape" fill="#FFBE64"></path>
                        <path d="M11.5699083,5.96092538 C11.4759633,5.96092538 11.4759633,5.86750081 11.3820183,5.86750081 C11.0062385,5.86750081 10.7244037,6.05434995 10.6304587,6.52147279 L8,12.1269469 L7.81211009,11.659824 L5.46348624,6.52147279 L5.36954128,6.52147279 C5.27559633,6.24119909 5.08770642,6.05434995 4.89981651,5.96092538 C4.80587156,5.86750081 4.71192661,5.86750081 4.61798165,5.86750081 C4.24220183,5.86750081 4.05431193,6.05434995 4.05431193,6.24119909 C4.05431193,6.42804822 4.05431193,6.52147279 4.14825688,6.61489736 L7.24844037,13.1546171 C7.24844037,13.1546171 7.24844037,13.2480417 7.34238532,13.2480417 C7.43633028,13.4348908 7.71816514,13.62174 8,13.62174 C8.37577982,13.62174 8.65761468,13.4348908 8.75155963,13.1546171 L11.8517431,6.61489736 C11.8517431,6.52147279 11.9456881,6.33462366 11.9456881,6.24119909 C11.8517431,6.05434995 11.6638532,5.96092538 11.5699083,5.96092538 Z" id="Shape" fill="#FFFFFF"></path>
                    </g>
                </g>
            </g>
        </g>
    </g>
</svg>