<?xml version="1.0" encoding="UTF-8"?>
<svg width="48px" height="48px" viewBox="0 0 48 48" version="1.1" xmlns="http://www.w3.org/2000/svg" xmlns:xlink="http://www.w3.org/1999/xlink">
    <!-- Generator: Sketch 49.3 (51167) - http://www.bohemiancoding.com/sketch -->
    <title>fun_icon_01</title>
    <desc>Created with Sketch.</desc>
    <defs>
        <linearGradient x1="13.2225486%" y1="17.9777626%" x2="84.0178648%" y2="83.8611348%" id="linearGradient-1">
            <stop stop-color="#83E6FF" offset="0%"></stop>
            <stop stop-color="#00BFFF" offset="100%"></stop>
        </linearGradient>
    </defs>
    <g id="Page-1" stroke="none" stroke-width="1" fill="none" fill-rule="evenodd">
        <g id="租户_个人中心_01已认证" transform="translate(-37.000000, -213.000000)">
            <g id="按钮" transform="translate(0.000000, 186.000000)">
                <g id="fun_icon_01" transform="translate(37.000000, 27.000000)">
                    <circle id="Oval" fill="url(#linearGradient-1)" cx="24" cy="24" r="24"></circle>
                    <g id="fun_icon_05" transform="translate(12.279070, 12.279070)">
                        <path d="M7.71169167,13.4411951 L4.07137043,13.4411951 C3.67632227,13.4411951 3.35609219,13.1257613 3.35609219,12.7366299 C3.35609219,12.3474984 3.67632224,12.0320646 4.07137043,12.0320646 L7.71169167,12.0320646 C8.10673983,12.0320646 8.42696991,12.3474984 8.42696991,12.7366299 C8.42696991,13.1257613 8.10673986,13.4411951 7.71169167,13.4411951 Z M7.71169167,17.5304214 L4.07137043,17.5304214 C3.67632227,17.5304214 3.35609219,17.2149876 3.35609219,16.8258562 C3.35609219,16.4367248 3.67632224,16.1212909 4.07137043,16.1212909 L7.71169167,16.1212909 C8.10673983,16.1212909 8.42696991,16.4367248 8.42696991,16.8258562 C8.42696991,17.2149876 8.10673986,17.5304214 7.71169167,17.5304214 Z" id="Shape" fill="#C5F5FF" fill-rule="nonzero" opacity="0.600000024"></path>
                        <path d="M10.2799339,17.1722271 C10.2799339,13.473217 13.2785983,10.4745526 16.9776084,10.4745526 C20.6766184,10.4745526 23.6752828,13.473217 23.6752828,17.1722271 C23.6752828,20.8712371 20.6766184,23.8699015 16.9776084,23.8699015 C13.2785983,23.8699015 10.2799339,20.8712371 10.2799339,17.1722271 Z M11.396213,17.1722271 C11.396213,20.2547354 13.8951,22.7536224 16.9776084,22.7536224 C20.0601167,22.7536224 22.5590037,20.2547354 22.5590037,17.1722271 C22.5590037,14.0897187 20.0601167,11.5908317 16.9776084,11.5908317 C13.8951,11.5908317 11.396213,14.0897187 11.396213,17.1722271 Z M19.836087,18.2374527 L17.5675463,16.5859165 L17.5675463,14.4008141 C17.5675463,14.0116827 17.2473162,13.6962488 16.852268,13.6962489 C16.4572199,13.6962489 16.1369898,14.0116827 16.1369898,14.4008141 L16.1369898,17.2966819 L18.9857642,19.3706754 C19.1085829,19.4603818 19.257454,19.508764 19.4103534,19.5086645 C19.6295504,19.5086998 19.8458863,19.409814 19.9861523,19.2228576 C20.2209424,18.909925 20.1537778,18.4687614 19.836087,18.2374527 Z" id="Shape" fill="#93ECFF" fill-rule="nonzero"></path>
                        <path d="M5.92869769,5.58250944 C5.53364953,5.58250944 5.21341945,5.26707558 5.21341945,4.87794417 L5.21341945,0.721009146 C5.21341945,0.331877765 5.5336495,0.0164438813 5.92869769,0.0164438813 C6.32374588,0.0164438813 6.64397594,0.331877735 6.64397591,0.721009146 L6.64397591,4.87794417 C6.64397591,5.26707555 6.32374585,5.58250944 5.92869769,5.58250944 Z M17.3832906,5.58250944 C16.9882424,5.58250944 16.6680124,5.26707558 16.6680124,4.87794417 L16.6680124,0.721009146 C16.6680124,0.331877765 16.9882424,0.0164438813 17.3832906,0.0164438813 C17.7783388,0.0164438813 18.0985689,0.331877735 18.0985689,0.721009146 L18.0985689,4.87794417 C18.0985689,5.26707555 17.7783388,5.58250944 17.3832906,5.58250944 Z" id="Combined-Shape" fill="#FFFFFF"></path>
                        <path d="M21.5673822,2.09491141 L19.5291253,2.09491141 L19.5291253,4.87794417 C19.5291253,6.04530314 18.5683993,6.99163994 17.3832906,6.99163997 C16.1981819,6.99164 15.2374559,6.04530314 15.2374559,4.87794417 L15.2374559,2.09491141 L8.0745324,2.09491141 L8.0745324,4.87794417 C8.0745324,6.04530314 7.11380643,6.99163994 5.92869769,6.99163997 C4.74358896,6.99164 3.78286299,6.04530314 3.78286296,4.87794417 L3.78286296,2.09491141 L1.7446061,2.09491141 C0.791211738,2.09491141 0.0155282514,2.85894197 0.0155282514,3.798057 L0.0155282514,20.542297 C0.0155282514,21.481412 0.791175965,22.2454778 1.7446061,22.2454778 L8.98764075,22.2454778 C9.38268891,22.2454778 9.70291899,21.930044 9.70291899,21.5409126 C9.70291899,21.1517812 9.38268894,20.8363473 8.98764075,20.8363473 L1.7446061,20.8363473 C1.5799848,20.8363473 1.44608474,20.7044527 1.44608471,20.542297 L1.44608471,9.05235243 L21.8658678,9.05235243 L21.8658678,10.2151669 C21.8658678,10.6042983 22.1860979,10.9197322 22.581146,10.9197322 C22.9761942,10.9197322 23.2964243,10.6042983 23.2964243,10.2151669 L23.2964243,3.798057 C23.29646,2.85894197 22.5207766,2.09491141 21.5673822,2.09491141 Z" id="Shape" fill="#FFFFFF" fill-rule="nonzero"></path>
                    </g>
                </g>
            </g>
        </g>
    </g>
</svg>