<?xml version="1.0" encoding="UTF-8"?>
<svg width="48px" height="48px" viewBox="0 0 48 48" version="1.1" xmlns="http://www.w3.org/2000/svg" xmlns:xlink="http://www.w3.org/1999/xlink">
    <!-- Generator: Sketch 49.3 (51167) - http://www.bohemiancoding.com/sketch -->
    <title>fun_icon_06</title>
    <desc>Created with Sketch.</desc>
    <defs>
        <linearGradient x1="17.4411987%" y1="17.0190006%" x2="83.0511478%" y2="86.7363271%" id="linearGradient-1">
            <stop stop-color="#ABAFFA" offset="0%"></stop>
            <stop stop-color="#7C84F6" offset="100%"></stop>
        </linearGradient>
    </defs>
    <g id="Page-1" stroke="none" stroke-width="1" fill="none" fill-rule="evenodd">
        <g id="房东_个人中心_00已认证" transform="translate(-205.000000, -213.000000)">
            <g id="按钮" transform="translate(0.000000, 186.000000)">
                <g id="fun_icon_06" transform="translate(205.000000, 27.000000)">
                    <circle id="Oval" fill="url(#linearGradient-1)" cx="24" cy="24" r="24"></circle>
                    <g id="fun_icon_07" transform="translate(14.000000, 12.000000)">
                        <path d="M19.2859698,14.2123942 C18.097918,12.6631919 16.2280603,11.6643325 14.124913,11.6643325 C12.0952754,11.6643325 10.2828996,12.5946 9.09090909,14.0520155 L9.09090909,6.93287829 L9.09090909,4.49946617 C9.09090909,3.77361988 9.52109915,3.12218533 10.1742168,2.85911518 L16.9709325,0.121363879 C17.1765284,0.0385337051 17.3850472,0 17.5884894,0 C18.4872762,0 19.2859698,0.752243593 19.2859698,1.76166174 L19.2859698,14.2123942 Z M15.6754397,5.31470213 L15.6754397,7.55382582 L17.8371582,7.55382582 L17.8371582,5.31470213 L15.6754397,5.31470213 Z M15.6754397,9.5130159 L15.6754397,11.7521396 L17.8371582,11.7521396 L17.8371582,9.5130159 L15.6754397,9.5130159 Z" id="Combined-Shape" fill="#CED3FF" fill-rule="nonzero" opacity="0.600000024"></path>
                        <path d="M11.1627907,12.3786208 C9.06190716,13.45575 7.62420978,15.6431647 7.62420978,18.1663623 C7.62420978,20.1270032 8.4922924,21.8848909 9.86507171,23.0766516 L0,23.0766516 L-1.77635684e-15,6.69617799 C-1.91574137e-15,5.55801693 0.922661839,4.63535509 2.0608229,4.63535509 C2.3543896,4.63535509 2.64456844,4.6980755 2.9119296,4.81931667 L9.9530745,8.01228866 C10.6896777,8.34631861 11.1627907,9.08034827 11.1627907,9.88914998 L11.1627907,12.3786208 Z M4.85339562,8.80419901 L4.85339562,11.0433227 L7.01511409,11.0433227 L7.01511409,8.80419901 L4.85339562,8.80419901 Z M4.85339562,13.0025393 L4.85339562,15.2416631 L7.01511409,15.2416631 L7.01511409,13.0025393 L4.85339562,13.0025393 Z M4.58319043,16.9209726 L4.58319043,21.3991935 L7.2853193,21.3991935 L7.2853193,16.9209726 L4.58319043,16.9209726 Z" id="Combined-Shape" fill="#FFFFFF"></path>
                        <path d="M14.1349756,12.6340589 C11.1225352,12.6340589 8.68044033,15.1137244 8.68044033,18.1725307 C8.68044033,21.2313369 11.1225352,23.7109819 14.1349756,23.7109819 C17.1474364,23.7109819 19.5895312,21.231337 19.5895312,18.1725307 C19.5895312,15.1137244 17.1474364,12.6340589 14.1349756,12.6340589 Z M14.1420751,23.1035417 C11.4267277,23.1035417 9.22551348,20.9060193 9.22551348,18.1952262 C9.22551348,15.484433 11.4267277,13.2868883 14.1420751,13.2868883 C16.8574225,13.2868883 19.0586367,15.484433 19.0586367,18.1952262 C19.0586367,20.9060193 16.8574225,23.1035417 14.1420751,23.1035417 Z" id="Combined-Shape" fill="#C2C5FB" fill-rule="nonzero"></path>
                        <path d="M14.174131,17.6130798 C13.2954962,17.6130798 12.5832219,16.9117636 12.5832219,16.0466463 C12.5832219,15.1815289 13.2954962,14.4802127 14.174131,14.4802127 C15.0527658,14.4802127 15.7650401,15.1815289 15.7650401,16.0466463 C15.7650401,16.9117636 15.0527658,17.6130798 14.174131,17.6130798 Z M14.174131,21.8648281 C14.174131,21.8648281 11.7682219,21.8433456 10.9923128,20.2983945 L10.9923128,19.8508421 C10.9923128,19.8508421 12.3454946,18.505947 14.174131,18.5081847 C16.0027673,18.505947 17.3559492,19.8508421 17.3559492,19.8508421 L17.3559492,20.2983945 C16.5800401,21.8433456 14.174131,21.8648281 14.174131,21.8648281 Z" id="Combined-Shape" fill="#D9DBFF" fill-rule="nonzero"></path>
                    </g>
                </g>
            </g>
        </g>
    </g>
</svg>