<?xml version="1.0" encoding="UTF-8"?>
<svg width="48px" height="48px" viewBox="0 0 48 48" version="1.1" xmlns="http://www.w3.org/2000/svg" xmlns:xlink="http://www.w3.org/1999/xlink">
    <!-- Generator: Sketch 49.3 (51167) - http://www.bohemiancoding.com/sketch -->
    <title>fun_icon_05</title>
    <desc>Created with Sketch.</desc>
    <defs>
        <linearGradient x1="15.4273061%" y1="16.204884%" x2="82.91804%" y2="86.5017632%" id="linearGradient-1">
            <stop stop-color="#68EA97" offset="0%"></stop>
            <stop stop-color="#2CB970" offset="100%"></stop>
        </linearGradient>
    </defs>
    <g id="Page-1" stroke="none" stroke-width="1" fill="none" fill-rule="evenodd">
        <g id="房东_个人中心_00已认证" transform="translate(-121.000000, -213.000000)">
            <g id="按钮" transform="translate(0.000000, 186.000000)">
                <g id="fun_icon_05" transform="translate(121.000000, 27.000000)">
                    <circle id="Oval" fill="url(#linearGradient-1)" cx="24" cy="24" r="24"></circle>
                    <g id="设备出租" transform="translate(14.000000, 14.000000)" fill-rule="nonzero">
                        <polygon id="Shape" fill="#B6F0CF" points="10.8816121 14.8863636 18.3375315 14.8863636 18.3375315 19.1666667 10.8816121 19.1666667"></polygon>
                        <path d="M0.100755668,19.6060606 C0.717884131,17.1792929 1.13602015,13.0530303 1.13602015,8.29040404 L1.13602015,6.98989899 L2.32997481,6.98989899 L2.32997481,8.29040404 C2.32997481,13.1868687 1.91183879,17.4671717 1.25188917,19.9823232 L0.100755668,19.6060606 Z" id="Shape" fill="#FFFFFF"></path>
                        <polygon id="Shape" fill="#FFFFFF" points="3.97732997 19.9823232 3.97732997 5.77525253 0.0226700252 5.77525253 0.0226700252 4.60353535 4.00251889 4.60353535 4.00251889 2.31313131 0.41813602 2.53282828 0.287153652 1.38636364 8.25188917 0.813131313 8.3627204 1.95959596 5.17128463 2.2020202 5.17128463 4.60353535 8.62720403 4.60353535 8.62720403 5.77525253 5.17128463 5.77525253 5.17128463 19.9823232"></polygon>
                        <path d="M7.14609572,6.98989899 L8.31486146,6.98989899 L8.31486146,19.7626263 L7.14609572,19.7626263 L7.14609572,6.98989899 Z M19.0982368,18.6590909 L19.0982368,2.7979798 C19.0982368,1.27525253 17.9093199,0.0176767677 16.5239295,0.0176767677 L12.8035264,0.0176767677 C11.3501259,0.0176767677 10.2292191,1.27525253 10.2292191,2.7979798 L10.2292191,18.6590909 L9.32745592,18.6590909 L9.32745592,19.8308081 L19.97733,19.8308081 L19.97733,18.6590909 L19.0982368,18.6590909 Z M17.9395466,18.6691919 L11.3853904,18.6691919 L11.3853904,13.9570707 L17.9395466,13.9570707 L17.9395466,18.6691919 Z M17.9395466,12.7954545 L11.3853904,12.7954545 L11.3853904,7.44949495 L17.9395466,7.44949495 L17.9395466,12.7954545 Z M17.9395466,6.28787879 L11.3853904,6.28787879 L11.3853904,2.56313131 C11.3853904,1.7979798 11.9244332,1.17929293 12.5894207,1.17929293 L16.7380353,1.17929293 C17.3753149,1.17929293 17.9420655,1.80050505 17.9420655,2.56313131 L17.9395466,6.28787879 Z" id="Shape" fill="#FFFFFF"></path>
                    </g>
                </g>
            </g>
        </g>
    </g>
</svg>