<?xml version="1.0" encoding="UTF-8"?>
<svg width="48px" height="48px" viewBox="0 0 48 48" version="1.1" xmlns="http://www.w3.org/2000/svg" xmlns:xlink="http://www.w3.org/1999/xlink">
    <!-- Generator: Sketch 49.3 (51167) - http://www.bohemiancoding.com/sketch -->
    <title>fun_icon_02</title>
    <desc>Created with Sketch.</desc>
    <defs>
        <linearGradient x1="15.4273061%" y1="16.204884%" x2="82.91804%" y2="86.5017632%" id="linearGradient-1">
            <stop stop-color="#68EA97" offset="0%"></stop>
            <stop stop-color="#2CB970" offset="100%"></stop>
        </linearGradient>
    </defs>
    <g id="Page-1" stroke="none" stroke-width="1" fill="none" fill-rule="evenodd">
        <g id="租户_个人中心_01已认证" transform="translate(-121.000000, -213.000000)">
            <g id="按钮" transform="translate(0.000000, 186.000000)">
                <g id="fun_icon_02" transform="translate(121.000000, 27.000000)">
                    <circle id="Oval" fill="url(#linearGradient-1)" cx="24" cy="24" r="24"></circle>
                    <g id="支付" transform="translate(12.000000, 14.000000)" fill-rule="nonzero">
                        <path d="M1.6602691,4.48480253 L11.4332223,0.117030016 C12.3159407,-0.206508689 13.293236,0.214091627 13.6715439,1.08764613 L15.1532497,4.48480253" id="Shape" fill="#97E4B8"></path>
                        <path d="M22.4041505,19.0116904 C22.4041505,19.5617062 21.9627913,19.9823065 21.4583808,19.9823065 L0.966704675,19.9823065 C0.430768529,19.9823065 0.0209350057,19.5293523 0.0209350057,19.0116904 L0.0209350057,5.42306477 C0.0209350057,4.87304897 0.462294185,4.45244866 0.966704675,4.45244866 L21.4583808,4.45244866 C21.994317,4.45244866 22.4041505,4.90540284 22.4041505,5.42306477 L22.4041505,19.0116904 Z M7,8 L9.856,13.026 L7.784,13.026 L7.784,13.726 L10.248,13.726 L10.248,15.098 L7.784,15.098 L7.784,15.798 L10.248,15.798 L10.248,17.996 L11.48,17.996 L11.48,15.798 L13.958,15.798 L13.958,15.098 L11.48,15.098 L11.48,13.726 L13.958,13.726 L13.958,13.026 L11.872,13.026 L14.728,8 L13.342,8 L10.864,12.592 L8.386,8 L7,8 Z" id="Combined-Shape" fill="#FFFFFF"></path>
                        <path d="M24.2818062,15.9057188 L18.5403786,15.9057188 C18.1620707,15.9057188 17.8468141,15.5821801 17.8468141,15.1939336 L17.8468141,9.37023697 C17.8468141,8.98199052 18.1620707,8.65845182 18.5403786,8.65845182 L24.2818062,8.65845182 C24.660114,8.65845182 24.9753706,8.98199052 24.9753706,9.37023697 L24.9753706,15.1939336 C24.9753706,15.5821801 24.660114,15.9057188 24.2818062,15.9057188 Z M0.966704675,16.099842 C0.556871152,16.099842 0.336191562,15.7439494 0.336191562,15.3233491 L0.336191562,9.07905213 C0.336191562,8.65845182 0.556871152,8.30255924 0.966704675,8.30255924 C1.3765382,8.30255924 1.59721779,8.65845182 1.59721779,9.07905213 L1.59721779,15.3233491 C1.59721779,15.7439494 1.3765382,16.099842 0.966704675,16.099842 Z" id="Shape" fill="#B6F0CF"></path>
                    </g>
                </g>
            </g>
        </g>
    </g>
</svg>