<?xml version="1.0" encoding="UTF-8"?>
<svg width="48px" height="48px" viewBox="0 0 48 48" version="1.1" xmlns="http://www.w3.org/2000/svg" xmlns:xlink="http://www.w3.org/1999/xlink">
    <!-- Generator: Sketch 49.3 (51167) - http://www.bohemiancoding.com/sketch -->
    <title>fun_icon_03</title>
    <desc>Created with Sketch.</desc>
    <defs>
        <linearGradient x1="17.4411987%" y1="17.0190006%" x2="83.0511478%" y2="86.7363271%" id="linearGradient-1">
            <stop stop-color="#ABAFFA" offset="0%"></stop>
            <stop stop-color="#7C84F6" offset="100%"></stop>
        </linearGradient>
    </defs>
    <g id="Page-1" stroke="none" stroke-width="1" fill="none" fill-rule="evenodd">
        <g id="租户_个人中心_01已认证" transform="translate(-205.000000, -213.000000)">
            <g id="按钮" transform="translate(0.000000, 186.000000)">
                <g id="fun_icon_03" transform="translate(205.000000, 27.000000)">
                    <circle id="Oval" fill="url(#linearGradient-1)" cx="24" cy="24" r="24"></circle>
                    <g transform="translate(12.279070, 14.511628)" fill-rule="nonzero" id="Combined-Shape">
                        <path d="M13.1045169,20.0899155 L2.77661111,20.0899155 C1.82834019,20.0899155 1.05251213,19.4543699 1.05251213,18.677549 L1.05251213,9.52142526 L0.517957083,9.08353108 C-0.15256103,8.53425024 -0.15256103,7.63542704 0.517957083,7.08614618 L2.4086216,5.53734835 L2.4086216,2.0036364 C2.4086216,1.57496647 2.7534566,1.22426463 3.17489908,1.22426463 L3.9046968,1.22426463 C4.32613928,1.22426463 4.67097428,1.57496647 4.67097428,2.0036364 L4.67097428,3.68404725 L8.64546866,0.428196476 C9.3159868,-0.121084385 10.4131914,-0.121084385 11.0837095,0.428196476 L16.1329581,4.56448763 C12.0701056,5.13984003 8.94530106,8.631742 8.94530106,12.8534607 C8.94530106,15.9412259 10.6169028,18.6385647 13.1045169,20.0899155 Z M5.82644512,12.4199266 L5.82644512,11.281814 C5.82644512,10.9552292 5.56371489,10.6880093 5.24261707,10.6880093 L4.12362598,10.6880093 C3.80250281,10.6880093 3.53979793,10.9552292 3.53979793,11.281814 L3.53979793,12.4199266 C3.53979793,12.7465371 3.80250283,13.0137312 4.12362598,13.0137312 L5.24261707,13.0137312 C5.56371489,13.0137312 5.82644512,12.7465371 5.82644512,12.4199266 Z" fill="#FFFFFF"></path>
                        <path d="M17.2558005,5.48837209 C13.2485541,5.48837209 10,8.73692623 10,12.7441995 C10,16.7514728 13.2485541,20 17.2558005,20 C21.2630738,20 24.5116279,16.7514729 24.5116279,12.7441995 C24.5116279,8.7369262 21.2630738,5.48837209 17.2558005,5.48837209 Z M17.2652444,19.2042062 C13.6532009,19.2042062 10.725074,16.3252815 10.725074,12.7739324 C10.725074,9.22258318 13.6532009,6.34362931 17.2652444,6.34362931 C20.8772878,6.34362931 23.8054147,9.22258318 23.8054147,12.7739324 C23.8054147,16.3252815 20.8772878,19.2042062 17.2652444,19.2042062 Z" fill="#C2C5FB"></path>
                        <path d="M15.75,10.6969697 C15.75,9.75975921 16.5335017,9 17.5,9 C18.4664983,9 19.25,9.75975921 19.25,10.6969697 C19.25,11.6341802 18.4664983,12.3939394 17.5,12.3939394 C16.5335017,12.3939394 15.75,11.6341802 15.75,10.6969697 Z M17.5,17 C17.5,17 14.8535,16.9767273 14,15.3030303 L14,14.8181818 C14,14.8181818 15.4885,13.3612121 17.5,13.3636364 C19.5115,13.3612121 21,14.8181818 21,14.8181818 L21,15.3030303 C20.1465,16.9767273 17.5,17 17.5,17 Z" fill="#D9DBFF"></path>
                    </g>
                </g>
            </g>
        </g>
    </g>
</svg>