<?xml version="1.0" encoding="UTF-8"?>
<svg width="48px" height="48px" viewBox="0 0 48 48" version="1.1" xmlns="http://www.w3.org/2000/svg" xmlns:xlink="http://www.w3.org/1999/xlink">
    <!-- Generator: Sketch 49.3 (51167) - http://www.bohemiancoding.com/sketch -->
    <title>fun_icon_04</title>
    <desc>Created with Sketch.</desc>
    <defs>
        <linearGradient x1="13.2225486%" y1="17.9777626%" x2="84.0178648%" y2="83.8611348%" id="linearGradient-1">
            <stop stop-color="#5BABFF" offset="0%"></stop>
            <stop stop-color="#3375FF" offset="100%"></stop>
        </linearGradient>
    </defs>
    <g id="Page-1" stroke="none" stroke-width="1" fill="none" fill-rule="evenodd">
        <g id="租户_个人中心_01已认证" transform="translate(-289.000000, -213.000000)">
            <g id="按钮" transform="translate(0.000000, 186.000000)">
                <g id="fun_icon_04" transform="translate(289.000000, 27.000000)">
                    <circle id="Oval" fill="url(#linearGradient-1)" cx="24" cy="24" r="24"></circle>
                    <g transform="translate(12.000000, 12.000000)" fill-rule="nonzero">
                        <path d="M17.5,7.30000305 C20.8094737,7.30000305 23.5,9.97789779 23.5,13.3000031 C23.5,16.6221083 20.8221053,19.3000031 17.5,19.3000031 C14.1778947,19.3000031 11.5,16.6221083 11.5,13.3000031 C11.5,9.97789779 14.1905263,7.30000305 17.5,7.30000305 Z M17.5,7.80000305 C14.4663158,7.80000305 12,10.2547399 12,13.3000031 C12,16.3452662 14.4547368,18.8000031 17.5,18.8000031 C20.5452632,18.8000031 23,16.3452662 23,13.3000031 C23,10.2547399 20.5336842,7.80000305 17.5,7.80000305 Z" id="Combined-Shape" fill="#ACCEFF"></path>
                        <path d="M17.3182922,6.34975046 C18.2110101,6.34975046 19.0774717,6.52330978 19.865164,6.84372699 L19.865164,1.86390952 C19.865164,1.20972439 19.3400358,0.675695704 18.6967537,0.675695704 L1.64321527,0.675695704 C0.999933214,0.675695704 0.474805009,1.20972439 0.474805009,1.86390952 L0.474805009,22.5308196 C0.474805009,23.1850047 0.999933214,23.7190334 1.64321527,23.7190334 L18.6836255,23.7190334 C19.3269076,23.7190334 19.8520358,23.1850047 19.8520358,22.5308196 L19.8520358,19.9407804 C19.0643435,20.2611977 18.2110101,20.434757 17.305164,20.434757 C13.4848563,20.434757 10.3865999,17.2839878 10.3865999,13.3989291 C10.3865999,9.51387041 13.4979845,6.34975046 17.3182922,6.34975046 Z M6.54003578,16.1491768 C6.54003578,16.5363476 6.23808706,16.8434141 5.85736911,16.8434141 L2.92977937,16.8434141 C2.54906142,16.8434141 2.2471127,16.5363476 2.2471127,16.1491768 L2.2471127,15.8821625 C2.2471127,15.4949917 2.54906142,15.1879252 2.92977937,15.1879252 L5.87049732,15.1879252 C6.25121527,15.1879252 6.55316398,15.4949917 6.55316398,15.8821625 L6.55316398,16.1491768 L6.54003578,16.1491768 Z M8.82434347,11.5431794 C8.82434347,11.9303502 8.52239475,12.2374167 8.1416768,12.2374167 L2.7591127,12.2374167 C2.37839475,12.2374167 2.07644603,11.9303502 2.07644603,11.5431794 L2.07644603,11.2761651 C2.07644603,10.8889943 2.37839475,10.5819278 2.7591127,10.5819278 L8.1416768,10.5819278 C8.52239475,10.5819278 8.82434347,10.8889943 8.82434347,11.2761651 L8.82434347,11.5431794 Z M11.673164,6.76362269 C11.673164,7.15079349 11.3712153,7.45785998 10.9904973,7.45785998 L2.4965486,7.45785998 C2.11583065,7.45785998 1.81388193,7.15079349 1.81388193,6.76362269 L1.81388193,6.49660835 C1.81388193,6.10943755 2.11583065,5.80237106 2.4965486,5.80237106 L10.9904973,5.80237106 C11.3712153,5.80237106 11.673164,6.10943755 11.673164,6.49660835 L11.673164,6.76362269 Z" id="Shape" fill="#FFFFFF"></path>
                        <path d="M16.2775112,13.6423469 L16.0981683,13.8297536 C15.9905626,13.9796789 15.954694,14.2045668 15.9905626,14.3919735 C16.0622997,14.6168615 16.2775112,14.6168615 16.456854,14.6543428 C16.8514083,14.6918241 17.210094,14.6918241 17.6046482,14.6543428 L18.7165739,14.6543428 C18.9317853,14.6918241 19.1111282,14.5793801 19.2187339,14.3919735 C19.3263396,14.2045668 19.2546024,13.9421975 19.1111282,13.7922722 L18.9317853,13.6048656 C18.8600482,13.5673843 18.8241796,13.4924216 18.8241796,13.3799776 C18.8241796,13.305015 18.8600482,13.2300523 18.9317853,13.1550896 C19.039391,13.0051643 19.1469967,12.8927203 19.2546024,12.742795 C19.792631,11.9556871 19.6132881,10.9062099 18.8241796,10.3065087 C18.0709396,9.70680743 16.959014,9.78177009 16.2416426,10.4189527 C15.4884026,11.2060606 15.6318769,12.4054631 16.2775112,13.192571 C16.3492483,13.2300523 16.3851169,13.305015 16.3851169,13.4174589 C16.3851169,13.4924216 16.3492483,13.5673843 16.2775112,13.6423469 Z" id="Shape" fill="#ACD1FF"></path>
                        <path d="M20.7533014,15.7026566 C20.7533014,15.290362 20.5739586,15.0654741 20.1794043,15.0654741 L14.870856,15.0654741 C14.4763017,15.0654741 14.2969589,15.2528807 14.2969589,15.6651753 L14.2969589,16.2648766 L20.7533014,16.2648766 L20.7533014,15.7026566 Z M14.9425931,17.1644285 L20.0717986,17.1644285 C20.2152729,17.1644285 20.3587471,17.0145031 20.3587471,16.8645778 C20.3587471,16.7146525 20.2152729,16.5647272 20.0717986,16.5647272 L14.9425931,16.5647272 C14.7991188,16.5647272 14.6556445,16.6771712 14.6556445,16.8645778 C14.6556445,17.0145031 14.7991188,17.1644285 14.9425931,17.1644285 Z" id="Shape" fill="#82BAFF"></path>
                    </g>
                </g>
            </g>
        </g>
    </g>
</svg>