<?xml version="1.0" encoding="UTF-8"?>
<svg width="16px" height="16px" viewBox="0 0 16 16" version="1.1" xmlns="http://www.w3.org/2000/svg" xmlns:xlink="http://www.w3.org/1999/xlink">
    <!-- Generator: Sketch 49.3 (51167) - http://www.bohemiancoding.com/sketch -->
    <title>geren</title>
    <desc>Created with Sketch.</desc>
    <defs></defs>
    <g id="Page-1" stroke="none" stroke-width="1" fill="none" fill-rule="evenodd">
        <g id="租户_个人中心_01已认证" transform="translate(-18.000000, -558.000000)" fill-rule="nonzero">
            <g id="item_03" transform="translate(18.000000, 530.000000)">
                <g id="geren" transform="translate(0.000000, 28.000000)">
                    <path d="M12.248281,10.4470217 C11.0928647,9.63800339 9.67926231,9.16495033 8.16109763,9.16495033 C4.5296013,9.16495033 1.49639078,11.8716702 1.16407404,15.4088238 C1.1694385,15.5646503 1.10953037,15.7158645 0.998216375,15.8274654 C0.886902377,15.9390664 0.733832492,16.0013793 0.57443722,15.9999808 C0.277960325,15.996326 0.0320712898,15.774476 0.00445496805,15.4857223 C-0.00147117988,15.4249823 -0.00147117988,15.3638284 0.00445496805,15.3030884 C0.287166053,12.1103252 2.50113887,9.39534538 5.62074565,8.41586933 C3.88090278,7.31373366 3.090093,5.22306637 3.67757369,3.27869705 C4.26505438,1.33432772 6.09070722,2.21052415e-06 8.16355444,2.21052415e-06 C10.2364017,2.21052415e-06 12.0620545,1.33432772 12.6495352,3.27869705 C13.2370159,5.22306637 12.4462061,7.31373366 10.7063632,8.41586933 C12.0007177,8.82408748 13.138682,9.53114543 14.0469752,10.4470217 L12.248281,10.4470217 Z M4.65275855,4.59017052 C4.65406081,5.49901148 5.02442016,6.37012257 5.68236156,7.01186885 C6.34030296,7.65361512 7.23193115,8.01342793 8.16109762,8.01215236 C9.58098141,8.01214691 10.8608665,7.17502197 11.4033099,5.89154262 C11.9457532,4.60806328 11.643789,3.1313223 10.6383724,2.15065386 C9.63295581,1.16998542 8.1223476,0.878770186 6.81169098,1.41294575 C5.50103436,1.9471213 4.64878128,3.20135213 4.65275855,4.59017052 Z" id="Combined-Shape" fill="#FF8200"></path>
                    <polygon id="Shape" fill="#FFCC01" points="10.3424569 11 15.9931431 11 15.9931431 12 10.3424569 12 10.3424569 11"></polygon>
                    <polygon id="Shape" fill="#FFCC01" points="10.3424569 13 15.9931431 13 15.9931431 14 10.3424569 14 10.3424569 13"></polygon>
                    <polygon id="Shape" fill="#FFCC01" points="10.3424569 15 15.9931431 15 15.9931431 16 10.3424569 16 10.3424569 15"></polygon>
                </g>
            </g>
        </g>
    </g>
</svg>