<?xml version="1.0" encoding="UTF-8"?>
<svg width="100px" height="100px" viewBox="0 0 100 100" version="1.1" xmlns="http://www.w3.org/2000/svg" xmlns:xlink="http://www.w3.org/1999/xlink">
    <!-- Generator: Sketch 49.3 (51167) - http://www.bohemiancoding.com/sketch -->
    <title>头像</title>
    <desc>Created with Sketch.</desc>
    <defs>
        <linearGradient x1="81.6625189%" y1="81.7188899%" x2="16.8488077%" y2="14.8466633%" id="linearGradient-1">
            <stop stop-color="#FFCB44" offset="0%"></stop>
            <stop stop-color="#FFD464" offset="100%"></stop>
        </linearGradient>
        <path d="M2,0 L98,0 C99.1045695,-2.02906125e-16 100,0.8954305 100,2 L100,98 C100,99.1045695 99.1045695,100 98,100 L2,100 C0.8954305,100 1.3527075e-16,99.1045695 0,98 L0,2 C-1.3527075e-16,0.8954305 0.8954305,2.02906125e-16 2,0 Z" id="path-2"></path>
    </defs>
    <g id="Page-1" stroke="none" stroke-width="1" fill="none" fill-rule="evenodd">
        <g id="租户_个人信息_01个人资料" transform="translate(-100.000000, -155.000000)">
            <g id="个人资料" transform="translate(0.000000, 123.000000)">
                <g id="头像" transform="translate(100.000000, 32.000000)">
                    <g id="Rectangle">
                        <use fill="#ECECEC" fill-rule="evenodd" xlink:href="#path-2"></use>
                        <path stroke="url(#linearGradient-1)" stroke-width="2" d="M2,1 C1.44771525,1 1,1.44771525 1,2 L1,98 C1,98.5522847 1.44771525,99 2,99 L98,99 C98.5522847,99 99,98.5522847 99,98 L99,2 C99,1.44771525 98.5522847,1 98,1 L2,1 Z"></path>
                    </g>
                    <g transform="translate(7.000000, 11.000000)" fill-rule="nonzero" id="Shape">
                        <path d="M73.148495,74.3164728 C68.9103679,71.6702276 53.8842809,72.1513631 52.535786,67.7730301 C52.1505017,66.4739643 51.9578595,64.8381036 51.9578595,63.1541294 C51.909699,59.2088183 52.535786,55.1672802 52.535786,55.1672802 L43.0481605,52.2804672 L33.5605351,55.1672802 C33.5605351,55.1672802 34.2347826,59.3050454 34.1384615,63.29847 C34.090301,64.9343307 33.9458194,66.5220778 33.5605351,67.7730301 C32.2120401,72.1513631 17.1859532,71.6702276 12.9478261,74.3164728 C12.5143813,74.6051541 12.0809365,74.9900625 11.6474916,75.4230844 C20.0274247,82.6882304 31.0080268,87.0665633 43,87.0665633 C54.9919732,87.0665633 65.9725753,82.6882304 74.4006689,75.4230844 C74.0153846,74.9419489 73.5819398,74.5570405 73.148495,74.3164728 Z" fill="#FCCCA7"></path>
                        <path d="M43,52.4248079 L33.3197324,55.2635073 C33.3197324,55.2635073 34.1866221,60.1710893 34.090301,64.1645139 C35.8240803,66.0890559 42.8073579,66.3777372 42.9036789,66.3777372 C43,66.3777372 50.1277592,65.9928288 51.909699,64.0201733 C51.8615385,60.0748622 52.632107,55.3116208 52.632107,55.3116208 L43,52.4248079 Z" fill="#EFAD7D"></path>
                        <path d="M43.2410378,87.0665633 L43,87.0665633 L43.2410378,87.0665633 Z M33.464214,67.5324624 C32.0675585,71.9589089 16.89699,71.4296598 12.6107023,74.1721321 C12.413707,74.2814673 8.38355376,76.5348509 5.74608107,79.5577804 C2.58037805,83.1861393 0.717631042,87.7002846 0.481181616,87.9627499 C12.0557215,88.6168093 30.9117057,87.0665633 43,87.0665633 L39.4842809,73.8353373 C34.716388,73.8353373 33.7050167,66.9069862 33.464214,67.5324624 Z M52.8729097,67.8692572 C52.6802676,67.1956675 51.4280936,73.8353373 46.7083612,73.8353373 L43.0963211,87.0665633 C55.2327759,87.0665633 74.0353617,87.1869647 84.174479,87.1869647 C84.174479,86.1611081 82.6120035,83.7059705 80.1007597,80.3619998 C77.2050819,76.506117 73.7805947,74.2961703 73.5819398,74.1721321 C69.2474916,71.4777734 54.2695652,72.2957037 52.8729097,67.8692572 Z" fill="#96A53F"></path>
                        <path d="M19.8829431,30.3406888 C17.2341137,31.1105056 17.8602007,35.0558166 17.8602007,36.5473367 C17.8602007,38.0388567 20.0755853,43.23512 21.5204013,43.8124826 C25.2769231,45.2558891 25.2769231,39.819058 25.2769231,39.819058 L25.2769231,33.4680695 C25.3250836,33.4680695 22.5317726,29.570872 19.8829431,30.3406888 Z" fill="#FCCCA7"></path>
                        <path d="M66.0688963,30.3406888 C63.4200669,29.570872 60.6749164,33.419956 60.6749164,33.419956 L60.6749164,39.7709444 C60.6749164,39.7709444 60.6749164,45.4002297 64.4314381,43.764369 C65.8762542,43.1388929 68.0916388,37.9907431 68.1397993,36.4992231 C68.0916388,35.0558166 68.7177258,31.1105056 66.0688963,30.3406888 Z" fill="#FBC69A"></path>
                        <path d="M55.6180602,9.98865748 C48.7792642,4.31125867 37.0280936,4.31125867 30.1892977,9.98865748 C23.109699,15.906624 22.9170569,22.3538396 22.9170569,31.8322088 C22.9170569,41.310578 23.5431438,43.9568232 23.5431438,43.9568232 C23.5431438,43.9568232 24.8434783,50.9332879 26.2882943,52.7616027 C27.7331104,54.5899176 29.226087,55.504075 33.464214,59.1607048 C37.4615385,62.6248803 39.580602,62.9616752 42.7110368,63.0097887 L43.1926421,63.0097887 C46.3230769,63.0097887 48.3939799,62.6729939 52.4394649,59.1607048 C56.677592,55.504075 58.122408,54.5899176 59.6153846,52.7616027 C61.0602007,50.9332879 62.3605351,43.9568232 62.3605351,43.9568232 L62.3605351,43.8124826 C62.3605351,43.8124826 62.9384615,41.2624645 62.9384615,31.8322088 C62.890301,22.3538396 62.6976589,15.906624 55.6180602,9.98865748 Z" fill="#FCCCA7"></path>
                        <path d="M55.6180602,9.98865748 C52.1986622,7.14995807 47.5752508,5.75466514 42.9036789,5.75466514 L42.9036789,62.9616752 L43.1926421,62.9616752 C46.3230769,62.9616752 48.3939799,62.6248803 52.4394649,59.1125912 C56.677592,55.4559615 58.122408,54.5418041 59.6153846,52.7134892 C61.0602007,50.8851743 62.3605351,43.9087097 62.3605351,43.9087097 L62.3605351,43.764369 C62.3605351,43.764369 62.9384615,41.2143509 62.9384615,31.7840953 C62.890301,22.3538396 62.6976589,15.906624 55.6180602,9.98865748 Z" fill="#FBC69A"></path>
                        <path d="M33.9939799,33.0831611 C32.6454849,33.0831611 31.5859532,34.1416592 31.5859532,35.4888386 C31.5859532,36.8360179 32.6454849,37.894516 33.9939799,37.894516 C35.3424749,37.894516 36.4020067,36.8360179 36.4020067,35.4888386 C36.4020067,34.1416592 35.2943144,33.0831611 33.9939799,33.0831611 Z" fill="#683C11"></path>
                        <path d="M52.3431438,27.7906707 C49.6461538,27.7425571 47.864214,30.0520075 47.141806,31.0142785 C46.419398,31.9765495 50.1277592,30.3406888 52.535786,30.1482346 C55.2809365,29.9557804 59.4227425,31.7840953 59.4227425,31.7840953 C59.4227425,31.7840953 56.1478261,27.8387842 52.3431438,27.7906707 Z" fill="#3B2314"></path>
                        <path d="M51.8133779,33.0831611 C50.4648829,33.0831611 49.4053512,34.1416592 49.4053512,35.4888386 C49.4053512,36.8360179 50.4648829,37.894516 51.8133779,37.894516 C53.1618729,37.894516 54.2214047,36.8360179 54.2214047,35.4888386 C54.2214047,34.1416592 53.1137124,33.0831611 51.8133779,33.0831611 Z" fill="#432918"></path>
                        <path d="M33.464214,27.7425571 C29.6595318,27.7906707 26.3846154,31.7359817 26.3846154,31.7359817 C26.3846154,31.7359817 30.5264214,29.9076669 33.2715719,30.1482346 C35.7277592,30.3406888 39.3879599,31.9765495 38.6655518,31.0142785 C37.9431438,30.0520075 36.161204,27.7425571 33.464214,27.7425571 Z" fill="#3B2314"></path>
                        <path d="M33.9939799,33.0831611 C32.6454849,33.0831611 31.5859532,34.1416592 31.5859532,35.4888386 C31.5859532,36.8360179 32.6454849,37.894516 33.9939799,37.894516 C35.3424749,37.894516 36.4020067,36.8360179 36.4020067,35.4888386 C36.4020067,34.1416592 35.3424749,33.0831611 33.9939799,33.0831611 Z" fill="#432918"></path>
                        <polygon fill="#FFFFFF" points="43.0481605 49.0087459 39.2916388 48.9606324 36.5946488 48.8644053 36.5946488 49.1530865 39.8214047 51.7512182 46.5157191 52.2804672 49.6461538 49.1530865 47.2862876 48.9125188"></polygon>
                        <path d="M43,49.1530865 L38.3284281,48.9125188 L37.9431438,49.0568595 C37.9431438,49.0568595 37.7505017,50.5483795 43.1926421,50.5483795 C48.7311037,50.5002659 48.1050167,49.104973 48.1050167,49.104973 L43,49.1530865 Z" fill="#FFFFFF"></path>
                        <path d="M43.3371237,48.6719511 C42.8555184,48.7200646 42.4702341,48.2870427 41.3143813,48.2870427 C39.8695652,48.3351562 36.0648829,48.7200646 36.0648829,48.7200646 C36.0648829,48.7200646 37.0280936,49.634222 43.1444816,49.6823356 C49.7906355,49.7304491 50.0795987,48.9125188 50.0795987,48.9125188 C50.0795987,48.9125188 46.6602007,48.2870427 45.4561873,48.3351562 C44.3003344,48.3351562 43.8668896,48.6238375 43.3371237,48.6719511 Z" fill="#EDA47E"></path>
                        <path d="M43.1444816,51.7993318 C39.3879599,51.8474453 36.8354515,49.0087459 36.8354515,49.0087459 L36.0648829,48.7200646 C36.0648829,48.7200646 38.2802676,53.2908518 43.1444816,53.2427382 C48.6347826,53.1946247 50.1277592,48.8644053 50.1277592,48.8644053 L49.4053512,49.104973 C49.3571906,49.104973 47.4307692,51.7512182 43.1444816,51.7993318 Z" fill="#EDA47E"></path>
                        <path d="M50.2240803,69.8419127 L42.9518395,71.0447514 L36.2575251,69.3126637 L23.3986622,74.7013812 L23.1578595,82.832571 C29.226087,85.5750433 35.9204013,87.0665633 43,87.0665633 C50.0314381,87.0665633 56.773913,85.5269298 62.7939799,82.832571 L62.6494983,74.7013812 L50.2240803,69.8419127 Z" fill="#96A53F"></path>
                        <path d="M41.3625418,77.9731025 L40.7364548,87.0184498 C41.5070234,87.0665633 42.2294314,87.0665633 43,87.0665633 C43.8187291,87.0665633 44.5892977,87.0665633 45.4080268,87.0184498 L44.6374582,77.9731025 L41.3625418,77.9731025 Z" fill="#30302E"></path>
                        <path d="M42.9518395,70.7560702 C42.9518395,70.7560702 39.7250836,71.0447514 38.9545151,72.4881579 C37.2207358,75.7117657 41.4107023,78.454238 41.4107023,78.454238 L44.6374582,78.454238 C44.6374582,78.454238 48.1050167,75.9523335 47.141806,73.546656 C46.3230769,71.5740005 42.9518395,70.7560702 42.9518395,70.7560702 Z" fill="#1D1D1B"></path>
                        <polygon fill="#AABF52" points="30.1892977 69.4088908 36.6909699 77.0589451 43.1444816 70.7079566 32.9344482 64.0682868"></polygon>
                        <polygon fill="#AABF52" points="42.7591973 70.7079566 49.2608696 77.0589451 55.2327759 69.168323 52.9692308 64.0682868"></polygon>
                        <path d="M62.890301,20.8623196 C62.890301,20.8623196 62.890301,20.8142061 62.890301,20.8623196 C62.8421405,20.3330706 62.7939799,19.8038215 62.7458194,19.3707996 C62.5050167,16.6283273 62.1197324,11.0952691 60.1451505,8.30468325 C60.1451505,8.30468325 56.773913,1.47255926 47.0454849,0.558401827 C29.3705686,-1.07745885 20.412709,9.65186263 20.412709,9.65186263 C20.412709,9.65186263 23.2060201,10.6141336 22.9170569,21.0066602 C22.8207358,22.2576125 22.7244147,23.701019 22.6762542,25.2406526 L22.6762542,25.3849932 C22.5799331,28.3680333 22.6762542,31.8803224 23.0133779,36.0180876 C23.0615385,36.5473367 24.2655518,38.1350838 24.6026756,35.1039302 C24.9397993,32.2652308 25.3732441,27.3576487 26.3364548,23.0274293 C26.6735786,21.5840228 28.6963211,14.6556718 34.7645485,15.906624 C38.6173913,16.6764408 38.7618729,17.0613492 42.9036789,17.2056899 C49.0682274,17.3981441 49.8869565,15.8103969 53.258194,16.0990782 C55.9070234,16.339646 57.3518395,17.2056899 58.4595318,19.4189131 C60.2414716,24.230268 60.7712375,31.3510733 61.2046823,35.0558166 C61.541806,38.0869702 62.7458194,36.4992231 62.7939799,35.9699741 C63.3237458,29.6670991 63.2274247,24.7114035 62.890301,21.0066602 L62.890301,20.8623196 Z" fill="#3B2314"></path>
                        <path d="M61.4454849,32.3614579 C61.4454849,32.3614579 61.3973244,37.1246992 61.3973244,40.3964206 C61.3973244,43.6681419 59.9043478,47.3728852 58.5076923,48.2870427 C54.7993311,50.596493 53.258194,47.9502478 53.258194,47.9502478 C53.258194,47.9502478 51.8133779,45.8813652 48.1531773,44.5341858 C45.1672241,43.4275742 42.9518395,44.9672078 42.9518395,44.9672078 C42.9518395,44.9672078 40.7364548,43.4756877 37.7505017,44.5341858 C34.090301,45.8813652 32.6454849,47.9502478 32.6454849,47.9502478 C32.6454849,47.9502478 31.1043478,50.5483795 27.3959866,48.2870427 C25.9511706,47.4209988 24.5063545,43.6681419 24.5063545,40.3964206 C24.5063545,37.1246992 24.458194,32.3614579 24.458194,32.3614579 L22.7725753,32.5539121 C22.7725753,32.5539121 21.5685619,45.5445704 24.3137124,50.9814014 C25.6622074,53.6757602 30.3337793,59.882408 36.0648829,63.3946971 C38.3284281,64.78999 40.7364548,65.223012 42.9036789,65.223012 C45.070903,65.223012 47.4789298,64.78999 49.7424749,63.3946971 C55.5217391,59.882408 60.1451505,53.6276466 61.4936455,50.9814014 C64.238796,45.5445704 63.0347826,32.5539121 63.0347826,32.5539121 L61.4454849,32.3614579 Z M49.7424749,54.012555 C47.3826087,56.0333241 45.9377926,56.8512544 44.4929766,55.7446428 C43.4334448,54.9267125 42.9518395,54.012555 42.9518395,54.012555 C42.9518395,54.012555 42.4702341,54.9267125 41.4107023,55.7446428 C39.9658863,56.899368 38.5210702,56.0814376 36.161204,54.012555 C33.8013378,51.991786 34.6200669,48.1908156 37.3170569,47.9983614 C43.5297659,47.5653394 42.9518395,46.5549549 42.9518395,46.5549549 C42.9518395,46.5549549 42.4220736,47.5653394 48.5866221,47.9983614 C51.283612,48.2389291 52.1023411,51.991786 49.7424749,54.012555 Z" fill="#3B2314"></path>
                        <path d="M40.2548495,33.6124101 C39.4842809,33.949205 40.7846154,35.6331792 40.7846154,35.6331792 C40.7846154,35.6331792 43.1444816,34.478454 44.8301003,35.7775199 C45.4561873,36.2586554 45.69699,33.7567508 45.69699,33.7567508 C45.69699,33.7567508 43,32.457685 40.2548495,33.6124101 Z" fill="#1D1D1B"></path>
                        <path d="M40.7364548,33.8529779 C40.7364548,33.8529779 39.8695652,31.062392 30.6227425,31.0142785 C21.4240803,31.0142785 21.7130435,34.2859998 21.7130435,34.2859998 C21.7130435,34.2859998 21.0869565,42.705871 31.393311,42.7539845 C41.7478261,42.7539845 41.2180602,35.5850657 41.2180602,35.5850657 L40.7364548,33.8529779 Z M31.1525084,41.8879406 C23.7839465,41.8879406 23.3986622,36.6916773 23.4949833,35.5369521 C23.5913043,33.6605237 24.6026756,31.9284359 31.2006689,31.9284359 C36.6909699,31.9284359 40.0622074,33.1312747 40.0622074,35.2963844 C40.0622074,37.7982889 38.5210702,41.8879406 31.1525084,41.8879406 Z M55.1846154,31.062392 C45.9859532,31.062392 45.070903,33.8529779 45.070903,33.8529779 L44.5892977,35.6331792 C44.5892977,35.6331792 44.0113712,42.8020981 54.3658863,42.8020981 C64.7204013,42.8502116 64.0943144,34.3822269 64.0943144,34.3822269 C64.0943144,34.3822269 64.3832776,31.1105056 55.1846154,31.062392 Z M54.606689,41.9360542 C47.2381271,41.9360542 45.7451505,37.7982889 45.7451505,35.3444979 C45.7451505,33.1793882 49.116388,32.024663 54.606689,32.024663 C61.2046823,32.024663 62.2160535,33.7567508 62.3123746,35.6812928 C62.3605351,36.7879044 61.9752508,41.9360542 54.606689,41.9360542 Z" fill="#1D1D1B"></path>
                        <path d="M31.2006689,31.9284359 C24.6026756,31.9284359 23.5913043,33.6124101 23.4949833,35.5369521 C23.4468227,36.6916773 23.832107,41.8398271 31.1525084,41.8879406 C38.5210702,41.8879406 40.0140468,37.7982889 40.0622074,35.3444979 C40.0622074,33.1312747 36.6909699,31.9284359 31.2006689,31.9284359 Z" fill="#FDD6BA"></path>
                        <path d="M54.606689,31.9765495 C49.116388,31.9765495 45.7451505,33.1312747 45.7451505,35.2963844 C45.7451505,37.7501754 47.2381271,41.8879406 54.606689,41.8879406 C61.9752508,41.8879406 62.3605351,36.7397908 62.3123746,35.5850657 C62.2160535,33.7567508 61.2528428,32.024663 54.606689,31.9765495 Z" fill="#FCD1B0"></path>
                        <path d="M31.5377926,35.4888386 C31.5377926,36.8440299 32.6374651,37.9426296 33.9939799,37.9426296 C35.3504947,37.9426296 36.4501672,36.8440299 36.4501672,35.4888386 C36.4501673,34.6121835 35.9820206,33.8021207 35.2220736,33.3637931 C34.4621266,32.9254656 33.5258333,32.9254656 32.7658863,33.3637931 C32.0059393,33.8021207 31.5377926,34.6121835 31.5377926,35.4888386 Z" fill="#695447"></path>
                        <path d="M49.3571906,35.5850657 C49.3571906,36.940257 50.4568631,38.0388567 51.8133779,38.0388567 C53.1698927,38.0388567 54.2695652,36.940257 54.2695652,35.5850657 C54.2695652,34.2298743 53.1698927,33.1312747 51.8133779,33.1312747 C50.4568631,33.1312747 49.3571906,34.2298743 49.3571906,35.5850657 Z" fill="#695447"></path>
                    </g>
                    <path d="M2,0 L98,0 C99.1045695,-2.02906125e-16 100,0.8954305 100,2 L100,98 C100,99.1045695 99.1045695,100 98,100 L2,100 C0.8954305,100 1.3527075e-16,99.1045695 0,98 L0,2 C-1.3527075e-16,0.8954305 0.8954305,2.02906125e-16 2,0 Z M3.92,2 C2.85961328,2 2,2.85961328 2,3.92 L2,96.08 C2,97.1403867 2.85961328,98 3.92,98 L96.08,98 C97.1403867,98 98,97.1403867 98,96.08 L98,3.92 C98,2.85961328 97.1403867,2 96.08,2 L3.92,2 Z" id="Combined-Shape" fill="url(#linearGradient-1)"></path>
                </g>
            </g>
        </g>
    </g>
</svg>