<?xml version="1.0" encoding="UTF-8"?>
<svg width="14px" height="14px" viewBox="0 0 14 14" version="1.1" xmlns="http://www.w3.org/2000/svg" xmlns:xlink="http://www.w3.org/1999/xlink">
    <!-- Generator: Sketch 49.3 (51167) - http://www.bohemiancoding.com/sketch -->
    <title>Combined Shape</title>
    <desc>Created with Sketch.</desc>
    <defs>
        <linearGradient x1="13.2225486%" y1="17.9777626%" x2="84.0178648%" y2="83.8611348%" id="linearGradient-1">
            <stop stop-color="#5BABFF" offset="0%"></stop>
            <stop stop-color="#3375FF" offset="100%"></stop>
        </linearGradient>
    </defs>
    <g id="Page-1" stroke="none" stroke-width="1" fill="none" fill-rule="evenodd">
        <g id="租户_预约看房_03详情" transform="translate(-86.000000, -399.000000)" fill="url(#linearGradient-1)" fill-rule="nonzero">
            <g id="02" transform="translate(0.000000, 252.000000)">
                <path d="M98.9483667,148.775468 L97.2403159,150.480183 C98.2265892,151.643436 98.7733888,153.075289 98.7733888,154.62578 C98.7733888,156.343035 98.10264,157.943867 96.9069575,159.137214 C95.682112,160.330561 94.1073107,161 92.3866944,161 C90.6660781,161 89.0621137,160.330561 87.8664312,159.137214 C86.6707487,157.914761 86,156.313929 86,154.62578 C86,152.93763 86.6707487,151.336798 87.8664312,150.114345 C89.0912767,148.920998 90.6952411,148.251559 92.3866944,148.251559 C93.8864876,148.251559 95.3174955,148.777884 96.4764139,149.729079 L98.160966,148.047817 L97.1110985,148.047817 C96.8194686,148.047817 96.5861647,147.814969 96.5861647,147.523909 C96.5861647,147.232848 96.8194686,147 97.1110985,147 L99.4733005,147 C99.7649304,147 99.9982343,147.232848 99.9982343,147.523909 L99.9982343,149.881497 C99.9982343,150.172557 99.7649304,150.405405 99.4733005,150.405405 C99.1816706,150.405405 98.9483667,150.172557 98.9483667,149.881497 L98.9483667,148.775468 Z M92.5,150 C91.3395062,150 90.2037037,150.445055 89.3148148,151.31044 C87.5617284,153.065934 87.5617284,155.934066 89.3148148,157.68956 C90.2037037,158.57967 91.3395062,159 92.5,159 C93.6604938,159 94.7962963,158.57967 95.6851852,157.68956 C97.4382716,155.934066 97.4382716,153.065934 95.6851852,151.31044 C94.7962963,150.445055 93.6604938,150 92.5,150 Z" id="Combined-Shape"></path>
            </g>
        </g>
    </g>
</svg>