<?xml version="1.0" encoding="UTF-8"?>
<svg width="77px" height="28px" viewBox="0 0 77 28" version="1.1" xmlns="http://www.w3.org/2000/svg" xmlns:xlink="http://www.w3.org/1999/xlink">
    <!-- Generator: Sketch 49.3 (51167) - http://www.bohemiancoding.com/sketch -->
    <title>未认证</title>
    <desc>Created with Sketch.</desc>
    <defs></defs>
    <g id="Page-1" stroke="none" stroke-width="1" fill="none" fill-rule="evenodd">
        <g id="房东_个人中心_00已认证" transform="translate(-298.000000, -98.000000)">
            <g id="item_01" transform="translate(18.000000, 74.000000)">
                <g id="未认证" transform="translate(280.000000, 24.000000)">
                    <path d="M14,0 L77,0 L77,28 L14,28 C6.2680135,28 9.46895252e-16,21.7319865 0,14 L0,14 C-9.46895252e-16,6.2680135 6.2680135,1.42034288e-15 14,0 Z" id="Rectangle-2" fill="#000000" opacity="0.200000003"></path>
                    <g id="实名认证" transform="translate(12.000000, 5.000000)" fill-rule="nonzero">
                        <path d="M6.70733945,0.42525081 C6.70733945,0.42525081 5.73853211,1.1333107 4.15321101,1.7528631 C2.7440367,2.28390801 1.33486239,2.3724155 1.33486239,2.3724155 L0.630275229,2.3724155 C0.277981651,2.3724155 0.0137614679,2.63793795 0.0137614679,2.9919679 L0.0137614679,9.89555178 C0.0137614679,11.6657015 0.982568807,13.5243587 2.7440367,15.2060009 C4.3293578,16.7106282 6.17889908,17.6842105 7.5,17.6842105 C6.17889908,17.6842105 6.70733945,0.42525081 6.70733945,0.42525081 Z" id="Shape" fill="#FFFFFF" opacity="0.600000024"></path>
                        <path d="M14.9862385,2.9919679 C14.9862385,2.63793795 14.7220183,2.3724155 14.3697248,2.3724155 L13.6651376,2.3724155 C13.6651376,2.3724155 12.5201835,2.3724155 11.287156,1.92987807 C11.1110092,1.84137058 10.9348624,1.84137058 10.7587156,1.7528631 C9.26146789,1.1333107 8.29266055,0.42525081 8.20458716,0.42525081 L7.85229358,0.0712208674 C7.67614679,-0.0172866183 7.32385321,-0.0172866183 7.14770642,0.0712208674 L6.70733945,0.42525081 C6.70733945,0.42525081 6.17889908,17.6842105 7.5,17.6842105 C8.82110092,17.6842105 10.6706422,16.7106282 12.2559633,15.2060009 C14.0174312,13.5243587 14.9862385,11.577194 14.9862385,9.89555178 L14.9862385,2.9919679 Z" id="Shape" fill="#FFFFFF"></path>
                        <path d="M10.846789,5.64719247 C10.7587156,5.64719247 10.7587156,5.55868498 10.6706422,5.55868498 C10.3183486,5.55868498 10.0541284,5.73569995 9.96605505,6.17823738 L7.5,11.4886865 L7.32385321,11.0461491 L5.12201835,6.17823738 L5.03394495,6.17823738 C4.94587156,5.91271493 4.76972477,5.73569995 4.59357798,5.64719247 C4.50550459,5.55868498 4.41743119,5.55868498 4.3293578,5.55868498 C3.97706422,5.55868498 3.80091743,5.73569995 3.80091743,5.91271493 C3.80091743,6.0897299 3.80091743,6.17823738 3.88899083,6.26674487 L6.79541284,12.4622689 C6.79541284,12.4622689 6.79541284,12.5507764 6.88348624,12.5507764 C6.97155963,12.7277913 7.23577982,12.9048063 7.5,12.9048063 C7.85229358,12.9048063 8.11651376,12.7277913 8.20458716,12.4622689 L11.1110092,6.26674487 C11.1110092,6.17823738 11.1990826,6.00122241 11.1990826,5.91271493 C11.1110092,5.73569995 10.9348624,5.64719247 10.846789,5.64719247 Z" id="Shape" fill="#CCCCCC"></path>
                    </g>
                    <path d="M31.2723787,13.4686825 L31.2723787,11.9200864 L36.0485081,11.9200864 L36.0485081,10.4362851 L31.7221204,10.4362851 L31.7221204,8.92008639 L36.0485081,8.92008639 L36.0485081,8 L38.0565094,8 L38.0565094,8.92008639 L42.6236039,8.92008639 L41.9204867,10.4362851 L38.0565094,10.4362851 L38.0565094,11.9200864 L43.0670112,11.9200864 L42.3892315,13.4103672 L38.0565094,13.4103672 L38.0565094,19.1058315 L36.0485081,19.9805616 L36.0485081,13.4686825 L31.2723787,13.4686825 Z M38.4809135,13.9287257 L40.4445741,13.9287257 L43.1366894,19.987041 L41.192032,19.9805616 L38.4809135,13.9287257 Z M35.6494416,13.9287257 L32.9319887,19.9805616 L31,19.987041 L33.6921154,13.9287257 L35.6494416,13.9287257 Z M53.2843807,8.03239741 L52.5115853,11.3693305 L53.8038006,11.3693305 L55.8688115,20 L53.6011002,20 L52.0808468,13.1187905 L50.4592432,20 L48.273879,20 L51.0736789,8.03887689 L53.2843807,8.03239741 Z M44.4859143,11.511879 L47.4377396,11.511879 L47.4377396,18.3671706 L48.5145858,18.3671706 L47.8114686,19.9157667 L45.277713,19.9157667 L45.277713,13.0604752 L44.4859143,13.0604752 L44.4859143,11.511879 Z M46.1455243,8.09719222 C46.3440028,8.09719222 46.5456455,8.15334717 46.7504584,8.26565875 C46.9552713,8.37797032 47.1157409,8.53779594 47.231872,8.74514039 C47.348003,8.95248484 47.4060677,9.1684654 47.4060677,9.39308855 C47.4018447,9.62203138 47.3437801,9.83693204 47.231872,10.037797 C47.1199639,10.2386619 46.9668843,10.3974076 46.7726288,10.5140389 C46.5783732,10.6306701 46.3693405,10.6868251 46.1455243,10.6825054 C45.9174851,10.6825054 45.7052852,10.6241906 45.5089182,10.5075594 C45.3125511,10.3909281 45.1594716,10.2343422 45.0496749,10.037797 C44.9398783,9.84125172 44.8839251,9.62635106 44.8818136,9.39308855 C44.8797022,9.15982605 44.9356554,8.94384549 45.0496749,8.74514039 C45.1636945,8.54211562 45.3241641,8.38444981 45.5310885,8.27213823 C45.7380129,8.15982665 45.9428228,8.1015119 46.1455243,8.09719222 Z M61.6584431,11.2267819 L63.66011,11.2267819 L63.66011,18.4190065 L64.6672779,18.4190065 L64.6672779,9.69114471 L61.3227205,9.69114471 L61.3227205,8.14902808 L69,8.14902808 L68.2905484,9.69114471 L66.6752792,9.69114471 L66.6752792,12.6328294 L68.8099683,12.6328294 L68.1005168,14.1684665 L66.6752792,14.1684665 L66.6752792,18.4190065 L68.8543091,18.4190065 L68.1448575,19.9805616 L61.1580263,19.9805616 L61.1580263,18.4190065 L61.6584431,18.4190065 L61.6584431,11.2267819 Z M59.9354892,12.062635 L59.9228205,18.5291577 L60.8476413,18.5161987 L60.1825304,20 L57.9148191,19.9935205 L57.9084847,13.6241901 L57.2687115,13.6241901 L57.2687115,12.062635 L59.9354892,12.062635 Z M58.8333056,8.05831533 C59.036007,8.05831533 59.2397612,8.11447028 59.4445741,8.22678186 C59.649387,8.33909343 59.8077452,8.49675924 59.9196533,8.69978402 C60.0315614,8.90280879 60.0885703,9.12094916 60.0906818,9.35421166 C60.0927933,9.58747417 60.0389515,9.80129492 59.9291549,9.99568035 C59.8151353,10.1943854 59.6599443,10.3531312 59.4635773,10.4719222 C59.2672102,10.5907133 59.0571218,10.6479482 58.8333056,10.6436285 C58.6094894,10.6436285 58.3994009,10.5863937 58.2030338,10.4719222 C58.0066668,10.3574508 57.8514758,10.199785 57.7374562,9.99892009 C57.6234367,9.79805515 57.5685392,9.58099469 57.5727621,9.34773218 C57.5727621,9.12310903 57.6308268,8.90712847 57.7469578,8.69978402 C57.8630889,8.49243957 58.021447,8.33477376 58.222037,8.22678186 C58.422627,8.11878996 58.6263811,8.06263501 58.8333056,8.05831533 Z" fill="#FFFFFF"></path>
                </g>
            </g>
        </g>
    </g>
</svg>