<?xml version="1.0" encoding="UTF-8"?>
<svg width="18px" height="18px" viewBox="0 0 18 18" version="1.1" xmlns="http://www.w3.org/2000/svg" xmlns:xlink="http://www.w3.org/1999/xlink">
    <!-- Generator: Sketch 49.3 (51167) - http://www.bohemiancoding.com/sketch -->
    <title>shezhi</title>
    <desc>Created with Sketch.</desc>
    <defs></defs>
    <g id="Page-1" stroke="none" stroke-width="1" fill="none" fill-rule="evenodd">
        <g id="租户_个人中心_01已认证" transform="translate(-17.000000, -629.000000)" fill-rule="nonzero">
            <g id="item_04" transform="translate(18.000000, 602.000000)">
                <g id="shezhi" transform="translate(0.000000, 28.000000)">
                    <path d="M15.8420077,6.41612178 C15.8141081,6.25957611 15.7006564,6.13523585 15.5529824,6.09935689 C14.7272409,5.90322195 14.0182419,5.35084115 13.5997304,4.57757919 C13.1755158,3.80036225 13.079174,2.89578623 13.327798,2.03203042 C13.3728463,1.87957869 13.3277062,1.71356547 13.2128094,1.60913297 C12.4504952,0.911998772 11.5687245,0.373913672 10.614689,0.0236757187 C10.4724172,-0.0289033227 10.3140136,0.0128692256 10.212229,0.129808297 C9.63107051,0.789463016 8.84168946,1.15357934 7.99326021,1.15357934 C7.14483096,1.15357934 6.35544989,0.789463 5.77273749,0.128175484 C5.66999521,0.0117707025 5.51150992,-0.0298626378 5.36872355,0.0220429219 C4.41511399,0.372949725 3.53387504,0.911586268 2.77215712,1.60913297 C2.65861953,1.71377242 2.6136743,1.87843082 2.65716854,2.03039761 C2.90854236,2.88143323 2.81054147,3.8040879 2.38678998,4.57594638 C1.96905132,5.34923721 1.2604933,5.90171396 0.435091926,6.09772408 C0.286534191,6.13385886 0.172274226,6.25872358 0.143735717,6.41612178 C0.0490148387,6.93848682 0.000894286516,7.46900069 -1.13686838e-13,8.00076263 C0.00120436339,8.532277 0.0495847825,9.06251487 0.144512669,9.58458706 C0.172412349,9.74113273 0.285863961,9.86547299 0.433538022,9.90135195 C1.25935144,10.0973221 1.96840767,10.6497475 2.38678998,11.4231297 C2.81031927,12.1947672 2.90831471,13.1170747 2.65716854,13.967862 C2.61377014,14.120329 2.65865353,14.2853981 2.77215712,14.3907595 C3.53419709,15.087439 4.41537317,15.625483 5.36872355,15.9762167 C5.40866664,15.9910321 5.45067813,15.9987574 5.49303554,15.999076 C5.59864419,15.9994786 5.69956164,15.9532702 5.77118358,15.871717 C6.35389599,15.2104294 7.14327704,14.8463131 7.9917063,14.8463131 C8.84013557,14.8463131 9.62951662,15.2104294 10.212229,15.871717 C10.3148642,15.9883118 10.4734659,16.0299758 10.6162429,15.9778495 C11.5696092,15.6271521 12.4507915,15.0891043 13.2128094,14.3923923 C13.326313,14.287031 13.3711964,14.1219618 13.327798,13.9694948 C13.0776201,13.105739 13.1739619,12.201163 13.5997304,11.4239461 C14.0174089,10.6499092 14.7267773,10.0972406 15.5529824,9.90216836 C15.7003205,9.86566985 15.8135048,9.74162251 15.8420077,9.58540347 C15.9366202,9.06302219 15.9847398,8.53251899 15.9857434,8.00076263 C15.9845094,7.46870918 15.9361297,6.93793227 15.8412308,6.41530537 L15.8420077,6.41612178 Z M14.7309694,9.12005298 C13.856996,9.40004194 13.1170559,10.0187853 12.661175,10.8508302 C12.2081579,11.6868252 12.0711392,12.671346 12.2773618,13.6086441 C11.7256404,14.0813003 11.1062773,14.4593352 10.4422062,14.7287509 C9.78218076,14.0668291 8.9040886,13.6988091 7.9917063,13.7017142 C7.08049273,13.7051977 6.20456827,14.0723092 5.54120642,14.7287509 C4.87714659,14.4593105 4.25778703,14.0812778 3.70605086,13.6086441 C3.91864461,12.6715392 3.78098941,11.6844432 3.32146067,10.8508302 C2.86560987,10.0187581 2.12565808,9.40000505 1.25166623,9.12005298 C1.19545281,8.74987892 1.16713568,8.37561971 1.16697869,8.00076263 C1.16747181,7.62561653 1.19604811,7.25109242 1.25244318,6.88065586 C2.12634071,6.60045102 2.86605034,5.98137627 3.32146067,5.14906223 C3.77551424,4.31345476 3.91285506,3.32861319 3.70605086,2.39124834 C4.25778518,1.91861186 4.87714518,1.54057888 5.54120642,1.27114158 C6.2038153,1.92902267 7.08009875,2.29686845 7.9917063,2.29981105 C8.90414633,2.30303464 9.78234752,1.93496898 10.4422062,1.27277438 C11.1062773,1.54219001 11.7256404,1.9202249 12.2773618,2.39288114 C12.069913,3.32994226 12.2064159,4.31474339 12.6596211,5.15069505 C13.1154869,5.98275352 13.8554329,6.60150175 14.7294155,6.88147227 C14.7857827,7.25163806 14.814359,7.62588856 14.81488,8.00076263 C14.8164164,8.37538496 14.7883498,8.74949462 14.7309694,9.11923658 L14.7309694,9.12005298 Z" id="Shape" stroke="#FF8200" stroke-width="0.1" fill="#FF8200"></path>
                    <path d="M7.99403714,4.95761519 C6.37972956,4.95761519 5.06610158,6.30333466 5.06610159,7.95660113 C5.06610161,9.60986761 6.37953533,10.9575998 7.99403714,10.9575998 C8.16999692,10.9558349 8.34547389,10.9381903 8.5184783,10.904866 C8.80069314,10.8585135 9.00016808,10.5937641 8.97510573,10.2988157 C8.95004338,10.0038673 8.70899123,9.77931172 8.42330195,9.78477492 C8.3894204,9.7848002 8.35561197,9.78803403 8.32229847,9.79443608 C8.21456075,9.81634948 8.10517239,9.82840526 7.99539682,9.83046416 C6.98788708,9.83046416 6.16839921,8.99054682 6.16839921,7.95861388 C6.16839921,6.92668094 6.98672165,6.0867636 7.99267749,6.0867636 C8.99863332,6.0867636 9.81850967,6.92647966 9.81850967,7.95861388 C9.81741727,8.07060421 9.80590396,8.18222433 9.78412964,8.291924 C9.75863611,8.4400488 9.79115194,8.59259454 9.87448325,8.71581167 C9.95781456,8.8390288 10.085092,8.92276004 10.2281565,8.94848051 C10.2611698,8.95463313 10.2946458,8.95773154 10.3281888,8.95773913 C10.5928233,8.9594281 10.8206123,8.76442272 10.8689459,8.49480841 C10.9023196,8.31814915 10.9195534,8.13862403 10.9204188,7.95861388 C10.9223571,7.16064757 10.613269,6.39567781 10.0632489,5.83718355 C9.51325871,5.27142082 8.76900851,4.95505931 7.99403714,4.95761519 Z" id="Shape" fill="#FFCC01"></path>
                </g>
            </g>
        </g>
    </g>
</svg>