<?xml version="1.0" encoding="UTF-8"?>
<svg width="16px" height="16px" viewBox="0 0 16 16" version="1.1" xmlns="http://www.w3.org/2000/svg" xmlns:xlink="http://www.w3.org/1999/xlink">
    <!-- Generator: Sketch 49.3 (51167) - http://www.bohemiancoding.com/sketch -->
    <title>shoucang</title>
    <desc>Created with Sketch.</desc>
    <defs></defs>
    <g id="Page-1" stroke="none" stroke-width="1" fill="none" fill-rule="evenodd">
        <g id="租户_个人中心_01已认证" transform="translate(-18.000000, -343.000000)">
            <g id="item_01" transform="translate(18.000000, 314.000000)">
                <g id="shoucang" transform="translate(0.000000, 29.000000)">
                    <path d="M8.00610138,15.9999598 C8.00254594,15.9999866 7.99898965,16 7.99543255,16 C7.64255356,16 7.31076387,15.8777604 7.03581373,15.6466739 C7.02566382,15.6385165 6.99916123,15.6178185 6.96036597,15.5873803 C5.42941927,14.3848296 2.66232476,12.0302555 1.3315571,9.77040497 C0.768123618,8.82170849 0,7.52857382 0,5.68645654 C0,2.55096109 2.20151825,0 4.90760047,0 C6.08792371,0 7.1263736,0.486767009 8.00400359,1.44922154 C8.87486697,0.497846507 9.93248891,0 11.10176,0 C13.8026545,0 16,2.55096109 16,5.68645654 C16,7.07385362 15.564347,8.14988685 15.109671,9 L13.5181746,9 C13.52144,8.9945402 13.5246918,8.98908669 13.5279299,8.98363949 C14.0542598,8.0976456 14.6465642,7.10036982 14.6465642,5.68633479 C14.6465642,3.35647648 13.0562968,1.46090979 11.1016472,1.46090979 C10.0954516,1.46090979 9.26045125,1.9661832 8.54871612,3.0058289 L8.007838,3.79600347 L7.46278715,3.00923797 C6.74101486,1.96752248 5.90522511,1.46103154 4.90760047,1.46103154 C2.94776315,1.46103154 1.35332305,3.35659822 1.35332305,5.68645654 C1.35332305,7.10036982 1.94551466,8.09752386 2.4681229,8.9771866 C3.35793281,10.4881367 5.28337316,12.4634514 7.75645824,14.4057711 C7.81487669,14.4516718 7.85254418,14.4815012 7.86697963,14.4937982 C7.87987157,14.504661 7.89303187,14.5140365 7.90811387,14.5213862 L8.00610138,14.5999322 L8.00610138,15.9999599 Z" id="btn_cellection" fill="#FF8200" fill-rule="nonzero"></path>
                    <path d="M9.01656858,9.875 L10.3529412,9.875 L10.3529412,11.1834785 L9.01656858,11.1834785 L9.01656858,9.875 Z M11.2941176,9.875 L16,9.875 L16,11.1834785 L11.2941176,11.1834785 L11.2941176,9.875 Z M9.01656858,12.2564623 L10.3529412,12.2564623 L10.3529412,13.5649408 L9.01656858,13.5649408 L9.01656858,12.2564623 Z M11.2941176,12.2564623 L16,12.2564623 L16,13.5649408 L11.2941176,13.5649408 L11.2941176,12.2564623 Z M9.01656858,14.6850987 L10.3529412,14.6850987 L10.3529412,15.9935773 L9.01656858,15.9935773 L9.01656858,14.6850987 Z M11.2941176,14.6850987 L16,14.6850987 L16,15.9935773 L11.2941176,15.9935773 L11.2941176,14.6850987 Z" id="Combined-Shape" fill="#FFCC01"></path>
                </g>
            </g>
        </g>
    </g>
</svg>