<?xml version="1.0" encoding="UTF-8"?>
<svg width="16px" height="16px" viewBox="0 0 16 16" version="1.1" xmlns="http://www.w3.org/2000/svg" xmlns:xlink="http://www.w3.org/1999/xlink">
    <!-- Generator: Sketch 49.3 (51167) - http://www.bohemiancoding.com/sketch -->
    <title>Shape</title>
    <desc>Created with Sketch.</desc>
    <defs>
        <linearGradient x1="100%" y1="0%" x2="0%" y2="100%" id="linearGradient-1">
            <stop stop-color="#20E2D7" offset="0%"></stop>
            <stop stop-color="#F9FEA5" offset="100%"></stop>
        </linearGradient>
    </defs>
    <g id="Page-1" stroke="none" stroke-width="1" fill="none" fill-rule="evenodd">
        <g id="租户_个人中心_01已认证" transform="translate(-14.000000, -34.000000)" fill="#666666" fill-rule="nonzero">
            <g id="top-bar_show">
                <path d="M25.3285113,48.3998459 L17.6000474,48.3998459 C16.6441086,48.4037742 15.7261864,48.0257778 15.0502188,47.3498374 C14.3742512,46.673897 13.9962217,45.7559941 14.0001186,44.8000623 C14.0001186,42.7999585 15.600166,41.2000415 17.6000474,41.2000415 L26.4000711,41.2000415 C26.9320778,41.2051616 27.443784,40.9960777 27.8199759,40.6198663 C28.1961677,40.243655 28.4052228,39.7319402 28.4000711,39.1999377 C28.4052559,38.6679362 28.1962075,38.1562142 27.820005,37.7800144 C27.4438024,37.4038147 26.9320766,37.1947679 26.4000711,37.1999526 L18.6714887,37.1999526 C18.3539456,38.1473577 17.4773226,38.7998696 16.3999526,38.7998696 C15.040019,38.7998696 14,37.7598583 14,36.3999348 C14,35.0400113 15.040019,34 16.3999526,34 C17.4773226,34 18.3539456,34.6526305 18.6714887,35.6000356 L26.3999526,35.6000356 C27.3559217,35.5960751 28.2738806,35.9740775 28.9498587,36.6500506 C29.6258367,37.3260236 30.0038419,38.2439757 29.9998814,39.1999377 C30.0038738,40.1559095 29.6258789,41.0738802 28.9498939,41.7498602 C28.2739089,42.4258402 27.3559314,42.8038323 26.3999526,42.7998399 L17.6000474,42.7998399 C17.0680602,42.7947497 16.5563698,43.0037828 16.180115,43.3799032 C15.8039215,43.7562055 15.59488,44.2679944 15.6000474,44.8000623 C15.5947975,45.3320833 15.803825,45.8438434 16.1800418,46.2200574 C16.5562586,46.5962714 17.0680224,46.8052973 17.6000474,46.8000474 L25.3286299,46.8000474 C25.646173,45.8526423 26.5226774,45.2001304 27.6000474,45.2001304 C28.9600996,45.2001304 30,46.2401417 30,47.6000652 C30,48.9599887 28.959981,50 27.6000474,50 C26.5226774,49.9998814 25.6460544,49.3472509 25.3285113,48.3998459 Z" id="Shape"></path>
            </g>
        </g>
    </g>
</svg>