<?xml version="1.0" encoding="UTF-8"?>
<svg width="16px" height="16px" viewBox="0 0 16 16" version="1.1" xmlns="http://www.w3.org/2000/svg" xmlns:xlink="http://www.w3.org/1999/xlink">
    <!-- Generator: Sketch 49.3 (51167) - http://www.bohemiancoding.com/sketch -->
    <title>tuijian</title>
    <desc>Created with Sketch.</desc>
    <defs></defs>
    <g id="Page-1" stroke="none" stroke-width="1" fill="none" fill-rule="evenodd">
        <g id="租户_个人中心_01已认证" transform="translate(-18.000000, -414.000000)" fill-rule="nonzero">
            <g id="item_01" transform="translate(18.000000, 386.000000)">
                <g id="tuijian" transform="translate(0.000000, 28.000000)">
                    <path d="M15.9928242,7.42857142 L15.1283472,14.08 C15.1067353,15.1314286 14.2854821,16 13.2913336,16 L3.99820604,16 C2.98244558,16 2.16119245,15.1085714 2.16119245,14.0342857 L2.16119245,6.62857142 C2.16119245,6.44571428 2.24764016,6.26285714 2.3773117,6.17142858 C2.50698325,6.05714286 2.70149057,6.03428572 2.85277404,6.08 C3.11211714,6.14857142 3.39307216,6.19428572 3.67402717,6.21714286 C5.83521962,6.21714286 6.18101042,2.21714286 6.20262235,2.14857142 C6.33229389,0.914285703 7.28321857,0 8.4502625,0 C9.63891835,-4.4408921e-16 10.8059623,1.25714286 10.8059623,3.45142858 C10.8491861,4.11428572 10.7627384,4.77714286 10.5682311,5.41714286 L14.1558106,5.41714286 C15.171571,5.41714286 15.9928242,6.30857144 15.9928242,7.38285714 L15.9928242,7.42857142 Z M14.1558106,6.56 L9.81181375,6.56 C9.5092468,6.56 9.27151563,6.30857142 9.27151563,5.98857142 C9.27151563,5.92 9.29312755,5.85142856 9.31473949,5.78285714 C9.63891835,5.05142856 9.7685899,4.25142856 9.72536604,3.45142858 C9.72536604,1.71428572 9.07700831,1.14285714 8.4502625,1.14285714 C7.88835246,1.14285714 7.3912782,1.55428572 7.28321857,2.14857142 C6.91581586,4.70857142 6.26745811,7.33714286 3.24178868,7.33714286 L3.24178868,14.0571429 C3.24178868,14.4914286 3.58757946,14.8571429 3.99820604,14.8571429 L13.2913336,14.8571429 C13.7019602,14.8571429 14.047751,14.4914286 14.047751,14.0571429 L14.047751,13.9885714 L14.9122279,7.36 C14.890616,6.90285714 14.5664372,6.56 14.1558106,6.56 Z" id="Shape" fill="#FF8200"></path>
                    <path d="M0.54029812,14.8571429 C0.237731176,14.8571429 0,14.6057143 0,14.2857143 L0,8.11428572 C0,7.79428572 0.237731176,7.54285714 0.54029812,7.54285714 C0.842865064,7.54285714 1.08059623,7.79428572 1.08059623,8.11428572 L1.08059623,14.2857143 C1.08059623,14.6057143 0.842865064,14.8571429 0.54029812,14.8571429 Z" id="Shape" fill="#FFCC01"></path>
                </g>
            </g>
        </g>
    </g>
</svg>