<?xml version="1.0" encoding="UTF-8"?>
<svg width="16px" height="16px" viewBox="0 0 16 16" version="1.1" xmlns="http://www.w3.org/2000/svg" xmlns:xlink="http://www.w3.org/1999/xlink">
    <!-- Generator: Sketch 49.3 (51167) - http://www.bohemiancoding.com/sketch -->
    <title>xiaoxi</title>
    <desc>Created with Sketch.</desc>
    <defs></defs>
    <g id="Page-1" stroke="none" stroke-width="1" fill="none" fill-rule="evenodd">
        <g id="租户_个人中心_01已认证" transform="translate(-18.000000, -486.000000)" fill-rule="nonzero">
            <g id="item_02" transform="translate(18.000000, 458.000000)">
                <g id="xiaoxi" transform="translate(0.000000, 28.000000)">
                    <path d="M13.5576357,13.6216216 L2.44236431,13.6216216 C1.1148319,13.6432433 0.0348055447,12.627027 0.0123049919,11.3513513 C0.0123049919,10.4864865 0.552318179,9.68648648 1.36233795,9.31891892 L1.36233795,6.37837837 C1.36233795,2.85405405 4.33241046,0 8,0 C11.6675895,0 14.637662,2.85405405 14.637662,6.37837837 L14.637662,9.31891892 C15.4476818,9.68648648 15.987695,10.4864865 15.987695,11.3513513 C15.9651945,12.627027 14.8851681,13.6432432 13.5576357,13.6216216 Z M13.9176445,10.2054054 C13.6701384,10.1405405 13.5126346,9.92432433 13.5126346,9.68648648 L13.5126346,6.37837837 C13.5126346,3.45945945 11.0375742,1.08108108 8,1.08108108 C4.96242584,1.08108108 2.48736541,3.45945945 2.48736541,6.37837837 L2.48736541,9.68648648 C2.48736541,9.92432433 2.30736102,10.1405405 2.08235553,10.2054054 C1.51984179,10.3351351 1.13733246,10.8108108 1.13733246,11.3513513 C1.15983301,12.0216216 1.72234673,12.5621622 2.44236431,12.5405405 L13.5801362,12.5405405 C14.2776533,12.5621622 14.8626675,12.0216216 14.8851681,11.3513513 C14.8626675,10.8108108 14.4801582,10.3351351 13.9176445,10.2054054 Z" id="Shape" fill="#FF8200"></path>
                    <path d="M10.5875632,13.6216216 C10.5875632,14.9405405 9.48503626,16 8.11250275,16 C6.73996924,16 5.63744233,14.9405405 5.63744233,13.6216216 L10.5875632,13.6216216 Z M8.11250275,14.9189189 C8.85502088,14.9189189 9.46253571,14.3351351 9.46253571,13.6216216 L6.76246979,13.6216216 C6.76246979,14.3351351 7.36998462,14.9189189 8.11250275,14.9189189 Z" id="Shape" fill="#FFCC01"></path>
                </g>
            </g>
        </g>
    </g>
</svg>