<?xml version="1.0" encoding="UTF-8"?>
<svg width="21px" height="33px" viewBox="0 0 21 33" version="1.1" xmlns="http://www.w3.org/2000/svg" xmlns:xlink="http://www.w3.org/1999/xlink">
    <!-- Generator: Sketch 49.3 (51167) - http://www.bohemiancoding.com/sketch -->
    <title>已读</title>
    <desc>Created with Sketch.</desc>
    <defs></defs>
    <g id="Page-1" stroke="none" stroke-width="1" fill="none" fill-rule="evenodd">
        <g id="租户_系统消息_01列表" transform="translate(-336.000000, -304.000000)">
            <g id="item_02" transform="translate(0.000000, 304.000000)">
                <g id="已读" transform="translate(336.000000, 0.000000)">
                    <path d="M-3.94489866,6.58239336 C-4.21074009,6.58239336 -4.47658153,6.71177342 -4.74242296,6.84115345 C-5.27410583,7.22929362 -5.53994725,8.00557396 -5.1411851,8.52309416 L-0.0901978935,16.1565174 C0.17564353,16.5446575 0.17564353,17.0621777 -0.0901978935,17.5796979 L-5.1411851,25.2131211 C-5.27410583,25.4718812 -5.40702653,25.6012613 -5.40702655,25.8600214 C-5.40702655,26.6363017 -4.87534368,27.1538219 -4.07781939,27.1538219 L26.4070266,27.1538219 L26.4070266,6.58239336 L-3.94489866,6.58239336 Z" id="Shape" fill="#58CAB4" fill-rule="nonzero" transform="translate(10.500000, 16.868108) rotate(-90.000000) translate(-10.500000, -16.868108) "></path>
                    <polygon id="已" fill="#FFFFFF" points="14.757616 4.71428571 14.752725 8.15620531 13.2316238 9.39091054 7.92977921 9.40044494 7.92977921 12.1749563 14.875 12.1749563 14.3467719 13.2857143 6.23260201 13.2857143 6.23749301 7.11218815 7.92488821 7.11218815 7.92488821 8.28968695 13.0506568 8.28491975 13.0506568 5.8250437 6.125 5.8250437 6.125 4.71428571"></polygon>
                    <path d="M6.125,18.553581 L8.1244661,18.553581 L8.1338094,23.4731142 L8.89061666,23.4776905 L8.37206353,24.5668523 L6.64822477,24.5714286 L6.64822477,19.6564717 L6.125,19.6564717 L6.125,18.553581 Z M7.41904698,16 C7.55919718,16 7.69856667,16.0366101 7.83715964,16.1098314 C7.97575261,16.1830528 8.08553528,16.2875441 8.16651095,16.4233087 C8.24748661,16.5590732 8.28797384,16.7017001 8.28797384,16.8511937 C8.28485939,17.0037381 8.24437216,17.146365 8.16651095,17.2790786 C8.08864973,17.4117923 7.98353866,17.5155209 7.85117459,17.5902677 C7.71881051,17.6650145 7.57476942,17.7008619 7.41904698,17.697811 C7.2602101,17.697811 7.1138332,17.6612009 6.97991191,17.5879796 C6.84599061,17.5147582 6.74165814,17.412555 6.66691137,17.2813668 C6.5921646,17.1501786 6.55401318,17.0075517 6.55245595,16.8534818 C6.55089873,16.6994119 6.58905015,16.556785 6.66691137,16.4255968 C6.74477259,16.2883068 6.85377666,16.1838155 6.99392686,16.1121196 C7.13407705,16.0404237 7.27578234,16.0030509 7.41904698,16 Z M12.8942205,19.1393486 L12.8942205,21.8073374 L14.7909103,21.8073374 L14.2630139,22.7958203 L13.3473705,22.7958203 L14.875,24.4524445 L13.1044447,24.4478682 L12.2028163,23.4456563 L10.913441,24.4478682 L8.91397491,24.4478682 L11.0115456,22.8003966 L8.99339295,22.7958203 L8.99339295,21.8073374 L11.4226508,21.8073374 L11.4226508,19.1393486 L12.8942205,19.1393486 Z M10.9835158,16.0823736 L12.4691004,16.0823736 L12.4691004,16.4027153 L14.7628804,16.4027153 L14.1976108,17.3545878 L12.4691004,17.3545878 L12.4691004,18.0090001 L14.702149,18.0090001 L14.702149,20.3429182 L13.2539375,20.8371596 L13.2539375,18.997483 L8.9513481,18.997483 L8.9513481,18.0090001 L10.9835158,18.0090001 L10.9835158,17.3545878 L8.99339295,17.3545878 L8.99339295,16.4027153 L10.9835158,16.4027153 L10.9835158,16.0823736 Z M11.1563668,20.2193578 L9.94173785,20.2193578 L9.16624399,19.1851117 L10.3808729,19.1851117 L11.1563668,20.2193578 Z M11.1703817,21.4229273 L9.94173785,21.4229273 L9.24566204,20.3886813 L10.4322611,20.3886813 L11.1703817,21.4229273 Z" id="读" fill="#FFFFFF"></path>
                </g>
            </g>
        </g>
    </g>
</svg>