<?xml version="1.0" encoding="UTF-8"?>
<svg width="21px" height="33px" viewBox="0 0 21 33" version="1.1" xmlns="http://www.w3.org/2000/svg" xmlns:xlink="http://www.w3.org/1999/xlink">
    <!-- Generator: Sketch 49.3 (51167) - http://www.bohemiancoding.com/sketch -->
    <title>未读</title>
    <desc>Created with Sketch.</desc>
    <defs></defs>
    <g id="Page-1" stroke="none" stroke-width="1" fill="none" fill-rule="evenodd">
        <g id="租户_系统消息_01列表" transform="translate(-336.000000, -73.000000)">
            <g id="item_01" transform="translate(0.000000, 73.000000)">
                <g id="未读" transform="translate(336.000000, 0.000000)">
                    <path d="M-3.94489866,6.58239336 C-4.21074009,6.58239336 -4.47658153,6.71177342 -4.74242296,6.84115345 C-5.27410583,7.22929362 -5.53994725,8.00557396 -5.1411851,8.52309416 L-0.0901978935,16.1565174 C0.17564353,16.5446575 0.17564353,17.0621777 -0.0901978935,17.5796979 L-5.1411851,25.2131211 C-5.27410583,25.4718812 -5.40702653,25.6012613 -5.40702655,25.8600214 C-5.40702655,26.6363017 -4.87534368,27.1538219 -4.07781939,27.1538219 L26.4070266,27.1538219 L26.4070266,6.58239336 L-3.94489866,6.58239336 Z" id="Shape" fill="#FF5864" fill-rule="nonzero" transform="translate(10.500000, 16.868108) rotate(-90.000000) translate(-10.500000, -16.868108) "></path>
                    <path d="M6.32137265,8.62471042 L6.32137265,7.51737452 L9.76474426,7.51737452 L9.76474426,6.45637066 L6.64561587,6.45637066 L6.64561587,5.37220077 L9.76474426,5.37220077 L9.76474426,4.71428571 L11.2124217,4.71428571 L11.2124217,5.37220077 L14.5050887,5.37220077 L13.9981733,6.45637066 L11.2124217,6.45637066 L11.2124217,7.51737452 L14.8247651,7.51737452 L14.3361169,8.58301158 L11.2124217,8.58301158 L11.2124217,12.6555985 L9.76474426,13.2810811 L9.76474426,8.62471042 L6.32137265,8.62471042 Z M11.5183977,8.95366795 L12.9341075,8.95366795 L14.875,13.2857143 L13.4729906,13.2810811 L11.5183977,8.95366795 Z M9.47703549,8.95366795 L7.51787578,13.2810811 L6.125,13.2857143 L8.06589248,8.95366795 L9.47703549,8.95366795 Z" id="未" fill="#FFFFFF"></path>
                    <path d="M6.125,17.553581 L8.1244661,17.553581 L8.1338094,22.4731142 L8.89061666,22.4776905 L8.37206353,23.5668523 L6.64822477,23.5714286 L6.64822477,18.6564717 L6.125,18.6564717 L6.125,17.553581 Z M7.41904698,15 C7.55919718,15 7.69856667,15.0366101 7.83715964,15.1098314 C7.97575261,15.1830528 8.08553528,15.2875441 8.16651095,15.4233087 C8.24748661,15.5590732 8.28797384,15.7017001 8.28797384,15.8511937 C8.28485939,16.0037381 8.24437216,16.146365 8.16651095,16.2790786 C8.08864973,16.4117923 7.98353866,16.5155209 7.85117459,16.5902677 C7.71881051,16.6650145 7.57476942,16.7008619 7.41904698,16.697811 C7.2602101,16.697811 7.1138332,16.6612009 6.97991191,16.5879796 C6.84599061,16.5147582 6.74165814,16.412555 6.66691137,16.2813668 C6.5921646,16.1501786 6.55401318,16.0075517 6.55245595,15.8534818 C6.55089873,15.6994119 6.58905015,15.556785 6.66691137,15.4255968 C6.74477259,15.2883068 6.85377666,15.1838155 6.99392686,15.1121196 C7.13407705,15.0404237 7.27578234,15.0030509 7.41904698,15 Z M12.8942205,18.1393486 L12.8942205,20.8073374 L14.7909103,20.8073374 L14.2630139,21.7958203 L13.3473705,21.7958203 L14.875,23.4524445 L13.1044447,23.4478682 L12.2028163,22.4456563 L10.913441,23.4478682 L8.91397491,23.4478682 L11.0115456,21.8003966 L8.99339295,21.7958203 L8.99339295,20.8073374 L11.4226508,20.8073374 L11.4226508,18.1393486 L12.8942205,18.1393486 Z M10.9835158,15.0823736 L12.4691004,15.0823736 L12.4691004,15.4027153 L14.7628804,15.4027153 L14.1976108,16.3545878 L12.4691004,16.3545878 L12.4691004,17.0090001 L14.702149,17.0090001 L14.702149,19.3429182 L13.2539375,19.8371596 L13.2539375,17.997483 L8.9513481,17.997483 L8.9513481,17.0090001 L10.9835158,17.0090001 L10.9835158,16.3545878 L8.99339295,16.3545878 L8.99339295,15.4027153 L10.9835158,15.4027153 L10.9835158,15.0823736 Z M11.1563668,19.2193578 L9.94173785,19.2193578 L9.16624399,18.1851117 L10.3808729,18.1851117 L11.1563668,19.2193578 Z M11.1703817,20.4229273 L9.94173785,20.4229273 L9.24566204,19.3886813 L10.4322611,19.3886813 L11.1703817,20.4229273 Z" id="读" fill="#FFFFFF"></path>
                </g>
            </g>
        </g>
    </g>
</svg>