<?xml version="1.0" encoding="UTF-8"?>
<svg width="24px" height="10px" viewBox="0 0 24 10" version="1.1" xmlns="http://www.w3.org/2000/svg" xmlns:xlink="http://www.w3.org/1999/xlink">
    <!-- Generator: Sketch 49.3 (51167) - http://www.bohemiancoding.com/sketch -->
    <title>btn_vr</title>
    <desc>Created with Sketch.</desc>
    <defs>
        <linearGradient x1="100%" y1="0%" x2="0%" y2="100%" id="linearGradient-1">
            <stop stop-color="#20E2D7" offset="0%"></stop>
            <stop stop-color="#F9FEA5" offset="100%"></stop>
        </linearGradient>
    </defs>
    <g id="Page-1" stroke="none" stroke-width="1" fill="none" fill-rule="evenodd">
        <g id="我要租房_07房源详情_00" transform="translate(-186.000000, -36.000000)" fill="#FFFFFF">
            <g id="top-bar_show">
                <path d="M194.891545,36.0359712 L198.133483,36.0359712 L193.764551,45.9352518 L190.471386,45.9352518 L186,36.028777 L189.278529,36.028777 L192.169195,42.3884892 L194.891545,36.0359712 Z M199.743475,41.0824677 L202.44738,41.0824677 L202.44738,38.297039 L199.743475,38.297039 L199.743475,36 L207.032346,36 C207.778801,36 208.345951,36.1007184 208.733815,36.3021583 C209.121678,36.5035981 209.405863,36.791365 209.586378,37.1654676 C209.766894,37.5395702 209.880324,37.8705022 209.926672,38.1582734 C209.973021,38.4460446 209.997414,38.8465202 209.999854,39.3597122 C210.002293,39.8729042 209.97424,40.2973604 209.915695,40.6330935 C209.85715,40.9448457 209.764454,41.1906466 209.637606,41.3705036 C209.510757,41.5503606 209.344881,41.6954431 209.139972,41.8057554 L208.561838,42.1366906 C208.786263,42.2374106 208.975313,42.3333329 209.128994,42.4244604 C209.282676,42.515588 209.430257,42.6462821 209.571742,42.8165468 C209.713227,42.9868114 209.805923,43.1678647 209.849832,43.3597122 C209.893741,43.5515597 209.915695,43.731414 209.915695,43.8992806 L209.901059,46 L207.054301,46 L207.054301,44.7410072 C207.054301,44.4628283 207.010392,44.2290177 206.922574,44.0395683 C206.834756,43.850119 206.699372,43.6918472 206.516417,43.5647482 C206.333463,43.4376492 206.124897,43.3717027 205.890716,43.3669065 L202.451188,43.3597122 L202.44387,46 L199.743475,46 L199.743475,41.0824677 Z M202.451188,38.294964 L205.700444,38.294964 C206.03708,38.294964 206.296872,38.3513184 206.479826,38.4640288 C206.662781,38.5767392 206.803044,38.7218217 206.90062,38.8992806 C207.027468,39.1390899 207.082354,39.4676238 207.065278,39.8848921 C207.048202,40.3021604 206.996976,40.5719418 206.911597,40.6942446 C206.826218,40.8165474 206.714008,40.9124697 206.574962,40.9820144 C206.435917,41.0515591 206.151732,41.0863309 205.722398,41.0863309 L202.451188,41.0863309 L202.451188,38.294964 Z" id="btn_vr"></path>
            </g>
        </g>
    </g>
</svg>