<?xml version="1.0" encoding="UTF-8"?>
<svg width="16px" height="16px" viewBox="0 0 16 16" version="1.1" xmlns="http://www.w3.org/2000/svg" xmlns:xlink="http://www.w3.org/1999/xlink">
    <!-- Generator: Sketch 49.3 (51167) - http://www.bohemiancoding.com/sketch -->
    <title>btn_share</title>
    <desc>Created with Sketch.</desc>
    <defs>
        <linearGradient x1="100%" y1="0%" x2="0%" y2="100%" id="linearGradient-1">
            <stop stop-color="#20E2D7" offset="0%"></stop>
            <stop stop-color="#F9FEA5" offset="100%"></stop>
        </linearGradient>
    </defs>
    <g id="Page-1" stroke="none" stroke-width="1" fill="none" fill-rule="evenodd">
        <g id="我要租房_07房源详情_00" transform="translate(-345.000000, -33.000000)" fill="#FFFFFF">
            <g id="top-bar_show">
                <path d="M359.222222,47.2222222 L346.777778,47.2222222 L346.777778,34.7782222 L353,34.7782222 L353,33 L346.777778,33 C345.791111,33 345,33.8 345,34.7782222 L345,47.2222222 C345,48.2 345.791111,49 346.777778,49 L359.222222,49 C360.2,49 361,48.2 361,47.2222222 L361,41 L359.222222,41 L359.222222,47.2222222 L359.222222,47.2222222 Z M354.777778,33 L354.777778,34.7782222 L357.968889,34.7782222 L349.231111,43.5155556 L350.484444,44.7688889 L359.222222,36.0315556 L359.222222,39.2222222 L361,39.2222222 L361,33 L354.777778,33 L354.777778,33 Z" id="btn_share"></path>
            </g>
        </g>
    </g>
</svg>