<?xml version="1.0" encoding="UTF-8"?>
<svg width="16px" height="16px" viewBox="0 0 16 16" version="1.1" xmlns="http://www.w3.org/2000/svg" xmlns:xlink="http://www.w3.org/1999/xlink">
    <!-- Generator: Sketch 49.3 (51167) - http://www.bohemiancoding.com/sketch -->
    <title>btn_chat</title>
    <desc>Created with Sketch.</desc>
    <defs>
        <linearGradient x1="100%" y1="0%" x2="0%" y2="100%" id="linearGradient-1">
            <stop stop-color="#20E2D7" offset="0%"></stop>
            <stop stop-color="#F9FEA5" offset="100%"></stop>
        </linearGradient>
    </defs>
    <g id="Page-1" stroke="none" stroke-width="1" fill="none" fill-rule="evenodd">
        <g id="我要租房_07房源详情_00" transform="translate(-269.000000, -33.000000)" fill="#ff8200" fill-rule="nonzero">
            <g id="top-bar_show">
                <path d="M284.982113,48.2825585 C284.732724,47.2976285 284.100446,46.4948821 283.272045,46.0212197 C283.812506,45.5301031 284.153363,44.8164259 284.153363,44.0233055 C284.153363,42.5458543 282.970899,41.3435513 281.517643,41.3435513 C280.064387,41.3435513 278.882107,42.5458543 278.882107,44.0233055 C278.882107,44.8164259 279.222927,45.5301218 279.763351,46.0212384 C279.435627,46.2086471 279.138625,46.4475945 278.883876,46.728979 C278.426704,45.3953757 277.446515,44.3090161 276.194207,43.7251597 C277.136804,43.0488631 277.753702,41.9331384 277.753702,40.6736221 C277.753702,40.3565987 277.500924,40.0993917 277.188947,40.0993917 C276.876971,40.0993917 276.624192,40.3565987 276.624192,40.6736221 C276.624192,42.0983546 275.484202,43.2576588 274.082795,43.2576588 C272.681388,43.2576588 271.541398,42.0983547 271.541398,40.6736221 C271.541398,39.2488895 272.681388,38.0895854 274.082795,38.0895854 C274.394771,38.0895854 274.64755,37.8323784 274.64755,37.515355 C274.64755,37.1983316 274.394771,36.9411246 274.082795,36.9411246 C272.058724,36.9411246 270.411888,38.6155918 270.411888,40.6736221 C270.411888,41.9331384 271.028786,43.048863 271.971383,43.7251597 C270.219725,44.5418021 269,46.341483 269,48.4257509 C269,48.7427743 269.252779,48.9999813 269.564755,48.9999813 C269.876731,48.9999813 270.12951,48.7427743 270.12951,48.4257509 C270.12951,46.2092089 271.903012,44.4061383 274.082795,44.4061383 C276.261159,44.4061383 278.033722,46.2068679 278.036043,48.4214248 C278.035914,48.4420441 278.036854,48.4625322 278.03888,48.4827769 C278.067042,48.7730384 278.307811,48.9999813 278.600853,48.9999813 C278.868091,48.9999813 279.091749,48.8111868 279.150431,48.5577816 C279.43198,47.465167 280.403881,46.7030598 281.517661,46.7030598 C282.635402,46.7030598 283.609937,47.4702047 283.887912,48.5689433 C283.953722,48.828023 284.183164,49 284.434654,49 C284.481345,49 284.528405,48.9944004 284.575833,48.9820588 C284.877698,48.9027655 285.059693,48.5898622 284.982113,48.2825585 Z M281.517643,45.5545803 C280.687235,45.5545803 280.011636,44.8678148 280.011636,44.0233055 C280.011636,43.1787962 280.687253,42.492012 281.517643,42.492012 C282.348235,42.492012 283.023853,43.1787775 283.023853,44.0233055 C283.023853,44.8678336 282.348235,45.5545803 281.517643,45.5545803 Z M279.165516,36.5983506 C279.165516,36.2812119 279.418366,36.0241202 279.730271,36.0241202 C280.042177,36.0241202 280.295026,36.2812119 280.295026,36.5983506 C280.295026,36.9154892 280.042177,37.1725809 279.730271,37.1725809 C279.418366,37.1725809 279.165516,36.9154892 279.165516,36.5983506 Z M276.718257,36.5983506 C276.718257,36.2812119 276.971106,36.0241202 277.283012,36.0241202 C277.594917,36.0241202 277.847767,36.2812119 277.847767,36.5983506 C277.847767,36.9154892 277.594917,37.1725809 277.283012,37.1725809 C276.971106,37.1725809 276.718257,36.9154892 276.718257,36.5983506 Z M281.612794,36.5983506 C281.612794,36.2812119 281.865644,36.0241202 282.177549,36.0241202 C282.489455,36.0241202 282.742304,36.2812119 282.742304,36.5983506 C282.742304,36.9154892 282.489455,37.1725809 282.177549,37.1725809 C281.865644,37.1725809 281.612794,36.9154892 281.612794,36.5983506 Z M278.314055,40.041448 L279.442644,41.3992663 C279.514164,41.4852455 279.619317,41.5349676 279.730179,41.5349676 C279.841042,41.5349676 279.946194,41.4852455 280.017696,41.3992663 L281.146469,40.0418226 C283.201244,39.5887233 284.624716,38.187157 284.624716,36.5982944 C284.624716,34.6142762 282.429112,33 279.730161,33 C277.031209,33 274.835605,34.6142762 274.835605,36.5982944 C274.835624,38.187157 276.259096,39.5887046 278.314055,40.041448 Z M279.730179,33.7656468 C282.013843,33.7656468 283.871722,35.0363623 283.871722,36.5982944 C283.871722,37.8491959 282.637796,38.9673739 280.870906,39.3176766 C280.786898,39.3344941 280.710774,39.3797403 280.655444,39.44628 L279.730179,40.559233 L278.805099,39.44628 C278.749769,39.3797403 278.673828,39.3344941 278.589636,39.3176766 C276.822746,38.9673739 275.588636,37.8491959 275.588636,36.5982944 C275.588636,35.0363623 277.446515,33.7656468 279.730179,33.7656468 Z" id="btn_chat"></path>
            </g>
        </g>
    </g>
</svg>