<?xml version="1.0" encoding="UTF-8"?>
<svg width="15px" height="16px" viewBox="0 0 15 16" version="1.1" xmlns="http://www.w3.org/2000/svg" xmlns:xlink="http://www.w3.org/1999/xlink">
    <!-- Generator: Sketch 49.3 (51167) - http://www.bohemiancoding.com/sketch -->
    <title>btn_service</title>
    <desc>Created with Sketch.</desc>
    <defs>
        <linearGradient x1="100%" y1="0%" x2="0%" y2="100%" id="linearGradient-1">
            <stop stop-color="#20E2D7" offset="0%"></stop>
            <stop stop-color="#F9FEA5" offset="100%"></stop>
        </linearGradient>
    </defs>
    <g id="Page-1" stroke="none" stroke-width="1" fill="none" fill-rule="evenodd">
        <g id="我要租房_07房源详情_00" transform="translate(-232.000000, -33.000000)" fill="#FFFFFF" fill-rule="nonzero">
            <g id="top-bar_show">
                <path d="M240.494878,46.0004324 C239.439782,46.8484128 238.628834,46.1178378 238.537679,46.0293661 C238.371258,45.8655135 238.109212,45.8705848 237.950121,46.0420442 C237.790216,46.2139165 237.795083,46.4875676 237.960708,46.6535233 C238.243095,46.9362555 238.798929,47.2696609 239.4809,47.2696609 C239.945995,47.2696609 240.469272,47.1148894 241.005144,46.6841474 C241.187038,46.537828 241.22039,46.2662801 241.079614,46.0775233 C240.938401,45.8887273 240.676356,45.8543096 240.494878,46.0004324 Z M236.583339,41.4324324 C236.238282,41.4324324 235.958338,41.7227518 235.958338,42.0810811 L235.958338,42.945946 C235.958338,43.3042555 236.238282,43.5945946 236.583339,43.5945946 C236.928396,43.5945946 237.20834,43.3042555 237.20834,42.945946 L237.20834,42.0810811 C237.20834,41.7227715 236.928396,41.4324324 236.583339,41.4324324 Z M242.000013,41.4324324 C242.34507,41.4324324 242.625013,41.7227715 242.625013,42.0810811 L242.625013,42.945946 C242.625013,43.3042555 242.34507,43.5945946 242.000013,43.5945946 C241.654955,43.5945946 241.375012,43.3042555 241.375012,42.945946 L241.375012,42.0810811 C241.375012,41.7227518 241.654955,41.4324324 242.000013,41.4324324 Z M246.166685,39.9189189 C246.625,39.9189189 247.000019,40.3080884 247,40.7837838 L247,43.8108108 C247,44.2864668 246.624981,44.6756757 246.166666,44.6756757 L245.749998,44.6756757 C245.658919,44.6756757 245.572669,44.6565307 245.490453,44.6281671 C245.172005,46.3301622 243.688575,47.6879017 241.080996,48.6725111 C240.972758,48.8669287 240.772473,49 240.541677,49 L238.458341,49 C238.114591,49 237.833341,48.7081081 237.833341,48.3513513 C237.833341,47.9945946 238.114591,47.7027027 238.458341,47.7027027 L240.541677,47.7027027 C240.831072,47.7027027 241.073951,47.9105258 241.144216,48.188855 C243.574087,47.2308993 244.904183,45.9423096 245.10782,44.3542015 C244.990282,44.2050516 244.916683,44.0173759 244.916683,43.8108108 L244.916683,40.7837838 C244.916683,40.609828 244.967744,40.4480197 245.053785,40.3120197 C243.267893,40.0205405 241.432796,38.5166781 240.744405,37.8994005 C239.626657,39.4419066 237.352886,41.8976315 234.10612,42.0804521 C234.098532,42.080868 234.090935,42.0810777 234.083336,42.0810811 L234.083336,43.8108108 C234.083336,44.2864668 233.708317,44.6756757 233.250002,44.6756757 L232.833334,44.6756757 C232.375019,44.6756757 232,44.2864668 232,43.8108108 L232,40.7837838 C232,40.3080885 232.375019,39.9189189 232.833334,39.9189189 C232.833334,36.2331007 235.948566,33 239.500009,33 C243.051453,33 246.166685,36.2331007 246.166685,39.9189189 Z M241.366868,36.0802359 C241.568686,36.1948894 241.642758,36.4575528 241.532076,36.667027 C241.512152,36.7048845 241.408421,36.8975528 241.226716,37.1869288 C241.810259,37.7152629 243.660829,39.2788206 245.310282,39.4783096 C245.076039,36.4409828 242.464767,33.8648649 239.500009,33.8648649 C236.392506,33.8648649 233.666669,36.6938378 233.666669,39.9189189 C233.666669,39.9575627 233.654661,39.9921769 233.645513,40.0278133 C233.904586,40.1749189 234.083336,40.4572383 234.083336,40.7837838 L234.083336,41.2147813 C238.26872,40.962516 240.776507,36.2988895 240.80128,36.2518919 C240.911545,36.0422211 241.165049,35.9653661 241.366868,36.0802359 Z" id="btn_service"></path>
            </g>
        </g>
    </g>
</svg>