<?xml version="1.0" encoding="UTF-8"?>
<svg width="16px" height="14px" viewBox="0 0 16 14" version="1.1" xmlns="http://www.w3.org/2000/svg" xmlns:xlink="http://www.w3.org/1999/xlink">
    <!-- Generator: Sketch 49.3 (51167) - http://www.bohemiancoding.com/sketch -->
    <title>btn_cellection</title>
    <desc>Created with Sketch.</desc>
    <defs>
        <linearGradient x1="100%" y1="0%" x2="0%" y2="100%" id="linearGradient-1">
            <stop stop-color="#20E2D7" offset="0%"></stop>
            <stop stop-color="#F9FEA5" offset="100%"></stop>
        </linearGradient>
    </defs>
    <g id="Page-1" stroke="none" stroke-width="1" fill="none" fill-rule="evenodd">
        <g id="我要租房_07房源详情_00" transform="translate(-307.000000, -34.000000)" fill="#FFFFFF" fill-rule="nonzero">
            <g id="top-bar_show">
                <path d="M315.006101,47.9999649 C315.002546,47.9999883 314.99899,48 314.995433,48 C314.642554,48 314.310764,47.8930403 314.035814,47.6908396 C314.025664,47.6837019 313.999161,47.6655912 313.960366,47.6389578 C312.429419,46.5867259 309.662325,44.5264736 308.331557,42.5491044 C307.768124,41.7189949 307,40.5875021 307,38.9756495 C307,36.232091 309.201518,34 311.9076,34 C313.087924,34 314.126374,34.4259211 315.004004,35.2680689 C315.874867,34.4356157 316.932489,34 318.10176,34 C320.802654,34 323,36.232091 323,38.9756495 C323,39.7565262 322.819745,40.424677 322.570119,41 L321.07628,41 C321.39615,40.4303683 321.646564,39.7800421 321.646564,38.9755429 C321.646564,36.9369169 320.056297,35.2782961 318.101647,35.2782961 C317.095452,35.2782961 316.260451,35.7204103 315.548716,36.6301003 L315.007838,37.321503 L314.462787,36.6330832 C313.741015,35.7215822 312.905225,35.2784026 311.9076,35.2784026 C309.947763,35.2784026 308.353323,36.9370234 308.353323,38.9756495 C308.353323,40.2128236 308.945515,41.0853334 309.468123,41.8550383 C310.357933,43.1771196 312.283373,44.90552 314.756458,46.6050497 C314.814877,46.6452128 314.852544,46.6713136 314.86698,46.6820735 C314.879872,46.6915784 314.893032,46.699782 314.908114,46.7062129 L315.006101,46.7749407 L315.006101,47.9999649 Z M316.016569,41.875 L317.352941,41.875 L317.352941,43.1834785 L316.016569,43.1834785 L316.016569,41.875 Z M318.294118,41.875 L323,41.875 L323,43.1834785 L318.294118,43.1834785 L318.294118,41.875 Z M316.016569,44.2564623 L317.352941,44.2564623 L317.352941,45.5649408 L316.016569,45.5649408 L316.016569,44.2564623 Z M318.294118,44.2564623 L323,44.2564623 L323,45.5649408 L318.294118,45.5649408 L318.294118,44.2564623 Z M316.016569,46.6850987 L317.352941,46.6850987 L317.352941,47.9935773 L316.016569,47.9935773 L316.016569,46.6850987 Z M318.294118,46.6850987 L323,46.6850987 L323,47.9935773 L318.294118,47.9935773 L318.294118,46.6850987 Z" id="btn_cellection"></path>
            </g>
        </g>
    </g>
</svg>