<?xml version="1.0" encoding="UTF-8"?>
<svg width="24px" height="56px" viewBox="0 0 24 56" version="1.1" xmlns="http://www.w3.org/2000/svg" xmlns:xlink="http://www.w3.org/1999/xlink">
    <!-- Generator: Sketch 49.3 (51167) - http://www.bohemiancoding.com/sketch -->
    <title>履约中</title>
    <desc>Created with Sketch.</desc>
    <defs>
        <linearGradient x1="0%" y1="50%" x2="100%" y2="50%" id="linearGradient-1">
            <stop stop-color="#FFAB42" offset="0%"></stop>
            <stop stop-color="#FF8200" offset="100%"></stop>
        </linearGradient>
    </defs>
    <g id="Page-1" stroke="none" stroke-width="1" fill="none" fill-rule="evenodd">
        <g id="租户_合同管理_03已签约详情" transform="translate(-331.000000, -74.000000)">
            <g id="电子合同" transform="translate(8.000000, 74.000000)">
                <g id="履约中" transform="translate(323.000000, 0.000000)">
                    <path d="M-11.5084556,18.1794589 C-11.8122744,18.1794589 -12.1160932,18.3304023 -12.419912,18.4813457 C-13.0275495,18.9341759 -13.3313683,19.8398363 -12.8756401,20.4436099 L-7.10308331,29.3492702 C-6.79926454,29.8021004 -6.79926454,30.405874 -7.10308331,31.0096476 L-12.8756401,39.915308 C-13.0275495,40.2171948 -13.1794589,40.3681382 -13.1794589,40.6700249 C-13.1794589,41.5756853 -12.5718213,42.1794589 -11.660365,42.1794589 L37.1794589,42.1794589 L37.1794589,18.1794589 L-11.5084556,18.1794589 Z" id="Shape" fill="url(#linearGradient-1)" fill-rule="nonzero" transform="translate(12.000000, 30.179459) rotate(-90.000000) translate(-12.000000, -30.179459) "></path>
                    <path d="M7,9 L16.8931384,9 L16.904387,10.2587413 L15.1777278,11.0064551 L8.62542182,11.0118343 L8.62542182,17.4238838 L8.61979753,18.1500807 L7,19 L7,9 Z M8.62542182,9.74233459 L8.62542182,10.2318451 L15.0033746,10.2264658 L15.0089989,9.74233459 L8.62542182,9.74233459 Z M10.1608549,13.1850457 L8.81664792,13.1850457 L9.81777278,11.2162453 L11.0944882,11.2162453 L10.1608549,13.1850457 Z M11.015748,13.2872512 L10.6726659,14.2339968 L10.6726659,18.5320065 L9.41844769,19 L9.41844769,15.4981173 L8.81102362,15.4981173 L9.75590551,13.2872512 L11.015748,13.2872512 Z M12.8436445,17.7789134 L11.8087739,17.2409898 L13.8166479,17.2409898 L14.5309336,16.8536848 L12.4611924,16.8536848 L12.2699663,17.1226466 L10.7457818,17.1226466 L11.5950506,15.8854223 L13.0742407,15.8854223 L12.9505062,16.0736955 L16.8931384,16.0736955 L16.8931384,16.7568585 L15.0539933,17.7789134 L17,18.7740721 L14.7671541,18.7740721 L14.0022497,18.3813878 L13.2823397,18.7740721 L11.0382452,18.7740721 L12.8436445,17.7789134 Z M11.3588301,15.8047337 L11.3588301,12.6686391 L16.8931384,12.6686391 L16.8931384,14.9171598 L15.8245219,15.8047337 L11.3588301,15.8047337 Z M12.6974128,13.8574502 L15.3127109,13.8574502 L14.9471316,14.648198 L12.6974128,14.648198 L12.6974128,15.0193653 L15.56018,15.0193653 L15.56018,13.4701452 L12.6974128,13.4701452 L12.6974128,13.8574502 Z M10.9820022,12.6202259 L11.3925759,11.2162453 L12.5793026,11.2162453 L12.4836895,11.4744486 L16.9325084,11.4744486 L16.5163105,12.3243679 L12.2755906,12.3243679 L12.1856018,12.6202259 L10.9820022,12.6202259 Z" id="履" fill="#FFFFFF"></path>
                    <path d="M12.6550218,31 L12.6550218,29.8092672 L15.3679039,29.8092672 L15.3679039,22.9719828 L13.5611354,22.9719828 L13.3209607,23.4622845 L11.4213974,23.4622845 L12.5240175,21 L14.3471616,21 L14.0251092,21.7273707 L17,21.7273707 L17,29.669181 L15.3679039,31 L12.6550218,31 Z M10.4224891,21.1293103 L8.63755459,24.4213362 L8.92139738,24.4213362 L9.63646288,23.1928879 L11.459607,23.1928879 L9.06877729,27.6594828 L11.5578603,27.6594828 L10.930131,28.9471983 L7.03820961,28.9471983 L7.03820961,27.71875 L8.31550218,25.6336207 L7,25.6336207 L7,24.0980603 L8.49563319,21.1293103 L10.4224891,21.1293103 Z M11.5196507,29.75 L10.8755459,31 L7.0709607,31 L7.0709607,29.75 L11.5196507,29.75 Z M13.1299127,24.8954741 C13.3264202,24.8954741 13.5238345,24.946659 13.7221616,25.0490302 C13.9204886,25.1514014 14.0742353,25.297772 14.1834061,25.4881466 C14.292577,25.6785211 14.3471616,25.8814644 14.3471616,26.0969828 C14.3435225,26.316093 14.2898477,26.5163425 14.1861354,26.6977371 C14.0824231,26.8791317 13.9332251,27.0255023 13.7385371,27.1368534 C13.5438491,27.2482046 13.3409763,27.3020834 13.1299127,27.2984914 C12.91521,27.2984914 12.7132469,27.2437146 12.5240175,27.1341595 C12.334788,27.0246043 12.1864998,26.8782337 12.0791485,26.6950431 C11.9717971,26.5118525 11.9172125,26.3133991 11.915393,26.0996767 C11.9135735,25.8859544 11.9690678,25.683909 12.0818777,25.4935345 C12.1946876,25.299568 12.3475245,25.1522994 12.540393,25.0517241 C12.7332615,24.9511489 12.9297661,24.8990661 13.1299127,24.8954741 Z" id="约" fill="#FFFFFF"></path>
                    <path d="M11.0831025,33.7615546 L11.0831025,33 L12.8393352,33 L12.8393352,33.7615546 L17,33.7615546 L16.9944598,40.5 L15.7756233,41.9128151 L12.8393352,41.907563 L12.8393352,42.2857143 L11.0831025,43 L11.0831025,41.907563 L7,41.907563 L7,33.7615546 L11.0831025,33.7615546 Z M11.0831025,35.0535714 L8.76177285,35.0535714 L8.76177285,40.5997899 L11.0831025,40.5997899 L11.0831025,35.0535714 Z M12.8393352,40.5997899 L15.2382271,40.605042 L15.2271468,35.0535714 L12.8393352,35.0535714 L12.8393352,40.5997899 Z" id="中" fill="#FFFFFF"></path>
                    <rect id="Rectangle" fill="#FFCC01" transform="translate(12.000000, 1.500000) rotate(-90.000000) translate(-12.000000, -1.500000) " x="10.5" y="-10.5" width="3" height="24" rx="0.5"></rect>
                </g>
            </g>
        </g>
    </g>
</svg>